<?xml version="1.0" encoding="UTF-8" standalone="no"?>
<!-- Generator: Adobe Illustrator 15.1.0, SVG Export Plug-In . SVG Version: 6.00 Build 0)  -->

<svg
   xmlns:dc="http://purl.org/dc/elements/1.1/"
   xmlns:cc="http://creativecommons.org/ns#"
   xmlns:rdf="http://www.w3.org/1999/02/22-rdf-syntax-ns#"
   xmlns:svg="http://www.w3.org/2000/svg"
   xmlns="http://www.w3.org/2000/svg"
   xmlns:sodipodi="http://sodipodi.sourceforge.net/DTD/sodipodi-0.dtd"
   xmlns:inkscape="http://www.inkscape.org/namespaces/inkscape"
   version="1.1"
   id="flash0.ai"
   x="0px"
   y="0px"
   width="256"
   height="256"
   viewBox="0 0 255.99999 256.00002"
   xml:space="preserve"
   sodipodi:docname="black_pepper.svg"
   inkscape:version="0.92.4 (5da689c313, 2019-01-14)"
   inkscape:export-xdpi="9"
   inkscape:export-ydpi="9"><title
   id="title900">Black Pepper</title><metadata
   id="metadata183"><rdf:RDF><cc:Work
       rdf:about=""><dc:format>image/svg+xml</dc:format><dc:type
         rdf:resource="http://purl.org/dc/dcmitype/StillImage" /><dc:title>Black Pepper</dc:title><cc:license
         rdf:resource="http://creativecommons.org/publicdomain/zero/1.0/" /><dc:creator><cc:Agent><dc:title>Glitch</dc:title></cc:Agent></dc:creator><dc:source>https://opengameart.org/node/20149</dc:source></cc:Work><cc:License
       rdf:about="http://creativecommons.org/publicdomain/zero/1.0/"><cc:permits
         rdf:resource="http://creativecommons.org/ns#Reproduction" /><cc:permits
         rdf:resource="http://creativecommons.org/ns#Distribution" /><cc:permits
         rdf:resource="http://creativecommons.org/ns#DerivativeWorks" /></cc:License></rdf:RDF></metadata><defs
   id="defs181" /><sodipodi:namedview
   pagecolor="#ffffff"
   bordercolor="#666666"
   borderopacity="1"
   objecttolerance="10"
   gridtolerance="10"
   guidetolerance="10"
   inkscape:pageopacity="0"
   inkscape:pageshadow="2"
   inkscape:window-width="1920"
   inkscape:window-height="1025"
   id="namedview179"
   showgrid="false"
   inkscape:zoom="0.78281303"
   inkscape:cx="-110.06252"
   inkscape:cy="48.817349"
   inkscape:window-x="-8"
   inkscape:window-y="-8"
   inkscape:window-maximized="1"
   inkscape:current-layer="flash0.ai"
   fit-margin-top="0"
   fit-margin-left="0"
   fit-margin-right="0"
   fit-margin-bottom="0" />























































































<g
   id="g1078"
   transform="matrix(5.5880269,0,0,5.5880269,0.03136443,77.967754)"><path
     id="path2"
     d="m 41.3,8.35 c 0.267,0.1 0.5,0.217 0.7,0.35 1.1,-0.367 1.533,-0.15 1.3,0.65 -0.233,0.833 -1,1.067 -2.3,0.7 0.2,0.566 -0.1,0.95 -0.9,1.15 -0.533,0.1 -0.883,0.05 -1.05,-0.15 l 0.05,0.15 c -0.033,0.333 -0.366,0.566 -1,0.7 -0.633,0.1 -1.05,0.05 -1.25,-0.15 L 36.7,11.4 c -0.267,0.533 -0.566,0.833 -0.9,0.899 -0.2,0.033 -0.45,-0.033 -0.75,-0.2 l -0.399,-0.25 c -0.101,0.301 -0.417,0.517 -0.95,0.65 -0.333,0.1 -0.617,0.083 -0.85,-0.05 l -0.3,-0.25 -0.7,0.35 c -0.3,0.134 -0.667,0.15 -1.1,0.05 l -0.6,-0.25 c -0.133,0.233 -0.5,0.367 -1.1,0.4 -0.333,0.033 -0.633,-0.017 -0.9,-0.15 L 27.8,12.4 27.5,12.7 c -0.133,0.1 -0.367,0.133 -0.7,0.1 l -0.4,-0.1 c -0.233,0.3 -0.6,0.45 -1.1,0.45 -0.3,0 -0.617,-0.101 -0.95,-0.301 l -0.4,-0.3 -0.3,0.351 c -0.167,0.233 -0.617,0.3 -1.35,0.199 -0.033,0.233 -0.417,0.351 -1.15,0.351 -0.467,0 -0.867,-0.134 -1.2,-0.4 L 19.6,12.6 19.25,13.05 c -0.233,0.267 -0.783,0.267 -1.65,0 -0.267,-0.233 -0.9,-0.333 -1.9,-0.3 -0.633,0.033 -1.133,-0.066 -1.5,-0.3 L 13.85,12.1 13.1,12.5 c -0.5,0.267 -1.083,0.083 -1.75,-0.55 L 10.65,12 C 10.383,12.033 10.133,11.983 9.9,11.85 L 9.6,11.6 c 0,0.167 -0.25,0.233 -0.75,0.2 -0.3,-0.033 -0.533,-0.184 -0.7,-0.45 L 8,10.9 C 7.967,11.099 7.75,11.216 7.35,11.25 7.083,11.283 6.867,11.2 6.7,11 L 6.5,10.65 C 6.2,10.683 5.85,10.516 5.45,10.15 5.183,9.95 5.15,9.716 5.35,9.45 L 5.75,9.1 C 5.65,8.967 5.6,8.817 5.6,8.65 5.567,8.35 5.783,8.183 6.25,8.15 6.983,8.083 7.5,8.233 7.8,8.6 7.834,8.433 7.883,8.267 7.95,8.1 8.117,7.733 8.383,7.5 8.75,7.4 c 0.6,-0.133 1.1,-0.167 1.5,-0.1 0.033,-0.1 0.067,-0.2 0.1,-0.3 0.133,-0.267 0.3,-0.483 0.5,-0.65 0.367,-0.267 0.867,-0.317 1.5,-0.15 l 0.3,-0.8 C 12.85,4.867 13.233,4.717 13.8,4.95 13.767,4.883 13.767,4.8 13.8,4.7 13.867,4.5 14.05,4.333 14.35,4.2 14.85,3.967 15.567,3.933 16.5,4.1 l 0.3,-0.55 c 0.267,-0.367 0.517,-0.617 0.75,-0.75 0.367,-0.167 0.767,-0.183 1.2,-0.05 0,-0.1 0.017,-0.2 0.05,-0.3 0.1,-0.267 0.3,-0.483 0.6,-0.65 0.434,-0.267 0.934,-0.283 1.5,-0.05 0,-0.167 0.033,-0.333 0.1,-0.5 0.133,-0.333 0.367,-0.517 0.7,-0.55 0.533,-0.034 1.033,0.167 1.5,0.6 C 23.133,1.234 23.117,1.15 23.15,1.05 23.183,0.883 23.4,0.767 23.8,0.7 24.433,0.6 24.933,0.783 25.3,1.25 L 25.4,1 C 25.533,0.833 25.733,0.783 26,0.85 26.4,0.983 26.8,1.3 27.2,1.8 l 0.6,0.05 c 0.4,0.066 0.684,0.167 0.85,0.3 0.333,0.233 0.583,0.567 0.75,1 L 29.9,3.1 c 0.4,0.033 0.667,0.167 0.8,0.4 0.233,0.4 0.466,0.7 0.7,0.9 l 0.45,-0.15 c 0.367,-0.067 0.683,0 0.95,0.2 0.467,0.333 0.4,0.583 -0.2,0.75 l 1.75,0.05 c 0.7,-0.033 1.384,0.467 2.051,1.5 L 36.6,6.55 c 0.233,-0.133 0.551,-0.1 0.95,0.1 0.667,0.267 0.834,0.55 0.5,0.85 l 0.4,-0.1 c 0.333,-0.1 0.684,-0.133 1.05,-0.1 0.533,0.067 0.85,0.367 0.95,0.9 0.1,-0.1 0.383,-0.05 0.85,0.15 z"
     style="clip-rule:evenodd;fill:#1f1810;fill-rule:evenodd"
     inkscape:connector-curvature="0" /><path
     id="path4"
     d="m 35.1,6.9 c 0.733,0.6 0.851,1.184 0.351,1.75 -0.533,0.533 -1,0.45 -1.4,-0.25 -0.333,-0.667 -0.333,-1.167 0,-1.5 0.299,-0.3 0.649,-0.3 1.049,0 z"
     style="clip-rule:evenodd;fill:#332612;fill-rule:evenodd"
     inkscape:connector-curvature="0" /><path
     id="path6"
     d="m 27.6,2.85 c 0.867,0.667 1,1.316 0.4,1.95 -0.567,0.667 -1.083,0.617 -1.55,-0.15 -0.367,-0.633 -0.367,-1.167 0,-1.6 0.367,-0.4 0.75,-0.467 1.15,-0.2 z"
     style="clip-rule:evenodd;fill:#332612;fill-rule:evenodd"
     inkscape:connector-curvature="0" /><path
     id="path8"
     d="m 26.7,6.55 c 1.1,0.067 1.5,0.6 1.2,1.6 -0.267,1.033 -0.717,1.4 -1.35,1.1 C 26.05,8.983 25.834,8.467 25.9,7.7 25.967,6.933 26.233,6.55 26.7,6.55 Z"
     style="clip-rule:evenodd;fill:#332612;fill-rule:evenodd"
     inkscape:connector-curvature="0" /><path
     id="path10"
     d="m 29.9,9.35 c 0.6,0.333 0.883,0.8 0.85,1.4 -0.067,0.634 -0.433,0.833 -1.1,0.6 -0.6,-0.166 -0.783,-0.583 -0.55,-1.25 0.233,-0.7 0.5,-0.95 0.8,-0.75 z"
     style="clip-rule:evenodd;fill:#332612;fill-rule:evenodd"
     inkscape:connector-curvature="0" /><path
     id="path12"
     d="m 23.7,11.45 c 0.733,0.033 1.083,0.399 1.05,1.1 -0.033,0.701 -0.333,1.05 -0.9,1.05 -0.533,0 -0.85,-0.366 -0.95,-1.1 -0.067,-0.733 0.2,-1.083 0.8,-1.05 z"
     style="clip-rule:evenodd;fill:#332612;fill-rule:evenodd"
     inkscape:connector-curvature="0" /><path
     id="path14"
     d="m 17.45,10 c 0.566,0.233 0.733,0.7 0.5,1.4 -0.233,0.666 -0.583,0.767 -1.05,0.3 -0.4,-0.434 -0.467,-0.867 -0.2,-1.3 0.233,-0.4 0.483,-0.533 0.75,-0.4 z"
     style="clip-rule:evenodd;fill:#332612;fill-rule:evenodd"
     inkscape:connector-curvature="0" /><path
     id="path16"
     d="m 11.1,10.7 c 0.633,0.267 0.783,0.733 0.45,1.399 -0.333,0.634 -0.75,0.851 -1.25,0.65 -0.433,-0.2 -0.5,-0.634 -0.2,-1.3 0.3,-0.633 0.633,-0.883 1,-0.749 z"
     style="clip-rule:evenodd;fill:#332612;fill-rule:evenodd"
     inkscape:connector-curvature="0" /><path
     id="path18"
     d="M 6.4,9.85 C 7.033,10.017 7.233,10.333 7,10.8 6.8,11.3 6.5,11.484 6.1,11.35 5.767,11.25 5.633,10.951 5.7,10.451 5.767,9.983 6,9.783 6.4,9.85 Z"
     style="clip-rule:evenodd;fill:#332612;fill-rule:evenodd"
     inkscape:connector-curvature="0" /><path
     id="path20"
     d="m 16.15,5.95 c 0.667,0.1 0.8,0.466 0.4,1.1 -0.433,0.633 -0.833,0.833 -1.2,0.6 C 14.983,7.383 14.867,7.017 15,6.55 c 0.167,-0.5 0.55,-0.7 1.15,-0.6 z"
     style="clip-rule:evenodd;fill:#332612;fill-rule:evenodd"
     inkscape:connector-curvature="0" /><path
     id="path22"
     d="m 34.55,10.5 c 0.733,0 1.066,0.35 1,1.05 -0.033,0.7 -0.366,1.017 -1,0.95 -0.6,-0.033 -0.867,-0.384 -0.8,-1.05 0.033,-0.634 0.3,-0.95 0.8,-0.95 z"
     style="clip-rule:evenodd;fill:#332612;fill-rule:evenodd"
     inkscape:connector-curvature="0" /><path
     id="path24"
     d="m 38.75,9.45 c 0.366,0.566 0.434,1.017 0.2,1.35 -0.233,0.334 -0.617,0.45 -1.15,0.351 -0.566,-0.101 -0.649,-0.601 -0.25,-1.5 0.334,-0.834 0.733,-0.901 1.2,-0.201 z"
     style="clip-rule:evenodd;fill:#332612;fill-rule:evenodd"
     inkscape:connector-curvature="0" /><path
     id="path26"
     d="M 39.95,8.9 C 39.616,8.567 39.533,8.2 39.7,7.8 c 0.166,-0.367 0.416,-0.383 0.75,-0.05 0.267,0.267 0.333,0.6 0.2,1 -0.167,0.4 -0.4,0.45 -0.7,0.15 z"
     style="clip-rule:evenodd;fill:#332612;fill-rule:evenodd"
     inkscape:connector-curvature="0" /><path
     id="path28"
     d="m 41.9,9.65 c 0.433,0.2 0.5,0.55 0.199,1.05 -0.333,0.467 -0.683,0.649 -1.05,0.55 -0.399,-0.1 -0.467,-0.45 -0.2,-1.05 0.267,-0.567 0.618,-0.75 1.051,-0.55 z"
     style="clip-rule:evenodd;fill:#332612;fill-rule:evenodd"
     inkscape:connector-curvature="0" /><path
     id="path30"
     d="m 31.45,5.2 c 0.466,0.1 0.633,0.466 0.5,1.1 -0.167,0.633 -0.467,0.8 -0.9,0.5 C 30.65,6.5 30.567,6.133 30.8,5.7 31.033,5.3 31.25,5.133 31.45,5.2 Z"
     style="clip-rule:evenodd;fill:#332612;fill-rule:evenodd"
     inkscape:connector-curvature="0" /><path
     id="path32"
     d="m 29.1,5.6 c 0.7,0.3 0.933,0.7 0.7,1.2 C 29.533,7.267 29.183,7.4 28.75,7.2 28.483,7.067 28.467,6.766 28.7,6.3 Z"
     style="clip-rule:evenodd;fill:#332612;fill-rule:evenodd"
     inkscape:connector-curvature="0" /><path
     id="path34"
     d="M 24.05,5.4 C 24.917,5.733 25.1,6.233 24.6,6.9 24.1,7.533 23.666,7.783 23.3,7.65 23.033,7.55 23,7.117 23.2,6.35 23.4,5.583 23.683,5.267 24.05,5.4 Z"
     style="clip-rule:evenodd;fill:#332612;fill-rule:evenodd"
     inkscape:connector-curvature="0" /><path
     id="path36"
     d="m 19.95,7.55 c 1.033,-0.1 1.433,0.317 1.2,1.25 -0.233,0.934 -0.6,1.4 -1.1,1.4 -0.333,0 -0.5,-0.434 -0.5,-1.3 0.033,-0.9 0.167,-1.35 0.4,-1.35 z"
     style="clip-rule:evenodd;fill:#332612;fill-rule:evenodd"
     inkscape:connector-curvature="0" /><path
     id="path38"
     d="m 13.55,8.25 c 0.333,0.633 0.333,1.133 0,1.5 -0.3,0.4 -0.683,0.4 -1.15,0 C 12,9.383 12.033,8.933 12.5,8.4 13,7.867 13.35,7.817 13.55,8.25 Z"
     style="clip-rule:evenodd;fill:#332612;fill-rule:evenodd"
     inkscape:connector-curvature="0" /><path
     id="path40"
     d="m 21.5,3.6 c 0.8,0.133 0.95,0.55 0.45,1.25 -0.534,0.733 -1,0.95 -1.4,0.65 C 20.183,5.233 20.117,4.833 20.35,4.3 20.617,3.733 21,3.5 21.5,3.6 Z"
     style="clip-rule:evenodd;fill:#332612;fill-rule:evenodd"
     inkscape:connector-curvature="0" /><path
     id="path42"
     d="m 10.55,6.7 c 0.633,0.433 0.717,0.883 0.25,1.35 -0.533,0.5 -0.917,0.5 -1.15,0 -0.2,-0.4 -0.167,-0.767 0.1,-1.1 0.267,-0.367 0.533,-0.45 0.8,-0.25 z"
     style="clip-rule:evenodd;fill:#332612;fill-rule:evenodd"
     inkscape:connector-curvature="0" /><path
     id="path44"
     d="m 13.55,10.85 c 0.8,0.134 1,0.634 0.6,1.5 -0.4,0.9 -0.816,1.101 -1.25,0.601 -0.367,-0.434 -0.45,-0.917 -0.25,-1.45 0.233,-0.501 0.533,-0.718 0.9,-0.651 z"
     style="clip-rule:evenodd;fill:#332612;fill-rule:evenodd"
     inkscape:connector-curvature="0" /><path
     id="path46"
     d="m 19.8,12 c 0.6,0.2 0.8,0.55 0.6,1.05 -0.2,0.5 -0.533,0.65 -1,0.45 -0.433,-0.2 -0.55,-0.533 -0.35,-1 0.2,-0.434 0.45,-0.6 0.75,-0.5 z"
     style="clip-rule:evenodd;fill:#332612;fill-rule:evenodd"
     inkscape:connector-curvature="0" /><path
     id="path48"
     d="m 18,5.4 c 1.067,0.033 1.483,0.417 1.25,1.15 -0.233,0.7 -0.667,0.983 -1.3,0.85 C 17.45,7.3 17.233,6.933 17.3,6.3 17.367,5.667 17.6,5.367 18,5.4 Z"
     style="clip-rule:evenodd;fill:#332612;fill-rule:evenodd"
     inkscape:connector-curvature="0" /><path
     id="path50"
     d="M 19.15,2.45 C 19.917,2.483 20.1,2.783 19.7,3.35 19.266,3.916 18.9,4.1 18.6,3.9 18.333,3.733 18.267,3.45 18.4,3.05 18.533,2.617 18.783,2.417 19.15,2.45 Z"
     style="clip-rule:evenodd;fill:#332612;fill-rule:evenodd"
     inkscape:connector-curvature="0" /><path
     id="path52"
     d="m 24.05,2.65 c 0.867,0.133 1.083,0.5 0.65,1.1 -0.467,0.633 -0.833,0.833 -1.1,0.6 -0.167,-0.2 -0.2,-0.533 -0.1,-1 0.1,-0.5 0.283,-0.733 0.55,-0.7 z"
     style="clip-rule:evenodd;fill:#332612;fill-rule:evenodd"
     inkscape:connector-curvature="0" /><path
     id="path54"
     d="m 29.8,3.6 c 0.633,0.433 0.733,0.85 0.3,1.25 -0.467,0.467 -0.783,0.467 -0.95,0 -0.1,-0.367 -0.083,-0.7 0.05,-1 0.167,-0.333 0.367,-0.417 0.6,-0.25 z"
     style="clip-rule:evenodd;fill:#332612;fill-rule:evenodd"
     inkscape:connector-curvature="0" /><path
     id="path56"
     d="m 27.6,10 c 0.767,0.434 0.883,0.95 0.35,1.55 -0.6,0.634 -1.1,0.684 -1.5,0.15 -0.333,-0.467 -0.333,-0.934 0,-1.4 C 26.817,9.833 27.2,9.733 27.6,10 Z"
     style="clip-rule:evenodd;fill:#332612;fill-rule:evenodd"
     inkscape:connector-curvature="0" /><path
     id="path58"
     d="m 17.2,7.4 c 0.767,0.4 0.917,1 0.45,1.8 -0.467,0.833 -0.933,1.133 -1.4,0.899 C 15.783,9.866 15.683,9.283 15.95,8.349 16.217,7.417 16.633,7.1 17.2,7.4 Z"
     style="clip-rule:evenodd;fill:#423523;fill-rule:evenodd"
     inkscape:connector-curvature="0" /><path
     id="path60"
     d="m 14.2,8.8 c 1.133,0.1 1.583,0.617 1.35,1.55 -0.267,1 -0.716,1.334 -1.35,1 -0.5,-0.267 -0.7,-0.767 -0.6,-1.5 0.067,-0.733 0.267,-1.083 0.6,-1.05 z"
     style="clip-rule:evenodd;fill:#423523;fill-rule:evenodd"
     inkscape:connector-curvature="0" /><path
     id="path62"
     d="m 9.8,8.9 c 0.467,-0.333 0.717,-0.033 0.75,0.9 0.034,0.934 -0.233,1.351 -0.8,1.25 -0.5,-0.1 -0.7,-0.434 -0.6,-1 C 9.25,9.55 9.467,9.167 9.8,8.9 Z"
     style="clip-rule:evenodd;fill:#423523;fill-rule:evenodd"
     inkscape:connector-curvature="0" /><path
     id="path64"
     d="m 15.25,5.1 c 0.667,0.1 0.9,0.533 0.7,1.3 -0.2,0.8 -0.567,1.1 -1.1,0.9 -0.533,-0.133 -0.733,-0.566 -0.6,-1.3 0.133,-0.7 0.467,-1 1,-0.9 z"
     style="clip-rule:evenodd;fill:#423523;fill-rule:evenodd"
     inkscape:connector-curvature="0" /><path
     id="path66"
     d="m 17.15,3.4 c 0.434,-0.233 0.684,0 0.75,0.7 C 18,4.8 17.85,5.166 17.45,5.2 17.083,5.233 16.867,4.967 16.8,4.4 16.767,3.833 16.883,3.5 17.15,3.4 Z"
     style="clip-rule:evenodd;fill:#423523;fill-rule:evenodd"
     inkscape:connector-curvature="0" /><path
     id="path68"
     d="m 25.5,9.65 c 0.7,0 0.933,0.4 0.7,1.2 -0.233,0.834 -0.517,1.184 -0.85,1.051 -0.367,-0.134 -0.583,-0.534 -0.65,-1.2 C 24.633,10 24.9,9.65 25.5,9.65 Z"
     style="clip-rule:evenodd;fill:#423523;fill-rule:evenodd"
     inkscape:connector-curvature="0" /><path
     id="path70"
     d="m 22.8,3.15 c 0.633,0.067 0.867,0.5 0.7,1.3 -0.167,0.8 -0.55,1.083 -1.15,0.85 -0.6,-0.2 -0.8,-0.617 -0.6,-1.25 0.2,-0.633 0.55,-0.933 1.05,-0.9 z"
     style="clip-rule:evenodd;fill:#423523;fill-rule:evenodd"
     inkscape:connector-curvature="0" /><path
     id="path72"
     d="m 21.35,10.6 c 0.867,0.034 1.367,0.434 1.5,1.2 0.133,0.733 -0.2,1.017 -1,0.851 -0.7,-0.167 -1.083,-0.551 -1.15,-1.15 -0.033,-0.635 0.183,-0.935 0.65,-0.901 z"
     style="clip-rule:evenodd;fill:#423523;fill-rule:evenodd"
     inkscape:connector-curvature="0" /><path
     id="path74"
     d="m 16.4,11.7 c 0.567,0.166 0.867,0.55 0.9,1.149 0.034,0.601 -0.35,0.851 -1.15,0.75 -0.8,-0.1 -1.083,-0.483 -0.85,-1.149 0.2,-0.667 0.567,-0.917 1.1,-0.75 z"
     style="clip-rule:evenodd;fill:#423523;fill-rule:evenodd"
     inkscape:connector-curvature="0" /><path
     id="path76"
     d="m 31.95,10.85 c 0.767,-0.133 1.083,0.217 0.95,1.051 -0.167,0.8 -0.517,1.149 -1.05,1.05 -0.467,-0.101 -0.667,-0.467 -0.6,-1.101 0.067,-0.633 0.3,-0.966 0.7,-1 z"
     style="clip-rule:evenodd;fill:#423523;fill-rule:evenodd"
     inkscape:connector-curvature="0" /><path
     id="path78"
     d="M 12.65,5.4 C 13.383,5.433 13.6,5.783 13.3,6.45 13,7.117 12.633,7.333 12.2,7.1 11.8,6.9 11.683,6.567 11.85,6.1 12.017,5.6 12.283,5.367 12.65,5.4 Z"
     style="clip-rule:evenodd;fill:#423523;fill-rule:evenodd"
     inkscape:connector-curvature="0" /><path
     id="path80"
     d="m 8.85,8.15 c 0.3,0 0.433,0.25 0.4,0.75 C 9.217,9.367 9.083,9.65 8.85,9.75 8.617,9.883 8.283,9.817 7.85,9.55 7.35,9.317 7.15,9 7.25,8.6 7.317,8.233 7.483,8.05 7.75,8.05 c 0.167,0 0.533,0.033 1.1,0.1 z"
     style="clip-rule:evenodd;fill:#423523;fill-rule:evenodd"
     inkscape:connector-curvature="0" /><path
     id="path82"
     d="m 23.45,0 c 0.966,0 1.367,0.333 1.2,1 C 24.517,1.667 24.167,2 23.6,2 23.166,2 22.933,1.667 22.9,1 22.867,0.333 23.05,0 23.45,0 Z"
     style="clip-rule:evenodd;fill:#423523;fill-rule:evenodd"
     inkscape:connector-curvature="0" /><path
     id="path84"
     d="m 27.95,1.25 c 0.367,0.3 0.283,0.633 -0.25,1 C 27.1,2.583 26.75,2.6 26.65,2.3 26.483,1.967 26.5,1.617 26.7,1.25 c 0.267,-0.4 0.683,-0.4 1.25,0 z"
     style="clip-rule:evenodd;fill:#423523;fill-rule:evenodd"
     inkscape:connector-curvature="0" /><path
     id="path86"
     d="M 31.55,3.8 C 32.25,4.367 32.4,4.834 32,5.2 31.567,5.567 31.2,5.6 30.9,5.3 30.633,5.067 30.567,4.683 30.7,4.15 30.867,3.617 31.15,3.5 31.55,3.8 Z"
     style="clip-rule:evenodd;fill:#423523;fill-rule:evenodd"
     inkscape:connector-curvature="0" /><path
     id="path88"
     d="M 35.6,5.75 C 36.267,5.783 36.65,6.2 36.75,7 36.85,7.8 36.616,8.117 36.05,7.95 35.583,7.817 35.317,7.4 35.25,6.7 35.217,6.033 35.333,5.717 35.6,5.75 Z"
     style="clip-rule:evenodd;fill:#423523;fill-rule:evenodd"
     inkscape:connector-curvature="0" /><path
     id="path90"
     d="m 32.35,6.9 c 0.5,0 0.733,0.35 0.7,1.05 C 33.017,8.617 32.734,8.933 32.2,8.9 31.666,8.867 31.467,8.517 31.6,7.85 31.767,7.217 32.017,6.9 32.35,6.9 Z"
     style="clip-rule:evenodd;fill:#423523;fill-rule:evenodd"
     inkscape:connector-curvature="0" /><path
     id="path92"
     d="m 29.65,7.55 c 0.434,0.133 0.517,0.534 0.25,1.2 -0.3,0.633 -0.617,0.9 -0.95,0.8 -0.333,-0.1 -0.4,-0.5 -0.2,-1.2 0.2,-0.7 0.5,-0.967 0.9,-0.8 z"
     style="clip-rule:evenodd;fill:#423523;fill-rule:evenodd"
     inkscape:connector-curvature="0" /><path
     id="path94"
     d="m 23.3,7.65 c 0.8,0.5 0.967,0.983 0.5,1.45 -0.5,0.5 -0.917,0.5 -1.25,0 -0.233,-0.4 -0.216,-0.783 0.05,-1.15 0.267,-0.333 0.5,-0.433 0.7,-0.3 z"
     style="clip-rule:evenodd;fill:#423523;fill-rule:evenodd"
     inkscape:connector-curvature="0" /><path
     id="path96"
     d="m 19.3,5.75 c 0.467,0 0.733,0.283 0.8,0.85 0.033,0.566 -0.167,0.917 -0.6,1.05 -0.433,0.1 -0.667,-0.183 -0.7,-0.85 0,-0.7 0.167,-1.05 0.5,-1.05 z"
     style="clip-rule:evenodd;fill:#423523;fill-rule:evenodd"
     inkscape:connector-curvature="0" /><path
     id="path98"
     d="m 15.9,3.4 c 0.8,-0.2 1.217,0.1 1.25,0.9 0,0.8 -0.333,1.2 -1,1.2 -0.6,0 -0.867,-0.333 -0.8,-1 0.033,-0.633 0.217,-1 0.55,-1.1 z"
     style="clip-rule:evenodd;fill:#54462e;fill-rule:evenodd"
     inkscape:connector-curvature="0" /><path
     id="path100"
     d="m 21.5,1.9 c 0.7,0.2 0.95,0.6 0.75,1.2 C 22.05,3.733 21.667,3.9 21.1,3.6 20.6,3.333 20.416,2.95 20.55,2.45 20.683,1.917 21,1.733 21.5,1.9 Z"
     style="clip-rule:evenodd;fill:#54462e;fill-rule:evenodd"
     inkscape:connector-curvature="0" /><path
     id="path102"
     d="M 20.45,4.55 C 20.883,4.717 20.933,5.2 20.6,6 20.267,6.8 19.867,6.917 19.4,6.35 18.933,5.783 18.867,5.283 19.2,4.85 19.5,4.417 19.917,4.317 20.45,4.55 Z"
     style="clip-rule:evenodd;fill:#54462e;fill-rule:evenodd"
     inkscape:connector-curvature="0" /><path
     id="path104"
     d="m 21.5,6.7 c 0.7,0.1 0.983,0.517 0.85,1.25 -0.133,0.767 -0.5,0.983 -1.1,0.65 C 20.75,8.3 20.6,7.883 20.8,7.35 20.967,6.85 21.2,6.633 21.5,6.7 Z"
     style="clip-rule:evenodd;fill:#54462e;fill-rule:evenodd"
     inkscape:connector-curvature="0" /><path
     id="path106"
     d="M 18.5,8.25 C 19.1,8.983 19.233,9.6 18.9,10.1 18.533,10.567 18.05,10.534 17.45,10 16.916,9.5 16.9,9 17.4,8.5 17.867,8 18.233,7.917 18.5,8.25 Z"
     style="clip-rule:evenodd;fill:#54462e;fill-rule:evenodd"
     inkscape:connector-curvature="0" /><path
     id="path108"
     d="m 14.05,6.55 c 0.667,0.6 0.733,1.133 0.2,1.6 -0.533,0.467 -1,0.467 -1.4,0 -0.367,-0.4 -0.35,-0.833 0.05,-1.3 0.4,-0.5 0.783,-0.6 1.15,-0.3 z"
     style="clip-rule:evenodd;fill:#54462e;fill-rule:evenodd"
     inkscape:connector-curvature="0" /><path
     id="path110"
     d="m 11.05,8.25 c 1.167,-0.033 1.583,0.417 1.25,1.35 -0.367,1.034 -0.767,1.4 -1.2,1.1 -0.367,-0.233 -0.583,-0.684 -0.65,-1.35 -0.1,-0.7 0.1,-1.067 0.6,-1.1 z"
     style="clip-rule:evenodd;fill:#54462e;fill-rule:evenodd"
     inkscape:connector-curvature="0" /><path
     id="path112"
     d="M 7.95,9.35 C 8.583,9.383 8.817,9.767 8.65,10.5 8.483,11.233 8.167,11.45 7.7,11.15 7.266,10.883 7.117,10.516 7.25,10.049 7.35,9.55 7.583,9.317 7.95,9.35 Z"
     style="clip-rule:evenodd;fill:#54462e;fill-rule:evenodd"
     inkscape:connector-curvature="0" /><path
     id="path114"
     d="m 20.05,10.2 c 0.967,0.133 1.417,0.533 1.35,1.2 -0.066,0.666 -0.55,1 -1.45,1 -0.8,0 -1.133,-0.384 -1,-1.15 0.167,-0.8 0.533,-1.15 1.1,-1.05 z"
     style="clip-rule:evenodd;fill:#54462e;fill-rule:evenodd"
     inkscape:connector-curvature="0" /><path
     id="path116"
     d="m 25.1,8.8 c 0.467,-0.066 0.717,0.317 0.75,1.15 0,0.833 -0.25,1.2 -0.75,1.1 -0.5,-0.133 -0.733,-0.533 -0.7,-1.2 0.033,-0.633 0.267,-0.983 0.7,-1.05 z"
     style="clip-rule:evenodd;fill:#54462e;fill-rule:evenodd"
     inkscape:connector-curvature="0" /><path
     id="path118"
     d="m 25.25,4.85 c 0.667,0.233 0.883,0.733 0.65,1.5 C 25.667,7.15 25.267,7.433 24.7,7.2 24.133,7 23.95,6.516 24.15,5.75 c 0.2,-0.767 0.567,-1.067 1.1,-0.9 z"
     style="clip-rule:evenodd;fill:#54462e;fill-rule:evenodd"
     inkscape:connector-curvature="0" /><path
     id="path120"
     d="M 23.6,2 C 24.4,1.7 24.783,1.95 24.75,2.75 24.717,3.55 24.417,3.9 23.85,3.8 23.383,3.7 23.117,3.417 23.05,2.95 22.983,2.483 23.167,2.167 23.6,2 Z"
     style="clip-rule:evenodd;fill:#54462e;fill-rule:evenodd"
     inkscape:connector-curvature="0" /><path
     id="path122"
     d="m 31.3,8.6 c 0.6,0.333 0.85,0.717 0.75,1.15 -0.066,0.467 -0.433,0.65 -1.1,0.55 -0.633,-0.1 -0.85,-0.466 -0.65,-1.1 0.2,-0.633 0.533,-0.833 1,-0.6 z"
     style="clip-rule:evenodd;fill:#54462e;fill-rule:evenodd"
     inkscape:connector-curvature="0" /><path
     id="path124"
     d="m 27.6,11.55 c 0.6,0.134 0.867,0.5 0.8,1.101 -0.066,0.566 -0.367,0.883 -0.9,0.949 -0.5,0.034 -0.7,-0.3 -0.6,-1 0.1,-0.767 0.333,-1.117 0.7,-1.05 z"
     style="clip-rule:evenodd;fill:#54462e;fill-rule:evenodd"
     inkscape:connector-curvature="0" /><path
     id="path126"
     d="m 2.55,9.25 c 1,0.8 1.034,1.467 0.1,2 C 1.65,11.816 1,11.733 0.7,11 0.467,10.4 0.617,9.883 1.15,9.45 c 0.533,-0.433 1,-0.5 1.4,-0.2 z"
     style="clip-rule:evenodd;fill:#302615;fill-rule:evenodd"
     inkscape:connector-curvature="0" /><path
     id="path128"
     d="m 1.2,12.45 c 0.5,0.133 0.667,0.5 0.5,1.1 -0.2,0.566 -0.583,0.617 -1.15,0.15 -0.566,-0.434 -0.7,-0.783 -0.4,-1.05 0.267,-0.266 0.617,-0.334 1.05,-0.2 z"
     style="clip-rule:evenodd;fill:#302615;fill-rule:evenodd"
     inkscape:connector-curvature="0" /><path
     id="path130"
     d="m 14.3,14.75 c 0.733,0.167 0.9,0.566 0.5,1.2 -0.4,0.666 -0.883,0.899 -1.45,0.7 -0.533,-0.167 -0.667,-0.551 -0.4,-1.15 0.3,-0.634 0.75,-0.884 1.35,-0.75 z"
     style="clip-rule:evenodd;fill:#302615;fill-rule:evenodd"
     inkscape:connector-curvature="0" /><path
     id="path132"
     d="m 23.85,13.6 c 0.9,0.267 1.133,0.7 0.7,1.301 -0.433,0.6 -1.017,0.666 -1.75,0.199 -0.667,-0.466 -0.783,-0.883 -0.35,-1.25 0.4,-0.367 0.867,-0.45 1.4,-0.25 z"
     style="clip-rule:evenodd;fill:#302615;fill-rule:evenodd"
     inkscape:connector-curvature="0" /><path
     id="path134"
     d="m 31.7,13.5 c 0.733,0.066 0.883,0.483 0.45,1.25 -0.433,0.733 -1.033,0.917 -1.8,0.55 -0.733,-0.333 -0.883,-0.75 -0.45,-1.25 0.467,-0.467 1.067,-0.65 1.8,-0.55 z"
     style="clip-rule:evenodd;fill:#302615;fill-rule:evenodd"
     inkscape:connector-curvature="0" /><path
     id="path136"
     d="m 26.4,15.65 c 0.733,0.199 0.967,0.533 0.7,1 -0.267,0.466 -0.667,0.6 -1.2,0.399 -0.467,-0.133 -0.583,-0.434 -0.35,-0.899 0.2,-0.433 0.483,-0.6 0.85,-0.5 z"
     style="clip-rule:evenodd;fill:#302615;fill-rule:evenodd"
     inkscape:connector-curvature="0" /><path
     id="path138"
     d="m 38.1,11.9 c 1.034,0.199 1.284,0.633 0.75,1.3 -0.533,0.7 -1.149,0.934 -1.85,0.7 -0.634,-0.2 -0.783,-0.617 -0.45,-1.25 0.334,-0.633 0.85,-0.883 1.55,-0.75 z"
     style="clip-rule:evenodd;fill:#302615;fill-rule:evenodd"
     inkscape:connector-curvature="0" /><path
     id="path140"
     d="m 42.9,11.9 c 0.5,0.033 0.666,0.3 0.5,0.8 -0.134,0.5 -0.483,0.7 -1.051,0.6 -0.566,-0.066 -0.733,-0.333 -0.5,-0.8 0.201,-0.467 0.551,-0.667 1.051,-0.6 z"
     style="clip-rule:evenodd;fill:#302615;fill-rule:evenodd"
     inkscape:connector-curvature="0" /><path
     id="path142"
     d="m 44.7,8.4 c 0.967,0.2 1.3,0.55 1,1.05 -0.3,0.533 -0.8,0.733 -1.5,0.6 C 43.566,9.917 43.366,9.584 43.599,9.05 43.833,8.517 44.2,8.3 44.7,8.4 Z"
     style="clip-rule:evenodd;fill:#302615;fill-rule:evenodd"
     inkscape:connector-curvature="0" /><path
     id="path144"
     d="m 5.3,10.45 c 0.3,0.333 0.15,0.8 -0.45,1.399 C 4.283,12.45 3.9,12.434 3.7,11.8 3.5,11.2 3.65,10.75 4.15,10.45 4.617,10.116 5,10.116 5.3,10.45 Z"
     style="clip-rule:evenodd;fill:#302615;fill-rule:evenodd"
     inkscape:connector-curvature="0" /><path
     id="path146"
     d="m 5.75,11.4 c 1.4,0.199 1.3,0.767 -0.3,1.699 -0.434,0.233 -0.767,0.25 -1,0.051 -0.233,-0.167 -0.317,-0.5 -0.25,-1 0.033,-0.467 0.2,-0.733 0.5,-0.801 0.133,-0.033 0.483,-0.016 1.05,0.051 z"
     style="clip-rule:evenodd;fill:#473822;fill-rule:evenodd"
     inkscape:connector-curvature="0" /><path
     id="path148"
     d="m 10.45,13.65 c 0.533,0.366 0.5,0.8 -0.1,1.3 -0.6,0.5 -1.133,0.6 -1.6,0.3 C 8.283,14.95 8.3,14.5 8.8,13.9 9.3,13.3 9.85,13.217 10.45,13.65 Z"
     style="clip-rule:evenodd;fill:#63553e;fill-rule:evenodd"
     inkscape:connector-curvature="0" /><path
     id="path150"
     d="m 8.45,11.65 c 0.667,0.133 0.833,0.433 0.5,0.899 -0.333,0.5 -0.667,0.684 -1,0.55 C 7.717,12.966 7.666,12.683 7.8,12.249 7.967,11.816 8.183,11.616 8.45,11.65 Z"
     style="clip-rule:evenodd;fill:#473822;fill-rule:evenodd"
     inkscape:connector-curvature="0" /><path
     id="path152"
     d="m 16.2,14.45 c 0.633,0.033 1,0.316 1.1,0.85 0.067,0.5 -0.066,0.934 -0.4,1.3 -0.267,0.301 -0.617,0.351 -1.05,0.15 -0.4,-0.167 -0.717,-0.467 -0.95,-0.9 -0.2,-0.333 -0.133,-0.666 0.2,-1 0.3,-0.3 0.667,-0.433 1.1,-0.4 z"
     style="clip-rule:evenodd;fill:#473822;fill-rule:evenodd"
     inkscape:connector-curvature="0" /><path
     id="path154"
     d="m 18.55,12.85 c 0.367,0.4 0.317,0.75 -0.15,1.051 -0.5,0.267 -0.85,0.183 -1.05,-0.25 -0.233,-0.467 -0.167,-0.817 0.2,-1.051 0.333,-0.234 0.667,-0.15 1,0.25 z"
     style="clip-rule:evenodd;fill:#473822;fill-rule:evenodd"
     inkscape:connector-curvature="0" /><path
     id="path156"
     d="m 25.35,13.95 c 0.333,0.2 0.333,0.566 0,1.1 -0.367,0.5 -0.783,0.517 -1.25,0.05 -0.5,-0.5 -0.533,-0.883 -0.1,-1.149 0.433,-0.266 0.883,-0.267 1.35,-0.001 z"
     style="clip-rule:evenodd;fill:#473822;fill-rule:evenodd"
     inkscape:connector-curvature="0" /><path
     id="path158"
     d="m 23.35,16.35 c 0.733,0.134 0.9,0.467 0.5,1 -0.367,0.534 -0.75,0.684 -1.15,0.45 -0.367,-0.2 -0.434,-0.517 -0.2,-0.95 0.233,-0.4 0.517,-0.567 0.85,-0.5 z"
     style="clip-rule:evenodd;fill:#63553e;fill-rule:evenodd"
     inkscape:connector-curvature="0" /><path
     id="path160"
     d="m 33,14.2 c 0.5,0.066 0.683,0.333 0.55,0.8 -0.1,0.333 -0.333,0.684 -0.7,1.05 -0.4,0.4 -0.867,0.233 -1.4,-0.5 -0.2,-0.333 -0.1,-0.649 0.3,-0.95 0.367,-0.333 0.783,-0.466 1.25,-0.4 z"
     style="clip-rule:evenodd;fill:#473822;fill-rule:evenodd"
     inkscape:connector-curvature="0" /><path
     id="path162"
     d="m 36.9,13.4 c 0.666,0.399 0.783,0.899 0.35,1.5 -0.467,0.6 -1.033,0.683 -1.7,0.25 -0.666,-0.4 -0.75,-0.884 -0.25,-1.45 0.5,-0.533 1.033,-0.634 1.6,-0.3 z"
     style="clip-rule:evenodd;fill:#63553e;fill-rule:evenodd"
     inkscape:connector-curvature="0" /><path
     id="path164"
     d="m 44.3,11.8 c 0.634,0.167 0.834,0.483 0.601,0.95 -0.233,0.467 -0.634,0.6 -1.2,0.4 -0.5,-0.2 -0.617,-0.5 -0.351,-0.9 0.233,-0.4 0.55,-0.55 0.95,-0.45 z"
     style="clip-rule:evenodd;fill:#473822;fill-rule:evenodd"
     inkscape:connector-curvature="0" /><path
     id="path166"
     d="m 42.3,6.95 c 0.5,0.167 0.65,0.417 0.45,0.75 -0.233,0.333 -0.5,0.45 -0.8,0.35 -0.267,-0.066 -0.351,-0.3 -0.25,-0.7 0.067,-0.4 0.267,-0.533 0.6,-0.4 z"
     style="clip-rule:evenodd;fill:#473822;fill-rule:evenodd"
     inkscape:connector-curvature="0" /><path
     id="path168"
     d="m 3.25,13.1 c 0.5,0.367 0.5,0.784 0,1.25 -0.533,0.467 -1.067,0.5 -1.6,0.101 -0.566,-0.4 -0.583,-0.834 -0.05,-1.3 0.5,-0.467 1.05,-0.484 1.65,-0.051 z"
     style="clip-rule:evenodd;fill:#54462e;fill-rule:evenodd"
     inkscape:connector-curvature="0" /><path
     id="path170"
     d="m 7.15,12.85 c 0.267,0.034 0.267,0.384 0,1.051 -0.267,0.6 -0.6,0.666 -1,0.199 -0.433,-0.466 -0.5,-0.816 -0.2,-1.05 0.233,-0.234 0.633,-0.3 1.2,-0.2 z"
     style="clip-rule:evenodd;fill:#54462e;fill-rule:evenodd"
     inkscape:connector-curvature="0" /><path
     id="path172"
     d="m 19.1,14.35 c 0.8,0.067 1.083,0.434 0.85,1.101 -0.233,0.633 -0.667,0.85 -1.3,0.649 -0.566,-0.166 -0.733,-0.517 -0.5,-1.05 0.233,-0.5 0.55,-0.734 0.95,-0.7 z"
     style="clip-rule:evenodd;fill:#54462e;fill-rule:evenodd"
     inkscape:connector-curvature="0" /><path
     id="path174"
     d="m 12.55,13.3 c 0.633,0.233 0.833,0.517 0.6,0.851 -0.267,0.333 -0.683,0.433 -1.25,0.3 -0.533,-0.134 -0.65,-0.384 -0.35,-0.75 0.267,-0.401 0.6,-0.534 1,-0.401 z"
     style="clip-rule:evenodd;fill:#54462e;fill-rule:evenodd"
     inkscape:connector-curvature="0" /><path
     id="path176"
     d="M 5.5,8.05 C 6.5,8.217 6.767,8.5 6.3,8.9 5.8,9.334 5.3,9.45 4.8,9.25 4.433,9.117 4.367,8.867 4.6,8.5 4.8,8.133 5.1,7.983 5.5,8.05 Z"
     style="clip-rule:evenodd;fill:#54462e;fill-rule:evenodd"
     inkscape:connector-curvature="0" /></g>
</svg>