<?xml version="1.0" encoding="UTF-8" standalone="no"?>
<!-- Generator: Adobe Illustrator 15.1.0, SVG Export Plug-In . SVG Version: 6.00 Build 0)  -->

<svg
   xmlns:dc="http://purl.org/dc/elements/1.1/"
   xmlns:cc="http://creativecommons.org/ns#"
   xmlns:rdf="http://www.w3.org/1999/02/22-rdf-syntax-ns#"
   xmlns:svg="http://www.w3.org/2000/svg"
   xmlns="http://www.w3.org/2000/svg"
   xmlns:xlink="http://www.w3.org/1999/xlink"
   xmlns:sodipodi="http://sodipodi.sourceforge.net/DTD/sodipodi-0.dtd"
   xmlns:inkscape="http://www.inkscape.org/namespaces/inkscape"
   version="1.1"
   id="flash0.ai"
   x="0px"
   y="0px"
   width="256"
   height="256"
   viewBox="0 0 256.00001 256.00001"
   xml:space="preserve"
   sodipodi:docname="zucchini_loaf.svg"
   inkscape:version="0.92.4 (5da689c313, 2019-01-14)"><title
   id="title986">Zucchini Loaf</title><metadata
   id="metadata179"><rdf:RDF><cc:Work
       rdf:about=""><dc:format>image/svg+xml</dc:format><dc:type
         rdf:resource="http://purl.org/dc/dcmitype/StillImage" /><dc:title>Zucchini Loaf</dc:title><cc:license
         rdf:resource="http://creativecommons.org/publicdomain/zero/1.0/" /><dc:creator><cc:Agent><dc:title>Glitch</dc:title></cc:Agent></dc:creator><dc:source>https://opengameart.org/node/20149</dc:source></cc:Work><cc:License
       rdf:about="http://creativecommons.org/publicdomain/zero/1.0/"><cc:permits
         rdf:resource="http://creativecommons.org/ns#Reproduction" /><cc:permits
         rdf:resource="http://creativecommons.org/ns#Distribution" /><cc:permits
         rdf:resource="http://creativecommons.org/ns#DerivativeWorks" /></cc:License></rdf:RDF></metadata><defs
   id="defs177">
			
			
			
			
			
			
			
			
			
			
			
			
			
			
			
			
			
			
			
			
			
			
			
			
			
			
			
			
			
			
			
			
			
			
			
			
			
			
			
			
			
			
			
			
			
			
			
			
			
			
			
			
			
			
			
			
			
			
			
			
			
			
			
			
			
			
		</defs><sodipodi:namedview
   pagecolor="#ffffff"
   bordercolor="#666666"
   borderopacity="1"
   objecttolerance="10"
   gridtolerance="10"
   guidetolerance="10"
   inkscape:pageopacity="0"
   inkscape:pageshadow="2"
   inkscape:window-width="1920"
   inkscape:window-height="1025"
   id="namedview175"
   showgrid="false"
   inkscape:zoom="1.5485565"
   inkscape:cx="185.01273"
   inkscape:cy="81.108717"
   inkscape:window-x="-8"
   inkscape:window-y="-8"
   inkscape:window-maximized="1"
   inkscape:current-layer="flash0.ai"
   fit-margin-top="0"
   fit-margin-left="0"
   fit-margin-right="0"
   fit-margin-bottom="0" />
<symbol
   id="Symbol_1"
   viewBox="0 -26.777 67.063 34.528"
   transform="translate(-3.8525373,222.60056)">
	<g
   id="flash0.ai_1_">
		
		<path
   inkscape:connector-curvature="0"
   id="path34"
   d="m 60.549,-9.2 -22.413,-6.9 -15.468,3.7 c 0.35,3.933 0.175,6.667 -0.525,8.2 -0.505,1.133 -0.545,2.434 -0.117,3.9 0.389,1.4 1.128,2.683 2.218,3.85 0.934,1 2.568,1.684 4.903,2.05 0.35,0.066 2.646,0.3 6.887,0.7 1.595,0.133 4.397,0.55 8.405,1.25 3.891,0.434 7.49,0.167 10.798,-0.8 1.945,-0.533 3.735,-1.833 5.37,-3.9 1.595,-2.033 2.12,-3.617 1.575,-4.75 l -1.108,-2.3 z"
   style="clip-rule:evenodd;fill:#a36b2c;fill-rule:evenodd" /><path
   inkscape:connector-curvature="0"
   id="path36"
   d="m 53.896,2.4 c 0.078,0 0.895,-0.167 2.451,-0.5 0.117,-0.033 0.331,-0.25 0.642,-0.65 0.272,-0.333 0.623,-0.433 1.051,-0.3 0.817,0.3 0.622,0.883 -0.584,1.75 0.234,0.333 0.467,0.55 0.701,0.65 0.078,0.5 0.311,0.95 0.701,1.35 1.245,-1.067 2.179,-2.233 2.801,-3.5 0.701,-1.3 0.875,-2.333 0.525,-3.1 l -1.108,-2.3 -0.526,-5 -22.413,-6.9 -13.367,3.2 c -0.272,0.667 -0.564,1.367 -0.875,2.1 l -1.109,2.05 c 0,2.067 -0.213,3.583 -0.642,4.55 -0.505,1.133 -0.545,2.434 -0.117,3.9 0.389,1.4 1.128,2.683 2.218,3.85 0.389,0.434 0.954,0.817 1.693,1.15 1.128,0.267 2.179,0.267 3.152,0 1.167,-0.267 1.771,-0.817 1.81,-1.65 1.401,0.6 3.132,0.567 5.195,-0.1 1.945,-0.6 3.463,-1.5 4.553,-2.7 0.505,0.667 1.439,0.883 2.801,0.65 0.039,-0.3 0.156,-0.583 0.35,-0.85 0.272,-0.367 0.428,-0.617 0.467,-0.75 0.973,0.2 1.751,0.417 2.335,0.65 -0.312,0.233 -0.487,0.466 -0.526,0.7 -0.078,0.367 -0.155,0.617 -0.233,0.75 1.44,0.267 2.432,-0.133 2.977,-1.2 0.35,0.566 0.778,0.85 1.284,0.85 0.467,0 0.895,-0.3 1.284,-0.9 0.506,0.067 1.167,0.25 1.985,0.55 -0.624,1.167 -0.45,1.733 0.524,1.7 z"
   style="clip-rule:evenodd;fill:#854d25;fill-rule:evenodd" /><path
   inkscape:connector-curvature="0"
   id="path38"
   d="m 31.832,-13.6 c -0.973,0.2 -2.471,0.6 -4.494,1.2 l -2.802,0.8 c 0.195,4.167 0.097,6.667 -0.292,7.5 -0.35,0.733 -0.467,1.7 -0.35,2.9 0.156,1.333 0.564,2.117 1.226,2.35 3.347,1.133 5.487,1.383 6.42,0.75 0.506,-0.367 1.167,-0.566 1.985,-0.6 1.089,-0.033 1.985,-0.167 2.685,-0.4 1.167,-0.367 2.16,-1.167 2.977,-2.4 0.778,-1.2 0.953,-2.233 0.525,-3.1 -0.583,-1.167 -0.875,-2.833 -0.875,-5 0,-1 -0.563,-2.833 -1.692,-5.5 -1.986,0.667 -3.756,1.167 -5.313,1.5 z"
   style="clip-rule:evenodd;fill:#d9c067;fill-rule:evenodd" /><path
   inkscape:connector-curvature="0"
   id="path40"
   d="M 55.238,6.75 C 55.939,6.583 56.717,6.217 57.572,5.65 56.677,5.483 55.179,5.667 53.078,6.2 51.093,6.7 49.576,6.766 48.525,6.4 49.654,6.467 50.393,6.067 50.743,5.2 49.342,5.1 48.389,5.05 47.883,5.05 47.027,5.084 46.073,5.183 45.023,5.35 42.766,5.817 41.19,5.833 40.295,5.4 l 0.409,-0.85 c 0.195,-0.367 0.428,-0.633 0.7,-0.8 C 40.237,3.083 39.556,3.3 39.362,4.4 38.895,4.533 38.408,4.783 37.903,5.15 37.358,5.183 36.736,5.117 36.035,4.95 35.101,4.783 34.479,4.683 34.167,4.65 34.829,3.717 35.315,3.15 35.626,2.95 35.042,2.483 34.4,2.383 33.7,2.65 32.533,3.183 31.91,3.45 31.832,3.45 31.52,3.483 30.937,3.467 30.081,3.4 29.458,3.334 28.972,3.4 28.622,3.6 27.222,3.166 25.763,2.95 24.245,2.95 v 0.2 h -0.292 l 0.292,0.4 c 0.934,1 2.568,1.684 4.903,2.05 0.35,0.066 2.646,0.3 6.887,0.7 1.595,0.133 4.397,0.55 8.405,1.25 3.891,0.433 7.49,0.167 10.798,-0.8 z"
   style="clip-rule:evenodd;fill:#c9a160;fill-rule:evenodd" /><path
   inkscape:connector-curvature="0"
   id="path42"
   d="m 30.373,4.15 c 4.086,0.833 6.771,1.033 8.055,0.6 C 37.455,4.55 36.716,4.233 36.21,3.8 35.587,3.3 35.86,2.917 37.027,2.65 L 37.669,1 C 36.618,1.633 34.575,2.15 31.54,2.55 28.35,2.984 26.307,2.933 25.412,2.4 v 0.5 c 0.467,0.1 1.284,0.167 2.451,0.2 1.09,0.066 1.907,0.183 2.452,0.35 z"
   style="clip-rule:evenodd;fill:#854d25;fill-rule:evenodd" /><path
   inkscape:connector-curvature="0"
   id="path44"
   d="M 54.479,5.2 C 53.506,5.367 52.748,5.45 52.203,5.45 51.814,5.45 51.036,5.3 49.868,5 48.895,4.733 48.059,4.65 47.358,4.75 l 3.094,0.5 C 50.18,5.317 49.868,5.5 49.518,5.8 49.012,6.167 48.681,6.4 48.525,6.5 49.42,6.7 50.86,6.6 52.844,6.2 54.712,5.8 55.977,5.367 56.638,4.9 56.102,4.935 55.381,5.034 54.479,5.2 Z"
   style="clip-rule:evenodd;fill:#854d25;fill-rule:evenodd" /><path
   inkscape:connector-curvature="0"
   id="path46"
   d="M 43.797,3.9 H 44.38 C 44.497,3.867 44.652,3.75 44.848,3.55 45.081,3.383 45.392,3.334 45.782,3.4 V 2.7 c -0.817,0.2 -1.965,0.2 -3.444,0 0.078,0.2 0.331,0.55 0.759,1.05 0.545,0.533 0.778,0.583 0.7,0.15 z"
   style="clip-rule:evenodd;fill:#854d25;fill-rule:evenodd" /><path
   inkscape:connector-curvature="0"
   id="path48"
   d="M 44.673,1.65 V 1.4 c 1.868,0.2 3.113,-0.033 3.736,-0.7 -1.206,0.433 -2.199,0.35 -2.977,-0.25 -0.817,-0.6 -0.798,-1.35 0.058,-2.25 -1.246,0.7 -2.296,1.117 -3.152,1.25 0.039,0.6 -0.312,1.033 -1.051,1.3 -0.528,0.191 -0.947,0.367 -1.254,0.525 0.573,0.45 1.302,0.658 2.188,0.625 0.545,-0.033 1.362,-0.117 2.452,-0.25 z"
   style="clip-rule:evenodd;fill:#c9a160;fill-rule:evenodd" /><path
   inkscape:connector-curvature="0"
   id="path50"
   d="m 49.634,3.65 c 0.91,0.26 1.951,0.343 3.123,0.25 0.027,0.003 0.056,0.003 0.087,0 l 1.051,0.05 C 53.039,3.883 52.358,3.683 51.852,3.35 51.618,3.217 51.171,2.833 50.509,2.2 50.121,2.533 49.829,3.017 49.634,3.65 Z"
   style="clip-rule:evenodd;fill:#c9a160;fill-rule:evenodd" /><path
   inkscape:connector-curvature="0"
   id="path52"
   d="m 55.354,3.35 c 0.082,-0.025 0.179,-0.059 0.292,-0.1 0.194,-0.1 0.389,-0.133 0.583,-0.1 -0.233,-0.8 -0.428,-1.367 -0.583,-1.7 -0.583,0.333 -1.4,0.517 -2.451,0.55 0.513,0.733 1.233,1.184 2.159,1.35 z"
   style="clip-rule:evenodd;fill:#c9a160;fill-rule:evenodd" /><path
   inkscape:connector-curvature="0"
   id="path54"
   d="m 56.055,-3 c 0.856,0.467 1.44,0.733 1.751,0.8 0.272,0.067 0.643,0.034 1.109,-0.1 0.345,-0.099 0.646,-0.14 0.904,-0.125 L 59.148,-1.1 c 0.233,0.567 0.603,0.867 1.109,0.9 0.311,0.034 0.992,-0.066 2.043,-0.3 0.078,-0.6 0.039,-1.067 -0.117,-1.4 l -1.108,-2.3 -0.526,-5 -21.246,-6.5 c -0.195,1.534 -0.253,2.4 -0.175,2.6 0.078,0.367 0.312,0.9 0.701,1.6 0.351,0.667 0.564,1.25 0.642,1.75 0.039,0.333 0.02,0.967 -0.059,1.9 -0.078,0.833 -0.058,1.483 0.059,1.95 0.039,0.267 0.272,0.783 0.7,1.55 0.351,0.633 0.506,1.233 0.467,1.8 0.505,-0.367 0.681,-0.934 0.525,-1.7 -0.194,-1 -0.233,-1.65 -0.117,-1.95 l 1.109,0.15 c 0.078,0.066 0.214,0.2 0.409,0.4 0,-0.033 -0.059,-0.117 -0.175,-0.25 0.739,0.467 1.439,0.583 2.101,0.35 0.311,0.466 1.44,0.883 3.385,1.25 1.946,0.367 3.171,0.383 3.677,0.05 0.545,0.633 1.245,0.75 2.102,0.35 0.077,0.133 0.545,0.433 1.401,0.9 z"
   style="clip-rule:evenodd;fill:#5e371b;fill-rule:evenodd" /><path
   inkscape:connector-curvature="0"
   id="path56"
   d="m 54.654,-2.85 c 0.233,0.133 0.486,0.45 0.758,0.95 0.234,0.433 0.564,0.7 0.993,0.8 -0.078,-0.333 -0.098,-0.533 -0.059,-0.6 0.078,-0.033 0.292,-0.117 0.642,-0.25 0.117,-0.566 0.117,-0.983 0,-1.25 -0.467,0.1 -0.914,0.083 -1.342,-0.05 -0.506,-0.167 -0.837,-0.433 -0.992,-0.8 -1.207,0.033 -3.036,-0.267 -5.487,-0.9 -2.491,-0.667 -4.339,-0.983 -5.545,-0.95 0,0.566 0.175,0.967 0.525,1.2 0.117,0.1 0.486,0.25 1.108,0.45 0.04,0 0.195,-0.067 0.468,-0.2 0.233,-0.1 0.486,-0.083 0.758,0.05 0.039,0 0.292,0.35 0.759,1.05 l -0.175,0.4 -0.817,0.2 c 0.155,0.133 0.467,0.2 0.934,0.2 0.467,0.033 0.759,0.083 0.875,0.15 0.272,0.233 0.35,0.467 0.233,0.7 -0.156,0.167 -0.233,0.267 -0.233,0.3 0.35,0.333 0.759,0.5 1.226,0.5 0.545,0.033 1.05,-0.2 1.517,-0.7 h -0.467 c 0.13,-0.022 0.247,-0.056 0.351,-0.1 0.389,-0.167 0.564,-0.45 0.525,-0.85 0.078,-0.067 0.253,-0.083 0.526,-0.05 0,-0.267 0.019,-0.417 0.058,-0.45 1.519,-0.1 2.472,-0.033 2.861,0.2 z"
   style="clip-rule:evenodd;fill:#5e371b;fill-rule:evenodd" /><path
   inkscape:connector-curvature="0"
   id="path58"
   d="m 37.436,-1.25 c -0.039,0.3 -0.467,0.633 -1.284,1 0.078,0.2 0.194,0.3 0.35,0.3 0.078,0.034 0.233,0.05 0.467,0.05 l -1.927,0.5 h 1.868 c 1.012,-0.533 1.829,-1.333 2.452,-2.4 0.622,-1.1 0.739,-2.034 0.35,-2.8 -0.583,-1.167 -0.875,-2.833 -0.875,-5 0,-1 -0.563,-2.833 -1.692,-5.5 -1.984,0.667 -3.755,1.167 -5.312,1.5 -0.973,0.2 -2.471,0.6 -4.494,1.2 l -2.802,0.8 0.059,2.7 h 2.568 c -0.855,1.033 -0.973,1.617 -0.35,1.75 0.623,0.133 1.148,-0.317 1.576,-1.35 0.817,0.567 1.595,0.7 2.334,0.4 l -0.351,-0.8 c 0.701,-0.067 1.323,-0.05 1.868,0.05 -0.428,0.233 -0.603,0.5 -0.525,0.8 0.116,0.267 0.428,0.417 0.934,0.45 0.155,-0.2 0.292,-0.383 0.409,-0.55 0.117,-0.1 0.369,-0.2 0.758,-0.3 C 33.7,-8.683 33.661,-8.933 33.7,-9.2 c 0.039,-0.133 0.098,-0.367 0.175,-0.7 0.7,-0.1 1.323,0.066 1.868,0.5 0.506,0.433 0.759,0.933 0.759,1.5 0,0.2 -0.136,0.45 -0.408,0.75 -0.234,0.267 -0.272,0.566 -0.117,0.9 0.077,0.167 0.311,0.317 0.7,0.45 0.389,0.133 0.623,0.267 0.7,0.4 0.195,0.367 0.214,0.867 0.059,1.5 -0.156,0.767 -0.234,1.217 -0.234,1.35 0.155,0.667 0.234,1.1 0.234,1.3 z"
   style="clip-rule:evenodd;fill:#c2ac5c;fill-rule:evenodd" /><path
   inkscape:connector-curvature="0"
   id="path60"
   d="m 33.642,-4.9 -0.351,0.15 c -0.194,0.2 -0.019,0.3 0.525,0.3 0.545,0.034 0.934,-0.05 1.167,-0.25 l -0.7,-0.05 c 0.545,-0.9 0.467,-1.45 -0.233,-1.65 -0.078,0.267 -0.292,0.533 -0.642,0.8 -0.389,0.267 -0.623,0.483 -0.701,0.65 0.195,0.033 0.506,0.05 0.935,0.05 z"
   style="clip-rule:evenodd;fill:#c2ac5c;fill-rule:evenodd" /><path
   inkscape:connector-curvature="0"
   id="path62"
   d="M 31.132,2.1 31.716,1.75 C 31.093,1.683 30.198,1.517 29.03,1.25 L 29.147,0.8 C 27.94,0.767 27.123,0.7 26.695,0.6 25.994,0.433 25.975,-0.117 26.637,-1.05 25.781,-1.317 24.886,-1.2 23.951,-0.7 c 0.195,1.067 0.584,1.684 1.167,1.85 1.518,0.567 2.763,0.917 3.736,1.05 0.7,-0.067 1.206,-0.267 1.517,-0.6 0.197,0.033 0.449,0.2 0.761,0.5 z"
   style="clip-rule:evenodd;fill:#c2ac5c;fill-rule:evenodd" /><path
   inkscape:connector-curvature="0"
   id="path64"
   d="m 29.789,-2.1 v 0.35 c 0.195,-0.2 0.447,-0.417 0.759,-0.65 0.194,-0.233 0.252,-0.517 0.175,-0.85 -0.195,-0.9 -0.836,-1.267 -1.926,-1.1 0.272,0.167 0.272,0.65 0,1.45 -0.194,0.6 0.137,0.867 0.992,0.8 z"
   style="clip-rule:evenodd;fill:#c2ac5c;fill-rule:evenodd" /><path
   inkscape:connector-curvature="0"
   id="path66"
   d="m 33.058,-0.6 -0.175,-0.15 c 0.544,0.067 0.934,0 1.167,-0.2 0.233,-0.267 0.175,-0.583 -0.175,-0.95 -0.584,0.066 -0.973,0.233 -1.167,0.5 -0.272,0.267 -0.156,0.533 0.35,0.8 z"
   style="clip-rule:evenodd;fill:#c2ac5c;fill-rule:evenodd" /><path
   inkscape:connector-curvature="0"
   id="path68"
   d="m 26.462,-4.75 v 0.5 c 1.167,0.2 1.634,-0.067 1.4,-0.8 -0.233,-0.7 -0.895,-0.8 -1.984,-0.3 0.039,0.333 0.234,0.533 0.584,0.6 z"
   style="clip-rule:evenodd;fill:#c2ac5c;fill-rule:evenodd" /><path
   inkscape:connector-curvature="0"
   id="path70"
   d="M 30.723,1.25 30.577,1.125 c 0.193,0.083 0.495,0.125 0.905,0.125 0.272,-0.567 1.05,-0.8 2.334,-0.7 1.089,0.1 1.615,-0.1 1.576,-0.6 -0.039,-0.567 -0.564,-0.7 -1.576,-0.4 -1.323,0.367 -2.14,0.483 -2.451,0.35 0.039,-0.167 0.195,-0.517 0.467,-1.05 0.195,-0.4 0.272,-0.75 0.233,-1.05 -0.389,0 -0.778,0.317 -1.167,0.95 -0.312,0.6 -0.817,0.817 -1.518,0.65 -0.623,-0.133 -0.973,-0.533 -1.051,-1.2 -0.117,-0.767 -0.35,-1.25 -0.7,-1.45 -0.234,0.467 -0.312,1.017 -0.234,1.65 -1.05,-0.167 -1.342,0.133 -0.875,0.9 0.467,0.767 1.226,1.1 2.277,1 -0.312,0.5 -0.176,0.833 0.408,1 0.506,0.2 1.012,0.183 1.518,-0.05 z"
   style="clip-rule:evenodd;fill:#ffcb79;fill-rule:evenodd" /><path
   inkscape:connector-curvature="0"
   id="path72"
   d="m 31.307,-4.75 -0.35,0.35 c 0.117,0.066 0.272,0.15 0.467,0.25 0.156,0.066 0.369,0.033 0.642,-0.1 -0.117,-0.167 -0.213,-0.617 -0.292,-1.35 -0.039,-0.566 -0.331,-0.95 -0.875,-1.15 -0.467,0.333 -0.701,0.833 -0.701,1.5 0,0.7 0.37,0.867 1.109,0.5 z"
   style="clip-rule:evenodd;fill:#ffcb79;fill-rule:evenodd" /><path
   inkscape:connector-curvature="0"
   id="path74"
   d="m 35.626,-2.75 c 0.328,-0.038 0.581,-0.154 0.759,-0.35 -0.428,-0.267 -0.935,-0.367 -1.518,-0.3 -0.039,0.233 0.02,0.383 0.175,0.45 0.04,0 0.234,0.067 0.584,0.2 z"
   style="clip-rule:evenodd;fill:#ffcb79;fill-rule:evenodd" /><path
   inkscape:connector-curvature="0"
   id="path76"
   d="m 26.462,-6.4 -0.409,0.3 c 0.661,-0.233 0.797,-0.533 0.409,-0.9 -0.428,-0.367 -0.896,-0.333 -1.401,0.1 0.312,0.5 0.778,0.667 1.401,0.5 z"
   style="clip-rule:evenodd;fill:#ffcb79;fill-rule:evenodd" /><path
   inkscape:connector-curvature="0"
   id="path78"
   d="m 29.556,-1.9 -0.175,-0.2 c 0.467,0 0.836,-0.1 1.109,-0.3 l -0.409,-0.5 c -0.194,0.167 -0.35,0.267 -0.467,0.3 -0.312,-0.4 -0.837,-0.55 -1.576,-0.45 -0.039,0.367 0.097,0.667 0.409,0.9 0.272,0.233 0.642,0.317 1.109,0.25 z"
   style="clip-rule:evenodd;fill:#a6844f;fill-rule:evenodd" /><path
   inkscape:connector-curvature="0"
   id="path80"
   d="m 24.361,1.1 c 0.545,0.033 1.674,0.35 3.385,0.95 1.518,0.4 2.432,0.2 2.744,-0.6 C 30.101,1.55 29.4,1.6 28.389,1.6 H 28.36 C 27.854,1 27.24,0.7 26.521,0.7 c -0.428,0 -1.148,0.133 -2.16,0.4 z"
   style="clip-rule:evenodd;fill:#a6844f;fill-rule:evenodd" /><path
   inkscape:connector-curvature="0"
   id="path82"
   d="m 37.669,-0.35 -0.876,0.1 c 0.896,0.267 1.712,-0.283 2.452,-1.65 0.662,-1.367 0.759,-2.317 0.292,-2.85 0,0.233 -0.02,0.4 -0.058,0.5 -0.545,0 -0.856,0.017 -0.934,0.05 -0.428,1.167 -0.759,1.967 -0.992,2.4 -0.039,0.1 -0.292,0.216 -0.759,0.35 -0.35,0.1 -0.486,0.284 -0.408,0.55 0.039,0.233 0.252,0.383 0.642,0.45 0.211,0.068 0.425,0.101 0.641,0.1 z"
   style="clip-rule:evenodd;fill:#a6844f;fill-rule:evenodd" /><path
   inkscape:connector-curvature="0"
   id="path84"
   d="m 36.852,-8.75 c 0.065,-0.159 0.181,-0.359 0.35,-0.6 0.117,0.1 0.351,0.233 0.701,0.4 0,-0.1 0.136,-0.566 0.409,-1.4 0.156,-0.467 0.097,-0.917 -0.175,-1.35 -0.078,-0.133 -0.292,-0.267 -0.643,-0.4 -0.35,-0.133 -0.583,-0.3 -0.701,-0.5 -0.077,-0.133 -0.116,-0.4 -0.116,-0.8 0,-0.2 0.02,-0.467 0.058,-0.8 -1.245,0.467 -2.334,0.684 -3.268,0.65 0.35,0.566 0.681,0.95 0.992,1.15 -1.05,0.566 -1.362,0.917 -0.934,1.05 0.233,0.067 0.739,0.217 1.517,0.45 0.234,0.2 0.448,0.733 0.643,1.6 0.232,0.569 0.621,0.752 1.167,0.55 z"
   style="clip-rule:evenodd;fill:#a6844f;fill-rule:evenodd" /><path
   inkscape:connector-curvature="0"
   id="path86"
   d="m 31.365,-9.75 c -0.272,-0.2 -0.603,-0.283 -0.993,-0.25 -0.467,0.1 -0.817,0.083 -1.05,-0.05 -0.194,-0.1 -0.214,-0.367 -0.058,-0.8 0.117,-0.333 -0.175,-0.517 -0.875,-0.55 -0.973,-0.033 -1.323,0.417 -1.051,1.35 0.203,0.841 0.495,1.316 0.875,1.425 -0.005,-0.058 -0.024,-0.117 -0.059,-0.175 -0.039,-0.034 -0.02,-0.083 0.059,-0.15 0.544,0.267 1.109,0.267 1.692,0 0.312,-0.133 0.799,-0.4 1.46,-0.8 z"
   style="clip-rule:evenodd;fill:#a6844f;fill-rule:evenodd" /><path
   inkscape:connector-curvature="0"
   id="path88"
   d="m 24.711,-9.6 -0.175,0.2 c 0.506,-0.067 0.895,-0.233 1.167,-0.5 -0.389,-0.434 -0.914,-0.6 -1.575,-0.5 -0.04,0.233 0,0.417 0.116,0.55 0.039,0.033 0.195,0.117 0.467,0.25 z"
   style="clip-rule:evenodd;fill:#a6844f;fill-rule:evenodd" /><path
   inkscape:connector-curvature="0"
   id="path90"
   d="m 37.377,-10.85 -0.146,-0.05 c 0.384,-0.005 0.549,-0.322 0.497,-0.95 -0.039,-0.933 -0.545,-1.167 -1.518,-0.7 0.04,0.133 -0.039,0.4 -0.233,0.8 l -0.234,0.55 c 0.117,0.233 0.37,0.383 0.759,0.45 0.35,0.067 0.642,0.033 0.875,-0.1 z"
   style="clip-rule:evenodd;fill:#332918;fill-rule:evenodd" /><path
   inkscape:connector-curvature="0"
   id="path92"
   d="m 28.593,-10.2 c -0.049,-0.011 -0.097,-0.028 -0.146,-0.05 -0.156,-0.1 -0.097,-0.133 0.175,-0.1 h 0.292 c -0.117,0.065 -0.224,0.115 -0.321,0.15 0.746,0.302 1.319,0.202 1.722,-0.3 0.428,-0.567 0.194,-0.967 -0.7,-1.2 -0.934,-0.267 -1.518,0 -1.751,0.8 -0.17,0.754 0.073,0.987 0.729,0.7 z"
   style="clip-rule:evenodd;fill:#332918;fill-rule:evenodd" /><path
   inkscape:connector-curvature="0"
   id="path94"
   d="m 34.458,-6.85 c 0.178,-0.135 0.255,-0.351 0.234,-0.65 -0.039,-0.5 -0.37,-0.683 -0.992,-0.55 -0.7,0.167 -0.817,0.45 -0.35,0.85 0.292,0.272 0.623,0.397 0.993,0.375 z"
   style="clip-rule:evenodd;fill:#332918;fill-rule:evenodd" /><path
   inkscape:connector-curvature="0"
   id="path96"
   d="m 26.579,-2.95 -0.467,0.25 c 0.584,0.034 1.031,-0.15 1.342,-0.55 0.312,-0.433 0.253,-0.833 -0.175,-1.2 -1.167,0.3 -1.945,0.55 -2.334,0.75 0.195,0.667 0.739,0.917 1.634,0.75 z"
   style="clip-rule:evenodd;fill:#332918;fill-rule:evenodd" /><path
   inkscape:connector-curvature="0"
   id="path98"
   d="m 32.503,-1.175 c 0.301,0.059 0.642,-0.016 1.021,-0.225 0.545,-0.267 0.389,-0.533 -0.467,-0.8 -0.817,-0.3 -1.304,-0.133 -1.459,0.5 -0.153,0.657 0.149,0.832 0.905,0.525 z"
   style="clip-rule:evenodd;fill:#332918;fill-rule:evenodd" /><path
   inkscape:connector-curvature="0"
   id="path100"
   d="m 26.987,-2.85 -0.583,-0.1 c 0.662,0.1 1.09,-0.066 1.284,-0.5 -0.739,-0.066 -1.265,0.05 -1.576,0.35 0.117,0.233 0.409,0.317 0.875,0.25 z"
   style="clip-rule:evenodd;fill:#695431;fill-rule:evenodd" /><path
   inkscape:connector-curvature="0"
   id="path102"
   d="m 31.949,-1.45 c 0.114,0.326 0.299,0.493 0.555,0.5 h -0.263 c 0.817,0.133 1.167,-0.033 1.05,-0.5 -0.116,-0.4 -0.563,-0.4 -1.342,0 z"
   style="clip-rule:evenodd;fill:#695431;fill-rule:evenodd" /><path
   inkscape:connector-curvature="0"
   id="path104"
   d="m 37.348,-10.85 -0.438,0.15 c 0.583,-0.066 0.875,-0.316 0.875,-0.75 -0.584,-0.2 -1.031,-0.167 -1.342,0.1 0.226,0.452 0.527,0.618 0.905,0.5 z"
   style="clip-rule:evenodd;fill:#695431;fill-rule:evenodd" /><path
   inkscape:connector-curvature="0"
   id="path106"
   d="m 29.614,-10.45 -0.117,0.35 c 0.428,0 0.739,-0.15 0.935,-0.45 0.194,-0.3 -0.02,-0.483 -0.643,-0.55 -0.583,-0.066 -0.895,0.083 -0.934,0.45 -0.078,0.333 0.175,0.4 0.759,0.2 z"
   style="clip-rule:evenodd;fill:#695431;fill-rule:evenodd" /><path
   inkscape:connector-curvature="0"
   id="path108"
   d="M 34.575,-6.85 34.342,-6.9 c 0.531,0.07 0.764,-0.046 0.7,-0.35 -0.039,-0.4 -0.369,-0.55 -0.992,-0.45 -0.583,0.1 -0.759,0.317 -0.525,0.65 0.233,0.333 0.583,0.4 1.05,0.2 z"
   style="clip-rule:evenodd;fill:#695431;fill-rule:evenodd" /><path
   inkscape:connector-curvature="0"
   id="path110"
   d="m 59.032,-3.85 c 0.467,0.2 0.778,0.367 0.934,0.5 -0.623,0.267 -0.583,0.55 0.117,0.85 0.35,0.167 0.759,0.3 1.226,0.4 l -0.175,-0.25 c 0.117,0.1 0.331,0.2 0.642,0.3 l -0.059,-0.1 0.409,-0.05 c 0.117,-0.5 -0.117,-1.083 -0.7,-1.75 -0.078,-0.2 -0.117,-0.6 -0.117,-1.2 -0.039,-0.5 -0.155,-0.9 -0.35,-1.2 0.35,-0.3 0.35,-0.867 0,-1.7 -0.389,-0.8 -0.389,-1.383 0,-1.75 -0.583,0.066 -1.323,0.017 -2.218,-0.15 -1.012,-0.2 -1.771,-0.333 -2.276,-0.4 0.078,-0.467 -0.993,-0.983 -3.21,-1.55 -2.412,-0.6 -3.833,-0.967 -4.261,-1.1 -0.117,-0.033 -1.557,-0.383 -4.319,-1.05 -0.194,-0.034 -1.187,-0.417 -2.977,-1.15 -1.362,-0.566 -2.315,-0.767 -2.86,-0.6 0.234,0.4 0.351,0.783 0.351,1.15 -0.039,0.433 -0.059,0.833 -0.059,1.2 0,1.333 0.428,2 1.284,2 0.054,0.935 0.054,1.768 0,2.5 -0.04,0 -0.079,0 -0.117,0 V -8 c 0.049,-0.295 0.088,-0.612 0.117,-0.95 0.754,-0.011 1.279,-0.127 1.576,-0.35 0.078,-0.067 0.117,-0.317 0.117,-0.75 0,-0.267 0.253,-0.367 0.759,-0.3 -0.156,-0.467 -0.136,-1 0.058,-1.6 0.778,-0.066 1.401,0.1 1.868,0.5 0.739,0.633 1.226,1 1.459,1.1 0.583,0.267 1.109,0.25 1.576,-0.05 0.505,-0.333 0.953,-0.467 1.342,-0.4 0.078,0.4 0.428,0.667 1.05,0.8 0.545,0.1 1.07,0.083 1.576,-0.05 0.039,0.833 0.175,1.367 0.409,1.6 0.156,0.2 0.739,0.5 1.751,0.9 -0.389,0.3 -0.642,0.633 -0.759,1 -0.196,0.433 0.057,0.633 0.758,0.6 0.078,-0.033 0.37,-0.216 0.875,-0.55 0.505,-0.4 0.856,-0.633 1.05,-0.7 -0.077,-0.167 -0.272,-0.383 -0.583,-0.65 -0.233,-0.233 -0.369,-0.467 -0.409,-0.7 0.272,-0.034 0.662,-0.1 1.167,-0.2 0.428,-0.067 0.798,-0.083 1.109,-0.05 0.039,0.3 0,0.566 -0.117,0.8 -0.155,0.2 -0.155,0.433 0,0.7 0.117,0.2 0.312,0.383 0.584,0.55 0.234,0.1 0.37,0.35 0.41,0.75 0,0.1 -0.039,0.35 -0.117,0.75 -0.078,0.267 -0.019,0.533 0.175,0.8 0.155,0.233 0.467,0.433 0.934,0.6 z"
   style="clip-rule:evenodd;fill:#4d2c15;fill-rule:evenodd" /><path
   inkscape:connector-curvature="0"
   id="path112"
   d="m 54.829,-4.3 c 0.272,0.066 0.739,0.267 1.401,0.6 0.584,0.333 1.051,0.5 1.401,0.5 0.195,-0.633 -0.136,-1.066 -0.993,-1.3 -1.089,-0.133 -1.829,-0.267 -2.218,-0.4 -1.245,-0.434 -2.51,-0.7 -3.794,-0.8 -0.039,-0.367 -0.253,-0.683 -0.642,-0.95 -0.584,-0.333 -0.915,-0.567 -0.993,-0.7 -0.078,-0.1 -0.155,-0.4 -0.233,-0.9 -0.117,-0.433 -0.272,-0.717 -0.467,-0.85 -0.506,-0.3 -0.817,-0.316 -0.934,-0.05 -0.078,0.4 -0.195,0.667 -0.35,0.8 -0.506,0.434 -2.451,0.65 -5.837,0.65 0.039,0.6 0.836,1 2.393,1.2 1.985,0.267 3.037,0.433 3.153,0.5 0.389,0.233 0.545,0.433 0.467,0.6 -0.117,0.233 -0.098,0.417 0.058,0.55 0.506,0.533 0.954,0.667 1.342,0.4 l -1.167,-0.4 c 0.155,0 0.428,-0.017 0.817,-0.05 0.389,0 0.662,0.05 0.817,0.15 0.156,0.1 0.272,0.3 0.351,0.6 0.039,0.333 0.097,0.533 0.175,0.6 0.35,0.3 0.778,0.35 1.284,0.15 0.545,-0.2 0.856,-0.55 0.934,-1.05 1.401,0 2.413,0.05 3.035,0.15 z"
   style="clip-rule:evenodd;fill:#4d2c15;fill-rule:evenodd" /><path
   inkscape:connector-curvature="0"
   id="path114"
   d="m 37.61,1.95 c 0.195,-0.133 0.486,-0.367 0.876,-0.7 1.05,-0.8 1.634,-1.25 1.751,-1.35 0.545,-0.467 0.934,-1.05 1.167,-1.75 L 40.879,-1.9 c 0.04,0.566 -0.467,1.217 -1.517,1.95 -0.895,0.567 -1.498,1 -1.81,1.3 -0.739,0.6 -1.459,1 -2.16,1.2 -0.623,0.2 -1.479,0.317 -2.568,0.35 -0.156,0 -1.031,0.117 -2.626,0.35 C 29.148,3.383 28.272,3.4 27.572,3.3 26.949,3.2 26.152,2.967 25.179,2.6 24.012,2.166 23.214,1.9 22.785,1.8 c 0,0.467 0.292,0.75 0.876,0.85 V 2.8 c 0.35,0.7 0.934,1.117 1.751,1.25 0.506,0.067 1.323,0.1 2.451,0.1 0.312,0.033 0.74,0.133 1.285,0.3 0.583,0.233 0.992,0.367 1.225,0.4 0.156,0.033 0.604,0.066 1.343,0.1 C 32.26,5.016 32.708,5.1 33.058,5.2 32.941,4.9 32.571,4.483 31.949,3.95 33.155,3.65 34.167,3.516 34.984,3.55 34.906,3.084 35.023,2.8 35.334,2.7 35.568,2.633 35.957,2.567 36.501,2.5 36.929,2.367 37.299,2.183 37.61,1.95 Z"
   style="clip-rule:evenodd;fill:#5e371b;fill-rule:evenodd" /><path
   inkscape:connector-curvature="0"
   id="path116"
   d="m 31.891,-13.25 c 2.062,-1.133 3.191,-1.8 3.385,-2 0.35,-0.3 -0.078,-1.317 -1.284,-3.05 -0.078,-0.1 -0.272,-0.133 -0.583,-0.1 -0.428,0.066 -0.778,0.117 -1.051,0.15 l -3.619,0.65 c 0.311,-1.233 0.35,-1.9 0.117,-2 -0.194,-0.1 -1.031,-0.3 -2.51,-0.6 -1.557,-0.3 -2.938,-0.5 -4.145,-0.6 -1.128,-0.133 -2.257,-0.133 -3.385,0 -0.545,0.066 -1.556,0.233 -3.035,0.5 -0.934,0.167 -2.354,0.7 -4.261,1.6 -1.518,0.733 -2.918,1.467 -4.203,2.2 -0.855,0.5 -1.342,1.317 -1.459,2.45 -0.039,0.367 0,1.2 0.117,2.5 0.039,0.466 0.545,0.683 1.518,0.65 0.544,-0.033 1.323,-0.1 2.334,-0.2 0.778,0.033 2.023,0.233 3.735,0.6 -0.428,0.767 -0.701,1.567 -0.817,2.4 -0.078,0.533 0.078,0.983 0.467,1.35 l 0.642,0.35 c 0.312,0.3 0.759,0.367 1.343,0.2 0.039,0 0.486,-0.167 1.343,-0.5 4.669,-1.333 7.043,-1.966 7.121,-1.9 0.155,0.133 1.771,-0.8 4.845,-2.8 0.466,-0.233 1.595,-0.85 3.385,-1.85 z"
   style="clip-rule:evenodd;fill:#a36b2c;fill-rule:evenodd" /><path
   inkscape:connector-curvature="0"
   id="path118"
   d="m 29.789,-12.75 c 2.218,-1 3.386,-1.617 3.502,-1.85 0.156,-0.467 -2.393,-0.233 -7.646,0.7 -0.856,0.167 -1.712,0.566 -2.568,1.2 -0.972,0.767 -1.907,1.3 -2.801,1.6 -1.167,0.4 -2.16,1.033 -2.977,1.9 l -0.935,1.15 c -0.039,0.433 1.09,0.316 3.386,-0.35 2.295,-0.633 3.988,-1.3 5.078,-2 0.662,-0.433 2.315,-1.217 4.961,-2.35 z"
   style="clip-rule:evenodd;fill:#d9c067;fill-rule:evenodd" /><path
   inkscape:connector-curvature="0"
   id="path120"
   d="m 13.446,-11.55 1.459,-1 c 1.128,-0.767 2.102,-1.35 2.918,-1.75 1.284,-0.667 3.288,-1.567 6.012,-2.7 -1.635,-0.5 -2.997,-0.833 -4.086,-1 -0.662,-0.1 -1.303,0.017 -1.926,0.35 -0.739,0.5 -1.381,0.867 -1.926,1.1 -2.918,1.167 -4.922,2 -6.012,2.5 -0.895,0.4 -1.362,0.783 -1.401,1.15 -0.078,0.4 0.389,0.6 1.401,0.6 1.479,0 2.666,0.25 3.561,0.75 z"
   style="clip-rule:evenodd;fill:#d9c067;fill-rule:evenodd" /><path
   inkscape:connector-curvature="0"
   id="path122"
   d="m 34.75,-15.375 c 0.066,-0.019 0.144,-0.044 0.233,-0.075 -0.155,-1.3 -0.428,-2.15 -0.817,-2.55 -0.35,-0.367 -0.836,-0.483 -1.459,-0.35 -0.7,0.2 -1.245,0.333 -1.634,0.4 -0.428,0.067 -1.05,0.083 -1.868,0.05 -0.856,-0.033 -1.518,-0.017 -1.984,0.05 -0.467,0.067 -1.07,0.25 -1.81,0.55 -1.089,0.466 -1.692,0.716 -1.81,0.75 -1.167,0.3 -2.023,0.55 -2.568,0.75 -0.311,0.1 -0.603,0.25 -0.875,0.45 -0.389,0.267 -0.642,0.434 -0.758,0.5 l -4.027,2.25 c -0.778,0.4 -1.265,0.7 -1.459,0.9 -0.156,0.167 -0.409,0.6 -0.759,1.3 -0.428,0.933 -0.525,2 -0.292,3.2 0.428,-0.167 0.896,-0.517 1.401,-1.05 0.545,-0.533 1.031,-0.9 1.459,-1.1 0.583,-0.3 1.226,-0.75 1.926,-1.35 0.895,-0.8 1.479,-1.3 1.751,-1.5 0.35,-0.267 1.42,-0.8 3.21,-1.6 0.078,-0.034 0.759,-0.2 2.043,-0.5 0.934,-0.2 1.42,-0.45 1.459,-0.75 1.051,-0.067 2.491,-0.25 4.32,-0.55 1.623,-0.162 3.063,-0.087 4.318,0.225 z"
   style="clip-rule:evenodd;fill:#854d25;fill-rule:evenodd" /><path
   inkscape:connector-curvature="0"
   id="path124"
   d="m 35.042,-15.35 0.117,0.15 v -0.75 c -0.117,-1.466 -0.603,-2.35 -1.459,-2.65 -0.233,-0.066 -0.836,-0.033 -1.809,0.1 -1.05,0.133 -1.712,0.217 -1.985,0.25 -1.556,0 -2.723,0.05 -3.502,0.15 -0.467,0.067 -1.576,0.483 -3.327,1.25 -1.517,0.567 -2.665,1 -3.443,1.3 -1.323,0.5 -2.413,1 -3.269,1.5 -0.583,0.367 -1.284,1.017 -2.101,1.95 -0.467,0.4 -0.817,0.7 -1.05,0.9 -0.311,0.367 -0.428,0.767 -0.351,1.2 0.701,-0.533 2.102,-1.383 4.203,-2.55 0.351,-0.2 0.973,-0.667 1.868,-1.4 0.856,-0.633 1.538,-0.85 2.043,-0.65 -0.194,-0.433 0.098,-0.8 0.875,-1.1 l 1.81,-0.6 v 0.35 c 0.7,-0.1 0.973,0.1 0.817,0.6 -0.233,0.6 -0.213,0.95 0.059,1.05 0.195,0.066 0.681,0 1.459,-0.2 0.896,-0.233 1.42,-0.35 1.576,-0.35 0.817,-0.033 1.984,-0.15 3.502,-0.35 0.234,-0.033 0.895,-0.033 1.985,0 0.854,0 1.515,-0.05 1.982,-0.15 z"
   style="clip-rule:evenodd;fill:#5e371b;fill-rule:evenodd" /><path
   inkscape:connector-curvature="0"
   id="path126"
   d="m 33.992,-15.45 0.467,0.1 c 0.117,-0.233 0.253,-0.433 0.409,-0.6 0.117,-0.167 0.098,-0.45 -0.058,-0.85 l -0.817,-1.4 c -0.35,-0.2 -0.973,-0.233 -1.868,-0.1 -0.972,0.2 -1.653,0.316 -2.042,0.35 0.117,0.2 0.623,0.367 1.518,0.5 0.584,0.1 0.603,0.517 0.058,1.25 -0.583,-0.2 -1.361,-0.267 -2.334,-0.2 -1.167,0.066 -1.945,0.083 -2.335,0.05 0.039,-0.3 0.292,-0.583 0.759,-0.85 0.234,-0.133 0.604,-0.333 1.109,-0.6 -0.584,-0.2 -1.246,-0.233 -1.985,-0.1 -0.895,0.2 -1.537,0.267 -1.926,0.2 -0.078,0.3 0.019,0.784 0.292,1.45 0.195,0.467 0.059,0.933 -0.409,1.4 0.817,0.067 2.179,-0.1 4.086,-0.5 0.623,-0.133 1.44,-0.2 2.452,-0.2 0.581,0.033 1.456,0.067 2.624,0.1 z"
   style="clip-rule:evenodd;fill:#4d2c15;fill-rule:evenodd" /><path
   inkscape:connector-curvature="0"
   id="path128"
   d="m 31.657,-13.7 c -0.221,0.045 -0.474,0.079 -0.758,0.1 -0.701,-0.133 -1.226,-0.167 -1.576,-0.1 -0.117,0.034 -0.233,0.133 -0.35,0.3 -0.117,0.2 -0.233,0.316 -0.351,0.35 -0.155,0.033 -0.544,0 -1.167,-0.1 -0.505,-0.1 -0.855,-0.083 -1.05,0.05 0,0.033 0,0.25 0,0.65 0.039,0.434 -0.02,0.717 -0.175,0.85 -1.246,0.067 -2.315,0.233 -3.21,0.5 -0.545,0.267 -0.973,0.45 -1.284,0.55 -0.583,0.233 -1.07,0.3 -1.459,0.2 -0.039,-0.667 -0.72,-0.6 -2.043,0.2 -1.323,0.767 -1.907,1.5 -1.751,2.2 0.583,-0.1 0.934,-0.183 1.05,-0.25 l -0.175,0.35 c 0.467,0.033 1.09,-0.1 1.868,-0.4 0.934,-0.333 1.576,-0.533 1.926,-0.6 0.7,-0.1 1.323,-0.25 1.868,-0.45 0.117,-0.067 0.662,-0.35 1.634,-0.85 0.895,-0.467 2.198,-1.15 3.911,-2.05 1.114,-0.588 2.145,-1.088 3.092,-1.5 z"
   style="clip-rule:evenodd;fill:#c2ac5c;fill-rule:evenodd" /><path
   inkscape:connector-curvature="0"
   id="path130"
   d="m 19.167,-10.45 -0.292,0.25 c 0.662,-0.533 1.42,-0.917 2.276,-1.15 0.934,-0.267 2.14,-0.383 3.619,-0.35 0.428,-0.933 1.323,-1.617 2.685,-2.05 0.779,-0.233 2.043,-0.533 3.794,-0.9 -0.467,-0.1 -1.206,-0.033 -2.218,0.2 -1.128,0.233 -1.926,0.4 -2.393,0.5 -1.401,0.233 -3.074,0.85 -5.02,1.85 -0.116,0.067 -0.525,0.267 -1.226,0.6 -0.389,0.2 -0.797,0.55 -1.225,1.05 z"
   style="clip-rule:evenodd;fill:#ffcb79;fill-rule:evenodd" /><path
   inkscape:connector-curvature="0"
   id="path132"
   d="m 17.94,-8.1 c -0.084,0.053 -0.161,0.094 -0.233,0.125 -0.104,-0.042 -0.162,-0.118 -0.176,-0.225 z m -0.232,0.125 c 0.172,0.079 0.484,0.054 0.934,-0.075 0.35,-0.1 0.836,-0.284 1.459,-0.55 -0.039,-0.033 -0.467,-0.083 -1.284,-0.15 -0.583,0 -0.701,-0.233 -0.35,-0.7 -1.323,0 -1.887,0.3 -1.693,0.9 0.165,0.571 0.477,0.763 0.934,0.575 z"
   style="clip-rule:evenodd;fill:#a6844f;fill-rule:evenodd" /><path
   inkscape:connector-curvature="0"
   id="path134"
   d="m 22.61,-9.6 0.175,0.15 c 0.04,-0.066 0.272,-0.233 0.701,-0.5 0.389,-0.233 0.662,-0.45 0.817,-0.65 -0.701,0.067 -1.226,0.117 -1.576,0.15 -0.7,0.133 -1.187,0.3 -1.459,0.5 0.156,0.233 0.35,0.383 0.583,0.45 0.273,0.067 0.526,0.033 0.759,-0.1 z"
   style="clip-rule:evenodd;fill:#a6844f;fill-rule:evenodd" /><path
   inkscape:connector-curvature="0"
   id="path136"
   d="m 28.505,-12.4 c 0.288,-0.162 0.657,-0.345 1.109,-0.55 -0.467,-0.633 -0.895,-0.683 -1.284,-0.15 -0.375,0.526 -0.316,0.759 0.175,0.7 z"
   style="clip-rule:evenodd;fill:#a6844f;fill-rule:evenodd" /><path
   inkscape:connector-curvature="0"
   id="path138"
   d="m 9.477,-12.65 c 0.351,0.167 0.954,0.316 1.81,0.45 0.039,0 0.312,0.034 0.817,0.1 0.249,0.03 0.336,0.072 0.263,0.125 0.582,0.323 0.98,0.314 1.197,-0.025 0.117,-0.233 0.311,-0.633 0.583,-1.2 0.351,-0.4 1.401,-0.8 3.152,-1.2 2.685,-0.6 4.591,-1.583 5.72,-2.95 -0.778,-0.2 -1.362,-0.283 -1.751,-0.25 -0.583,0.267 -1.089,0.383 -1.518,0.35 0,0.4 -0.272,0.65 -0.817,0.75 v 0.45 c -1.439,0.3 -2.393,0.433 -2.86,0.4 l 0.117,0.6 c -0.701,-0.034 -1.187,-0.017 -1.459,0.05 -0.506,0.067 -0.895,0.3 -1.167,0.7 -1.051,-0.267 -1.79,-0.4 -2.218,-0.4 -0.545,0.067 -1.207,0.35 -1.985,0.85 -0.506,0.333 -0.759,0.55 -0.759,0.65 0,0.067 0.292,0.25 0.875,0.55 z"
   style="clip-rule:evenodd;fill:#c2ac5c;fill-rule:evenodd" /><path
   inkscape:connector-curvature="0"
   id="path140"
   d="m 13.038,-11.45 0.408,0.25 c 0.234,-1.333 1.791,-2.483 4.669,-3.45 0.39,-0.133 1.459,-0.483 3.21,-1.05 1.518,-0.6 2.257,-1.167 2.218,-1.7 -0.623,-0.1 -1.207,0.033 -1.751,0.4 -0.039,0.267 -0.039,0.467 0,0.6 -0.351,0 -0.7,0.083 -1.051,0.25 -0.584,0.267 -0.915,0.417 -0.992,0.45 -0.233,0.067 -0.642,0.133 -1.226,0.2 -0.545,0.067 -0.953,0.15 -1.225,0.25 -0.467,0.133 -0.935,0.367 -1.401,0.7 -0.505,0.433 -0.914,0.75 -1.226,0.95 -0.662,0.434 -1.479,0.533 -2.451,0.3 -1.051,-0.233 -1.79,-0.25 -2.218,-0.05 -0.895,0.467 -0.72,0.9 0.525,1.3 0.234,0.1 1.071,0.3 2.511,0.6 z"
   style="clip-rule:evenodd;fill:#a6844f;fill-rule:evenodd" /><path
   inkscape:connector-curvature="0"
   id="path142"
   d="m 13.914,-15.3 c -0.124,-0.068 -0.221,-0.135 -0.292,-0.2 -0.463,0.147 -0.793,0.248 -0.992,0.3 z m 2.801,-1.2 c 1.868,-0.633 3.288,-1.05 4.261,-1.25 -1.167,-0.2 -1.887,-0.3 -2.16,-0.3 -0.623,0 -1.264,0.216 -1.926,0.65 -0.895,0.533 -1.479,0.85 -1.751,0.95 -0.583,0.133 -1.012,0.267 -1.284,0.4 -0.391,0.154 -0.468,0.338 -0.233,0.55 0.716,-0.222 1.747,-0.555 3.093,-1 z"
   style="clip-rule:evenodd;fill:#ffcb79;fill-rule:evenodd" /><g
   id="g146">
				<path
   inkscape:connector-curvature="0"
   id="path144"
   d="m 7.317,-16.5 c -0.855,0.5 -1.342,1.317 -1.459,2.45 -0.039,0.367 0,1.2 0.117,2.5 l 0.117,0.3 0.058,0.05 c 0.078,-0.2 0.234,-0.65 0.467,-1.35 0.156,-0.567 0.35,-0.983 0.584,-1.25 0.194,-0.233 0.583,-0.517 1.167,-0.85 0.311,-0.2 0.739,-0.45 1.284,-0.75 0.545,-0.367 1.381,-0.733 2.51,-1.1 1.323,-0.433 2.198,-0.75 2.626,-0.95 1.089,-0.5 1.867,-0.816 2.334,-0.95 0.7,-0.167 1.518,-0.2 2.451,-0.1 0.234,0.033 0.934,-0.067 2.102,-0.3 1.128,-0.2 1.848,-0.267 2.16,-0.2 0.311,0.067 0.759,0.267 1.342,0.6 0.545,0.233 1.012,0.25 1.4,0.05 l -0.467,0.25 c 0.117,0.033 0.39,0.15 0.817,0.35 0.389,0.1 0.661,0 0.817,-0.3 0.234,-0.034 0.584,-0.017 1.051,0.05 0.233,-0.967 0.252,-1.5 0.058,-1.6 -0.194,-0.1 -1.031,-0.3 -2.51,-0.6 -1.557,-0.3 -2.938,-0.5 -4.145,-0.6 -1.128,-0.133 -2.257,-0.133 -3.385,0 -0.545,0.066 -1.556,0.233 -3.035,0.5 -0.934,0.167 -2.354,0.7 -4.261,1.6 -1.515,0.733 -2.915,1.467 -4.2,2.2 z"
   style="clip-rule:evenodd;fill:#854d25;fill-rule:evenodd" />
			</g><path
   inkscape:connector-curvature="0"
   id="path148"
   d="m 25.412,-18.1 v 0.25 c 0.7,0.333 1.479,0.367 2.334,0.1 0.896,-0.3 1.265,-0.817 1.109,-1.55 -2.141,-0.567 -3.988,-1 -5.545,-1.3 -2.997,-0.633 -4.533,-0.5 -4.611,0.4 h 0.233 c -0.311,0.7 0.545,1.25 2.569,1.65 1.167,0.233 2.471,0.383 3.911,0.45 z"
   style="clip-rule:evenodd;fill:#5e371b;fill-rule:evenodd" /><path
   inkscape:connector-curvature="0"
   id="path150"
   d="m 28.038,-17.45 v -0.25 c 0.506,0.1 0.798,-0.066 0.875,-0.5 0.039,-0.1 0.02,-0.517 -0.058,-1.25 -0.234,-0.033 -0.681,-0.15 -1.342,-0.35 -0.584,-0.2 -1.051,-0.284 -1.401,-0.25 0.117,0.066 0.409,0.35 0.875,0.85 -0.155,-0.1 -0.389,-0.183 -0.7,-0.25 -0.078,0.4 -0.097,0.684 -0.058,0.85 -0.39,-0.066 -0.954,-0.25 -1.693,-0.55 -0.662,-0.233 -1.245,-0.383 -1.751,-0.45 -1.517,-0.133 -2.646,-0.167 -3.385,-0.1 v -1.35 c -0.272,0.133 -0.467,0.5 -0.584,1.1 -0.078,0.6 -0.272,1.017 -0.583,1.25 0.389,0.167 0.973,0.217 1.751,0.15 1.05,-0.067 1.693,-0.083 1.926,-0.05 2.024,0.3 3.133,0.483 3.327,0.55 0.039,0.433 0.409,0.65 1.109,0.65 0.388,0.033 0.953,0.017 1.692,-0.05 z"
   style="clip-rule:evenodd;fill:#4d2c15;fill-rule:evenodd" /><path
   inkscape:connector-curvature="0"
   id="path152"
   d="m 19.487,-9.575 0.146,0.125 c 0.117,-0.066 0.467,-0.233 1.051,-0.5 0.428,-0.267 0.35,-0.433 -0.234,-0.5 -0.35,0 -0.681,0.133 -0.992,0.4 -0.117,0.133 -0.176,0.267 -0.176,0.4 0.028,0.091 0.096,0.116 0.205,0.075 z"
   style="clip-rule:evenodd;fill:#332918;fill-rule:evenodd" /><path
   inkscape:connector-curvature="0"
   id="path154"
   d="m 25.324,-11.875 c 0.344,-0.04 0.568,-0.148 0.671,-0.325 0.078,-0.2 -0.156,-0.283 -0.7,-0.25 -0.623,0.034 -0.798,0.15 -0.525,0.35 0.141,0.121 0.326,0.196 0.554,0.225 z"
   style="clip-rule:evenodd;fill:#332918;fill-rule:evenodd" /><path
   inkscape:connector-curvature="0"
   id="path156"
   d="m 14.497,-14.75 c 0.22,-0.013 0.454,-0.096 0.7,-0.25 0.389,-0.233 0.331,-0.467 -0.175,-0.7 -0.583,-0.267 -1.05,-0.15 -1.4,0.35 -0.312,0.467 -0.02,0.667 0.875,0.6 z"
   style="clip-rule:evenodd;fill:#332918;fill-rule:evenodd" /><path
   inkscape:connector-curvature="0"
   id="path158"
   d="m 12.862,-12.85 -0.292,-0.025 c 0.188,-0.028 0.363,-0.103 0.526,-0.225 0.35,-0.2 0.213,-0.367 -0.409,-0.5 -0.739,-0.133 -1.051,0.017 -0.934,0.45 0.156,0.4 0.526,0.5 1.109,0.3 z"
   style="clip-rule:evenodd;fill:#332918;fill-rule:evenodd" /><path
   inkscape:connector-curvature="0"
   id="path160"
   d="m 30.519,-13.725 c 0.237,-0.045 0.441,-0.12 0.613,-0.225 0.272,-0.167 0.136,-0.333 -0.409,-0.5 -0.895,-0.267 -1.265,-0.15 -1.109,0.35 0.104,0.503 0.406,0.628 0.905,0.375 z"
   style="clip-rule:evenodd;fill:#332918;fill-rule:evenodd" /><path
   inkscape:connector-curvature="0"
   id="path162"
   d="m 20.567,-19.5 c 0.106,-0.045 0.203,-0.079 0.292,-0.1 -0.233,0 -0.409,-0.083 -0.525,-0.25 0.194,-0.066 0.525,-0.133 0.992,-0.2 0.078,-0.034 0.117,-0.133 0.117,-0.3 0,-0.1 0.059,-0.183 0.175,-0.25 0.272,-0.167 0.856,-0.167 1.751,0 -0.7,-0.267 -1.751,-0.4 -3.152,-0.4 -0.7,0 -1.089,0.05 -1.167,0.15 -0.156,0.133 -0.234,0.333 -0.234,0.6 -0.039,0.367 -0.058,0.567 -0.058,0.6 0.428,0.233 0.837,0.35 1.226,0.35 0.078,0 0.272,-0.067 0.583,-0.2 z"
   style="clip-rule:evenodd;fill:#4d2c15;fill-rule:evenodd" /><path
   inkscape:connector-curvature="0"
   id="path164"
   d="m 10.353,-11.45 c -0.117,-0.033 -0.603,-0.033 -1.459,0 -0.623,0.034 -1.051,-0.05 -1.284,-0.25 -0.35,-0.233 -0.486,-0.5 -0.408,-0.8 0.039,-0.167 0.194,-0.45 0.467,-0.85 0.117,-0.2 0.292,-0.566 0.525,-1.1 0.024,-0.043 0.053,-0.085 0.088,-0.125 -0.057,0.027 -0.105,0.052 -0.146,0.075 -0.389,0.233 -0.662,0.483 -0.817,0.75 l -0.468,1.05 c -0.35,0.6 -0.545,1 -0.583,1.2 -0.039,0.4 0.214,0.617 0.758,0.65 0.156,0.033 0.604,0.017 1.343,-0.05 0.116,0 0.68,0 1.692,0 0.739,0.033 1.303,0 1.693,-0.1 h 0.554 c -0.317,-0.027 -0.969,-0.177 -1.955,-0.45 z"
   style="clip-rule:evenodd;fill:#c9a160;fill-rule:evenodd" /><path
   inkscape:connector-curvature="0"
   id="path166"
   d="m 14.322,-8.4 -0.408,-0.25 c -0.701,0.633 -1.09,1.1 -1.167,1.4 -0.04,0.3 0.078,0.567 0.35,0.8 0.233,0.233 0.505,0.367 0.817,0.4 0.7,0.033 1.615,-0.133 2.743,-0.5 0.583,-0.233 1.44,-0.55 2.568,-0.95 -0.428,0 -0.954,0.067 -1.576,0.2 -0.856,0.167 -1.361,0.267 -1.517,0.3 -0.662,0.067 -1.187,0.017 -1.576,-0.15 -0.818,-0.3 -0.896,-0.717 -0.234,-1.25 z"
   style="clip-rule:evenodd;fill:#c9a160;fill-rule:evenodd" />
	</g>
</symbol>
<use
   xlink:href="#Symbol_1"
   width="67.063004"
   height="34.528"
   y="-26.777"
   transform="matrix(4.5272219,0,0,-5.5943086,-9.0129652,1336.0984)"
   style="overflow:visible"
   id="use172"
   x="0" />
</svg>