<?xml version="1.0" encoding="UTF-8" standalone="no"?>
<!-- Generator: Adobe Illustrator 15.1.0, SVG Export Plug-In . SVG Version: 6.00 Build 0)  -->

<svg
   xmlns:dc="http://purl.org/dc/elements/1.1/"
   xmlns:cc="http://creativecommons.org/ns#"
   xmlns:rdf="http://www.w3.org/1999/02/22-rdf-syntax-ns#"
   xmlns:svg="http://www.w3.org/2000/svg"
   xmlns="http://www.w3.org/2000/svg"
   xmlns:sodipodi="http://sodipodi.sourceforge.net/DTD/sodipodi-0.dtd"
   xmlns:inkscape="http://www.inkscape.org/namespaces/inkscape"
   version="1.1"
   id="Layer_1"
   x="0px"
   y="0px"
   width="256"
   height="256"
   viewBox="0 0 256.00001 255.99999"
   xml:space="preserve"
   sodipodi:docname="butter.svg"
   inkscape:version="0.92.4 (5da689c313, 2019-01-14)"
   inkscape:export-xdpi="9"
   inkscape:export-ydpi="9"><title
   id="title832">Butter</title><metadata
   id="metadata25"><rdf:RDF><cc:Work
       rdf:about=""><dc:format>image/svg+xml</dc:format><dc:type
         rdf:resource="http://purl.org/dc/dcmitype/StillImage" /><dc:title>Butter</dc:title><cc:license
         rdf:resource="http://creativecommons.org/publicdomain/zero/1.0/" /><dc:creator><cc:Agent><dc:title>Glitch</dc:title></cc:Agent></dc:creator><dc:source>https://opengameart.org/node/2014</dc:source></cc:Work><cc:License
       rdf:about="http://creativecommons.org/publicdomain/zero/1.0/"><cc:permits
         rdf:resource="http://creativecommons.org/ns#Reproduction" /><cc:permits
         rdf:resource="http://creativecommons.org/ns#Distribution" /><cc:permits
         rdf:resource="http://creativecommons.org/ns#DerivativeWorks" /></cc:License></rdf:RDF></metadata><defs
   id="defs23">
		
		
		
		
		
		
	
	
</defs><sodipodi:namedview
   pagecolor="#ffffff"
   bordercolor="#666666"
   borderopacity="1"
   objecttolerance="10"
   gridtolerance="10"
   guidetolerance="10"
   inkscape:pageopacity="0"
   inkscape:pageshadow="2"
   inkscape:window-width="1920"
   inkscape:window-height="1025"
   id="namedview21"
   showgrid="false"
   inkscape:zoom="1"
   inkscape:cx="104.36664"
   inkscape:cy="-67.997834"
   inkscape:window-x="-8"
   inkscape:window-y="-8"
   inkscape:window-maximized="1"
   inkscape:current-layer="Layer_1"
   fit-margin-top="0"
   fit-margin-left="0"
   fit-margin-right="0"
   fit-margin-bottom="0" />


<g
   id="g939"
   transform="matrix(7.7931084,0,0,7.7931084,-92.345573,-234.37143)"><path
     sodipodi:nodetypes="ccccccccccscccccccc"
     inkscape:connector-curvature="0"
     id="path933"
     d="M 43.5,41.869141 36.550781,44.21875 H 36.5 c 0.133,0.766 0.249609,1.450781 0.349609,2.050781 v 0.798828 c 0.067,0.833 0.09961,1.568172 0.09961,2.201172 0.033,0.433 3.9e-4,0.85 -0.09961,1.25 l -0.09961,0.25 c -0.033,0.1 -0.05078,0.183 -0.05078,0.25 -0.233,0.533 -0.317,1.117 -0.25,1.75 0.033,0.567 0.05078,1.033391 0.05078,1.400391 0,0.3 -0.03261,0.532219 -0.09961,0.699219 l 7.798828,-3.650391 c 0.133,-0.667 0.234781,-1.348828 0.300781,-2.048828 l 0.05078,-0.701172 c 0.033,-0.433 0.04883,-0.865828 0.04883,-1.298828 l 0.09961,-3.900391 c 0,-0.633 -0.09883,-1.10039 -0.298828,-1.40039 z"
     style="clip-rule:evenodd;fill:#fbe775;fill-rule:evenodd" /><path
     sodipodi:nodetypes="cccccccccccccccccccccccccccccccc"
     inkscape:connector-curvature="0"
     id="path926"
     d="m 23.033203,38.070312 c -1.12202,-0.04466 -2.251026,0.05496 -3.349609,0.28711 -1.01716,0.229443 -2.047164,0.400615 -3.083985,0.511719 -0.814987,0.181294 -1.625965,0.376489 -2.43164,0.595703 -0.304084,0.07185 -0.604567,0.193664 -0.839844,0.404297 -0.22085,0.194053 -0.366714,0.464003 -0.427734,0.75 0.244303,-0.140993 0.494432,-0.273017 0.757812,-0.375 0.202115,-0.07517 0.416387,-0.14273 0.634766,-0.125 1.326125,0.270912 2.664203,0.486728 4.007812,0.65039 l 0.04492,0.04492 c 0.0103,0.0061 0.001,-0.03325 0.0039,-0.04492 l 3.201172,0.449219 c 0.786844,0.130811 1.570218,0.281472 2.34961,0.451172 l 3.75,0.798828 c 0.650729,0.129748 1.299862,0.263946 1.949218,0.400391 l 0.5,0.05078 c 0.405881,0.07433 0.806766,0.17817 1.201172,0.298828 0.603185,0.03149 1.156995,0.229099 1.751953,0.333984 1.363217,0.216146 1.94664,0.299479 2.896485,0.515625 0.170998,0.03374 0.338318,0.08547 0.5,0.150391 h 0.101562 L 43.5,41.869141 C 42.866614,41.73606 41.599609,41.46875 41.599609,41.46875 l -3.65039,-0.75 C 37.131981,40.554899 36.315918,40.389062 35.5,40.21875 L 34.650391,40.068359 C 33.436418,39.805483 32.219338,39.555118 31,39.318359 L 28.75,38.96875 c -0.883707,-0.209222 -1.805208,-0.282291 -2.599609,-0.548828 -0.445821,-0.05604 -0.892038,-0.112179 -1.337891,-0.167969 -0.221033,-0.02507 -0.44147,-0.06177 -0.662109,-0.08984 -0.371488,-0.04735 -0.743181,-0.07691 -1.117188,-0.0918 z"
     style="clip-rule:evenodd;fill:#ffffcc;fill-rule:evenodd" /><path
     sodipodi:nodetypes="ccccccccccccccccccccccccccccccccccccccccccccc"
     inkscape:connector-curvature="0"
     id="path905"
     d="m 14.300781,40.119141 c -0.23728,-0.02085 -0.469511,0.05771 -0.6875,0.142578 -0.261817,0.105998 -0.511895,0.237737 -0.753906,0.382812 L 12.732422,41.125 c -0.244321,0.841602 -0.411514,1.70302 -0.56836,2.564453 -0.03764,0.221863 -0.05473,0.446669 -0.08203,0.669922 -0.115533,1.04441 -0.203983,2.09193 -0.232422,3.142578 0.0032,0.476117 0.0079,0.953476 0.07422,1.425781 0.02261,0.154676 0.05325,0.312723 0.128906,0.451172 0.02598,0.06859 0.07102,0.131392 0.138672,0.164063 0.07544,0.03598 0.155734,0.06442 0.232422,0.09766 0.574129,0.230313 1.168622,0.408457 1.775391,0.529297 l 0.951172,0.199219 c 0.120723,0.0315 0.244653,0.04937 0.36914,0.05469 0.209843,0.03436 0.420462,0.06496 0.63086,0.0957 0,0 0.526142,0.08741 0.599609,0.09961 0.383818,0.06433 0.767534,0.12936 1.150391,0.199218 0.416309,0.01875 0.970234,0.184615 1.296875,0.25586 0.600764,0.08231 1.200491,0.187091 1.789062,0.333984 1.625701,0.385879 3.245744,0.792214 4.863281,1.210938 0.534984,0.119818 1.098619,0.235834 1.650391,0.349609 0.683791,0.238945 1.386984,0.421556 2.099609,0.550781 l 1.144532,0.324219 c 0.815346,0.291274 1.56807,0.423998 2.445312,0.591797 0.03718,0.05363 0.11339,0.03145 0.166016,0.05859 0.678486,0.162343 1.359829,0.317229 2.052734,0.404297 0.270842,0.03127 0.546748,0.05907 0.818359,0.02148 0.05983,-0.0093 0.119211,-0.02404 0.173829,-0.05078 0.110401,-0.291362 0.10092,-0.607606 0.09766,-0.914063 -0.007,-0.406146 -0.02407,-0.813466 -0.05078,-1.21875 -0.05868,-0.577569 0.01328,-1.173467 0.248046,-1.707031 0,0 0.09978,-0.329658 0.154297,-0.509766 0.10327,-0.409832 0.131489,-0.836975 0.09961,-1.257812 -4.79e-4,-0.735212 -0.04261,-1.468436 -0.09961,-2.201172 V 46.269531 C 36.735539,45.585524 36.618444,44.902016 36.5,44.21875 c 0,0 -0.381656,-0.104211 -0.550781,-0.150391 L 33.171875,43.488281 C 32.971927,43.284806 31.759426,43.258425 31.300781,43.21875 30.906157,43.09777 30.505976,42.993279 30.099609,42.919922 l -2.449218,-0.451172 -3.91211,-0.833984 c -0.725615,-0.155434 -1.455466,-0.294328 -2.1875,-0.416016 l -3.25,-0.449219 c -1.341215,-0.163842 -2.676382,-0.378528 -4,-0.65039 z"
     style="clip-rule:evenodd;display:inline;fill:#fdf093;fill-rule:evenodd" /></g>
</svg>