<?xml version="1.0" encoding="UTF-8" standalone="no"?>
<!-- Generator: Adobe Illustrator 15.1.0, SVG Export Plug-In . SVG Version: 6.00 Build 0)  -->

<svg
   xmlns:dc="http://purl.org/dc/elements/1.1/"
   xmlns:cc="http://creativecommons.org/ns#"
   xmlns:rdf="http://www.w3.org/1999/02/22-rdf-syntax-ns#"
   xmlns:svg="http://www.w3.org/2000/svg"
   xmlns="http://www.w3.org/2000/svg"
   xmlns:sodipodi="http://sodipodi.sourceforge.net/DTD/sodipodi-0.dtd"
   xmlns:inkscape="http://www.inkscape.org/namespaces/inkscape"
   version="1.1"
   id="Layer_1"
   x="0px"
   y="0px"
   width="256"
   height="256"
   viewBox="0 0 256 256"
   xml:space="preserve"
   sodipodi:docname="cheese_01.svg"
   inkscape:version="0.92.4 (5da689c313, 2019-01-14)"
   inkscape:export-xdpi="10.5"
   inkscape:export-ydpi="10.5"><title
   id="title974">Cheese</title><metadata
   id="metadata167"><rdf:RDF><cc:Work
       rdf:about=""><dc:format>image/svg+xml</dc:format><dc:type
         rdf:resource="http://purl.org/dc/dcmitype/StillImage" /><dc:title>Cheese</dc:title><cc:license
         rdf:resource="http://creativecommons.org/publicdomain/zero/1.0/" /><dc:creator><cc:Agent><dc:title>Glitch</dc:title></cc:Agent></dc:creator><dc:source>https://opengameart.org/node/20149</dc:source></cc:Work><cc:License
       rdf:about="http://creativecommons.org/publicdomain/zero/1.0/"><cc:permits
         rdf:resource="http://creativecommons.org/ns#Reproduction" /><cc:permits
         rdf:resource="http://creativecommons.org/ns#Distribution" /><cc:permits
         rdf:resource="http://creativecommons.org/ns#DerivativeWorks" /></cc:License></rdf:RDF></metadata><defs
   id="defs165" /><sodipodi:namedview
   pagecolor="#ffffff"
   bordercolor="#666666"
   borderopacity="1"
   objecttolerance="10"
   gridtolerance="10"
   guidetolerance="10"
   inkscape:pageopacity="0"
   inkscape:pageshadow="2"
   inkscape:window-width="1920"
   inkscape:window-height="1025"
   id="namedview163"
   showgrid="false"
   inkscape:zoom="0.85301771"
   inkscape:cx="381.94599"
   inkscape:cy="57.618092"
   inkscape:window-x="-8"
   inkscape:window-y="-8"
   inkscape:window-maximized="1"
   inkscape:current-layer="Layer_1"
   fit-margin-top="0"
   fit-margin-left="0"
   fit-margin-right="0"
   fit-margin-bottom="0" />


<g
   id="g142"
   transform="matrix(7.7667728,0,0,7.7667728,-2.330331,-115.17377)">
	<g
   id="g140">
		<g
   id="g138">
			<path
   style="clip-rule:evenodd;fill:#e7cd8b;fill-rule:evenodd"
   d="m 33.26,33.37 h -0.32 l -0.16,-0.081 c -1.387,-1.813 -2.454,-3.119 -3.2,-3.919 -2.026,-2.294 -3.52,-3.934 -4.479,-4.921 -3.92,-4 -6.667,-6 -8.24,-6 -0.72,0 -1.92,0.333 -3.6,1 -1.733,0.773 -3.28,1.6 -4.64,2.48 -1.573,0.933 -2.88,1.906 -3.92,2.92 -1.067,1.014 -1.6,1.747 -1.6,2.2 0,0.507 0.747,1.547 2.24,3.12 1.414,1.732 3.28,3.359 5.6,4.88 2,1.359 3.894,2.934 5.68,4.72 1.547,1.467 2.854,2.507 3.92,3.12 v 0.359 c -0.4,0 -1.653,-0.84 -3.76,-2.52 -3.28,-2.667 -6.347,-5.28 -9.2,-7.84 -3.307,-2.987 -5.066,-4.8 -5.28,-5.44 l -0.08,-0.16 c 0,-0.532 0.693,-1.347 2.08,-2.439 1.227,-0.986 2.213,-1.826 2.96,-2.52 0.533,-0.613 0.986,-1.013 1.36,-1.2 l 2.8,-1.48 c 1.813,-0.96 2.96,-1.494 3.44,-1.6 0.479,-0.24 0.853,-0.374 1.12,-0.4 2.053,0 5.387,2.439 10,7.32 0.187,0.214 1.76,2 4.72,5.359 1.36,1.521 2.187,2.373 2.479,2.561 l 0.081,0.239 v 0.242 z"
   id="path98"
   inkscape:connector-curvature="0" />
			<path
   style="clip-rule:evenodd;fill:#f5e1a3;fill-rule:evenodd"
   d="m 22.939,36.089 c -0.373,-0.373 -0.8,-0.64 -1.28,-0.8 h -1.84 c -1.253,0.721 -1.92,1.12 -2,1.2 -0.16,0.16 -0.266,0.32 -0.32,0.48 -0.054,0.106 -0.08,0.346 -0.08,0.72 0,0.507 0.213,0.907 0.64,1.2 l 0.16,0.16 0.561,0.32 c 0.533,0.213 0.933,0.346 1.2,0.399 0.533,0.106 0.853,0.159 0.96,0.159 0.267,0 0.56,-0.053 0.88,-0.159 l 0.4,-0.08 c 0.054,0 0.293,-0.106 0.72,-0.319 0.586,-0.48 0.88,-1.041 0.88,-1.681 0,-0.293 -0.08,-0.561 -0.24,-0.8 -0.107,-0.212 -0.32,-0.479 -0.641,-0.799 z m -1.759,-3.6 h 1.52 l 0.48,-0.04 -0.08,-0.279 c -0.08,-0.268 -0.32,-0.534 -0.72,-0.8 -0.8,-0.16 -1.307,-0.241 -1.52,-0.241 -0.347,0.16 -0.561,0.468 -0.641,0.921 z m 7.04,-0.4 v 0.081 c 0.106,0.213 0.24,0.372 0.4,0.479 0.133,0.16 0.293,0.24 0.48,0.24 0.133,0 0.24,-0.133 0.32,-0.4 l 0.08,-0.24 c 0.053,-0.106 0.08,-0.266 0.08,-0.479 L 29.42,31.69 H 28.7 l -0.4,0.08 c -0.054,0.053 -0.08,0.159 -0.08,0.319 z m -2.8,-4.239 c 0,-0.08 -0.081,-0.146 -0.241,-0.2 -0.267,-0.134 -0.533,-0.2 -0.8,-0.2 -0.32,0.134 -0.64,0.24 -0.96,0.32 -0.053,0 -0.187,0.054 -0.4,0.16 -0.133,0.293 -0.213,0.467 -0.24,0.52 v 0.601 c 0,0.453 0.213,0.853 0.64,1.2 0.426,0.319 0.827,0.479 1.2,0.479 h 0.24 c 0.293,0 0.533,-0.133 0.72,-0.4 0.213,-0.213 0.32,-0.439 0.32,-0.68 0,-0.72 -0.16,-1.321 -0.479,-1.8 z m -10.88,4.2 c 0,0.533 0.16,0.893 0.48,1.079 0.08,0.107 0.16,0.16 0.24,0.16 0.32,0.16 0.773,0.24 1.36,0.24 0.64,0 1.307,-0.214 2,-0.64 0.48,-0.48 0.72,-0.934 0.72,-1.36 0,-0.159 -0.026,-0.293 -0.08,-0.4 -0.054,-0.319 -0.267,-0.613 -0.64,-0.879 -0.427,-0.214 -1.04,-0.32 -1.84,-0.32 -0.827,0.16 -1.414,0.347 -1.76,0.56 -0.32,0.372 -0.48,0.893 -0.48,1.56 z M 11.1,31.129 c 0.454,0.268 0.747,0.4 0.88,0.4 0.213,0 0.4,-0.08 0.56,-0.24 0.16,-0.319 0.24,-0.532 0.24,-0.64 0,-0.108 -0.027,-0.213 -0.08,-0.32 -0.08,-0.187 -0.133,-0.279 -0.16,-0.279 -0.24,-0.187 -0.427,-0.28 -0.56,-0.28 -0.16,0 -0.426,0.094 -0.8,0.28 -0.374,0.106 -0.693,0.253 -0.96,0.439 0.266,0.268 0.56,0.481 0.88,0.64 z M 9.66,26.17 H 9.1 c -0.08,0.133 -0.187,0.24 -0.32,0.319 -0.213,0.32 -0.32,0.534 -0.32,0.64 0,0.32 0.053,0.641 0.16,0.961 l 0.4,0.399 c 0.32,0.16 0.773,0.24 1.36,0.24 0.32,0 0.64,-0.08 0.959,-0.24 0.32,-0.239 0.48,-0.52 0.48,-0.84 V 27.37 c -0.08,-0.268 -0.32,-0.534 -0.72,-0.8 -0.533,-0.267 -1.013,-0.4 -1.439,-0.4 z m 9.52,-3.601 -0.8,-0.4 c -0.106,-0.053 -0.426,-0.08 -0.96,-0.08 -0.4,0 -0.8,0.08 -1.2,0.24 -0.56,0.133 -0.987,0.307 -1.28,0.52 -1.013,0.4 -1.52,1 -1.52,1.8 0,0.4 0.027,0.64 0.08,0.721 0.187,0.56 0.667,1.053 1.44,1.479 0.054,0.026 0.253,0.107 0.6,0.24 0.267,0.106 0.493,0.173 0.68,0.199 0.533,0.107 0.933,0.16 1.2,0.16 1.04,0 1.76,-0.16 2.16,-0.479 l 0.4,-0.399 c 0.267,-0.454 0.4,-0.987 0.4,-1.601 -10e-4,-0.906 -0.401,-1.706 -1.2,-2.4 z m 13.599,10.72 0.16,0.081 c -0.054,0.105 -0.16,0.159 -0.32,0.159 h -0.16 c -0.213,0.16 -0.586,0.507 -1.12,1.04 -1.04,0.96 -1.813,1.76 -2.319,2.4 -0.427,0.373 -0.854,0.693 -1.28,0.959 l -2.16,1.441 c -2.133,1.439 -3.706,2.613 -4.719,3.52 l -0.16,0.159 -0.16,-0.159 c -1.066,-0.613 -2.373,-1.653 -3.92,-3.12 -1.787,-1.786 -3.68,-3.36 -5.68,-4.72 -2.32,-1.521 -4.186,-3.147 -5.6,-4.88 -1.493,-1.573 -2.24,-2.613 -2.24,-3.12 0,-0.453 0.533,-1.187 1.6,-2.2 1.04,-1.014 2.347,-1.987 3.92,-2.92 1.36,-0.88 2.907,-1.707 4.64,-2.48 1.68,-0.667 2.88,-1 3.6,-1 1.573,0 4.32,2 8.24,6 0.96,0.987 2.453,2.627 4.479,4.921 0.746,0.8 1.813,2.106 3.199,3.919 z"
   id="path100"
   inkscape:connector-curvature="0" />
			<path
   style="clip-rule:evenodd;fill:#ddaf64;fill-rule:evenodd"
   d="m 17.419,22.089 c 0.534,0 0.854,0.027 0.96,0.08 l 0.8,0.4 c 0.8,0.693 1.2,1.493 1.2,2.4 0,0.613 -0.133,1.146 -0.4,1.601 v -0.121 c 0,-0.586 -0.32,-1.187 -0.96,-1.8 -0.48,-0.479 -1.12,-0.72 -1.92,-0.72 -0.933,0 -1.707,0.133 -2.32,0.399 -0.613,0.241 -1.041,0.587 -1.28,1.041 -0.053,-0.081 -0.08,-0.32 -0.08,-0.721 0,-0.8 0.507,-1.399 1.52,-1.8 0.293,-0.213 0.72,-0.387 1.28,-0.52 0.401,-0.159 0.801,-0.239 1.2,-0.239 z"
   id="path102"
   inkscape:connector-curvature="0" />
			<path
   style="clip-rule:evenodd;fill:#bd8437;fill-rule:evenodd"
   d="m 14.939,26.85 c -0.773,-0.427 -1.253,-0.92 -1.44,-1.479 0.24,-0.454 0.667,-0.8 1.28,-1.041 0.613,-0.267 1.387,-0.399 2.32,-0.399 0.8,0 1.44,0.24 1.92,0.72 0.64,0.613 0.96,1.214 0.96,1.8 v 0.121 l -0.4,0.399 c -0.4,0.319 -1.12,0.479 -2.16,0.479 -0.267,0 -0.667,-0.053 -1.2,-0.16 -0.187,-0.026 -0.414,-0.093 -0.68,-0.199 -0.346,-0.134 -0.546,-0.215 -0.6,-0.241 z"
   id="path104"
   inkscape:connector-curvature="0" />
			<path
   style="clip-rule:evenodd;fill:#bd8437;fill-rule:evenodd"
   d="m 25.179,28.729 c 0.32,0.32 0.48,0.641 0.48,0.96 0,0.268 -0.081,0.48 -0.24,0.64 -0.187,0.268 -0.4,0.4 -0.641,0.4 h -0.16 c -0.373,0 -0.773,-0.16 -1.2,-0.479 -0.427,-0.348 -0.64,-0.747 -0.64,-1.2 v -0.601 c 0.053,-0.079 0.133,-0.12 0.24,-0.12 0.106,-0.106 0.24,-0.159 0.4,-0.159 h 0.4 c 0.535,0 0.988,0.186 1.361,0.559 z"
   id="path106"
   inkscape:connector-curvature="0" />
			<path
   style="clip-rule:evenodd;fill:#ddaf64;fill-rule:evenodd"
   d="m 25.179,27.649 c 0.16,0.054 0.241,0.12 0.241,0.2 0.319,0.479 0.479,1.08 0.479,1.8 0,0.24 -0.107,0.467 -0.32,0.68 -0.187,0.268 -0.427,0.4 -0.72,0.4 h -0.06 c 0.232,-0.008 0.438,-0.141 0.621,-0.4 0.159,-0.159 0.24,-0.372 0.24,-0.64 0,-0.319 -0.16,-0.64 -0.48,-0.96 -0.373,-0.373 -0.826,-0.56 -1.36,-0.56 h -0.4 c -0.16,0 -0.293,0.053 -0.4,0.159 -0.107,0 -0.187,0.041 -0.24,0.12 0.027,-0.053 0.107,-0.227 0.24,-0.52 0.213,-0.106 0.347,-0.16 0.4,-0.16 0.32,-0.08 0.64,-0.187 0.96,-0.32 0.266,0.001 0.533,0.068 0.799,0.201 z"
   id="path108"
   inkscape:connector-curvature="0" />
			<path
   style="clip-rule:evenodd;fill:#ddaf64;fill-rule:evenodd"
   d="m 20.86,31.129 c 0.213,0 0.72,0.081 1.52,0.241 0.4,0.266 0.64,0.532 0.72,0.8 -0.533,-0.268 -0.907,-0.4 -1.12,-0.4 -0.586,0.159 -0.987,0.347 -1.2,0.56 l -0.561,-0.279 c 0.08,-0.454 0.294,-0.762 0.641,-0.922 z"
   id="path110"
   inkscape:connector-curvature="0" />
			<path
   style="clip-rule:evenodd;fill:#bd8437;fill-rule:evenodd"
   d="m 23.18,32.449 -2,0.04 -0.4,-0.16 c 0.213,-0.213 0.613,-0.4 1.2,-0.56 0.213,0 0.587,0.133 1.12,0.4 z"
   id="path112"
   inkscape:connector-curvature="0" />
			<path
   style="clip-rule:evenodd;fill:#ddaf64;fill-rule:evenodd"
   d="m 14.54,32.05 c 0,-0.667 0.16,-1.188 0.48,-1.561 0.347,-0.213 0.934,-0.399 1.76,-0.56 0.8,0 1.413,0.106 1.84,0.32 0.373,0.266 0.586,0.56 0.64,0.879 l -0.08,-0.079 c -0.427,-0.214 -0.693,-0.32 -0.8,-0.32 -0.32,0.106 -0.586,0.187 -0.8,0.24 -0.4,0.159 -0.8,0.4 -1.2,0.72 -0.906,0.587 -1.36,1.013 -1.36,1.28 v 0.159 C 14.7,32.942 14.54,32.583 14.54,32.05 Z"
   id="path114"
   inkscape:connector-curvature="0" />
			<path
   style="clip-rule:evenodd;fill:#bd8437;fill-rule:evenodd"
   d="m 15.02,32.97 c 0,-0.268 0.454,-0.693 1.36,-1.28 0.4,-0.319 0.8,-0.561 1.2,-0.72 0.213,-0.054 0.48,-0.134 0.8,-0.24 0.107,0 0.374,0.106 0.8,0.32 l 0.08,0.079 c 0.053,0.107 0.08,0.241 0.08,0.4 0,0.427 -0.24,0.88 -0.72,1.36 -0.693,0.426 -1.36,0.64 -2,0.64 -0.587,0 -1.04,-0.08 -1.36,-0.24 -0.08,0 -0.16,-0.053 -0.24,-0.16 z"
   id="path116"
   inkscape:connector-curvature="0" />
			<path
   style="clip-rule:evenodd;fill:#ddaf64;fill-rule:evenodd"
   d="m 21.66,35.289 c 0.479,0.16 0.907,0.427 1.28,0.8 0.32,0.32 0.533,0.587 0.64,0.801 0.16,0.239 0.24,0.507 0.24,0.8 0,0.64 -0.293,1.2 -0.88,1.681 -0.427,0.213 -0.667,0.319 -0.72,0.319 l -0.4,0.08 c 0.16,-0.054 0.347,-0.187 0.56,-0.399 0.107,-0.32 0.16,-0.534 0.16,-0.641 0,-0.32 -0.4,-0.68 -1.2,-1.08 -0.293,-0.24 -0.56,-0.36 -0.8,-0.36 -0.213,-0.106 -0.4,-0.16 -0.56,-0.16 -0.48,0 -0.907,0.187 -1.28,0.561 -0.32,0.399 -0.507,0.747 -0.561,1.04 0,0.08 0.027,0.187 0.08,0.32 l -0.16,-0.16 c -0.427,-0.293 -0.64,-0.693 -0.64,-1.2 0,-0.374 0.026,-0.613 0.08,-0.72 0.054,-0.16 0.16,-0.32 0.32,-0.48 0.08,-0.08 0.747,-0.479 2,-1.2 h 1.841 z"
   id="path118"
   inkscape:connector-curvature="0" />
			<path
   style="clip-rule:evenodd;fill:#bd8437;fill-rule:evenodd"
   d="m 21.339,37.649 c 0.8,0.4 1.2,0.76 1.2,1.08 0,0.106 -0.053,0.32 -0.16,0.641 -0.213,0.213 -0.4,0.346 -0.56,0.399 -0.32,0.106 -0.613,0.159 -0.88,0.159 -0.107,0 -0.427,-0.053 -0.96,-0.159 -0.267,-0.054 -0.667,-0.187 -1.2,-0.399 l -0.561,-0.32 c -0.053,-0.134 -0.08,-0.24 -0.08,-0.32 0.054,-0.293 0.24,-0.641 0.561,-1.04 0.373,-0.374 0.8,-0.561 1.28,-0.561 0.16,0 0.347,0.054 0.56,0.16 0.241,0 0.507,0.12 0.8,0.36 z"
   id="path120"
   inkscape:connector-curvature="0" />
			<path
   style="clip-rule:evenodd;fill:#ddaf64;fill-rule:evenodd"
   d="m 9.1,26.17 h 0.56 c 0.427,0 0.907,0.133 1.44,0.4 0.4,0.266 0.64,0.532 0.72,0.8 -0.32,-0.16 -0.72,-0.241 -1.2,-0.241 -0.533,0.081 -0.933,0.134 -1.2,0.16 -0.533,0.268 -0.8,0.534 -0.8,0.801 C 8.514,27.77 8.46,27.449 8.46,27.129 8.46,27.024 8.566,26.81 8.78,26.489 8.913,26.41 9.02,26.303 9.1,26.17 Z"
   id="path122"
   inkscape:connector-curvature="0" />
			<path
   style="clip-rule:evenodd;fill:#bd8437;fill-rule:evenodd"
   d="m 10.62,27.129 c 0.48,0 0.88,0.081 1.2,0.241 v 0.279 c 0,0.32 -0.16,0.601 -0.48,0.84 -0.32,0.16 -0.64,0.24 -0.959,0.24 -0.587,0 -1.041,-0.08 -1.36,-0.24 l -0.4,-0.399 c 0,-0.267 0.267,-0.533 0.8,-0.801 0.266,-0.026 0.665,-0.079 1.199,-0.16 z"
   id="path124"
   inkscape:connector-curvature="0" />
			<path
   style="clip-rule:evenodd;fill:#ddaf64;fill-rule:evenodd"
   d="m 10.22,30.489 c 0.267,-0.187 0.586,-0.333 0.96,-0.439 0.374,-0.187 0.64,-0.28 0.8,-0.28 0.133,0 0.32,0.094 0.56,0.28 0.027,0 0.08,0.093 0.16,0.279 L 12.22,30.25 c -0.427,0 -0.72,0.079 -0.88,0.239 -0.16,0.16 -0.24,0.373 -0.24,0.64 -0.32,-0.159 -0.614,-0.372 -0.88,-0.64 z"
   id="path126"
   inkscape:connector-curvature="0" />
			<path
   style="clip-rule:evenodd;fill:#bd8437;fill-rule:evenodd"
   d="m 11.339,30.489 c 0.16,-0.16 0.454,-0.239 0.88,-0.239 l 0.48,0.079 c 0.053,0.107 0.08,0.213 0.08,0.32 0,0.107 -0.08,0.32 -0.24,0.64 -0.16,0.16 -0.347,0.24 -0.56,0.24 -0.133,0 -0.426,-0.133 -0.88,-0.4 10e-4,-0.267 0.081,-0.48 0.24,-0.64 z"
   id="path128"
   inkscape:connector-curvature="0" />
			<path
   style="clip-rule:evenodd;fill:#ddaf64;fill-rule:evenodd"
   d="m 28.22,32.089 c 0,-0.16 0.026,-0.266 0.08,-0.319 l 0.4,-0.08 h 0.72 l 0.16,0.08 c 0,0.214 -0.027,0.373 -0.08,0.479 l -0.08,-0.16 H 29.1 l -0.4,0.081 h -0.48 z"
   id="path130"
   inkscape:connector-curvature="0" />
			<path
   style="clip-rule:evenodd;fill:#bd8437;fill-rule:evenodd"
   d="m 29.1,32.089 h 0.32 l 0.08,0.16 -0.08,0.24 c -0.08,0.268 -0.187,0.4 -0.32,0.4 -0.187,0 -0.347,-0.08 -0.48,-0.24 -0.16,-0.107 -0.293,-0.267 -0.4,-0.479 h 0.479 z"
   id="path132"
   inkscape:connector-curvature="0" />
			<path
   style="clip-rule:evenodd;fill:#f0e0c3;fill-rule:evenodd"
   d="m 32.939,33.37 h 0.32 l -0.16,0.719 c -0.054,0.16 -0.08,0.374 -0.08,0.641 -1.067,0.906 -1.946,1.653 -2.641,2.24 l -3.2,3.08 c -2.667,2.293 -4.906,3.906 -6.72,4.839 -0.08,-0.373 -0.08,-0.826 0,-1.359 l 0.08,-0.28 c 0.106,0 0.16,-0.066 0.16,-0.2 l 0.16,-0.159 c 1.013,-0.906 2.586,-2.08 4.719,-3.52 l 2.16,-1.441 c 0.427,-0.266 0.853,-0.586 1.28,-0.959 0.506,-0.641 1.28,-1.44 2.319,-2.4 0.534,-0.533 0.907,-0.88 1.12,-1.04 h 0.16 c 0.163,-0.002 0.27,-0.055 0.323,-0.161 z"
   id="path134"
   inkscape:connector-curvature="0" />
			<path
   style="clip-rule:evenodd;fill:#edb348;fill-rule:evenodd"
   d="M 10.22,41.05 C 4.38,38.597 1.1,36.702 0.38,35.37 0.326,35.21 0.3,35.05 0.3,34.89 l 0.08,-1.2 c 0.106,-0.319 0.16,-0.587 0.16,-0.8 l 0.8,-2.8 c 0.133,-0.533 0.4,-1.333 0.8,-2.4 0.054,-0.106 0.106,-0.187 0.16,-0.24 0.213,0.641 1.973,2.453 5.28,5.44 2.853,2.56 5.92,5.173 9.2,7.84 2.106,1.68 3.359,2.52 3.76,2.52 l -0.08,0.28 c -0.08,0.533 -0.08,0.986 0,1.359 -0.16,0 -0.24,0.027 -0.24,0.081 -3.814,-1.334 -7.147,-2.641 -10,-3.92 z"
   id="path136"
   inkscape:connector-curvature="0" />
		</g>
	</g>
</g>

</svg>