<?xml version="1.0" encoding="UTF-8" standalone="no"?>
<!-- Generator: Adobe Illustrator 15.1.0, SVG Export Plug-In . SVG Version: 6.00 Build 0)  -->

<svg
   xmlns:dc="http://purl.org/dc/elements/1.1/"
   xmlns:cc="http://creativecommons.org/ns#"
   xmlns:rdf="http://www.w3.org/1999/02/22-rdf-syntax-ns#"
   xmlns:svg="http://www.w3.org/2000/svg"
   xmlns="http://www.w3.org/2000/svg"
   xmlns:xlink="http://www.w3.org/1999/xlink"
   xmlns:sodipodi="http://sodipodi.sourceforge.net/DTD/sodipodi-0.dtd"
   xmlns:inkscape="http://www.inkscape.org/namespaces/inkscape"
   version="1.1"
   id="flash0.ai"
   x="0px"
   y="0px"
   width="256"
   height="256"
   viewBox="0 0 255.99999 255.99999"
   xml:space="preserve"
   sodipodi:docname="egg.svg"
   inkscape:version="0.92.4 (5da689c313, 2019-01-14)"
   inkscape:export-xdpi="10.5"
   inkscape:export-ydpi="10.5"><title
   id="title1484">Egg</title><metadata
   id="metadata677"><rdf:RDF><cc:Work
       rdf:about=""><dc:format>image/svg+xml</dc:format><dc:type
         rdf:resource="http://purl.org/dc/dcmitype/StillImage" /><dc:title>Egg</dc:title><cc:license
         rdf:resource="http://creativecommons.org/publicdomain/zero/1.0/" /><dc:creator><cc:Agent><dc:title>Glitch</dc:title></cc:Agent></dc:creator><dc:source>https://opengameart.org/node/20149</dc:source></cc:Work><cc:License
       rdf:about="http://creativecommons.org/publicdomain/zero/1.0/"><cc:permits
         rdf:resource="http://creativecommons.org/ns#Reproduction" /><cc:permits
         rdf:resource="http://creativecommons.org/ns#Distribution" /><cc:permits
         rdf:resource="http://creativecommons.org/ns#DerivativeWorks" /></cc:License></rdf:RDF></metadata><defs
   id="defs675">
	
	
	
	
	
		
	
		
	
		
	
		
	
		
	
		
	
		
	
		
	
		
	
		
	
		
	
		
	
		
	
		
	
		
	
		
	
		
	
		
	
		
	
		
	
		
	
		
	
		
	
		
	
		
	
		
	
	
	
	
	
	
		
	
		
	
		
	
		
	
		
	
		
	
		
	
		
	
		
	
		
	
		
	
		
	
		
	
		
	
		
	
		
	
		
	
		
	
		
	
		
	
		
	
		
	
		
	
		
	
		
	
		
	
	
	
	
	
	
		
	
		
	
		
	
		
	
		
	
		
	
		
	
		
	
		
	
		
	
		
	
		
	
		
	
		
	
		
	
		
	
		
	
		
	
		
	
		
	
		
	
		
	
		
	
		
	
		
	
		
	
	
	
	
	
	
	
		
	
		
	
		
	
		
	
		
	
		
	
		
	
		
	
		
	
		
	
		
	
		
	
		
	
		
	
		
	
		
	
		
	
		
	
		
	
		
	
		
	
		
	
		
	
		
	
		
	
		
	
	
</defs><sodipodi:namedview
   pagecolor="#ffffff"
   bordercolor="#666666"
   borderopacity="1"
   objecttolerance="10"
   gridtolerance="10"
   guidetolerance="10"
   inkscape:pageopacity="0"
   inkscape:pageshadow="2"
   inkscape:window-width="1920"
   inkscape:window-height="1025"
   id="namedview673"
   showgrid="false"
   inkscape:zoom="0.6678383"
   inkscape:cx="-600.86266"
   inkscape:cy="37.724839"
   inkscape:window-x="-8"
   inkscape:window-y="-8"
   inkscape:window-maximized="1"
   inkscape:current-layer="flash0.ai"
   fit-margin-top="0"
   fit-margin-left="0"
   fit-margin-right="0"
   fit-margin-bottom="0" />
<symbol
   id="flash0.ai_x5F_2_x2F_Layer_3_copy_x2F__x3C_Path_x3E__x5F_10"
   viewBox="0 -1.722 1.564 1.747"
   transform="translate(66.530931,101.5635)">
	<g
   id="Layer_1_97_">
		<path
   style="clip-rule:evenodd;fill:#a95e27;fill-rule:evenodd"
   d="M 0.85,-0.1 C 1.25,-0.333 1.467,-0.483 1.5,-0.55 1.6,-0.683 1.583,-0.967 1.45,-1.4 1.317,-2.033 0.833,-1.733 0,-0.5 c 0,0.133 0.067,0.267 0.2,0.4 0.2,0.167 0.417,0.167 0.65,0 z"
   id="path2"
   inkscape:connector-curvature="0" />
	</g>
</symbol>










<symbol
   id="flash0.ai_x5F_2_x2F_Layer_3_copy_x2F__x3C_Path_x3E__x5F_11"
   viewBox="0 -3.522 2.875 3.502"
   transform="translate(66.530931,101.5635)">
	<g
   id="Layer_1_96_">
		<path
   style="clip-rule:evenodd;fill:#a95e27;fill-rule:evenodd"
   d="m 1.35,-0.2 c 0.5,-0.167 0.917,-0.633 1.25,-1.4 0.367,-0.8 0.367,-1.383 0,-1.75 -0.367,-0.333 -0.8,-0.183 -1.3,0.45 -0.2,0.267 -0.567,0.883 -1.1,1.85 -0.267,0.466 -0.267,0.783 0,0.95 0.233,0.133 0.617,0.1 1.15,-0.1 z"
   id="path46"
   inkscape:connector-curvature="0" />
	</g>
</symbol>





<symbol
   id="flash0.ai_x5F_2_x2F_Layer_3_copy_x2F__x3C_Path_x3E__x5F_115"
   viewBox="-0.015 -3.361 2.392 3.364"
   transform="translate(66.530931,101.5635)">
	<g
   id="Layer_1_11_">
		<path
   style="clip-rule:evenodd;fill:#a95e27;fill-rule:evenodd"
   d="M 2.35,-0.7 C 2.45,-1.333 2.267,-1.967 1.8,-2.6 1.367,-3.167 0.967,-3.417 0.6,-3.35 0.233,-3.283 0.033,-3.017 0,-2.55 c -0.067,0.5 0.083,1.033 0.45,1.6 0.367,0.6 0.767,0.917 1.2,0.95 0.4,0.033 0.633,-0.2 0.7,-0.7 z"
   id="path70"
   inkscape:connector-curvature="0" />
	</g>
</symbol>










<symbol
   id="flash0.ai_x5F_2_x2F_Layer_3_copy_x2F__x3C_Path_x3E__x5F_13"
   viewBox="-0.027 -6.3 3.277 6.301"
   transform="translate(66.530931,101.5635)">
	<g
   id="Layer_1_94_">
		<path
   style="clip-rule:evenodd;fill:#a95e27;fill-rule:evenodd"
   d="M 2.6,-1.7 C 3.033,-2.833 3.25,-3.883 3.25,-4.85 3.217,-5.817 2.783,-6.3 1.95,-6.3 1.117,-6.267 0.533,-5.7 0.2,-4.6 c -0.333,1 -0.3,2.033 0.1,3.1 0.367,0.967 0.75,1.467 1.15,1.5 0.367,0.033 0.75,-0.533 1.15,-1.7 z"
   id="path114"
   inkscape:connector-curvature="0" />
	</g>
</symbol>
<symbol
   id="flash0.ai_x5F_2_x2F_Layer_3_copy_x2F__x3C_Path_x3E__x5F_14"
   viewBox="-0.035 -2.045 1.941 2.045"
   transform="translate(66.530931,101.5635)">
	<g
   id="Layer_1_93_">
		<path
   style="clip-rule:evenodd;fill:#a95e27;fill-rule:evenodd"
   d="M 1.3,0 C 1.633,0 1.834,-0.25 1.9,-0.75 1.933,-1.25 1.833,-1.6 1.6,-1.8 1.333,-2.033 1.033,-2.1 0.7,-2 0.333,-1.9 0.1,-1.667 0,-1.3 -0.167,-0.433 0.267,0 1.3,0 Z"
   id="path118"
   inkscape:connector-curvature="0" />
	</g>
</symbol>
<symbol
   id="flash0.ai_x5F_2_x2F_Layer_3_copy_x2F__x3C_Path_x3E__x5F_15"
   viewBox="-0.035 -4.55 3.952 4.544"
   transform="translate(66.530931,101.5635)">
	<g
   id="Layer_1_92_">
		<path
   style="clip-rule:evenodd;fill:#a95e27;fill-rule:evenodd"
   d="M 2.1,-0.1 C 2.733,0.167 3.25,-0.133 3.65,-1 4.05,-1.867 4,-2.667 3.5,-3.4 3.033,-4.133 2.45,-4.517 1.75,-4.55 c -0.667,0 -1.2,0.267 -1.6,0.8 -0.333,0.5 -0.217,1.183 0.35,2.05 0.5,0.833 1.033,1.367 1.6,1.6 z"
   id="path122"
   inkscape:connector-curvature="0" />
	</g>
</symbol>
<symbol
   id="flash0.ai_x5F_2_x2F_Layer_3_copy_x2F__x3C_Path_x3E__x5F_16"
   viewBox="0.023 -4.557 3.538 4.585"
   transform="translate(66.530931,101.5635)">
	<g
   id="Layer_1_91_">
		<path
   style="clip-rule:evenodd;fill:#a95e27;fill-rule:evenodd"
   d="m 2.05,-0.15 c 0.733,-0.533 1.2,-1.184 1.4,-1.95 0.233,-0.8 0.1,-1.467 -0.4,-2 -0.466,-0.533 -1.066,-0.6 -1.8,-0.2 -0.7,0.367 -1.1,0.867 -1.2,1.5 -0.1,0.633 0.083,1.316 0.55,2.05 0.467,0.767 0.95,0.967 1.45,0.6 z"
   id="path126"
   inkscape:connector-curvature="0" />
	</g>
</symbol>
<symbol
   id="flash0.ai_x5F_2_x2F_Layer_3_copy_x2F__x3C_Path_x3E__x5F_17"
   viewBox="-0.007 -3.737 2.747 3.747"
   transform="translate(66.530931,101.5635)">
	<g
   id="Layer_1_90_">
		<path
   style="clip-rule:evenodd;fill:#a95e27;fill-rule:evenodd"
   d="m 2.65,-0.85 c 0.2,-0.667 0.067,-1.367 -0.4,-2.1 -0.467,-0.7 -0.933,-0.933 -1.4,-0.7 -0.4,0.233 -0.667,0.667 -0.8,1.3 -0.133,0.533 -0.033,1.05 0.3,1.55 0.3,0.466 0.667,0.733 1.1,0.8 0.567,0.067 0.967,-0.217 1.2,-0.85 z"
   id="path130"
   inkscape:connector-curvature="0" />
	</g>
</symbol>
<symbol
   id="flash0.ai_x5F_2_x2F_Layer_3_copy_x2F__x3C_Path_x3E__x5F_18"
   viewBox="-0.005 -4.344 2.449 4.363"
   transform="translate(66.530931,101.5635)">
	<g
   id="Layer_1_89_">
		<path
   style="clip-rule:evenodd;fill:#a95e27;fill-rule:evenodd"
   d="M 1.9,-0.45 C 2.367,-1.083 2.533,-1.867 2.4,-2.8 2.3,-3.667 2.017,-4.167 1.55,-4.3 c -0.433,-0.133 -0.8,0.033 -1.1,0.5 -0.333,0.5 -0.483,1.167 -0.45,2 0.067,0.833 0.3,1.383 0.7,1.65 0.433,0.3 0.833,0.2 1.2,-0.3 z"
   id="path134"
   inkscape:connector-curvature="0" />
	</g>
</symbol>
<symbol
   id="flash0.ai_x5F_2_x2F_Layer_3_copy_x2F__x3C_Path_x3E__x5F_19"
   viewBox="0 -4.273 2.213 4.266"
   transform="translate(66.530931,101.5635)">
	<g
   id="Layer_1_88_">
		<path
   style="clip-rule:evenodd;fill:#a95e27;fill-rule:evenodd"
   d="M 1.35,-0.15 C 1.85,0.183 2.133,-0.067 2.2,-0.9 2.266,-1.733 2.067,-2.584 1.6,-3.45 1.2,-4.25 0.817,-4.467 0.45,-4.1 0.15,-3.767 0,-3.167 0,-2.3 c 0,0.667 0.15,1.167 0.45,1.5 0.1,0.1 0.4,0.317 0.9,0.65 z"
   id="path138"
   inkscape:connector-curvature="0" />
	</g>
</symbol>
<symbol
   id="flash0.ai_x5F_2_x2F_Layer_3_copy_x2F__x3C_Path_x3E__x5F_2"
   viewBox="-0.005 -26.893 19.232 26.887"
   transform="translate(66.530931,101.5635)">
	<g
   id="Layer_1_105_">
		<path
   style="clip-rule:evenodd;fill:#ffffff;fill-rule:evenodd"
   d="m 10.1,-0.8 c 1.7,0.966 3.3,1.05 4.8,0.25 1.434,-0.733 2.533,-2.1 3.3,-4.1 1.8,-4.7 1.233,-9.717 -1.7,-15.05 -2.833,-5.167 -6.133,-7.55 -9.9,-7.15 -3.533,0.367 -5.684,2.667 -6.45,6.9 -0.567,3.167 0.417,6.917 2.95,11.25 2.3,3.9 4.633,6.533 7,7.9 z"
   id="path142"
   inkscape:connector-curvature="0" />
	</g>
</symbol>
<symbol
   id="flash0.ai_x5F_2_x2F_Layer_3_copy_x2F__x3C_Path_x3E__x5F_20"
   viewBox="0 -4.938 4.057 4.94"
   transform="translate(66.530931,101.5635)">
	<g
   id="Layer_1_87_">
		<path
   style="clip-rule:evenodd;fill:#a95e27;fill-rule:evenodd"
   d="m 3.95,-1.45 c 0.3,-1.5 -0.034,-2.533 -1,-3.1 C 2.117,-5.083 1.383,-5.067 0.75,-4.5 0.25,-4.033 0,-3.517 0,-2.95 c 0,0.534 0.267,1.2 0.8,2 0.433,0.667 1.017,0.983 1.75,0.95 0.733,0 1.2,-0.483 1.4,-1.45 z"
   id="path146"
   inkscape:connector-curvature="0" />
	</g>
</symbol>
<symbol
   id="flash0.ai_x5F_2_x2F_Layer_3_copy_x2F__x3C_Path_x3E__x5F_21"
   viewBox="0.012 -3.767 3.745 3.769"
   transform="translate(66.530931,101.5635)">
	<g
   id="Layer_1_86_">
		<path
   style="clip-rule:evenodd;fill:#a95e27;fill-rule:evenodd"
   d="M 3.3,-0.2 C 3.834,-0.533 3.9,-1.083 3.5,-1.85 3.033,-2.717 2.467,-3.3 1.8,-3.6 1.1,-3.933 0.567,-3.767 0.2,-3.1 c -0.267,0.5 -0.25,1.017 0.05,1.55 0.267,0.5 0.717,0.917 1.35,1.25 0.633,0.367 1.2,0.4 1.7,0.1 z"
   id="path150"
   inkscape:connector-curvature="0" />
	</g>
</symbol>
<symbol
   id="flash0.ai_x5F_2_x2F_Layer_3_copy_x2F__x3C_Path_x3E__x5F_22"
   viewBox="-0.019 -2.037 4.713 2.019"
   transform="translate(66.530931,101.5635)">
	<g
   id="Layer_1_85_">
		<path
   style="clip-rule:evenodd;fill:#a95e27;fill-rule:evenodd"
   d="M 3.4,-0.05 C 5,-0.183 5.117,-0.633 3.75,-1.4 2.417,-2.133 1.333,-2.233 0.5,-1.7 c -0.767,0.467 -0.683,0.883 0.25,1.25 0.9,0.367 1.783,0.5 2.65,0.4 z"
   id="path154"
   inkscape:connector-curvature="0" />
	</g>
</symbol>
<symbol
   id="flash0.ai_x5F_2_x2F_Layer_3_copy_x2F__x3C_Path_x3E__x5F_23"
   viewBox="-0.013 -1.366 1.935 1.383"
   transform="translate(66.530931,101.5635)">
	<g
   id="Layer_1_84_">
		<path
   style="clip-rule:evenodd;fill:#a95e27;fill-rule:evenodd"
   d="m 1.25,-0.25 c 0.733,-0.5 0.867,-0.85 0.4,-1.05 -0.5,-0.167 -0.967,-0.017 -1.4,0.45 -0.333,0.434 -0.35,0.7 -0.05,0.8 0.3,0.133 0.65,0.067 1.05,-0.2 z"
   id="path158"
   inkscape:connector-curvature="0" />
	</g>
</symbol>
<symbol
   id="flash0.ai_x5F_2_x2F_Layer_3_copy_x2F__x3C_Path_x3E__x5F_24"
   viewBox="-0.017 -1.715 5.105 1.722"
   transform="translate(66.530931,101.5635)">
	<g
   id="Layer_1_83_">
		<path
   style="clip-rule:evenodd;fill:#a95e27;fill-rule:evenodd"
   d="M 2.9,-0.05 C 3.767,-0.117 4.383,-0.25 4.75,-0.45 5.183,-0.683 5.2,-0.95 4.8,-1.25 4.367,-1.617 3.567,-1.767 2.4,-1.7 1.233,-1.667 0.483,-1.433 0.15,-1 c -0.333,0.4 -0.167,0.683 0.5,0.85 0.567,0.167 1.317,0.2 2.25,0.1 z"
   id="path162"
   inkscape:connector-curvature="0" />
	</g>
</symbol>
<symbol
   id="flash0.ai_x5F_2_x2F_Layer_3_copy_x2F__x3C_Path_x3E__x5F_25"
   viewBox="-0.04 -3.433 4.507 3.508"
   transform="translate(66.530931,101.5635)">
	<g
   id="Layer_1_82_">
		<path
   style="clip-rule:evenodd;fill:#a95e27;fill-rule:evenodd"
   d="M 2.6,-0.2 C 3.4,-0.6 3.9,-0.9 4.1,-1.1 4.533,-1.5 4.583,-2 4.25,-2.6 3.883,-3.267 3.283,-3.533 2.45,-3.4 c -0.8,0.1 -1.417,0.433 -1.85,1 -0.8,1.066 -0.85,1.8 -0.15,2.2 0.633,0.367 1.35,0.367 2.15,0 z"
   id="path166"
   inkscape:connector-curvature="0" />
	</g>
</symbol>
<symbol
   id="flash0.ai_x5F_2_x2F_Layer_3_copy_x2F__x3C_Path_x3E__x5F_26"
   viewBox="0 -3.05 2.6 3.054"
   transform="translate(66.530931,101.5635)">
	<g
   id="Layer_1_81_">
		<path
   style="clip-rule:evenodd;fill:#a95e27;fill-rule:evenodd"
   d="M 1.7,-0.65 C 2.133,-1.317 2.4,-1.767 2.5,-2 2.633,-2.333 2.633,-2.633 2.5,-2.9 2.333,-3.2 1.9,-3.05 1.2,-2.45 0.433,-1.817 0.033,-1.133 0,-0.4 c 0,0.367 0.25,0.483 0.75,0.35 0.467,-0.133 0.783,-0.333 0.95,-0.6 z"
   id="path170"
   inkscape:connector-curvature="0" />
	</g>
</symbol>
<symbol
   id="flash0.ai_x5F_2_x2F_Layer_3_copy_x2F__x3C_Path_x3E__x5F_27"
   viewBox="-0.023 -6.263 4.286 6.239"
   transform="translate(66.530931,101.5635)">
	<g
   id="Layer_1_80_">
		<path
   style="clip-rule:evenodd;fill:#a95e27;fill-rule:evenodd"
   d="M 3.7,-2.5 C 4.133,-3.3 4.317,-4.067 4.25,-4.8 4.183,-5.667 3.717,-6.15 2.85,-6.25 1.916,-6.35 1.166,-5.883 0.6,-4.85 0,-3.783 -0.167,-2.6 0.1,-1.3 c 0.267,1.167 0.8,1.533 1.6,1.1 0.667,-0.4 1.333,-1.167 2,-2.3 z"
   id="path174"
   inkscape:connector-curvature="0" />
	</g>
</symbol>
<symbol
   id="flash0.ai_x5F_2_x2F_Layer_3_copy_x2F__x3C_Path_x3E__x5F_3"
   viewBox="-0.012 -12.67 20.915 12.704"
   transform="translate(66.530931,101.5635)">
	<g
   id="Layer_1_104_">
		<path
   style="clip-rule:evenodd;fill:#ffffff;fill-rule:evenodd"
   d="m 20.7,-2.75 c -0.434,-1.567 -1.034,-2.817 -1.8,-3.75 -1.133,-1.4 -3.133,-2.9 -6,-4.5 -2.833,-1.6 -6.083,-2.05 -9.75,-1.35 -1.367,0.233 -2.316,0.583 -2.85,1.05 -0.533,0.466 -0.383,0.867 0.45,1.2 1.8,0.1 3.367,0.267 4.7,0.5 2.533,0.5 4.533,1.817 6,3.95 2.1,3.033 4.333,4.867 6.7,5.5 2.333,0.6 3.183,-0.267 2.55,-2.6 z"
   id="path178"
   inkscape:connector-curvature="0" />
	</g>
</symbol>





<symbol
   id="flash0.ai_x5F_2_x2F_Layer_3_copy_x2F__x3C_Path_x3E__x5F_4"
   viewBox="-0.035 -1.982 2.117 1.982"
   transform="translate(66.530931,101.5635)">
	<g
   id="Layer_1_103_">
		<path
   style="clip-rule:evenodd;fill:#a95e27;fill-rule:evenodd"
   d="m 1.25,-0.3 c 0.467,-0.3 0.733,-0.633 0.8,-1 0.1,-0.333 -0.033,-0.55 -0.4,-0.65 -0.3,-0.1 -0.633,0.034 -1,0.4 C 0.317,-1.217 0.1,-0.867 0,-0.5 c -0.1,0.3 0.017,0.467 0.35,0.5 0.3,0 0.6,-0.1 0.9,-0.3 z"
   id="path202"
   inkscape:connector-curvature="0" />
	</g>
</symbol>










<symbol
   id="flash0.ai_x5F_2_x2F_Layer_3_copy_x2F__x3C_Path_x3E__x5F_5"
   viewBox="-0.01 -2.87 1.923 2.866"
   transform="translate(66.530931,101.5635)">
	<g
   id="Layer_1_102_">
		<path
   style="clip-rule:evenodd;fill:#a95e27;fill-rule:evenodd"
   d="m 1.7,-0.25 c 0.267,-0.5 0.283,-1 0.05,-1.5 -0.167,-0.433 -0.5,-0.767 -1,-1 C 0.317,-2.95 0.067,-2.9 0,-2.6 c -0.033,0.2 0.017,0.65 0.15,1.35 0.1,0.567 0.35,0.95 0.75,1.15 0.4,0.167 0.667,0.117 0.8,-0.15 z"
   id="path246"
   inkscape:connector-curvature="0" />
	</g>
</symbol>










<symbol
   id="flash0.ai_x5F_2_x2F_Layer_3_copy_x2F__x3C_Path_x3E__x5F_6"
   viewBox="-0.014 -2.222 1.764 2.245"
   transform="translate(66.530931,101.5635)">
	<g
   id="Layer_1_101_">
		<path
   style="clip-rule:evenodd;fill:#a95e27;fill-rule:evenodd"
   d="M 1.7,-0.7 C 1.8,-1.266 1.75,-1.683 1.55,-1.95 1.383,-2.183 1.15,-2.266 0.85,-2.2 0.517,-2.133 0.267,-1.933 0.1,-1.6 c -0.167,0.3 -0.15,0.617 0.05,0.95 0.2,0.333 0.5,0.55 0.9,0.65 0.333,0.1 0.55,-0.133 0.65,-0.7 z"
   id="path290"
   inkscape:connector-curvature="0" />
	</g>
</symbol>




<symbol
   id="flash0.ai_x5F_2_x2F_Layer_3_copy_x2F__x3C_Path_x3E__x5F_7"
   viewBox="0.017 -1.796 1.742 1.799"
   transform="translate(66.530931,101.5635)">
	<g
   id="Layer_1_100_">
		<path
   style="clip-rule:evenodd;fill:#a95e27;fill-rule:evenodd"
   d="m 0.75,0 c 0.733,-0.1 1.067,-0.317 1,-0.65 C 1.683,-0.983 1.533,-1.283 1.3,-1.55 1,-1.817 0.683,-1.867 0.35,-1.7 0.017,-1.5 -0.067,-1.166 0.1,-0.7 0.233,-0.2 0.45,0.033 0.75,0 Z"
   id="path310"
   inkscape:connector-curvature="0" />
	</g>
</symbol>









<symbol
   id="flash0.ai_x5F_2_x2F_Layer_3_copy_x2F__x3C_Path_x3E__x5F_79"
   viewBox="0.011 -1.5 1.558 1.5"
   transform="translate(66.530931,101.5635)">
	<g
   id="Layer_1_41_">
		<path
   style="clip-rule:evenodd;fill:#a95e27;fill-rule:evenodd"
   d="M 1.55,-1.1 C 1.517,-1.367 1.3,-1.5 0.9,-1.5 c -0.367,0.033 -0.617,0.15 -0.75,0.35 -0.167,0.2 -0.183,0.433 -0.05,0.7 0.1,0.267 0.3,0.417 0.6,0.45 0.667,0 0.95,-0.367 0.85,-1.1 z"
   id="path350"
   inkscape:connector-curvature="0" />
	</g>
</symbol>
<symbol
   id="flash0.ai_x5F_2_x2F_Layer_3_copy_x2F__x3C_Path_x3E__x5F_8"
   viewBox="-0.013 -3.557 2.873 3.529"
   transform="translate(66.530931,101.5635)">
	<g
   id="Layer_1_99_">
		<path
   style="clip-rule:evenodd;fill:#a95e27;fill-rule:evenodd"
   d="m 1.95,-0.3 c 0.533,-0.2 0.833,-0.7 0.9,-1.5 0.066,-0.833 -0.2,-1.383 -0.8,-1.65 -0.533,-0.267 -1.033,-0.033 -1.5,0.7 -0.433,0.667 -0.617,1.3 -0.55,1.9 0.067,0.467 0.25,0.733 0.55,0.8 0.267,0.067 0.733,-0.017 1.4,-0.25 z"
   id="path354"
   inkscape:connector-curvature="0" />
	</g>
</symbol>










<symbol
   id="flash0.ai_x5F_2_x2F_Layer_3_copy_x2F__x3C_Path_x3E__x5F_9"
   viewBox="0.012 -3.683 2.294 3.708"
   transform="translate(66.530931,101.5635)">
	<g
   id="Layer_1_98_">
		<path
   style="clip-rule:evenodd;fill:#a95e27;fill-rule:evenodd"
   d="m 1.3,-0.1 c 0.434,-0.2 0.75,-0.8 0.95,-1.8 0.167,-1.033 -0.033,-1.617 -0.6,-1.75 -0.533,-0.133 -0.967,0.133 -1.3,0.8 -0.3,0.6 -0.4,1.184 -0.3,1.75 0.2,1 0.617,1.333 1.25,1 z"
   id="path398"
   inkscape:connector-curvature="0" />
	</g>
</symbol>
<symbol
   id="flash0.ai_x5F_2_x2F_Layer_3_copy_x2F__x3C_Path_x3E__x5F_90"
   viewBox="0.005 -3.313 2.781 3.315"
   transform="translate(66.530931,101.5635)">
	<g
   id="Layer_1_30_">
		<path
   style="clip-rule:evenodd;fill:#a95e27;fill-rule:evenodd"
   d="M 2.45,-2.05 C 2.117,-2.584 1.85,-2.933 1.65,-3.1 1.25,-3.4 0.85,-3.383 0.45,-3.05 0.017,-2.683 -0.1,-2.2 0.1,-1.6 c 0.167,0.567 0.483,0.983 0.95,1.25 0.867,0.5 1.4,0.467 1.6,-0.1 0.233,-0.533 0.167,-1.067 -0.2,-1.6 z"
   id="path402"
   inkscape:connector-curvature="0" />
	</g>
</symbol>



<g
   id="g1451"
   transform="matrix(9.1503735,0,0,9.1503735,-181.56336,-113.90385)"><g
     id="g1385"><path
       inkscape:connector-curvature="0"
       id="path606"
       d="m 33.845,12.448 c 3.074,0 5.795,2.227 8.161,6.68 2.18,4.137 3.084,8.049 2.711,11.738 -0.559,5.701 -3.718,8.851 -9.475,9.446 -0.298,0.074 -0.521,0.112 -0.671,0.112 h -1.453 c -0.186,0 -0.41,-0.038 -0.671,-0.112 -5.738,-0.577 -8.906,-3.727 -9.502,-9.446 -0.373,-3.727 0.521,-7.639 2.683,-11.738 2.33,-4.453 5.068,-6.68 8.217,-6.68 z"
       style="clip-rule:evenodd;display:inline;fill:#e8c9b0;fill-rule:evenodd"
       inkscape:label="shell_01" /><path
       inkscape:connector-curvature="0"
       id="path608"
       d="m 34.739,12.532 c 2.888,0.484 5.394,2.86 7.518,7.126 1.994,4.006 2.814,7.742 2.46,11.208 -0.559,5.701 -3.718,8.851 -9.475,9.446 -0.298,0.074 -0.521,0.112 -0.671,0.112 h -1.453 c -0.186,0 -0.41,-0.038 -0.671,-0.112 -5.496,-0.559 -8.636,-3.475 -9.418,-8.748 0.093,0.504 0.4,1.053 0.922,1.649 0.522,0.577 1.127,1.071 1.817,1.481 1.546,0.894 3.186,1.229 4.919,1.006 1.639,-0.224 3.148,-0.923 4.527,-2.096 3.13,-2.646 4.509,-6.252 4.136,-10.816 -0.187,-2.292 -0.801,-4.49 -1.845,-6.596 -0.911,-1.862 -1.834,-3.082 -2.766,-3.66 z"
       style="clip-rule:evenodd;fill:#e0b28d;fill-rule:evenodd"
       inkscape:label="shell_02" /><path
       inkscape:connector-curvature="0"
       id="path610"
       d="m 35.661,12.756 c 2.684,0.894 4.976,3.382 6.876,7.462 1.788,3.857 2.515,7.406 2.18,10.648 -0.559,5.701 -3.718,8.851 -9.475,9.446 -0.298,0.074 -0.521,0.112 -0.671,0.112 h -1.453 c -0.186,0 -0.41,-0.038 -0.671,-0.112 -1.527,-0.168 -2.869,-0.503 -4.024,-1.006 1.677,0.037 3.345,-0.065 5.003,-0.308 4.621,-0.615 7.267,-3.819 7.938,-9.614 0.261,-2.161 0.204,-4.462 -0.168,-6.903 -0.336,-2.124 -0.801,-3.829 -1.397,-5.114 -1.064,-2.236 -2.442,-3.773 -4.138,-4.611 z"
       style="clip-rule:evenodd;fill:#cc986e;fill-rule:evenodd"
       inkscape:label="shell_03" /><path
       inkscape:connector-curvature="0"
       id="path612"
       d="m 37.785,13.902 c 2.181,1.621 3.97,4.201 5.366,7.742 1.342,3.409 1.863,6.483 1.565,9.223 -0.559,5.701 -3.718,8.851 -9.475,9.446 -0.298,0.074 -0.521,0.112 -0.671,0.112 h -1.453 c -0.186,0 -0.41,-0.038 -0.671,-0.112 -1.546,-0.168 -2.851,-0.494 -3.912,-0.979 l 0.559,0.196 c 3.689,1.154 6.922,0.903 9.698,-0.755 2.608,-1.565 4.053,-3.866 4.332,-6.903 0.335,-3.894 -0.01,-7.49 -1.034,-10.788 -0.968,-3.13 -2.402,-5.524 -4.304,-7.182 z"
       style="clip-rule:evenodd;display:inline;fill:#bf875a;fill-rule:evenodd"
       inkscape:label="shell_04" /><use
       id="use664"
       style="overflow:visible;opacity:0.46090004;enable-background:new"
       transform="matrix(0.559,0,0,-0.559,-12.040891,70.624097)"
       y="-26.893"
       x="-0.0049999999"
       height="26.886999"
       width="19.232"
       xlink:href="#flash0.ai_x5F_2_x2F_Layer_3_copy_x2F__x3C_Path_x3E__x5F_2"
       inkscape:label="shell_05" /><path
       inkscape:connector-curvature="0"
       id="path666"
       d="m 29.373,16.305 c 0.932,-0.541 1.184,-0.065 0.755,1.425 -0.447,1.472 -1.016,2.041 -1.705,1.705 -0.615,-0.298 -0.736,-0.848 -0.363,-1.649 0.336,-0.67 0.773,-1.164 1.313,-1.481 z"
       style="clip-rule:evenodd;fill:#ffffff;fill-rule:evenodd"
       inkscape:label="shell_06" /><path
       inkscape:connector-curvature="0"
       id="path668"
       d="m 27.752,19.854 c 0.26,0.112 0.326,0.345 0.196,0.699 -0.112,0.354 -0.317,0.494 -0.615,0.419 -0.261,-0.074 -0.308,-0.298 -0.14,-0.67 0.187,-0.391 0.373,-0.541 0.559,-0.448 z"
       style="clip-rule:evenodd;fill:#ffffff;fill-rule:evenodd"
       inkscape:label="shell_07" /><use
       id="use662"
       style="overflow:visible;opacity:0.25;enable-background:new"
       transform="matrix(0.559,0,0,-0.559,-6.4905906,89.873597)"
       y="-12.67"
       x="-0.012"
       height="12.704"
       width="20.915001"
       xlink:href="#flash0.ai_x5F_2_x2F_Layer_3_copy_x2F__x3C_Path_x3E__x5F_3"
       inkscape:label="shell_08" /></g><g
     inkscape:label="speckles"
     id="g1413"><use
       id="use444"
       style="overflow:visible;enable-background:new"
       transform="matrix(0.559,0,0,-0.559,-11.690791,76.874097)"
       y="-3.3610001"
       x="-0.015"
       height="3.3640001"
       width="2.392"
       xlink:href="#flash0.ai_x5F_2_x2F_Layer_3_copy_x2F__x3C_Path_x3E__x5F_115" /><use
       id="use492"
       style="overflow:visible;enable-background:new"
       transform="matrix(0.559,0,0,-0.559,2.0094094,78.424397)"
       y="-3.313"
       x="0.0049999999"
       height="3.3150001"
       width="2.7809999"
       xlink:href="#flash0.ai_x5F_2_x2F_Layer_3_copy_x2F__x3C_Path_x3E__x5F_90" /><use
       id="use514"
       style="overflow:visible;enable-background:new"
       transform="matrix(0.559,0,0,-0.559,5.4596094,83.474197)"
       y="-1.5"
       x="0.011"
       height="1.5"
       width="1.558"
       xlink:href="#flash0.ai_x5F_2_x2F_Layer_3_copy_x2F__x3C_Path_x3E__x5F_79" /><use
       id="use614"
       style="overflow:visible;enable-background:new"
       transform="matrix(0.559,0,0,-0.559,-12.990591,87.974197)"
       y="-6.263"
       x="-0.023"
       height="6.2389998"
       width="4.2859998"
       xlink:href="#flash0.ai_x5F_2_x2F_Layer_3_copy_x2F__x3C_Path_x3E__x5F_27" /><use
       x="0"
       id="use616"
       style="overflow:visible;enable-background:new"
       transform="matrix(0.559,0,0,-0.559,-10.740591,93.273997)"
       y="-3.05"
       height="3.0539999"
       width="2.5999999"
       xlink:href="#flash0.ai_x5F_2_x2F_Layer_3_copy_x2F__x3C_Path_x3E__x5F_26" /><use
       id="use618"
       style="overflow:visible;enable-background:new"
       transform="matrix(0.559,0,0,-0.559,-8.4905906,91.474197)"
       y="-3.4330001"
       x="-0.039999999"
       height="3.5079999"
       width="4.507"
       xlink:href="#flash0.ai_x5F_2_x2F_Layer_3_copy_x2F__x3C_Path_x3E__x5F_25" /><use
       id="use620"
       style="overflow:visible;enable-background:new"
       transform="matrix(0.559,0,0,-0.559,-5.6409906,94.873597)"
       y="-1.715"
       x="-0.017000001"
       height="1.722"
       width="5.105"
       xlink:href="#flash0.ai_x5F_2_x2F_Layer_3_copy_x2F__x3C_Path_x3E__x5F_24" /><use
       id="use622"
       style="overflow:visible;enable-background:new"
       transform="matrix(0.559,0,0,-0.559,-8.1409906,95.323797)"
       y="-1.3660001"
       x="-0.013"
       height="1.383"
       width="1.9349999"
       xlink:href="#flash0.ai_x5F_2_x2F_Layer_3_copy_x2F__x3C_Path_x3E__x5F_23" /><use
       id="use624"
       style="overflow:visible;enable-background:new"
       transform="matrix(0.559,0,0,-0.559,-1.1907906,95.073797)"
       y="-2.0369999"
       x="-0.018999999"
       height="2.0190001"
       width="4.7129998"
       xlink:href="#flash0.ai_x5F_2_x2F_Layer_3_copy_x2F__x3C_Path_x3E__x5F_22" /><use
       id="use626"
       style="overflow:visible;enable-background:new"
       transform="matrix(0.559,0,0,-0.559,2.5592094,91.623597)"
       y="-3.767"
       x="0.012"
       height="3.7690001"
       width="3.7449999"
       xlink:href="#flash0.ai_x5F_2_x2F_Layer_3_copy_x2F__x3C_Path_x3E__x5F_21" /><use
       x="0"
       id="use628"
       style="overflow:visible;enable-background:new"
       transform="matrix(0.559,0,0,-0.559,1.8092094,86.123597)"
       y="-4.9380002"
       height="4.9400001"
       width="4.0570002"
       xlink:href="#flash0.ai_x5F_2_x2F_Layer_3_copy_x2F__x3C_Path_x3E__x5F_20" /><use
       x="0"
       id="use630"
       style="overflow:visible;enable-background:new"
       transform="matrix(0.559,0,0,-0.559,5.3590094,87.373597)"
       y="-4.2729998"
       height="4.2659998"
       width="2.2130001"
       xlink:href="#flash0.ai_x5F_2_x2F_Layer_3_copy_x2F__x3C_Path_x3E__x5F_19" /><use
       id="use632"
       style="overflow:visible;enable-background:new"
       transform="matrix(0.559,0,0,-0.559,3.9088094,80.674397)"
       y="-4.3439999"
       x="-0.0049999999"
       height="4.3629999"
       width="2.4489999"
       xlink:href="#flash0.ai_x5F_2_x2F_Layer_3_copy_x2F__x3C_Path_x3E__x5F_18" /><use
       id="use634"
       style="overflow:visible;enable-background:new"
       transform="matrix(0.559,0,0,-0.559,-0.14099059,82.724197)"
       y="-3.737"
       x="-0.0070000002"
       height="3.747"
       width="2.747"
       xlink:href="#flash0.ai_x5F_2_x2F_Layer_3_copy_x2F__x3C_Path_x3E__x5F_17" /><use
       id="use636"
       style="overflow:visible;enable-background:new"
       transform="matrix(0.559,0,0,-0.559,-8.2405906,86.823797)"
       y="-4.5570002"
       x="0.023"
       height="4.585"
       width="3.5380001"
       xlink:href="#flash0.ai_x5F_2_x2F_Layer_3_copy_x2F__x3C_Path_x3E__x5F_16" /><use
       id="use638"
       style="overflow:visible;enable-background:new"
       transform="matrix(0.559,0,0,-0.559,-3.1907906,89.823797)"
       y="-4.5500002"
       x="-0.035"
       height="4.5440001"
       width="3.9519999"
       xlink:href="#flash0.ai_x5F_2_x2F_Layer_3_copy_x2F__x3C_Path_x3E__x5F_15" /><use
       id="use640"
       style="overflow:visible;enable-background:new"
       transform="matrix(0.559,0,0,-0.559,-2.3411906,86.873597)"
       y="-2.0450001"
       x="-0.035"
       height="2.0450001"
       width="1.941"
       xlink:href="#flash0.ai_x5F_2_x2F_Layer_3_copy_x2F__x3C_Path_x3E__x5F_14" /><use
       id="use642"
       style="overflow:visible;enable-background:new"
       transform="matrix(0.559,0,0,-0.559,-11.690791,83.424397)"
       y="-6.3000002"
       x="-0.027000001"
       height="6.3010001"
       width="3.277"
       xlink:href="#flash0.ai_x5F_2_x2F_Layer_3_copy_x2F__x3C_Path_x3E__x5F_13" /><use
       id="use646"
       style="overflow:visible;enable-background:new"
       transform="matrix(0.559,0,0,-0.559,-1.7903906,72.073797)"
       y="-3.5220001"
       x="0"
       height="3.5020001"
       width="2.875"
       xlink:href="#flash0.ai_x5F_2_x2F_Layer_3_copy_x2F__x3C_Path_x3E__x5F_11" /><use
       x="0"
       id="use648"
       style="overflow:visible;enable-background:new"
       transform="matrix(0.559,0,0,-0.559,0.85900941,73.474197)"
       y="-1.722"
       height="1.747"
       width="1.564"
       xlink:href="#flash0.ai_x5F_2_x2F_Layer_3_copy_x2F__x3C_Path_x3E__x5F_10" /><use
       id="use650"
       style="overflow:visible;enable-background:new"
       transform="matrix(0.559,0,0,-0.559,-6.9905906,84.224197)"
       y="-3.6830001"
       x="0.012"
       height="3.7079999"
       width="2.2939999"
       xlink:href="#flash0.ai_x5F_2_x2F_Layer_3_copy_x2F__x3C_Path_x3E__x5F_9" /><use
       id="use652"
       style="overflow:visible;enable-background:new"
       transform="matrix(0.559,0,0,-0.559,-1.9905906,76.823797)"
       y="-3.5569999"
       x="-0.013"
       height="3.529"
       width="2.8729999"
       xlink:href="#flash0.ai_x5F_2_x2F_Layer_3_copy_x2F__x3C_Path_x3E__x5F_8" /><use
       id="use654"
       style="overflow:visible;enable-background:new"
       transform="matrix(0.559,0,0,-0.559,-6.0911906,78.924397)"
       y="-1.796"
       x="0.017000001"
       height="1.799"
       width="1.742"
       xlink:href="#flash0.ai_x5F_2_x2F_Layer_3_copy_x2F__x3C_Path_x3E__x5F_7" /><use
       id="use656"
       style="overflow:visible;enable-background:new"
       transform="matrix(0.559,0,0,-0.559,-10.090691,78.974197)"
       y="-2.2219999"
       x="-0.014"
       height="2.2449999"
       width="1.7640001"
       xlink:href="#flash0.ai_x5F_2_x2F_Layer_3_copy_x2F__x3C_Path_x3E__x5F_6" /><use
       id="use658"
       style="overflow:visible;enable-background:new"
       transform="matrix(0.559,0,0,-0.559,-12.640991,81.424397)"
       y="-2.8699999"
       x="-0.0099999998"
       height="2.8659999"
       width="1.923"
       xlink:href="#flash0.ai_x5F_2_x2F_Layer_3_copy_x2F__x3C_Path_x3E__x5F_5" /><use
       id="use660"
       style="overflow:visible;enable-background:new"
       transform="matrix(0.559,0,0,-0.559,-0.34119059,71.323797)"
       y="-1.982"
       x="-0.035"
       height="1.982"
       width="2.1170001"
       xlink:href="#flash0.ai_x5F_2_x2F_Layer_3_copy_x2F__x3C_Path_x3E__x5F_4" /></g></g>
</svg>