<?xml version="1.0" encoding="UTF-8" standalone="no"?>
<!-- Generator: Adobe Illustrator 15.1.0, SVG Export Plug-In . SVG Version: 6.00 Build 0)  -->

<svg
   xmlns:dc="http://purl.org/dc/elements/1.1/"
   xmlns:cc="http://creativecommons.org/ns#"
   xmlns:rdf="http://www.w3.org/1999/02/22-rdf-syntax-ns#"
   xmlns:svg="http://www.w3.org/2000/svg"
   xmlns="http://www.w3.org/2000/svg"
   xmlns:xlink="http://www.w3.org/1999/xlink"
   xmlns:sodipodi="http://sodipodi.sourceforge.net/DTD/sodipodi-0.dtd"
   xmlns:inkscape="http://www.inkscape.org/namespaces/inkscape"
   version="1.1"
   id="flash0.ai"
   x="0px"
   y="0px"
   width="256"
   height="256"
   viewBox="0 0 255.99999 255.99999"
   xml:space="preserve"
   sodipodi:docname="sandwich_panini.svg"
   inkscape:version="0.92.4 (5da689c313, 2019-01-14)"><title
   id="title1418">Panini</title><metadata
   id="metadata611"><rdf:RDF><cc:Work
       rdf:about=""><dc:format>image/svg+xml</dc:format><dc:type
         rdf:resource="http://purl.org/dc/dcmitype/StillImage" /><dc:title>Panini</dc:title><cc:license
         rdf:resource="http://creativecommons.org/publicdomain/zero/1.0/" /><dc:creator><cc:Agent><dc:title>Glitch</dc:title></cc:Agent></dc:creator><dc:source>https://opengameart.org/node/20149</dc:source></cc:Work><cc:License
       rdf:about="http://creativecommons.org/publicdomain/zero/1.0/"><cc:permits
         rdf:resource="http://creativecommons.org/ns#Reproduction" /><cc:permits
         rdf:resource="http://creativecommons.org/ns#Distribution" /><cc:permits
         rdf:resource="http://creativecommons.org/ns#DerivativeWorks" /></cc:License></rdf:RDF></metadata><defs
   id="defs609" /><sodipodi:namedview
   pagecolor="#ffffff"
   bordercolor="#666666"
   borderopacity="1"
   objecttolerance="10"
   gridtolerance="10"
   guidetolerance="10"
   inkscape:pageopacity="0"
   inkscape:pageshadow="2"
   inkscape:window-width="1920"
   inkscape:window-height="1025"
   id="namedview607"
   showgrid="false"
   inkscape:zoom="0.85437383"
   inkscape:cx="-105.11098"
   inkscape:cy="88.77452"
   inkscape:window-x="-8"
   inkscape:window-y="-8"
   inkscape:window-maximized="1"
   inkscape:current-layer="flash0.ai"
   fit-margin-top="0"
   fit-margin-left="0"
   fit-margin-right="0"
   fit-margin-bottom="0" />
<symbol
   id="flash0.ai_x5F_2_x2F_Layer_13_copy_x2F__x3C_Path_x3E_"
   viewBox="-0.033 -1.033 2.586 1.033"
   transform="translate(-20.718981,220.69999)">
	<g
   id="Layer_1_21_">
		<path
   style="clip-rule:evenodd;fill:#784000;fill-rule:evenodd"
   d="m 1.75,0 c 1,0 1.067,-0.233 0.2,-0.7 C 1.35,-1.033 0.767,-1.117 0.2,-0.95 -0.167,-0.85 -0.1,-0.666 0.4,-0.4 0.867,-0.133 1.317,0 1.75,0 Z"
   id="path2"
   inkscape:connector-curvature="0" />
	</g>
</symbol>
<symbol
   id="flash0.ai_x5F_2_x2F_Layer_13_copy_x2F__x3C_Path_x3E__x5F_1"
   viewBox="-0.012 -1.257 2.694 1.263"
   transform="translate(-20.718981,220.69999)">
	<g
   id="Layer_1_20_">
		<path
   style="clip-rule:evenodd;fill:#784000;fill-rule:evenodd"
   d="M 2.65,-0.3 C 2.75,-0.533 2.617,-0.767 2.25,-1 1.983,-1.2 1.75,-1.283 1.55,-1.25 1.217,-1.15 0.867,-1.067 0.5,-1 c -0.533,0.067 -0.65,0.25 -0.35,0.55 0.267,0.267 0.6,0.417 1,0.45 0.867,0.033 1.367,-0.067 1.5,-0.3 z"
   id="path6"
   inkscape:connector-curvature="0" />
	</g>
</symbol>
<symbol
   id="flash0.ai_x5F_2_x2F_Layer_13_copy_x2F__x3C_Path_x3E__x5F_10"
   viewBox="-0.044 -0.657 2.189 0.664"
   transform="translate(-20.718981,220.69999)">
	<g
   id="Layer_1_11_">
		<path
   style="clip-rule:evenodd;fill:#784000;fill-rule:evenodd"
   d="m 1.1,0 c 1.066,-0.1 1.316,-0.233 0.75,-0.4 -0.567,-0.2 -1.1,-0.283 -1.6,-0.25 -0.333,0.066 -0.383,0.2 -0.15,0.4 0.267,0.2 0.6,0.283 1,0.25 z"
   id="path10"
   inkscape:connector-curvature="0" />
	</g>
</symbol>
<symbol
   id="flash0.ai_x5F_2_x2F_Layer_13_copy_x2F__x3C_Path_x3E__x5F_11"
   viewBox="-0.003 -0.895 3.229 0.909"
   transform="translate(-20.718981,220.69999)">
	<g
   id="Layer_1_10_">
		<path
   style="clip-rule:evenodd;fill:#784000;fill-rule:evenodd"
   d="m 2.05,-0.75 c -0.2,0.033 -0.633,0 -1.3,-0.1 -0.467,-0.1 -0.717,-0.033 -0.75,0.2 -0.033,0.267 0.25,0.45 0.85,0.55 0.533,0.133 1.017,0.15 1.45,0.05 0.467,-0.067 0.767,-0.233 0.9,-0.5 0.133,-0.233 -0.25,-0.3 -1.15,-0.2 z"
   id="path14"
   inkscape:connector-curvature="0" />
	</g>
</symbol>
<symbol
   id="flash0.ai_x5F_2_x2F_Layer_13_copy_x2F__x3C_Path_x3E__x5F_12"
   viewBox="-0.012 -0.4 1.237 0.408"
   transform="translate(-20.718981,220.69999)">
	<g
   id="Layer_1_9_">
		<path
   style="clip-rule:evenodd;fill:#784000;fill-rule:evenodd"
   d="M 1.15,-0.2 C 0.95,-0.333 0.667,-0.4 0.3,-0.4 c -0.3,0 -0.383,0.067 -0.25,0.2 0.133,0.133 0.3,0.2 0.5,0.2 0.6,0.033 0.8,-0.033 0.6,-0.2 z"
   id="path18"
   inkscape:connector-curvature="0" />
	</g>
</symbol>
<symbol
   id="flash0.ai_x5F_2_x2F_Layer_13_copy_x2F__x3C_Path_x3E__x5F_13"
   viewBox="0 -0.767 3.302 0.792"
   transform="translate(-20.718981,220.69999)">
	<g
   id="Layer_1_8_">
		<path
   style="clip-rule:evenodd;fill:#784000;fill-rule:evenodd"
   d="M 0.55,-0.75 C 0.183,-0.717 0,-0.6 0,-0.4 0,-0.167 0.2,-0.033 0.6,0 1.133,0.033 1.7,0.033 2.3,0 3,-0.067 3.334,-0.167 3.3,-0.3 3.233,-0.467 2.883,-0.6 2.25,-0.7 1.717,-0.767 1.15,-0.783 0.55,-0.75 Z"
   id="path22"
   inkscape:connector-curvature="0" />
	</g>
</symbol>
<symbol
   id="flash0.ai_x5F_2_x2F_Layer_13_copy_x2F__x3C_Path_x3E__x5F_14"
   viewBox="0.086 -0.633 1.944 0.633"
   transform="translate(-20.718981,220.69999)">
	<g
   id="Layer_1_7_">
		<path
   style="clip-rule:evenodd;fill:#784000;fill-rule:evenodd"
   d="m 1.25,-0.6 c -0.233,0.1 -0.567,0.15 -1,0.15 -0.2,-0.033 -0.217,0.017 -0.05,0.15 0.233,0.167 0.55,0.267 0.95,0.3 0.3,0 0.567,-0.05 0.8,-0.15 0.133,-0.1 0.1,-0.217 -0.1,-0.35 -0.233,-0.133 -0.433,-0.167 -0.6,-0.1 z"
   id="path26"
   inkscape:connector-curvature="0" />
	</g>
</symbol>
<symbol
   id="flash0.ai_x5F_2_x2F_Layer_13_copy_x2F__x3C_Path_x3E__x5F_15"
   viewBox="-0.016 -1.867 28.916 1.874"
   transform="translate(-20.718981,220.69999)">
	<g
   id="Layer_1_6_">
		<path
   style="clip-rule:evenodd;fill:#784000;fill-rule:evenodd"
   d="M 25.65,-0.65 C 26.017,-0.817 27.1,-1.1 28.9,-1.5 H 17.7 c -0.367,0 -4.15,-0.067 -11.35,-0.2 -0.3,0 -1.467,-0.05 -3.5,-0.15 -1.1,-0.033 -1.9,-0.017 -2.4,0.05 -0.567,0.067 -0.617,0.25 -0.15,0.55 0.434,0.267 0.85,0.433 1.25,0.5 2.1,0.367 3.7,0.55 4.8,0.55 l 9.2,0.2 c 1.733,0.033 4.65,-0.05 8.75,-0.25 z"
   id="path30"
   inkscape:connector-curvature="0" />
	</g>
</symbol>
<symbol
   id="flash0.ai_x5F_2_x2F_Layer_13_copy_x2F__x3C_Path_x3E__x5F_16"
   viewBox="0 -3.079 40.35 3.069"
   transform="translate(-20.718981,220.69999)">
	<g
   id="Layer_1_5_">
		<path
   style="clip-rule:evenodd;fill:#784000;fill-rule:evenodd"
   d="M 38.05,-1.5 C 31.583,-2.033 26.633,-2.283 23.2,-2.25 19,-2.183 13.967,-2.35 8.1,-2.75 4.733,-2.95 2.933,-3.05 2.7,-3.05 1.567,-3.117 0.867,-3.067 0.6,-2.9 0.2,-2.7 0,-2.5 0,-2.3 c 0,0.267 0.383,0.517 1.15,0.75 1.167,0.333 4.567,0.65 10.2,0.95 1.633,0.1 4.083,0.133 7.35,0.1 3.267,0 5.5,0.033 6.7,0.1 1.267,0.033 3.083,0.133 5.45,0.3 2.033,0.1 3.683,0.117 4.95,0.05 2.034,-0.067 3.55,-0.083 4.55,-0.05 z"
   id="path34"
   inkscape:connector-curvature="0" />
	</g>
</symbol>
<symbol
   id="flash0.ai_x5F_2_x2F_Layer_13_copy_x2F__x3C_Path_x3E__x5F_17"
   viewBox="-0.018 -3.75 27.418 3.75"
   transform="translate(-20.718981,220.69999)">
	<g
   id="Layer_1_4_">
		<path
   style="clip-rule:evenodd;fill:#784000;fill-rule:evenodd"
   d="m 27.4,0 -2.8,-1.95 c -1.833,-0.033 -3.05,-0.1 -3.65,-0.2 -0.833,-0.133 -2.267,-0.267 -4.3,-0.4 -2.333,-0.333 -4.383,-0.6 -6.15,-0.8 -1.067,-0.133 -1.983,-0.217 -2.75,-0.25 -0.8,0 -1.483,0 -2.05,0 C 4.1,-3.7 3,-3.75 2.4,-3.75 c -0.5,0 -1,0.1 -1.5,0.3 -0.467,0.2 -0.767,0.417 -0.9,0.65 -0.1,0.2 0.217,0.383 0.95,0.55 C 1.55,-2.083 2.1,-2 2.6,-2 l 6.85,0.5 c 4.667,0.467 7.733,0.717 9.2,0.75 1.4,0.033 4.317,0.283 8.75,0.75 z"
   id="path38"
   inkscape:connector-curvature="0" />
	</g>
</symbol>
<symbol
   id="flash0.ai_x5F_2_x2F_Layer_13_copy_x2F__x3C_Path_x3E__x5F_18"
   viewBox="0 -2.062 11.85 2.062"
   transform="translate(-20.718981,220.69999)">
	<g
   id="Layer_1_3_">
		<path
   style="clip-rule:evenodd;fill:#784000;fill-rule:evenodd"
   d="m 10.35,-1.25 c -2.067,-0.333 -3.6,-0.5 -4.6,-0.5 -0.5,0 -1.217,-0.067 -2.15,-0.2 C 2.767,-2.05 2.217,-2.083 1.95,-2.05 1.65,-2.017 1.4,-1.933 1.2,-1.8 1,-1.6 0.8,-1.5 0.6,-1.5 0.2,-1.433 0,-1.35 0,-1.25 c 0.033,0.133 0.367,0.2 1,0.2 1.067,0 2.35,0.083 3.85,0.25 0.9,0.1 2.283,0.267 4.15,0.5 0.5,0 1.45,0.1 2.85,0.3 z"
   id="path42"
   inkscape:connector-curvature="0" />
	</g>
</symbol>
<symbol
   id="flash0.ai_x5F_2_x2F_Layer_13_copy_x2F__x3C_Path_x3E__x5F_2"
   viewBox="-0.016 -0.904 2.178 0.904"
   transform="translate(-20.718981,220.69999)">
	<g
   id="Layer_1_19_">
		<path
   style="clip-rule:evenodd;fill:#784000;fill-rule:evenodd"
   d="m 0.75,0 c 0.567,0 1,-0.133 1.3,-0.4 0.3,-0.3 0,-0.467 -0.9,-0.5 C 0.283,-0.933 -0.1,-0.783 0,-0.45 0.133,-0.15 0.383,0 0.75,0 Z"
   id="path46"
   inkscape:connector-curvature="0" />
	</g>
</symbol>
<symbol
   id="flash0.ai_x5F_2_x2F_Layer_13_copy_x2F__x3C_Path_x3E__x5F_3"
   viewBox="-0.005 -1.169 3.45 1.174"
   transform="translate(-20.718981,220.69999)">
	<g
   id="Layer_1_18_">
		<path
   style="clip-rule:evenodd;fill:#784000;fill-rule:evenodd"
   d="M 3.4,-0.45 C 3.567,-0.783 3.267,-1 2.5,-1.1 0.967,-1.267 0.133,-1.133 0,-0.7 -0.067,-0.3 0.483,-0.067 1.65,0 2.617,0.033 3.2,-0.117 3.4,-0.45 Z"
   id="path50"
   inkscape:connector-curvature="0" />
	</g>
</symbol>
<symbol
   id="flash0.ai_x5F_2_x2F_Layer_13_copy_x2F__x3C_Path_x3E__x5F_4"
   viewBox="-0.045 -0.783 2.701 0.792"
   transform="translate(-20.718981,220.69999)">
	<g
   id="Layer_1_17_">
		<path
   style="clip-rule:evenodd;fill:#784000;fill-rule:evenodd"
   d="M 1.95,0 C 2.416,-0.033 2.65,-0.1 2.65,-0.2 2.683,-0.233 2.567,-0.333 2.3,-0.5 2.1,-0.633 1.75,-0.717 1.25,-0.75 0.717,-0.817 0.333,-0.783 0.1,-0.65 -0.167,-0.517 -0.067,-0.367 0.4,-0.2 0.867,-0.033 1.383,0.033 1.95,0 Z"
   id="path54"
   inkscape:connector-curvature="0" />
	</g>
</symbol>
<symbol
   id="flash0.ai_x5F_2_x2F_Layer_13_copy_x2F__x3C_Path_x3E__x5F_5"
   viewBox="-0.002 -0.85 3.215 0.817"
   transform="translate(-20.718981,220.69999)">
	<g
   id="Layer_1_16_">
		<path
   style="clip-rule:evenodd;fill:#784000;fill-rule:evenodd"
   d="M 1.75,-0.05 C 2.817,-0.083 3.3,-0.183 3.2,-0.35 3.167,-0.45 2.917,-0.6 2.45,-0.8 c -0.233,-0.067 -0.6,-0.067 -1.1,0 -0.533,0.066 -0.934,0.183 -1.2,0.35 -0.267,0.133 -0.183,0.25 0.25,0.35 0.367,0.067 0.817,0.083 1.35,0.05 z"
   id="path58"
   inkscape:connector-curvature="0" />
	</g>
</symbol>
<symbol
   id="flash0.ai_x5F_2_x2F_Layer_13_copy_x2F__x3C_Path_x3E__x5F_6"
   viewBox="-0.017 -1.1 2.324 1.1"
   transform="translate(-20.718981,220.69999)">
	<g
   id="Layer_1_15_">
		<path
   style="clip-rule:evenodd;fill:#784000;fill-rule:evenodd"
   d="M 1.2,0 C 1.8,0 2.15,-0.1 2.25,-0.3 2.383,-0.5 2.283,-0.683 1.95,-0.85 1.617,-1.017 1.25,-1.1 0.85,-1.1 c -0.4,0 -0.667,0.1 -0.8,0.3 -0.133,0.167 -0.066,0.35 0.2,0.55 C 0.517,-0.083 0.833,0 1.2,0 Z"
   id="path62"
   inkscape:connector-curvature="0" />
	</g>
</symbol>
<symbol
   id="flash0.ai_x5F_2_x2F_Layer_13_copy_x2F__x3C_Path_x3E__x5F_63"
   viewBox="0.033 -12.12 21.33 12.096"
   transform="translate(-20.718981,220.69999)">
	<g
   id="Layer_1_2_">
		<path
   style="clip-rule:evenodd;fill:#4d2f0b;fill-rule:evenodd"
   d="m 20,-12 c -0.5,0.333 -0.85,0.567 -1.05,0.7 -0.3,0.233 -0.667,0.35 -1.1,0.35 -0.467,0 -0.817,-0.117 -1.05,-0.35 -0.333,-0.333 -0.783,-0.383 -1.35,-0.15 l -0.15,1.1 c -0.033,0.233 -0.4,0.483 -1.1,0.75 -0.667,0.267 -1.25,0.4 -1.75,0.4 -1.5,0 -2.717,0.3 -3.65,0.9 C 8.333,-8 7.75,-7.867 7.05,-7.9 6.283,-7.967 5.717,-7.983 5.35,-7.95 4.883,-7.917 4.317,-7.567 3.65,-6.9 3.083,-6.333 2.733,-5.85 2.6,-5.45 2.533,-5.183 2.317,-4.7 1.95,-4 1.517,-3.267 1.267,-2.783 1.2,-2.55 1.1,-2.283 0.9,-2.067 0.6,-1.9 c -0.3,0.2 -0.483,0.4 -0.55,0.6 -0.133,0.466 0.534,0.883 2,1.25 0.933,0.267 4.517,-1.55 10.75,-5.45 6.2,-3.9 9.034,-6.017 8.5,-6.35 -0.433,-0.3 -0.867,-0.35 -1.3,-0.15 z"
   id="path66"
   inkscape:connector-curvature="0" />
	</g>
</symbol>
<symbol
   id="flash0.ai_x5F_2_x2F_Layer_13_copy_x2F__x3C_Path_x3E__x5F_7"
   viewBox="-0.006 -1.114 3.896 1.064"
   transform="translate(-20.718981,220.69999)">
	<g
   id="Layer_1_14_">
		<path
   style="clip-rule:evenodd;fill:#784000;fill-rule:evenodd"
   d="M 3.4,-0.05 C 4.167,-0.05 4.033,-0.234 3,-0.6 1.967,-1 1.15,-1.167 0.55,-1.1 c -0.533,0.067 -0.683,0.233 -0.45,0.5 0.233,0.267 0.517,0.434 0.85,0.5 0.1,0.033 0.917,0.05 2.45,0.05 z"
   id="path70"
   inkscape:connector-curvature="0" />
	</g>
</symbol>
<symbol
   id="flash0.ai_x5F_2_x2F_Layer_13_copy_x2F__x3C_Path_x3E__x5F_8"
   viewBox="-0.002 -0.36 2.214 0.374"
   transform="translate(-20.718981,220.69999)">
	<g
   id="Layer_1_13_">
		<path
   style="clip-rule:evenodd;fill:#784000;fill-rule:evenodd"
   d="M 1.3,-0.35 C 0.4,-0.383 -0.033,-0.333 0,-0.2 0.033,0.067 0.683,0.084 1.95,-0.15 2.45,-0.217 2.233,-0.283 1.3,-0.35 Z"
   id="path74"
   inkscape:connector-curvature="0" />
	</g>
</symbol>
<symbol
   id="flash0.ai_x5F_2_x2F_Layer_13_copy_x2F__x3C_Path_x3E__x5F_9"
   viewBox="-0.025 -0.688 1.74 0.698"
   transform="translate(-20.718981,220.69999)">
	<g
   id="Layer_1_12_">
		<path
   style="clip-rule:evenodd;fill:#784000;fill-rule:evenodd"
   d="M 1,0 C 1.767,-0.1 1.917,-0.267 1.45,-0.5 0.95,-0.733 0.533,-0.75 0.2,-0.55 c -0.3,0.133 -0.3,0.267 0,0.4 C 0.467,-0.017 0.733,0.033 1,0 Z"
   id="path78"
   inkscape:connector-curvature="0" />
	</g>
</symbol>


<g
   id="g604"
   transform="matrix(8.0044967,0,0,8.0044967,-165.84498,-47.842105)">
	
		<linearGradient
   id="SVGID_23_"
   gradientUnits="userSpaceOnUse"
   x1="17.500999"
   y1="25.875"
   x2="42.125999"
   y2="25.875"
   gradientTransform="matrix(-0.75,0,0,0.75,52.7002,8.6001)">
		<stop
   offset="0"
   style="stop-color:#C4A04A"
   id="stop346" />
		<stop
   offset="1"
   style="stop-color:#9C7832"
   id="stop348" />
	</linearGradient>
	<path
   style="clip-rule:evenodd;fill:url(#SVGID_23_);fill-rule:evenodd"
   d="m 21.2,20.713 -0.075,2.813 c 3,2.25 5.5,4.162 7.5,5.737 1.424,1.125 4.163,3.138 8.212,6.037 L 39.574,30.763 39.013,27.2 C 38.038,26.551 36.963,25.9 35.788,25.25 33.437,23.926 31.8,23.225 30.875,23.15 29.375,23.025 26.15,22.213 21.2,20.713 Z"
   id="path351"
   inkscape:connector-curvature="0" />
	<path
   style="clip-rule:evenodd;fill:#e6b95e;fill-rule:evenodd"
   d="m 21.875,21.162 v 2.926 l 6.75,5.175 c 0.625,0.5 3.05,2.287 7.275,5.362 l 0.3,-3.3 -0.263,-1.875 2.362,-2.7 c -3.649,-2.3 -6.125,-3.5 -7.425,-3.6 -1.175,-0.075 -3.813,-0.713 -7.913,-1.913 z"
   id="path353"
   inkscape:connector-curvature="0" />
	
		<linearGradient
   id="SVGID_24_"
   gradientUnits="userSpaceOnUse"
   x1="-16.413099"
   y1="10.6572"
   x2="37.790199"
   y2="10.6572"
   gradientTransform="matrix(-0.595,0.4566,0.4566,0.595,52.6999,8.6001)">
		<stop
   offset="0"
   style="stop-color:#FDCB53"
   id="stop355" />
		<stop
   offset="1"
   style="stop-color:#D48801"
   id="stop357" />
	</linearGradient>
	<path
   style="clip-rule:evenodd;fill:url(#SVGID_24_);fill-rule:evenodd"
   d="M 52.288,22.7 52.213,21.8 C 42.237,22.7 37,23.15 36.5,23.15 l 0.638,6.487 -0.3,5.662 c 1.55,-0.499 3.838,-1.412 6.862,-2.737 2.925,-1.275 5.138,-2.725 6.638,-4.35 l 1.35,-2.025 c 0.175,-0.375 0.325,-0.9 0.45,-1.575 0.099,-0.549 0.15,-1.187 0.15,-1.912 z"
   id="path360"
   inkscape:connector-curvature="0" />
	<path
   style="clip-rule:evenodd;fill:#cca658;fill-rule:evenodd"
   d="m 52.213,21.763 c -0.2,-1.875 -1.663,-3.237 -4.388,-4.087 -3.45,-1.075 -6.662,-1.45 -9.638,-1.125 -1.175,0.125 -3.925,0.737 -8.25,1.837 -3.199,0.8 -6.112,1.575 -8.737,2.325 l 10.612,6.225 4.388,4.388 0.75,0.487 c 1.325,-0.275 2.875,-0.725 4.65,-1.35 3.524,-1.25 6.388,-2.763 8.587,-4.538 1.501,-1.175 2.175,-2.563 2.026,-4.162 z"
   id="path362"
   inkscape:connector-curvature="0" />
	<path
   style="clip-rule:evenodd;fill:#ebd88d;fill-rule:evenodd"
   d="m 29.188,26.037 c 2.7,1.875 5.038,3.638 7.012,5.288 2.35,-0.425 4.513,-1.138 6.487,-2.138 2.825,-1.425 4.9,-2.662 6.226,-3.713 2,-1.625 2.638,-3.05 1.912,-4.274 C 49.4,18.75 46,17.337 40.625,16.962 38.65,16.837 34.925,17.5 29.45,18.95 c -2.726,0.725 -5.25,1.462 -7.575,2.212 2,1.25 4.438,2.875 7.313,4.875 z"
   id="path364"
   inkscape:connector-curvature="0" />
	
		<use
   xlink:href="#flash0.ai_x5F_2_x2F_Layer_13_copy_x2F__x3C_Path_x3E__x5F_63"
   width="21.33"
   height="12.096"
   x="0.033"
   y="-12.12"
   transform="matrix(-0.75,0,0,-0.75,36.410965,188.275)"
   style="overflow:visible;opacity:0.5;enable-background:new"
   id="use366" />
	
		<linearGradient
   id="SVGID_25_"
   gradientUnits="userSpaceOnUse"
   x1="31.166"
   y1="-22.304701"
   x2="34.300999"
   y2="-22.304701"
   gradientTransform="matrix(-0.0598,0.7476,0.7476,0.0598,52.7002,8.6005)">
		<stop
   offset="0"
   style="stop-color:#B5882F"
   id="stop368" />
		<stop
   offset="1"
   style="stop-color:#E6B95E"
   id="stop370" />
	</linearGradient>
	<path
   style="clip-rule:evenodd;fill:url(#SVGID_25_);fill-rule:evenodd"
   d="m 35.15,31.963 c 0.024,-0.476 -0.175,-0.938 -0.601,-1.388 -0.425,-0.425 -0.787,-0.525 -1.087,-0.3 -0.325,0.225 -0.475,0.575 -0.45,1.05 0.024,0.476 0.188,0.899 0.487,1.274 0.325,0.4 0.662,0.563 1.013,0.488 0.4,-0.1 0.613,-0.475 0.638,-1.124 z"
   id="path373"
   inkscape:connector-curvature="0" />
	
		<linearGradient
   id="SVGID_26_"
   gradientUnits="userSpaceOnUse"
   x1="29.374001"
   y1="-25.065399"
   x2="31.304899"
   y2="-25.065399"
   gradientTransform="matrix(-0.0583,0.7477,0.7477,0.0583,52.7002,8.6002)">
		<stop
   offset="0"
   style="stop-color:#B5882F"
   id="stop375" />
		<stop
   offset="1"
   style="stop-color:#E6B95E"
   id="stop377" />
	</linearGradient>
	<path
   style="clip-rule:evenodd;fill:url(#SVGID_26_);fill-rule:evenodd"
   d="m 32.3,29 c -0.375,-0.399 -0.6,-0.225 -0.675,0.525 -0.075,0.775 0.112,1.138 0.563,1.087 0.426,-0.024 0.613,-0.25 0.563,-0.675 C 32.726,29.588 32.575,29.275 32.3,29 Z"
   id="path380"
   inkscape:connector-curvature="0" />
	
		<linearGradient
   id="SVGID_27_"
   gradientUnits="userSpaceOnUse"
   x1="26.2803"
   y1="-30.242201"
   x2="28.863001"
   y2="-30.242201"
   gradientTransform="matrix(-0.0581,0.7477,0.7477,0.0581,52.6996,8.6)">
		<stop
   offset="0"
   style="stop-color:#B5882F"
   id="stop382" />
		<stop
   offset="1"
   style="stop-color:#E6B95E"
   id="stop384" />
	</linearGradient>
	<path
   style="clip-rule:evenodd;fill:url(#SVGID_27_);fill-rule:evenodd"
   d="m 28.438,26.188 c -0.8,-0.225 -1.063,0.112 -0.788,1.013 0.275,0.95 0.675,1.4 1.201,1.35 0.475,-0.024 0.675,-0.375 0.6,-1.05 C 29.35,26.8 29.013,26.363 28.438,26.188 Z"
   id="path387"
   inkscape:connector-curvature="0" />
	
		<linearGradient
   id="SVGID_28_"
   gradientUnits="userSpaceOnUse"
   x1="23.4751"
   y1="-34.326199"
   x2="25.381001"
   y2="-34.326199"
   gradientTransform="matrix(-0.059,0.7477,0.7477,0.059,52.6997,8.5999)">
		<stop
   offset="0"
   style="stop-color:#B5882F"
   id="stop389" />
		<stop
   offset="1"
   style="stop-color:#E6B95E"
   id="stop391" />
	</linearGradient>
	<path
   style="clip-rule:evenodd;fill:url(#SVGID_28_);fill-rule:evenodd"
   d="m 25.625,23.938 c -0.401,-0.15 -0.663,-0.088 -0.788,0.188 -0.125,0.225 -0.125,0.5 0,0.825 0.1,0.3 0.3,0.513 0.601,0.638 0.349,0.149 0.625,0.087 0.825,-0.188 0.225,-0.275 0.262,-0.55 0.113,-0.825 -0.15,-0.275 -0.401,-0.488 -0.751,-0.638 z"
   id="path394"
   inkscape:connector-curvature="0" />
	
		<linearGradient
   id="SVGID_29_"
   gradientUnits="userSpaceOnUse"
   x1="22.1621"
   y1="-36.910599"
   x2="23.2148"
   y2="-36.910599"
   gradientTransform="matrix(-0.0534,0.7481,0.7481,0.0534,52.7005,8.6003)">
		<stop
   offset="0"
   style="stop-color:#B5882F"
   id="stop396" />
		<stop
   offset="1"
   style="stop-color:#E6B95E"
   id="stop398" />
	</linearGradient>
	<path
   style="clip-rule:evenodd;fill:url(#SVGID_29_);fill-rule:evenodd"
   d="m 23.601,23.112 c -0.275,0.226 -0.301,0.463 -0.076,0.713 0.25,0.25 0.488,0.288 0.712,0.112 0.2,-0.15 0.188,-0.362 -0.037,-0.638 -0.25,-0.274 -0.45,-0.336 -0.599,-0.187 z"
   id="path401"
   inkscape:connector-curvature="0" />
	
		<linearGradient
   id="SVGID_30_"
   gradientUnits="userSpaceOnUse"
   x1="21.9946"
   y1="-38.5317"
   x2="23.5497"
   y2="-38.5317"
   gradientTransform="matrix(-0.0603,0.7476,0.7476,0.0603,52.7006,8.6002)">
		<stop
   offset="0"
   style="stop-color:#B5882F"
   id="stop403" />
		<stop
   offset="1"
   style="stop-color:#E6B95E"
   id="stop405" />
	</linearGradient>
	<path
   style="clip-rule:evenodd;fill:url(#SVGID_30_);fill-rule:evenodd"
   d="m 22.362,23.9 c 0.2,0.125 0.375,0.05 0.525,-0.226 0.101,-0.175 0.013,-0.45 -0.262,-0.825 -0.25,-0.399 -0.401,-0.487 -0.451,-0.262 -0.123,0.751 -0.061,1.188 0.188,1.313 z"
   id="path408"
   inkscape:connector-curvature="0" />
	<path
   style="clip-rule:evenodd;fill:#7a5215;fill-rule:evenodd"
   d="m 22.212,19.25 c -0.1,0.175 -0.149,0.438 -0.149,0.787 -0.25,0.926 0.237,1.463 1.462,1.613 0.675,0.074 1.188,0.287 1.538,0.637 0.175,0.2 0.413,0.613 0.712,1.238 0.2,0.625 0.375,1.074 0.525,1.35 0.251,0.475 0.688,0.862 1.313,1.162 0.6,0.301 1.051,0.601 1.35,0.9 0.375,0.475 0.763,0.913 1.163,1.313 0.475,0.5 0.925,0.8 1.351,0.9 0.649,0.175 1.074,0.324 1.274,0.449 0.325,0.2 0.813,0.563 1.463,1.088 0.55,0.45 0.975,0.738 1.274,0.862 0.325,0.15 0.775,0.075 1.351,-0.225 0.75,-0.45 1.412,-0.813 1.987,-1.088 0.625,-0.3 1.737,-0.575 3.338,-0.825 1.524,-0.249 2.412,-0.449 2.662,-0.6 0.85,-0.574 1.875,-0.762 3.075,-0.563 0.375,0.075 0.825,-0.1 1.35,-0.525 0.55,-0.524 0.925,-0.875 1.125,-1.05 0.2,-0.2 0.275,-0.537 0.226,-1.013 -0.025,-0.524 0.013,-0.875 0.112,-1.05 0.099,-0.175 0.388,-0.412 0.862,-0.712 0.425,-0.25 0.688,-0.525 0.787,-0.825 0.126,-0.35 0.088,-0.663 -0.112,-0.938 -0.075,-0.101 -0.337,-0.375 -0.787,-0.825 -0.275,-0.274 -0.413,-0.537 -0.413,-0.787 0.051,-0.351 0.088,-0.663 0.113,-0.938 0.05,-0.35 -0.362,-0.9 -1.238,-1.65 -0.824,-0.675 -1.399,-1.037 -1.725,-1.087 -3.075,-0.3 -7.575,-0.35 -13.5,-0.15 -6.3,0.25 -9.938,0.688 -10.912,1.313 -0.901,0.577 -1.427,0.989 -1.577,1.239 z"
   id="path410"
   inkscape:connector-curvature="0" />
	<path
   style="clip-rule:evenodd;fill:#5e4007;fill-rule:evenodd"
   d="m 22.138,19.475 c -0.025,0.1 -0.05,0.288 -0.075,0.562 -0.25,0.926 0.237,1.463 1.462,1.613 0.675,0.074 1.188,0.287 1.538,0.637 0.175,0.2 0.413,0.613 0.712,1.238 0.2,0.625 0.375,1.074 0.525,1.35 0.251,0.475 0.688,0.862 1.313,1.162 0.6,0.301 1.051,0.601 1.35,0.9 0.375,0.475 0.763,0.913 1.163,1.313 0.475,0.5 0.925,0.8 1.351,0.9 0.649,0.175 1.074,0.324 1.274,0.449 0.325,0.2 0.813,0.563 1.463,1.088 0.55,0.45 0.975,0.738 1.274,0.862 0.325,0.175 0.838,0.063 1.538,-0.337 -0.125,-0.45 -0.338,-0.688 -0.638,-0.713 -0.425,-0.024 -0.85,-0.212 -1.275,-0.563 -0.1,-0.075 -0.337,-0.3 -0.712,-0.675 -0.1,-0.125 -0.475,-0.313 -1.125,-0.563 C 32.475,28.375 32,28.175 31.851,28.1 31.175,27.701 30.488,27.076 29.788,26.225 29.513,25.901 29.05,25.588 28.4,25.287 27.7,24.963 27.25,24.7 27.05,24.5 26.8,24.275 26.601,23.775 26.45,23 26.299,22.225 26.112,21.713 25.887,21.463 25.587,21.162 25.012,20.975 24.162,20.9 23.737,20.85 23.249,20.799 22.699,20.75 22.45,20.725 22.263,20.3 22.138,19.475 Z"
   id="path412"
   inkscape:connector-curvature="0" />
	<path
   style="clip-rule:evenodd;fill:#634506;fill-rule:evenodd"
   d="m 50.375,26.675 c 0.2,-0.2 0.275,-0.537 0.226,-1.013 -0.025,-0.524 0.013,-0.875 0.112,-1.05 C 50.812,24.437 51.101,24.2 51.575,23.9 52,23.65 52.263,23.375 52.362,23.075 52.488,22.675 52.4,22.3 52.1,21.95 c -0.275,0.6 -0.737,1.162 -1.388,1.688 -0.474,0.375 -0.712,0.85 -0.712,1.425 0,0.625 -0.063,1.013 -0.188,1.162 -0.275,0.301 -0.712,0.575 -1.313,0.825 -0.6,0.251 -1.125,0.362 -1.575,0.338 -0.399,-0.05 -0.912,0.05 -1.537,0.3 -0.225,0.075 -0.774,0.325 -1.65,0.75 -0.35,0.176 -1.037,0.313 -2.063,0.412 -1.024,0.101 -1.762,0.263 -2.212,0.488 -1.351,0.699 -2.375,1.087 -3.075,1.162 -0.25,0.025 -0.399,0.4 -0.45,1.125 0.275,-0.024 0.675,-0.175 1.2,-0.45 0.825,-0.475 1.388,-0.787 1.688,-0.938 0.625,-0.3 1.737,-0.575 3.338,-0.825 1.524,-0.249 2.412,-0.449 2.662,-0.6 0.85,-0.574 1.875,-0.762 3.075,-0.563 0.375,0.075 0.825,-0.1 1.35,-0.525 0.55,-0.524 0.925,-0.874 1.125,-1.049 z"
   id="path414"
   inkscape:connector-curvature="0" />
	<path
   style="clip-rule:evenodd;fill:#e3b309;fill-rule:evenodd"
   d="m 20.75,17.938 c -0.076,0.35 -0.012,0.838 0.188,1.462 0,0.575 0.287,0.888 0.862,0.938 l 0.263,-0.45 c 0.25,-0.35 0.85,-0.075 1.799,0.825 0.7,0.75 1.725,1.412 3.076,1.987 0.6,0.25 1.212,0.675 1.837,1.274 0.826,0.801 1.438,1.338 1.837,1.613 0.55,0.4 1.226,0.925 2.025,1.574 0.726,0.625 1.237,1.038 1.537,1.238 1.251,0.899 2.338,1.313 3.263,1.237 0.575,-0.075 0.976,-0.125 1.2,-0.15 0.325,-0.024 0.55,0.025 0.675,0.15 0.075,0.05 0.112,0.263 0.112,0.638 0,0.35 0.126,0.637 0.375,0.862 0.525,0.45 1.025,0.225 1.5,-0.675 0.126,-0.375 0.226,-0.663 0.301,-0.863 0.125,-0.35 0.337,-0.649 0.637,-0.899 0.275,-0.25 0.801,-0.513 1.575,-0.788 0.976,-0.375 1.726,-0.712 2.25,-1.012 0.801,-0.45 1.425,-0.851 1.875,-1.2 0.351,-0.3 0.825,-0.775 1.425,-1.425 0.501,-0.55 0.938,-0.9 1.313,-1.051 0.226,-0.1 0.601,-0.188 1.125,-0.262 0.4,-0.025 0.65,-0.088 0.75,-0.188 0.101,-0.101 0.126,-0.288 0.075,-0.563 0.051,-0.5 0.063,-0.913 0.038,-1.238 -0.051,-0.625 -0.375,-1.087 -0.976,-1.387 -1.125,-0.85 -1.875,-1.35 -2.25,-1.5 -2.05,-0.85 -6.575,-1.413 -13.575,-1.688 -6.475,-0.25 -10.725,-0.188 -12.75,0.188 -1.424,0.277 -2.212,0.728 -2.362,1.353 z"
   id="path416"
   inkscape:connector-curvature="0" />
	<path
   style="clip-rule:evenodd;fill:#ffd129;fill-rule:evenodd"
   d="m 21.913,16.888 c -0.851,0.45 -1.088,0.875 -0.713,1.275 0.2,0.2 0.649,0.425 1.35,0.675 0.975,0.375 1.788,1.063 2.438,2.063 0.225,0.375 0.688,0.688 1.388,0.938 0.95,0.325 1.7,0.675 2.25,1.05 1.025,0.675 1.75,1.188 2.174,1.537 0.601,0.5 1.251,1.138 1.95,1.913 1.45,1.625 3.075,2.438 4.875,2.438 1.45,0 2.7,-0.313 3.75,-0.938 2.45,-1.3 3.95,-2.176 4.5,-2.625 2.05,-1.525 3.525,-2.487 4.425,-2.888 0.55,-0.25 1.051,-0.601 1.5,-1.05 0.426,-0.425 0.638,-0.738 0.638,-0.938 0,-0.176 -0.263,-0.45 -0.787,-0.825 -0.5,-0.375 -0.976,-0.638 -1.425,-0.788 -0.101,-0.025 -1.088,-0.587 -2.963,-1.688 -1.675,-1 -2.85,-1.525 -3.525,-1.575 -2.699,-0.15 -6.699,-0.075 -12,0.225 -5.65,0.326 -8.925,0.726 -9.825,1.201 z"
   id="path418"
   inkscape:connector-curvature="0" />
	<path
   style="clip-rule:evenodd;fill:#ffeda8;fill-rule:evenodd"
   d="m 52.138,21.35 c -0.15,0.101 -0.212,0.213 -0.188,0.338 0,0.05 0.05,0.15 0.15,0.3 0.05,0.075 0.037,0.125 -0.038,0.15 -0.1,0.05 -0.149,0.138 -0.149,0.263 -0.025,0.175 0.037,0.287 0.188,0.337 0.149,0.05 0.262,0 0.337,-0.149 0.025,-0.075 0.025,-0.213 0,-0.413 -0.05,-0.225 -0.05,-0.438 0,-0.638 0.025,-0.25 0.013,-0.375 -0.037,-0.375 -0.026,0.025 -0.113,0.087 -0.263,0.187 z"
   id="path420"
   inkscape:connector-curvature="0" />
	<path
   style="clip-rule:evenodd;fill:#ffeda8;fill-rule:evenodd"
   d="m 40.775,29.412 c -0.25,0.025 -0.413,0.226 -0.487,0.601 -0.051,0.35 -0.013,0.625 0.112,0.825 0.175,0.274 0.438,0.025 0.787,-0.75 0.1,-0.175 0.1,-0.338 0,-0.488 -0.099,-0.15 -0.237,-0.212 -0.412,-0.188 z"
   id="path422"
   inkscape:connector-curvature="0" />
	<path
   style="clip-rule:evenodd;fill:#ffeda8;fill-rule:evenodd"
   d="m 36.612,28.4 c -1.05,-0.075 -2.087,-0.525 -3.112,-1.351 0.375,0.375 0.763,0.7 1.163,0.976 0.324,0.225 0.587,0.375 0.787,0.449 0.275,0.075 0.838,0.163 1.688,0.263 0.75,0.101 1.524,0.063 2.325,-0.112 l 0.975,-0.3 -1.875,0.188 c -1.05,0.075 -1.701,0.037 -1.951,-0.113 z"
   id="path424"
   inkscape:connector-curvature="0" />
	<path
   style="clip-rule:evenodd;fill:#ffeda8;fill-rule:evenodd"
   d="m 21.538,19.438 c -0.101,0.25 -0.101,0.413 0,0.488 0.074,0.074 0.162,0.024 0.262,-0.151 0.101,-0.125 0.101,-0.275 0,-0.45 -0.1,-0.15 -0.188,-0.113 -0.262,0.113 z"
   id="path426"
   inkscape:connector-curvature="0" />
	<path
   style="clip-rule:evenodd;fill:#ebac65;fill-rule:evenodd"
   d="m 35.263,27.05 c 0.65,-0.225 1.149,-0.388 1.5,-0.487 0.351,-0.099 0.875,-0.037 1.575,0.188 0.8,0.275 1.438,0.4 1.912,0.375 0.55,-0.024 1.088,-0.287 1.612,-0.787 0.501,-0.476 0.9,-0.713 1.2,-0.713 0.5,0 1.037,-0.1 1.612,-0.3 0.575,-0.2 1.038,-0.438 1.388,-0.713 0.375,-0.25 0.675,-0.324 0.9,-0.225 0.25,0.125 0.375,0.412 0.375,0.862 0,0.4 0.088,0.625 0.263,0.675 0.274,0 0.512,-0.013 0.712,-0.037 0.275,-0.025 0.475,-0.188 0.601,-0.487 0.149,-0.45 0.3,-0.825 0.449,-1.125 0.15,-0.301 0.175,-0.713 0.075,-1.238 -0.075,-0.499 -0.05,-0.85 0.075,-1.05 0.15,-0.25 0.6,-0.55 1.35,-0.899 1.025,-0.476 1.551,-0.726 1.575,-0.75 0.3,-0.15 0.325,-0.413 0.075,-0.788 -0.1,-0.15 -0.375,-0.438 -0.825,-0.863 -1.2,-1.2 -2.263,-1.813 -3.188,-1.837 -0.825,-0.3 -4.975,-0.663 -12.45,-1.087 -7.35,-0.45 -11.462,-0.6 -12.337,-0.45 -1.3,0.2 -1.9,0.725 -1.799,1.575 0.024,0.225 0.2,0.462 0.525,0.712 0.45,0.35 0.75,0.625 0.899,0.825 0.2,0.3 0.425,0.512 0.675,0.637 0.4,0.2 0.813,0.413 1.238,0.638 0.524,0.275 0.788,0.638 0.788,1.087 0.024,0.251 0,0.713 -0.076,1.388 0.026,0.525 0.2,0.851 0.525,0.976 0.251,0.1 0.7,0.112 1.35,0.037 0.625,-0.075 1.05,-0.112 1.275,-0.112 0.351,0.025 0.738,0.1 1.163,0.225 0.6,0.226 1.112,1.025 1.537,2.4 0.1,0.3 -0.024,0.5 -0.375,0.6 -0.65,0.226 -1,0.351 -1.05,0.375 -0.35,0.226 -0.525,0.55 -0.525,0.976 -0.024,0.425 0.15,0.775 0.525,1.05 0.35,0.275 0.688,0.325 1.013,0.149 0.324,-0.175 0.475,-0.424 0.45,-0.75 -0.025,-0.225 0.1,-0.375 0.375,-0.449 0.324,-0.075 0.5,-0.162 0.524,-0.263 0.125,-0.325 0.588,-0.388 1.388,-0.188 0.225,0.048 0.6,-0.002 1.126,-0.152 z"
   id="path428"
   inkscape:connector-curvature="0" />
	<g
   id="g438">
		<path
   style="clip-rule:evenodd;fill:#d1944f;fill-rule:evenodd"
   d="m 22.025,16.175 c -0.125,0.225 -0.162,0.462 -0.112,0.712 0.024,0.225 0.2,0.462 0.525,0.712 0.45,0.35 0.75,0.625 0.899,0.825 0.2,0.3 0.425,0.512 0.675,0.637 0.4,0.2 0.813,0.413 1.238,0.638 0.275,0.15 0.475,0.3 0.6,0.45 -0.101,-0.425 -0.325,-0.738 -0.676,-0.938 -0.85,-0.5 -1.362,-0.875 -1.537,-1.125 C 23.262,17.561 22.924,17.224 22.625,17.074 22.2,16.85 22,16.55 22.025,16.175 Z"
   id="path430"
   inkscape:connector-curvature="0" />
		<path
   style="clip-rule:evenodd;fill:#d1944f;fill-rule:evenodd"
   d="m 36.388,25.775 c -0.075,0.025 -0.438,0.213 -1.088,0.563 -0.5,0.274 -0.925,0.425 -1.274,0.449 -0.125,0 -0.45,-0.012 -0.976,-0.037 -0.2,-0.024 -0.362,0.025 -0.487,0.15 -0.2,0.274 -0.45,0.438 -0.75,0.487 -0.375,0.075 -0.575,0.275 -0.6,0.6 -0.025,0.175 -0.112,0.338 -0.263,0.487 -0.175,0.176 -0.362,0.25 -0.563,0.226 0.35,0.275 0.688,0.325 1.013,0.149 0.324,-0.175 0.475,-0.424 0.45,-0.75 -0.025,-0.225 0.1,-0.375 0.375,-0.449 0.324,-0.075 0.5,-0.162 0.524,-0.263 0.125,-0.325 0.588,-0.388 1.388,-0.188 0.225,0.05 0.6,0 1.125,-0.15 0.65,-0.225 1.149,-0.388 1.5,-0.487 0.351,-0.099 0.875,-0.037 1.575,0.188 0.8,0.275 1.438,0.4 1.912,0.375 0.55,-0.024 1.088,-0.287 1.612,-0.787 0.501,-0.476 0.9,-0.713 1.2,-0.713 0.5,0 1.037,-0.1 1.612,-0.3 0.575,-0.2 1.038,-0.438 1.388,-0.713 0.375,-0.25 0.675,-0.324 0.9,-0.225 0.25,0.125 0.375,0.412 0.375,0.862 0,0.4 0.088,0.625 0.263,0.675 0.274,0 0.512,-0.013 0.712,-0.037 0.3,-0.025 0.513,-0.213 0.638,-0.563 -0.774,0.225 -1.213,0 -1.313,-0.675 -0.05,-0.375 -0.237,-0.601 -0.563,-0.676 -0.275,-0.074 -0.575,-0.024 -0.9,0.15 -0.2,0.125 -0.575,0.351 -1.125,0.675 -0.5,0.251 -0.912,0.388 -1.237,0.413 -0.35,0.025 -0.763,0.137 -1.237,0.337 -0.45,0.175 -0.75,0.325 -0.9,0.45 -0.125,0.1 -0.262,0.063 -0.412,-0.112 -0.125,-0.15 -0.188,-0.287 -0.188,-0.413 0,-0.074 -0.7,-0.074 -2.1,0 -1.424,0.077 -2.286,0.177 -2.586,0.302 z"
   id="path432"
   inkscape:connector-curvature="0" />
		<path
   style="clip-rule:evenodd;fill:#d1944f;fill-rule:evenodd"
   d="m 49.513,21.987 c 0.15,-0.25 0.6,-0.55 1.35,-0.899 1.025,-0.476 1.551,-0.726 1.575,-0.75 0.175,-0.075 0.263,-0.213 0.263,-0.413 -0.275,0.125 -0.513,0.212 -0.713,0.262 -0.6,0.15 -1.187,0.425 -1.762,0.825 -0.75,0.5 -1.038,0.95 -0.863,1.35 l 0.038,0.112 C 49.4,22.3 49.438,22.138 49.513,21.987 Z"
   id="path434"
   inkscape:connector-curvature="0" />
		<path
   style="clip-rule:evenodd;fill:#d1944f;fill-rule:evenodd"
   d="m 30.275,23.3 c 0.6,0.226 1.112,1.025 1.537,2.4 0.1,0.25 0.038,0.438 -0.188,0.563 -0.149,0.05 -0.425,0.125 -0.825,0.225 0.476,-0.05 0.801,-0.137 0.976,-0.263 0.3,-0.225 0.475,-0.362 0.524,-0.412 0.126,-0.15 0.15,-0.338 0.075,-0.563 -0.1,-0.275 -0.3,-0.675 -0.6,-1.2 -0.3,-0.574 -0.5,-0.912 -0.601,-1.013 -0.425,-0.425 -0.899,-0.574 -1.425,-0.449 -1.25,0.25 -2.15,0.35 -2.7,0.3 -0.575,-0.05 -0.938,-0.413 -1.087,-1.088 v 0.375 c 0.026,0.525 0.2,0.851 0.525,0.976 0.251,0.1 0.7,0.112 1.35,0.037 0.625,-0.075 1.05,-0.112 1.275,-0.112 0.352,0.025 0.739,0.099 1.164,0.224 z"
   id="path436"
   inkscape:connector-curvature="0" />
	</g>
	<path
   style="clip-rule:evenodd;fill:#ffd4a1;fill-rule:evenodd"
   d="m 51.913,19.288 c -0.126,0.05 -0.126,0.175 0,0.375 0.149,0.175 0.274,0.225 0.375,0.15 0.125,-0.05 0.125,-0.162 0,-0.337 -0.126,-0.176 -0.25,-0.239 -0.375,-0.188 z"
   id="path440"
   inkscape:connector-curvature="0" />
	<path
   style="clip-rule:evenodd;fill:#ffd4a1;fill-rule:evenodd"
   d="m 49.25,23.188 c -0.1,-0.15 -0.2,-0.225 -0.3,-0.225 -0.175,-0.025 -0.263,0.337 -0.263,1.087 -0.024,0.125 -0.112,0.251 -0.263,0.375 -0.175,0.101 -0.262,0.188 -0.262,0.263 0,0.125 0.087,0.237 0.262,0.338 0.175,0.1 0.325,0.112 0.45,0.037 0.1,-0.05 0.175,-0.225 0.226,-0.525 l 0.188,-0.787 C 49.362,23.55 49.35,23.362 49.25,23.188 Z"
   id="path442"
   inkscape:connector-curvature="0" />
	<path
   style="clip-rule:evenodd;fill:#ffd4a1;fill-rule:evenodd"
   d="m 48.2,23.563 c -0.25,0.075 -0.338,0.188 -0.263,0.338 0.075,0.175 0.188,0.25 0.338,0.225 0.1,-0.024 0.137,-0.125 0.112,-0.3 C 48.363,23.625 48.3,23.537 48.2,23.563 Z"
   id="path444"
   inkscape:connector-curvature="0" />
	<path
   style="clip-rule:evenodd;fill:#ffd4a1;fill-rule:evenodd"
   d="m 48.838,22.175 c -0.125,0.075 -0.2,0.213 -0.226,0.413 0,0.175 0.113,0.225 0.338,0.149 0.25,-0.075 0.325,-0.212 0.225,-0.412 -0.074,-0.175 -0.188,-0.225 -0.337,-0.15 z"
   id="path446"
   inkscape:connector-curvature="0" />
	<path
   style="clip-rule:evenodd;fill:#ffd4a1;fill-rule:evenodd"
   d="m 34.101,25.925 c -0.2,-0.024 -0.426,0.038 -0.676,0.188 -0.274,0.15 -0.337,0.263 -0.188,0.338 0.126,0.075 0.351,0.101 0.676,0.075 0.324,-0.051 0.563,-0.113 0.712,-0.188 0.226,-0.2 0.051,-0.338 -0.524,-0.413 z"
   id="path448"
   inkscape:connector-curvature="0" />
	<path
   style="clip-rule:evenodd;fill:#ffd4a1;fill-rule:evenodd"
   d="m 32.15,26.713 c -0.175,-0.051 -0.388,0 -0.638,0.149 -0.25,0.15 -0.325,0.275 -0.225,0.375 0.1,0.101 0.225,0.112 0.375,0.038 0.249,-0.15 0.388,-0.226 0.412,-0.226 0.15,-0.05 0.225,-0.124 0.225,-0.225 C 32.3,26.75 32.25,26.713 32.15,26.713 Z"
   id="path450"
   inkscape:connector-curvature="0" />
	<path
   style="clip-rule:evenodd;fill:#ffd4a1;fill-rule:evenodd"
   d="m 30.538,27.537 c -0.475,0.051 -0.513,0.326 -0.113,0.825 0.075,0.101 0.175,0.112 0.301,0.038 0.125,-0.075 0.225,-0.188 0.3,-0.338 0.075,-0.125 0.05,-0.25 -0.075,-0.375 -0.101,-0.124 -0.239,-0.174 -0.413,-0.15 z"
   id="path452"
   inkscape:connector-curvature="0" />
	<path
   style="clip-rule:evenodd;fill:#ffd4a1;fill-rule:evenodd"
   d="m 32.601,24.763 c -0.15,-0.175 -0.263,-0.287 -0.338,-0.338 -0.1,-0.024 -0.075,0.038 0.075,0.188 0.075,0.075 0.137,0.238 0.188,0.487 0.05,0.2 0.112,0.288 0.188,0.263 0.1,-0.024 0.125,-0.112 0.075,-0.263 -0.026,-0.125 -0.089,-0.237 -0.188,-0.337 z"
   id="path454"
   inkscape:connector-curvature="0" />
	<path
   style="clip-rule:evenodd;fill:#ffd4a1;fill-rule:evenodd"
   d="m 28.476,22.025 c -0.101,0.05 -0.338,0.037 -0.713,-0.038 -0.225,-0.05 -0.563,-0.125 -1.012,-0.225 -0.401,-0.101 -0.363,0.149 0.112,0.75 0.125,0.149 0.413,0.2 0.863,0.149 0.35,-0.024 0.712,-0.1 1.087,-0.225 0.25,-0.075 0.299,-0.188 0.149,-0.338 -0.149,-0.122 -0.312,-0.148 -0.486,-0.073 z"
   id="path456"
   inkscape:connector-curvature="0" />
	<path
   style="clip-rule:evenodd;fill:#ffd4a1;fill-rule:evenodd"
   d="m 26.525,20.487 c -0.125,0.05 -0.149,0.15 -0.075,0.3 0.075,0.176 0.188,0.213 0.338,0.113 0.15,-0.075 0.162,-0.176 0.037,-0.301 -0.15,-0.099 -0.25,-0.136 -0.3,-0.112 z"
   id="path458"
   inkscape:connector-curvature="0" />
	<path
   style="clip-rule:evenodd;fill:#ffd4a1;fill-rule:evenodd"
   d="m 24.351,18.163 c -0.2,0 -0.237,0.05 -0.113,0.15 0.175,0.125 0.301,0.2 0.375,0.225 0.101,0.075 0.237,0.125 0.413,0.15 0.2,0.025 0.313,0.013 0.337,-0.038 0.025,-0.025 -0.112,-0.112 -0.412,-0.262 -0.3,-0.15 -0.501,-0.225 -0.6,-0.225 z"
   id="path460"
   inkscape:connector-curvature="0" />
	
		<linearGradient
   id="SVGID_31_"
   gradientUnits="userSpaceOnUse"
   x1="17.250999"
   y1="15.4756"
   x2="41.875999"
   y2="15.4756"
   gradientTransform="matrix(-0.75,0,0,0.75,52.7002,8.6001)">
		<stop
   offset="0"
   style="stop-color:#C4A04A"
   id="stop462" />
		<stop
   offset="1"
   style="stop-color:#9C7832"
   id="stop464" />
	</linearGradient>
	<path
   style="clip-rule:evenodd;fill:url(#SVGID_31_);fill-rule:evenodd"
   d="m 21.388,12.913 -0.075,2.813 c 3,2.25 5.5,4.163 7.5,5.738 1.424,1.1 4.163,3.112 8.212,6.037 L 39.762,22.964 39.2,19.4 c -0.975,-0.65 -2.05,-1.3 -3.225,-1.95 -2.351,-1.325 -3.988,-2.025 -4.913,-2.1 -1.499,-0.125 -4.725,-0.937 -9.674,-2.437 z"
   id="path467"
   inkscape:connector-curvature="0" />
	<path
   style="clip-rule:evenodd;fill:#e6b95e;fill-rule:evenodd"
   d="m 22.101,13.363 -0.038,2.925 6.75,5.175 c 1,0.774 3.425,2.563 7.275,5.362 l 0.3,-3.3 -0.263,-1.875 2.4,-2.7 c -3.75,-2.3 -6.238,-3.5 -7.463,-3.6 -1.1,-0.075 -3.737,-0.712 -7.913,-1.913 z"
   id="path469"
   inkscape:connector-curvature="0" />
	
		<linearGradient
   id="SVGID_32_"
   gradientUnits="userSpaceOnUse"
   x1="-0.21969999"
   y1="3.2558999"
   x2="28.804501"
   y2="3.2558999"
   gradientTransform="matrix(-0.6111,0.4348,0.4348,0.6111,52.7003,8.5995)">
		<stop
   offset="0"
   style="stop-color:#FDCB53"
   id="stop471" />
		<stop
   offset="1"
   style="stop-color:#D48801"
   id="stop473" />
	</linearGradient>
	<path
   style="clip-rule:evenodd;fill:url(#SVGID_32_);fill-rule:evenodd"
   d="m 36.726,15.35 0.6,6.488 -0.3,5.662 c 1.55,-0.5 3.838,-1.412 6.862,-2.737 2.925,-1.275 5.138,-2.726 6.638,-4.351 l 1.388,-2.024 c 0.149,-0.4 0.287,-0.925 0.412,-1.575 C 52.5,15.938 52.525,15 52.4,14 42.45,14.9 37.226,15.35 36.726,15.35 Z"
   id="path476"
   inkscape:connector-curvature="0" />
	<path
   style="clip-rule:evenodd;fill:#c98000;fill-rule:evenodd"
   d="m 36.388,23.525 0.75,0.487 c 1.325,-0.274 2.875,-0.725 4.65,-1.351 3.55,-1.249 6.425,-2.762 8.625,-4.537 1.475,-1.175 2.137,-2.563 1.987,-4.163 -0.2,-1.875 -1.663,-3.237 -4.388,-4.087 -3.45,-1.075 -6.662,-1.45 -9.638,-1.125 -1.2,0.125 -3.95,0.737 -8.25,1.837 -3.199,0.8 -6.112,1.575 -8.737,2.325 l 10.65,6.225 z"
   id="path478"
   inkscape:connector-curvature="0" />
	<path
   style="clip-rule:evenodd;fill:#ffd875;fill-rule:evenodd"
   d="m 29.413,18.238 c 2.699,1.875 5.024,3.637 6.975,5.288 2.375,-0.45 4.55,-1.163 6.525,-2.138 2.825,-1.425 4.899,-2.663 6.225,-3.712 2,-1.625 2.625,-3.05 1.875,-4.275 -1.425,-2.45 -4.825,-3.862 -10.2,-4.237 -1.975,-0.126 -5.688,0.536 -11.138,1.986 -2.725,0.725 -5.25,1.463 -7.574,2.213 1.999,1.249 4.436,2.874 7.312,4.875 z"
   id="path480"
   inkscape:connector-curvature="0" />
	
		<linearGradient
   id="SVGID_33_"
   gradientUnits="userSpaceOnUse"
   x1="20.3843"
   y1="-6.0674"
   x2="24.5494"
   y2="-6.0674"
   gradientTransform="matrix(-0.4457,0.6032,0.6032,0.4457,52.6999,8.6)">
		<stop
   offset="0"
   style="stop-color:#E6B95E"
   id="stop482" />
		<stop
   offset="1"
   style="stop-color:#FFD875"
   id="stop484" />
	</linearGradient>
	<path
   style="clip-rule:evenodd;fill:url(#SVGID_33_);fill-rule:evenodd"
   d="m 39.538,18.2 c -1.325,0.025 -2.213,0.2 -2.663,0.525 -0.425,0.3 -0.438,0.613 -0.037,0.938 1.025,0.95 2.525,1.025 4.5,0.225 0.475,-0.2 0.412,-0.538 -0.188,-1.013 -0.6,-0.45 -1.137,-0.675 -1.612,-0.675 z"
   id="path487"
   inkscape:connector-curvature="0" />
	
		<linearGradient
   id="SVGID_34_"
   gradientUnits="userSpaceOnUse"
   x1="13.7666"
   y1="-2.9897001"
   x2="15.9466"
   y2="-2.9897001"
   gradientTransform="matrix(-0.4472,0.6021,0.6021,0.4472,52.7003,8.5998)">
		<stop
   offset="0"
   style="stop-color:#E6B95E"
   id="stop489" />
		<stop
   offset="1"
   style="stop-color:#FFD875"
   id="stop491" />
	</linearGradient>
	<path
   style="clip-rule:evenodd;fill:url(#SVGID_34_);fill-rule:evenodd"
   d="m 44.45,15.613 c -1.45,0.025 -1.862,0.275 -1.237,0.75 0.65,0.525 1.287,0.663 1.912,0.412 0.5,-0.175 0.613,-0.425 0.338,-0.75 -0.25,-0.3 -0.588,-0.437 -1.013,-0.412 z"
   id="path494"
   inkscape:connector-curvature="0" />
	
		<linearGradient
   id="SVGID_35_"
   gradientUnits="userSpaceOnUse"
   x1="16.4751"
   y1="4.9927001"
   x2="23.3251"
   y2="4.9927001"
   gradientTransform="matrix(-0.75,0,0,0.75,52.7002,8.6001)">
		<stop
   offset="0"
   style="stop-color:#E6B95E"
   id="stop496" />
		<stop
   offset="1"
   style="stop-color:#FFD875"
   id="stop498" />
	</linearGradient>
	<path
   style="clip-rule:evenodd;fill:url(#SVGID_35_);fill-rule:evenodd"
   d="m 38,11.413 c -1.675,-0.025 -2.6,0.188 -2.774,0.638 -0.175,0.45 0.3,0.8 1.425,1.05 1.675,0.4 2.875,0.125 3.6,-0.825 0.35,-0.526 -0.4,-0.813 -2.251,-0.863 z"
   id="path501"
   inkscape:connector-curvature="0" />
	
		<linearGradient
   id="SVGID_36_"
   gradientUnits="userSpaceOnUse"
   x1="18.2124"
   y1="-17.696301"
   x2="19.5874"
   y2="-17.696301"
   gradientTransform="matrix(-0.45,0.6,0.6,0.45,52.7007,8.5999)">
		<stop
   offset="0"
   style="stop-color:#E6B95E"
   id="stop503" />
		<stop
   offset="1"
   style="stop-color:#FFD875"
   id="stop505" />
	</linearGradient>
	<path
   style="clip-rule:evenodd;fill:url(#SVGID_36_);fill-rule:evenodd"
   d="m 33.463,11.6 c -0.575,0.05 -0.788,0.188 -0.638,0.413 0.15,0.25 0.487,0.35 1.013,0.3 0.475,-0.05 0.65,-0.188 0.524,-0.413 -0.149,-0.225 -0.449,-0.325 -0.899,-0.3 z"
   id="path508"
   inkscape:connector-curvature="0" />
	
		<linearGradient
   id="SVGID_37_"
   gradientUnits="userSpaceOnUse"
   x1="21.7241"
   y1="-22.6436"
   x2="24.2992"
   y2="-22.6436"
   gradientTransform="matrix(-0.4442,0.6043,0.6043,0.4442,52.7003,8.6001)">
		<stop
   offset="0"
   style="stop-color:#E6B95E"
   id="stop510" />
		<stop
   offset="1"
   style="stop-color:#FFD875"
   id="stop512" />
	</linearGradient>
	<path
   style="clip-rule:evenodd;fill:url(#SVGID_37_);fill-rule:evenodd"
   d="m 28.775,11.788 c -0.575,0.025 -1,0.137 -1.274,0.337 -0.25,0.2 -0.25,0.375 0,0.525 0.25,0.15 0.6,0.238 1.049,0.263 0.525,0.025 1,-0.038 1.426,-0.188 0.449,-0.175 0.5,-0.375 0.149,-0.6 -0.325,-0.25 -0.775,-0.362 -1.35,-0.337 z"
   id="path515"
   inkscape:connector-curvature="0" />
	
		<linearGradient
   id="SVGID_38_"
   gradientUnits="userSpaceOnUse"
   x1="22.569799"
   y1="-16.4063"
   x2="25.179899"
   y2="-16.4063"
   gradientTransform="matrix(-0.4454,0.6034,0.6034,0.4454,52.6999,8.6007)">
		<stop
   offset="0"
   style="stop-color:#E6B95E"
   id="stop517" />
		<stop
   offset="1"
   style="stop-color:#FFD875"
   id="stop519" />
	</linearGradient>
	<path
   style="clip-rule:evenodd;fill:url(#SVGID_38_);fill-rule:evenodd"
   d="m 31.963,15.087 c -0.976,-0.05 -1.45,0.087 -1.425,0.413 0.024,0.275 0.325,0.513 0.899,0.712 0.475,0.15 0.85,0.212 1.125,0.188 0.275,-0.024 0.638,-0.137 1.088,-0.337 0.399,-0.2 0.362,-0.413 -0.112,-0.637 -0.45,-0.201 -0.975,-0.314 -1.575,-0.339 z"
   id="path522"
   inkscape:connector-curvature="0" />
	
		<linearGradient
   id="SVGID_39_"
   gradientUnits="userSpaceOnUse"
   x1="15.9165"
   y1="-8.4067001"
   x2="19.186501"
   y2="-8.4067001"
   gradientTransform="matrix(-0.4472,0.6021,0.6021,0.4472,52.7003,8.5998)">
		<stop
   offset="0"
   style="stop-color:#E6B95E"
   id="stop524" />
		<stop
   offset="1"
   style="stop-color:#FFD875"
   id="stop526" />
	</linearGradient>
	<path
   style="clip-rule:evenodd;fill:url(#SVGID_39_);fill-rule:evenodd"
   d="m 38.938,14.413 c -0.575,0.025 -0.875,0.2 -0.899,0.525 -0.025,0.225 0.074,0.488 0.3,0.788 0.2,0.325 1.149,0.363 2.85,0.112 0.85,-0.15 0.938,-0.437 0.263,-0.862 -0.652,-0.401 -1.489,-0.588 -2.514,-0.563 z"
   id="path529"
   inkscape:connector-curvature="0" />
	
		<linearGradient
   id="SVGID_40_"
   gradientUnits="userSpaceOnUse"
   x1="20.1411"
   y1="-23.690399"
   x2="23.2761"
   y2="-23.690399"
   gradientTransform="matrix(-0.0598,0.7476,0.7476,0.0598,52.7002,8.6005)">
		<stop
   offset="0"
   style="stop-color:#B5882F"
   id="stop531" />
		<stop
   offset="1"
   style="stop-color:#E6B95E"
   id="stop533" />
	</linearGradient>
	<path
   style="clip-rule:evenodd;fill:url(#SVGID_40_);fill-rule:evenodd"
   d="M 34.775,23.6 C 34.799,23.125 34.6,22.675 34.174,22.25 33.749,21.8 33.387,21.687 33.087,21.912 32.762,22.138 32.612,22.5 32.637,23 c 0.024,0.476 0.188,0.9 0.487,1.275 0.325,0.375 0.662,0.524 1.013,0.449 0.4,-0.074 0.613,-0.449 0.638,-1.124 z"
   id="path536"
   inkscape:connector-curvature="0" />
	
		<linearGradient
   id="SVGID_41_"
   gradientUnits="userSpaceOnUse"
   x1="18.262199"
   y1="-26.5068"
   x2="19.792299"
   y2="-26.5068"
   gradientTransform="matrix(-0.0613,0.7475,0.7475,0.0613,52.6996,8.6002)">
		<stop
   offset="0"
   style="stop-color:#B5882F"
   id="stop538" />
		<stop
   offset="1"
   style="stop-color:#E6B95E"
   id="stop540" />
	</linearGradient>
	<path
   style="clip-rule:evenodd;fill:url(#SVGID_41_);fill-rule:evenodd"
   d="m 31.625,20.412 c -0.35,-0.024 -0.463,0.238 -0.337,0.788 0.125,0.55 0.35,0.763 0.675,0.638 0.275,-0.125 0.324,-0.4 0.149,-0.825 -0.149,-0.375 -0.312,-0.575 -0.487,-0.601 z"
   id="path543"
   inkscape:connector-curvature="0" />
	
		<linearGradient
   id="SVGID_42_"
   gradientUnits="userSpaceOnUse"
   x1="13.6533"
   y1="-35.381802"
   x2="15.3848"
   y2="-35.381802"
   gradientTransform="matrix(-0.065,0.7472,0.7472,0.065,52.7,8.6003)">
		<stop
   offset="0"
   style="stop-color:#B5882F"
   id="stop545" />
		<stop
   offset="1"
   style="stop-color:#E6B95E"
   id="stop547" />
	</linearGradient>
	<path
   style="clip-rule:evenodd;fill:url(#SVGID_42_);fill-rule:evenodd"
   d="m 25.288,16.288 c -0.95,-0.075 -1.25,0.163 -0.9,0.712 0.35,0.549 0.837,0.863 1.463,0.938 0.525,0.025 0.674,-0.225 0.449,-0.75 -0.2,-0.55 -0.537,-0.85 -1.012,-0.9 z"
   id="path550"
   inkscape:connector-curvature="0" />
	
		<linearGradient
   id="SVGID_43_"
   gradientUnits="userSpaceOnUse"
   x1="17.0742"
   y1="-31.273899"
   x2="19.380899"
   y2="-31.273899"
   gradientTransform="matrix(-0.0569,0.7478,0.7478,0.0569,52.6999,8.5997)">
		<stop
   offset="0"
   style="stop-color:#B5882F"
   id="stop552" />
		<stop
   offset="1"
   style="stop-color:#E6B95E"
   id="stop554" />
	</linearGradient>
	<path
   style="clip-rule:evenodd;fill:url(#SVGID_43_);fill-rule:evenodd"
   d="m 28.813,21.463 c 0.125,-0.275 0.212,-0.563 0.262,-0.863 0.101,-0.6 -0.05,-1 -0.45,-1.2 -0.401,-0.2 -0.712,-0.1 -0.938,0.3 -0.125,0.2 -0.2,0.412 -0.226,0.638 z"
   id="path557"
   inkscape:connector-curvature="0" />
	
		<linearGradient
   id="SVGID_44_"
   gradientUnits="userSpaceOnUse"
   x1="11.8013"
   y1="-38.142601"
   x2="12.9058"
   y2="-38.142601"
   gradientTransform="matrix(-0.0679,0.7469,0.7469,0.0679,52.6999,8.6001)">
		<stop
   offset="0"
   style="stop-color:#B5882F"
   id="stop559" />
		<stop
   offset="1"
   style="stop-color:#E6B95E"
   id="stop561" />
	</linearGradient>
	<path
   style="clip-rule:evenodd;fill:url(#SVGID_44_);fill-rule:evenodd"
   d="m 23.413,14.712 c -0.525,0 -0.7,0.175 -0.525,0.525 0.175,0.35 0.425,0.512 0.75,0.487 0.274,-0.025 0.35,-0.2 0.225,-0.525 -0.1,-0.324 -0.25,-0.487 -0.45,-0.487 z"
   id="path564"
   inkscape:connector-curvature="0" />
	
		<use
   xlink:href="#flash0.ai_x5F_2_x2F_Layer_13_copy_x2F__x3C_Path_x3E__x5F_18"
   width="11.85"
   height="2.062"
   y="-2.062"
   transform="matrix(-0.75,0,0,-0.75,26.810365,186.6246)"
   style="overflow:visible;opacity:0.58980001;enable-background:new"
   id="use566"
   x="0" />
	
		<use
   xlink:href="#flash0.ai_x5F_2_x2F_Layer_13_copy_x2F__x3C_Path_x3E__x5F_17"
   width="27.417999"
   height="3.75"
   x="-0.017999999"
   y="-3.75"
   transform="matrix(-0.75,0,0,-0.75,32.361165,182.3248)"
   style="overflow:visible;opacity:0.58980001;enable-background:new"
   id="use568" />
	
		<use
   xlink:href="#flash0.ai_x5F_2_x2F_Layer_13_copy_x2F__x3C_Path_x3E__x5F_16"
   width="40.349998"
   height="3.069"
   y="-3.079"
   transform="matrix(-0.75,0,0,-0.75,36.660965,178.7252)"
   style="overflow:visible;opacity:0.58980001;enable-background:new"
   id="use570"
   x="0" />
	
		<use
   xlink:href="#flash0.ai_x5F_2_x2F_Layer_13_copy_x2F__x3C_Path_x3E__x5F_15"
   width="28.916"
   height="1.874"
   x="-0.016000001"
   y="-1.867"
   transform="matrix(-0.75,0,0,-0.75,34.410965,175.4249)"
   style="overflow:visible;opacity:0.58980001;enable-background:new"
   id="use572" />
	
		<use
   xlink:href="#flash0.ai_x5F_2_x2F_Layer_13_copy_x2F__x3C_Path_x3E__x5F_14"
   width="1.944"
   height="0.63300002"
   x="0.086000003"
   y="-0.63300002"
   transform="matrix(-0.75,0,0,-0.75,33.560365,178.7252)"
   style="overflow:visible;opacity:0.58980001;enable-background:new"
   id="use574" />
	
		<use
   xlink:href="#flash0.ai_x5F_2_x2F_Layer_13_copy_x2F__x3C_Path_x3E__x5F_13"
   width="3.302"
   height="0.792"
   y="-0.76700002"
   transform="matrix(-0.75,0,0,-0.75,29.160965,178.2252)"
   style="overflow:visible;opacity:0.58980001;enable-background:new"
   id="use576"
   x="0" />
	
		<use
   xlink:href="#flash0.ai_x5F_2_x2F_Layer_13_copy_x2F__x3C_Path_x3E__x5F_12"
   width="1.237"
   height="0.40799999"
   x="-0.012"
   y="-0.40000001"
   transform="matrix(-0.75,0,0,-0.75,26.510565,178.6251)"
   style="overflow:visible;opacity:0.58980001;enable-background:new"
   id="use578" />
	
		<use
   xlink:href="#flash0.ai_x5F_2_x2F_Layer_13_copy_x2F__x3C_Path_x3E__x5F_11"
   width="3.2290001"
   height="0.90899998"
   x="-0.003"
   y="-0.89499998"
   transform="matrix(-0.75,0,0,-0.75,18.760565,178.1749)"
   style="overflow:visible;opacity:0.58980001;enable-background:new"
   id="use580" />
	
		<use
   xlink:href="#flash0.ai_x5F_2_x2F_Layer_13_copy_x2F__x3C_Path_x3E__x5F_10"
   width="2.1889999"
   height="0.66399997"
   x="-0.044"
   y="-0.65700001"
   transform="matrix(-0.75,0,0,-0.75,16.810365,176.7252)"
   style="overflow:visible;opacity:0.58980001;enable-background:new"
   id="use582" />
	
		<use
   xlink:href="#flash0.ai_x5F_2_x2F_Layer_13_copy_x2F__x3C_Path_x3E__x5F_9"
   width="1.74"
   height="0.69800001"
   x="-0.025"
   y="-0.68800002"
   transform="matrix(-0.75,0,0,-0.75,32.611165,176.9249)"
   style="overflow:visible;opacity:0.58980001;enable-background:new"
   id="use584" />
	
		<use
   xlink:href="#flash0.ai_x5F_2_x2F_Layer_13_copy_x2F__x3C_Path_x3E__x5F_8"
   width="2.214"
   height="0.37400001"
   x="-0.0020000001"
   y="-0.36000001"
   transform="matrix(-0.75,0,0,-0.75,29.660965,175.0748)"
   style="overflow:visible;opacity:0.58980001;enable-background:new"
   id="use586" />
	
		<use
   xlink:href="#flash0.ai_x5F_2_x2F_Layer_13_copy_x2F__x3C_Path_x3E__x5F_7"
   width="3.8959999"
   height="1.064"
   x="-0.0060000001"
   y="-1.114"
   transform="matrix(-0.75,0,0,-0.75,35.361165,181.3248)"
   style="overflow:visible;opacity:0.58980001;enable-background:new"
   id="use588" />
	
		<use
   xlink:href="#flash0.ai_x5F_2_x2F_Layer_13_copy_x2F__x3C_Path_x3E__x5F_6"
   width="2.3239999"
   height="1.1"
   x="-0.017000001"
   y="-1.1"
   transform="matrix(-0.75,0,0,-0.75,33.010565,181.775)"
   style="overflow:visible;opacity:0.58980001;enable-background:new"
   id="use590" />
	
		<use
   xlink:href="#flash0.ai_x5F_2_x2F_Layer_13_copy_x2F__x3C_Path_x3E__x5F_5"
   width="3.2149999"
   height="0.81699997"
   x="-0.0020000001"
   y="-0.85000002"
   transform="matrix(-0.75,0,0,-0.75,21.710765,180.775)"
   style="overflow:visible;opacity:0.58980001;enable-background:new"
   id="use592" />
	
		<use
   xlink:href="#flash0.ai_x5F_2_x2F_Layer_13_copy_x2F__x3C_Path_x3E__x5F_4"
   width="2.701"
   height="0.792"
   x="-0.045000002"
   y="-0.78299999"
   transform="matrix(-0.75,0,0,-0.75,13.310865,181.4249)"
   style="overflow:visible;opacity:0.58980001;enable-background:new"
   id="use594" />
	
		<use
   xlink:href="#flash0.ai_x5F_2_x2F_Layer_13_copy_x2F__x3C_Path_x3E__x5F_3"
   width="3.45"
   height="1.174"
   x="-0.0049999999"
   y="-1.169"
   transform="matrix(-0.75,0,0,-0.75,22.810365,184.6749)"
   style="overflow:visible;opacity:0.58980001;enable-background:new"
   id="use596" />
	
		<use
   xlink:href="#flash0.ai_x5F_2_x2F_Layer_13_copy_x2F__x3C_Path_x3E__x5F_2"
   width="2.178"
   height="0.90399998"
   x="-0.016000001"
   y="-0.90399998"
   transform="matrix(-0.75,0,0,-0.75,28.160965,185.5748)"
   style="overflow:visible;opacity:0.58980001;enable-background:new"
   id="use598" />
	
		<use
   xlink:href="#flash0.ai_x5F_2_x2F_Layer_13_copy_x2F__x3C_Path_x3E__x5F_1"
   width="2.694"
   height="1.263"
   x="-0.012"
   y="-1.257"
   transform="matrix(-0.75,0,0,-0.75,26.660965,186.1754)"
   style="overflow:visible;opacity:0.58980001;enable-background:new"
   id="use600" />
	
		<use
   xlink:href="#flash0.ai_x5F_2_x2F_Layer_13_copy_x2F__x3C_Path_x3E_"
   width="2.586"
   height="1.033"
   x="-0.033"
   y="-1.033"
   transform="matrix(-0.75,0,0,-0.75,17.810365,184.4249)"
   style="overflow:visible;opacity:0.58980001;enable-background:new"
   id="use602" />
</g>
</svg>