<?xml version="1.0" encoding="UTF-8" standalone="no"?>
<!-- Generator: Adobe Illustrator 15.1.0, SVG Export Plug-In . SVG Version: 6.00 Build 0)  -->

<svg
   xmlns:dc="http://purl.org/dc/elements/1.1/"
   xmlns:cc="http://creativecommons.org/ns#"
   xmlns:rdf="http://www.w3.org/1999/02/22-rdf-syntax-ns#"
   xmlns:svg="http://www.w3.org/2000/svg"
   xmlns="http://www.w3.org/2000/svg"
   xmlns:xlink="http://www.w3.org/1999/xlink"
   xmlns:sodipodi="http://sodipodi.sourceforge.net/DTD/sodipodi-0.dtd"
   xmlns:inkscape="http://www.inkscape.org/namespaces/inkscape"
   version="1.1"
   id="flash0.ai"
   x="0px"
   y="0px"
   width="256"
   height="256"
   viewBox="0 0 255.99999 256.00001"
   xml:space="preserve"
   sodipodi:docname="flour.svg"
   inkscape:version="0.92.4 (5da689c313, 2019-01-14)"><title
   id="title1079">Flour</title><metadata
   id="metadata272"><rdf:RDF><cc:Work
       rdf:about=""><dc:format>image/svg+xml</dc:format><dc:type
         rdf:resource="http://purl.org/dc/dcmitype/StillImage" /><dc:title>Flour</dc:title><cc:license
         rdf:resource="http://creativecommons.org/publicdomain/zero/1.0/" /><dc:creator><cc:Agent><dc:title>Glitch</dc:title></cc:Agent></dc:creator><dc:source>https://opengameart.org/node/20149</dc:source></cc:Work><cc:License
       rdf:about="http://creativecommons.org/publicdomain/zero/1.0/"><cc:permits
         rdf:resource="http://creativecommons.org/ns#Reproduction" /><cc:permits
         rdf:resource="http://creativecommons.org/ns#Distribution" /><cc:permits
         rdf:resource="http://creativecommons.org/ns#DerivativeWorks" /></cc:License></rdf:RDF></metadata><defs
   id="defs270"><linearGradient
     inkscape:collect="always"
     xlink:href="#SVGID_1_"
     id="linearGradient1043"
     gradientUnits="userSpaceOnUse"
     gradientTransform="matrix(0.9962,-0.0867,0.0867,0.9962,738.8662,676.9648)"
     x1="-675.93951"
     y1="-753.57672"
     x2="-645.65051"
     y2="-753.57672" /><linearGradient
     inkscape:collect="always"
     xlink:href="#SVGID_2_"
     id="linearGradient1045"
     gradientUnits="userSpaceOnUse"
     gradientTransform="matrix(-0.1369,-0.9906,0.9906,-0.1369,17377.697,-1200.1035)"
     x1="1190.7729"
     y1="-17375.105"
     x2="1209.9534"
     y2="-17375.105" /><linearGradient
     inkscape:collect="always"
     xlink:href="#SVGID_3_"
     id="linearGradient1047"
     gradientUnits="userSpaceOnUse"
     gradientTransform="matrix(0.9962,-0.0866,0.0866,0.9962,738.5488,676.6982)"
     x1="-674.87012"
     y1="-750.36041"
     x2="-671.98431"
     y2="-750.36041" /></defs><sodipodi:namedview
   pagecolor="#ffffff"
   bordercolor="#666666"
   borderopacity="1"
   objecttolerance="10"
   gridtolerance="10"
   guidetolerance="10"
   inkscape:pageopacity="0"
   inkscape:pageshadow="2"
   inkscape:window-width="1920"
   inkscape:window-height="1025"
   id="namedview268"
   showgrid="false"
   inkscape:zoom="1.0111028"
   inkscape:cx="333.56189"
   inkscape:cy="151.30667"
   inkscape:window-x="-8"
   inkscape:window-y="-8"
   inkscape:window-maximized="1"
   inkscape:current-layer="flash0.ai"
   fit-margin-top="0"
   fit-margin-left="0"
   fit-margin-right="0"
   fit-margin-bottom="0" />
<symbol
   id="flash0.ai_x5F_2_x2F_Layer_4_copy_x2F__x3C_Path_x3E__x5F_11"
   viewBox="0 -27.35 32.45 27.35"
   transform="translate(-7.5,215.75999)">
	<g
   id="Layer_1_4_">
		<path
   style="clip-rule:evenodd;fill:#d4e8ff;fill-rule:evenodd"
   d="M 32.45,0 28.1,-23.1 H 28 l 0.1,-0.5 c 0,-1.033 -1.15,-1.917 -3.45,-2.65 -2.333,-0.733 -5.133,-1.1 -8.4,-1.1 -3.267,0 -6.067,0.367 -8.4,1.1 -2.3,0.733 -3.45,1.617 -3.45,2.65 l 0.1,0.5 H 4.4 L 0,0 C 0.833,-1.167 2.75,-2.117 5.75,-2.85 8.817,-3.617 12.317,-4 16.25,-4 c 3.933,0 7.417,0.383 10.45,1.15 3,0.733 4.917,1.683 5.75,2.85 z"
   id="path2"
   inkscape:connector-curvature="0" />
	</g>
</symbol>
<symbol
   id="flash0.ai_x5F_2_x2F_Layer_4_copy_x2F__x3C_Path_x3E__x5F_12"
   viewBox="0 -33.2 32.292 33.196"
   transform="translate(-7.5,215.75999)">
	<g
   id="Layer_1_3_">
		
			<linearGradient
   id="SVGID_1_"
   gradientUnits="userSpaceOnUse"
   x1="-675.93951"
   y1="-753.57672"
   x2="-645.65051"
   y2="-753.57672"
   gradientTransform="matrix(0.9962,-0.0867,0.0867,0.9962,738.8662,676.9648)">
			<stop
   offset="0"
   style="stop-color:#555D66"
   id="stop6" />
			<stop
   offset="1"
   style="stop-color:#FFFFFF"
   id="stop8" />
		</linearGradient>
		<path
   style="clip-rule:evenodd;fill:url(#linearGradient1043);fill-rule:evenodd"
   d="m 28.1,-1.6 c 2.533,-0.733 3.9,-1.55 4.1,-2.45 0.267,-1.333 -0.05,-3.717 -0.95,-7.15 L 28,-30.2 c -0.5,-0.5 -1.3,-1 -2.4,-1.5 -2.2,-1 -4.817,-1.5 -7.85,-1.5 -5.767,0 -9.617,0.467 -11.55,1.4 -0.534,0.233 -0.967,0.583 -1.3,1.05 l -0.4,0.6 -4.5,25.5 c 0.133,0.4 0.467,0.85 1,1.35 1,0.966 2.417,1.633 4.25,2 5.9,1.2 10.983,1.566 15.25,1.1 3.067,-0.367 5.6,-0.833 7.6,-1.4 z"
   id="path11"
   inkscape:connector-curvature="0" />
	</g>
</symbol>
<symbol
   id="flash0.ai_x5F_2_x2F_Layer_4_copy_x2F__x3C_Path_x3E__x5F_16"
   viewBox="0 -21.75 6.15 21.75"
   transform="translate(-7.5,215.75999)">
	<g
   id="Layer_1_2_">
		
			<linearGradient
   id="SVGID_2_"
   gradientUnits="userSpaceOnUse"
   x1="1190.7729"
   y1="-17375.105"
   x2="1209.9534"
   y2="-17375.105"
   gradientTransform="matrix(-0.1369,-0.9906,0.9906,-0.1369,17377.697,-1200.1035)">
			<stop
   offset="0"
   style="stop-color:#748FAD"
   id="stop15" />
			<stop
   offset="1"
   style="stop-color:#FFFFFF"
   id="stop17" />
		</linearGradient>
		<path
   style="clip-rule:evenodd;fill:url(#linearGradient1045);fill-rule:evenodd"
   d="m 0,0 4.65,-1.35 1.5,-2.15 -0.75,-6 -2.65,-12.25 -1,0.4 c -0.667,0.233 -1.083,0.517 -1.25,0.85 1,3.1 1.633,7.517 1.9,13.25 C 2.5,-4.683 2.133,-2.7 1.3,-1.3 0.867,-0.633 0.433,-0.2 0,0 Z"
   id="path20"
   inkscape:connector-curvature="0" />
	</g>
</symbol>
<symbol
   id="flash0.ai_x5F_2_x2F_Layer_4_copy_x2F__x3C_Path_x3E__x5F_7"
   viewBox="0 -25 5.25 25"
   transform="translate(-7.5,215.75999)">
	<g
   id="Layer_1_5_">
		
			<linearGradient
   id="SVGID_3_"
   gradientUnits="userSpaceOnUse"
   x1="-674.87012"
   y1="-750.36041"
   x2="-671.98431"
   y2="-750.36041"
   gradientTransform="matrix(0.9962,-0.0866,0.0866,0.9962,738.5488,676.6982)">
			<stop
   offset="0"
   style="stop-color:#FFFFFF"
   id="stop24" />
			<stop
   offset="1"
   style="stop-color:#FFFFFF;stop-opacity:0"
   id="stop26" />
		</linearGradient>
		<polygon
   style="clip-rule:evenodd;fill:url(#linearGradient1047);fill-rule:evenodd"
   points="3,-0.85 5.25,0 1.5,-24.6 0,-25 "
   id="polygon29" />
	</g>
</symbol>
<g
   id="g263"
   transform="matrix(8.5416592,0,0,8.5416592,-64.062443,-99.383231)">
		
			<use
   x="0"
   id="use207"
   style="overflow:visible;opacity:0.67189995;enable-background:new"
   transform="matrix(0.8,0,0,-0.8,38.5,187.8082)"
   y="-21.75"
   height="21.75"
   width="6.1500001"
   xlink:href="#flash0.ai_x5F_2_x2F_Layer_4_copy_x2F__x3C_Path_x3E__x5F_16" />
		<path
   inkscape:connector-curvature="0"
   id="path209"
   d="m 28.06,16.48 -0.8,-1.28 2.8,-0.8 c 1.174,-0.32 2.733,-0.227 4.68,0.28 0.96,0.266 1.534,0.64 1.721,1.12 0.133,0.32 -0.308,0.454 -1.32,0.4 l -4,0.48 -2.68,-0.2 z"
   style="clip-rule:evenodd;fill:#deedff;fill-rule:evenodd" />
		<path
   inkscape:connector-curvature="0"
   id="path211"
   d="m 32.46,17.2 c -0.507,0.24 -0.987,0.454 -1.44,0.64 L 30.46,18 28.859,16.78 c 0.405,-0.002 1.099,-0.196 2.08,-0.58 2.08,-0.8 3.573,-1.16 4.48,-1.08 1.279,0.16 1.959,1.12 2.04,2.88 0.079,1.6 -0.24,4.253 -0.96,7.96 -0.348,1.894 -0.761,3.933 -1.24,6.119 -0.08,0.48 -0.2,0.654 -0.36,0.521 -0.16,-0.133 -0.106,-0.866 0.16,-2.2 0.667,-3.387 1.08,-5.64 1.24,-6.76 0.479,-3.12 0.56,-5.106 0.239,-5.959 C 36.06,16.24 34.699,16.08 32.46,17.2 Z m -3.601,-0.42 c -0.096,0.008 -0.176,10e-4 -0.239,-0.02 l -0.16,-0.28 z"
   style="clip-rule:evenodd;fill:#cce4ff;fill-rule:evenodd" />
		<path
   inkscape:connector-curvature="0"
   id="path213"
   d="M 30.539,16.2 30.46,18 c -0.4,-0.08 -0.8,-0.213 -1.2,-0.4 -1.28,-0.4 -1.92,-0.707 -1.92,-0.92 L 27.26,15.2 c 0.933,0 2.026,0.333 3.279,1 z"
   style="clip-rule:evenodd;fill:#98a7b8;fill-rule:evenodd" />
		
			<use
   x="0"
   id="use215"
   style="overflow:visible;opacity:0.5;enable-background:new"
   transform="matrix(0.8,0,0,-0.8,13.8999,185.7081)"
   y="-33.200001"
   height="33.195999"
   width="32.292"
   xlink:href="#flash0.ai_x5F_2_x2F_Layer_4_copy_x2F__x3C_Path_x3E__x5F_12" />
		
			<use
   x="0"
   id="use217"
   style="overflow:visible;opacity:0.25;enable-background:new"
   transform="matrix(0.8,0,0,-0.8,13.8501,190.5582)"
   y="-27.35"
   height="27.35"
   width="32.450001"
   xlink:href="#flash0.ai_x5F_2_x2F_Layer_4_copy_x2F__x3C_Path_x3E__x5F_11" />
		
			<linearGradient
   gradientTransform="matrix(0.797,0.0693,-0.0693,0.797,7.4996,13.0001)"
   y2="9.8993998"
   x2="31.0889"
   y1="9.8993998"
   x1="4.8091002"
   gradientUnits="userSpaceOnUse"
   id="SVGID_16_">
			<stop
   id="stop219"
   style="stop-color:#FFFFFF"
   offset="0" />
			<stop
   id="stop221"
   style="stop-color:#DEDDB4"
   offset="1" />
		</linearGradient>
		<path
   inkscape:connector-curvature="0"
   id="path224"
   d="M 31.699,21.8 20.019,29.48 10.7,20.6 c 0.613,-0.213 1.36,-0.68 2.24,-1.4 0.453,-0.373 1.066,-0.773 1.84,-1.2 0.613,-0.374 0.987,-0.64 1.12,-0.8 0.133,-0.16 0.227,-0.307 0.28,-0.439 0.08,-0.08 0.453,-0.214 1.12,-0.4 0.773,-0.24 1.187,-0.373 1.24,-0.4 0.054,-0.027 0.253,-0.213 0.6,-0.56 0.4,-0.4 1.4,-0.6 3,-0.6 0.64,0 1.24,0.107 1.8,0.32 0.427,0.16 1.121,0.493 2.08,1 0.747,0.426 1.4,0.919 1.96,1.48 0.054,0.053 0.507,0.586 1.36,1.6 z"
   style="clip-rule:evenodd;fill:url(#SVGID_16_);fill-rule:evenodd" />
		
			<linearGradient
   gradientTransform="matrix(0.797,0.0696,-0.0696,0.797,7.5003,13)"
   y2="19.5093"
   x2="30.7019"
   y1="19.5093"
   x1="5.1299"
   gradientUnits="userSpaceOnUse"
   id="SVGID_17_">
			<stop
   id="stop226"
   style="stop-color:#E8E6CC"
   offset="0" />
			<stop
   id="stop228"
   style="stop-color:#B8B695"
   offset="1" />
		</linearGradient>
		<path
   inkscape:connector-curvature="0"
   id="path231"
   d="m 27.5,22.84 c 0.533,-0.4 2.013,-0.747 4.439,-1.04 l -2.68,14.399 c -0.134,0.374 -0.573,0.747 -1.32,1.121 -1.52,0.772 -3.853,1.199 -7,1.279 -3.173,0.08 -5.466,-0.16 -6.879,-0.721 L 12.86,37 10.22,20.76 c 0.107,0.186 0.374,0.293 0.8,0.32 0.453,0.026 0.76,0.12 0.92,0.28 0.347,0.319 0.56,0.493 0.64,0.52 0.16,0.106 0.44,0.227 0.84,0.359 0.586,0.16 1.053,0.2 1.4,0.121 0.32,0.026 0.626,0.133 0.92,0.319 0.347,0.24 0.667,0.4 0.96,0.48 0.613,0.187 1.48,0.279 2.6,0.279 0.507,0.054 0.854,0.04 1.04,-0.04 0.106,-0.026 0.307,-0.133 0.6,-0.319 0.827,-0.294 1.547,-0.44 2.16,-0.44 0.24,0 0.613,0.146 1.12,0.44 0.56,0.293 0.92,0.453 1.08,0.479 0.693,0.109 1.427,-0.131 2.2,-0.718 z"
   style="clip-rule:evenodd;fill:url(#SVGID_17_);fill-rule:evenodd" />
		
			<linearGradient
   gradientTransform="matrix(0.8,0,0,0.8,7.5001,13.0001)"
   y2="20.75"
   x2="14.2993"
   y1="20.75"
   x1="3.7997999"
   gradientUnits="userSpaceOnUse"
   id="SVGID_18_">
			<stop
   id="stop233"
   style="stop-color:#FFFFFF"
   offset="0" />
			<stop
   id="stop235"
   style="stop-color:#FFFFFF;stop-opacity:0"
   offset="1" />
		</linearGradient>
		<path
   inkscape:connector-curvature="0"
   id="path238"
   d="m 10.54,19.4 8.32,1 0.08,19.4 c -1.466,-0.08 -2.626,-0.187 -3.479,-0.32 -0.56,-0.08 -1.027,-0.28 -1.4,-0.601 l -0.4,-0.479 z"
   style="clip-rule:evenodd;fill:url(#SVGID_18_);fill-rule:evenodd" />
		
			<use
   x="0"
   id="use240"
   style="overflow:visible;opacity:0.48830004;enable-background:new"
   transform="matrix(0.8,0,0,-0.8,32.9004,191.608)"
   y="-25"
   height="25"
   width="5.25"
   xlink:href="#flash0.ai_x5F_2_x2F_Layer_4_copy_x2F__x3C_Path_x3E__x5F_7" />
		
			<linearGradient
   gradientTransform="matrix(0.8,0,0,0.8,7.5001,13.0001)"
   y2="14.25"
   x2="9.3122997"
   y1="14.25"
   x1="3.4872999"
   gradientUnits="userSpaceOnUse"
   id="SVGID_19_">
			<stop
   id="stop242"
   style="stop-color:#CCE4FF"
   offset="0" />
			<stop
   id="stop244"
   style="stop-color:#FFFFFF"
   offset="1" />
		</linearGradient>
		<path
   inkscape:connector-curvature="0"
   id="path247"
   d="m 11.9,28.16 c -0.106,-1.12 -0.307,-2.187 -0.6,-3.2 l -1,-2.721 c 1.2,-0.666 2.04,-1.093 2.52,-1.279 0.48,-0.186 1.187,-0.293 2.12,-0.32 -0.213,1.467 -0.453,2.707 -0.72,3.721 -0.266,1.012 -1.04,2.279 -2.32,3.799 z"
   style="clip-rule:evenodd;fill:url(#SVGID_19_);fill-rule:evenodd" />
		<path
   inkscape:connector-curvature="0"
   id="path249"
   d="m 30.26,14.2 c 2.587,0.8 3.88,1.76 3.88,2.88 0,1.146 -1.293,2.106 -3.88,2.88 -2.587,0.8 -5.72,1.2 -9.4,1.2 -2.027,0 -3.906,-0.12 -5.64,-0.36 -0.266,-0.026 -1.106,0.213 -2.52,0.72 -1.36,0.534 -2.16,0.773 -2.4,0.72 -0.24,-0.053 -0.187,-0.479 0.16,-1.279 0.32,-0.8 0.4,-1.227 0.24,-1.28 -2.107,-0.667 -3.16,-1.534 -3.16,-2.6 0,-1.12 1.307,-2.08 3.92,-2.88 2.586,-0.8 5.72,-1.2 9.4,-1.2 3.653,-10e-4 6.786,0.399 9.4,1.199 z m -0.6,5.08 c 2.399,-0.667 3.6,-1.48 3.6,-2.44 0,-0.933 -1.2,-1.747 -3.6,-2.44 -2.4,-0.667 -5.293,-1 -8.68,-1 -3.36,0 -6.24,0.333 -8.64,1 -2.4,0.693 -3.6,1.507 -3.6,2.44 0,0.854 1.041,1.627 3.12,2.32 0.133,0.026 0.066,0.333 -0.2,0.92 -0.267,0.533 -0.32,0.827 -0.16,0.88 0.24,0.053 0.867,-0.12 1.88,-0.52 1.04,-0.373 1.693,-0.547 1.96,-0.52 1.68,0.24 3.56,0.36 5.64,0.36 3.413,0 6.306,-0.334 8.68,-1 z"
   style="clip-rule:evenodd;fill:#cce4ff;fill-rule:evenodd" />
		<path
   inkscape:connector-curvature="0"
   id="path251"
   d="m 34.14,17.08 0.08,0.04 -3.521,19.36 0.04,0.2 c 0,1.094 -1.053,1.973 -3.159,2.641 -1.894,0.613 -4.134,0.919 -6.72,0.919 -2.614,0 -4.854,-0.306 -6.72,-0.919 -2.106,-0.668 -3.16,-1.547 -3.16,-2.641 v -0.2 L 7.5,17.12 7.54,17.08 c 0,0.56 0.347,1.08 1.04,1.56 l 3.12,17.28 0.08,0.159 0.04,0.36 -0.04,0.24 c 0,0.693 0.84,1.32 2.52,1.88 1.813,0.587 4,0.88 6.56,0.88 2.56,0 4.747,-0.293 6.56,-0.88 1.68,-0.56 2.52,-1.187 2.52,-1.88 l -0.08,-0.24 0.08,-0.279 3.2,-17.521 c 0.667,-0.506 1,-1.026 1,-1.559 z"
   style="clip-rule:evenodd;fill:#cce4ff;fill-rule:evenodd" />
		<path
   inkscape:connector-curvature="0"
   id="path253"
   d="m 27.38,22.479 c 0.08,-0.613 0.187,-0.854 0.319,-0.72 0.16,0.134 0.188,0.427 0.08,0.88 -0.026,0.16 -0.213,2.707 -0.56,7.64 -0.347,4.747 -0.587,7.268 -0.72,7.561 -0.214,0.507 -0.333,0.547 -0.36,0.12 z"
   style="clip-rule:evenodd;fill:#bd5e27;fill-rule:evenodd" />
		<path
   inkscape:connector-curvature="0"
   id="path255"
   d="m 27.14,25 c -3.093,0.479 -6.066,0.52 -8.92,0.12 -0.213,0 -0.293,-0.054 -0.24,-0.16 0.053,-0.054 0.106,-0.08 0.16,-0.08 0.027,0 0.054,0.014 0.08,0.04 2.267,0.267 5.2,0.2 8.8,-0.2 1.359,-0.133 2.573,-0.413 3.641,-0.84 l 1.119,-0.4 c 0.054,0.16 -0.227,0.36 -0.84,0.601 -0.827,0.346 -2.093,0.652 -3.8,0.919 z"
   style="clip-rule:evenodd;fill:#bd5e27;fill-rule:evenodd" />
		<path
   inkscape:connector-curvature="0"
   id="path257"
   d="m 18.54,29.12 c 2.107,0.187 4.827,0.106 8.16,-0.24 1.254,-0.134 2.374,-0.36 3.36,-0.68 l 1.04,-0.36 c 0.053,0.134 -0.2,0.307 -0.76,0.521 -0.801,0.266 -1.974,0.506 -3.521,0.72 -2.853,0.399 -5.613,0.466 -8.28,0.2 -0.213,0 -0.293,-0.041 -0.24,-0.12 z"
   style="clip-rule:evenodd;fill:#bd5e27;fill-rule:evenodd" />
		<path
   inkscape:connector-curvature="0"
   id="path259"
   d="m 18.58,33 c 2.026,0.187 4.626,0.106 7.8,-0.24 1.2,-0.134 2.28,-0.36 3.24,-0.681 l 1,-0.359 c 0.026,0.133 -0.228,0.307 -0.761,0.52 -0.773,0.268 -1.893,0.507 -3.359,0.721 -2.72,0.399 -5.36,0.466 -7.92,0.2 -0.187,0 -0.254,-0.04 -0.2,-0.121 z"
   style="clip-rule:evenodd;fill:#bd5e27;fill-rule:evenodd" />
		<path
   inkscape:connector-curvature="0"
   id="path261"
   d="m 18.82,36.359 c 1.867,0.188 4.28,0.12 7.24,-0.199 1.12,-0.134 2.12,-0.36 3,-0.681 l 0.92,-0.359 c 0.054,0.133 -0.173,0.293 -0.68,0.479 -0.667,0.267 -1.707,0.521 -3.12,0.76 -2.534,0.374 -4.986,0.44 -7.36,0.2 -0.187,0 -0.253,-0.053 -0.2,-0.16 z"
   style="clip-rule:evenodd;fill:#bd5e27;fill-rule:evenodd" />
	</g>
</svg>