<?xml version="1.0" encoding="UTF-8" standalone="no"?>
<!-- Generator: Adobe Illustrator 15.1.0, SVG Export Plug-In . SVG Version: 6.00 Build 0)  -->

<svg
   xmlns:dc="http://purl.org/dc/elements/1.1/"
   xmlns:cc="http://creativecommons.org/ns#"
   xmlns:rdf="http://www.w3.org/1999/02/22-rdf-syntax-ns#"
   xmlns:svg="http://www.w3.org/2000/svg"
   xmlns="http://www.w3.org/2000/svg"
   xmlns:sodipodi="http://sodipodi.sourceforge.net/DTD/sodipodi-0.dtd"
   xmlns:inkscape="http://www.inkscape.org/namespaces/inkscape"
   version="1.1"
   id="flash0.ai"
   x="0px"
   y="0px"
   width="256"
   height="256"
   viewBox="0 0 255.99999 256"
   xml:space="preserve"
   sodipodi:docname="frittata.svg"
   inkscape:version="0.92.4 (5da689c313, 2019-01-14)"><title
   id="title908">Frittata</title><metadata
   id="metadata101"><rdf:RDF><cc:Work
       rdf:about=""><dc:format>image/svg+xml</dc:format><dc:type
         rdf:resource="http://purl.org/dc/dcmitype/StillImage" /><dc:title>Frittata</dc:title><cc:license
         rdf:resource="http://creativecommons.org/publicdomain/zero/1.0/" /><dc:creator><cc:Agent><dc:title>Glitch</dc:title></cc:Agent></dc:creator><dc:source>https://opengameart.org/node/20149</dc:source></cc:Work><cc:License
       rdf:about="http://creativecommons.org/publicdomain/zero/1.0/"><cc:permits
         rdf:resource="http://creativecommons.org/ns#Reproduction" /><cc:permits
         rdf:resource="http://creativecommons.org/ns#Distribution" /><cc:permits
         rdf:resource="http://creativecommons.org/ns#DerivativeWorks" /></cc:License></rdf:RDF></metadata><defs
   id="defs99" /><sodipodi:namedview
   pagecolor="#ffffff"
   bordercolor="#666666"
   borderopacity="1"
   objecttolerance="10"
   gridtolerance="10"
   guidetolerance="10"
   inkscape:pageopacity="0"
   inkscape:pageshadow="2"
   inkscape:window-width="1920"
   inkscape:window-height="1025"
   id="namedview97"
   showgrid="false"
   inkscape:zoom="1.038961"
   inkscape:cx="116.89774"
   inkscape:cy="58.83144"
   inkscape:window-x="-8"
   inkscape:window-y="-8"
   inkscape:window-maximized="1"
   inkscape:current-layer="flash0.ai"
   fit-margin-top="0"
   fit-margin-left="0"
   fit-margin-right="0"
   fit-margin-bottom="0" />
<g
   id="g94"
   transform="matrix(7.4958232,0,0,7.4958232,-146.18839,-104.86524)">
	<path
   style="clip-rule:evenodd;fill:#f5c925;fill-rule:evenodd"
   d="M 33.945,25.505 21.525,30.86 C 21.465,30.23 21.36,29.719 21.21,29.33 l -0.225,-0.405 c 0.03,-0.6 -0.195,-0.99 -0.675,-1.17 -0.477,-0.204 -0.724,-0.151 -0.742,0.157 0,-0.236 0.068,-0.499 0.202,-0.787 0.45,-0.9 1.5,-1.62 3.15,-2.16 1.65,-0.54 3.255,-0.81 4.815,-0.81 0.81,0 1.695,0.045 2.655,0.135 h 1.125 z"
   id="path2"
   inkscape:connector-curvature="0" />
	<path
   style="clip-rule:evenodd;fill:#f0c116;fill-rule:evenodd"
   d="m 41.91,18.575 c 0.6,0.42 0.825,0.99 0.675,1.71 -0.09,0.45 -1.815,1.635 -5.175,3.555 -3.51,2.011 -5.865,3 -7.065,2.97 -1.109,-0.029 -1.89,-0.225 -2.34,-0.585 l -0.36,-0.494 -0.18,0.247 c 0.216,-0.31 0.486,-0.706 0.81,-1.192 0.54,-0.811 1.125,-1.545 1.755,-2.205 1.2,-1.23 2.76,-2.13 4.68,-2.7 1.11,-0.33 2.295,-0.405 3.555,-0.225 0.78,0.12 1.425,-0.135 1.936,-0.765 0.509,-0.661 1.079,-0.766 1.709,-0.316 z"
   id="path4"
   inkscape:connector-curvature="0" />
	<path
   style="clip-rule:evenodd;fill:#d9b127;fill-rule:evenodd"
   d="m 37.545,36.305 c 5.16,2.25 10.305,4.456 15.435,6.615 l 0.09,0.899 C 51.06,43.88 49.095,43.7 47.175,43.28 c -0.87,-0.181 -1.935,-0.465 -3.194,-0.855 -0.961,-0.3 -1.756,-0.479 -2.386,-0.539 -0.75,-0.062 -1.56,-0.166 -2.43,-0.316 -1.17,-0.21 -2.235,-0.39 -3.195,-0.539 -1.53,-0.181 -2.58,-0.315 -3.15,-0.405 -0.93,-0.12 -1.98,-0.3 -3.15,-0.54 l -7.47,-1.53 -1.53,-0.449 c 0.3,-3.33 0.18,-5.461 -0.36,-6.391 -0.39,-0.72 -0.646,-1.665 -0.765,-2.835 -0.12,-1.229 0.015,-1.86 0.405,-1.89 0.36,-0.03 0.735,0.195 1.125,0.675 0.33,0.39 0.6,0.84 0.81,1.35 0.12,0.389 5.34,2.819 15.66,7.289 z"
   id="path6"
   inkscape:connector-curvature="0" />
	<path
   style="clip-rule:evenodd;fill:#f5d55d;fill-rule:evenodd"
   d="m 26.52,24.785 c 1.02,-0.06 1.35,0.075 0.99,0.405 -0.3,0.27 -0.765,0.494 -1.395,0.675 -0.84,0.359 -1.53,0.63 -2.07,0.81 -1.02,0.39 -1.725,0.54 -2.115,0.45 -0.45,-0.09 -0.615,-0.255 -0.495,-0.495 0.09,-0.24 0.375,-0.48 0.855,-0.72 0.48,-0.21 1.185,-0.436 2.115,-0.675 0.96,-0.27 1.665,-0.421 2.115,-0.45 z"
   id="path8"
   inkscape:connector-curvature="0" />
	<path
   style="clip-rule:evenodd;fill:#f5d55d;fill-rule:evenodd"
   d="m 36.87,19.97 c 2.04,0.12 0.75,0.945 -3.87,2.476 -1.41,0.449 -2.13,0.675 -2.16,0.675 -0.12,0 0.135,-0.33 0.765,-0.99 0.6,-0.66 1.53,-1.215 2.79,-1.665 1.05,-0.361 1.875,-0.526 2.475,-0.496 z"
   id="path10"
   inkscape:connector-curvature="0" />
	<path
   style="clip-rule:evenodd;fill:#f5d55d;fill-rule:evenodd"
   d="m 41.415,18.71 c 0.359,0.12 0.404,0.315 0.135,0.585 -0.269,0.27 -0.585,0.33 -0.944,0.18 -0.33,-0.12 -0.36,-0.3 -0.091,-0.54 0.27,-0.24 0.57,-0.315 0.9,-0.225 z"
   id="path12"
   inkscape:connector-curvature="0" />
	<path
   style="clip-rule:evenodd;fill:#fff492;fill-rule:evenodd"
   d="m 40.02,28.655 c 2.19,0.479 5.025,1.814 8.505,4.005 1.771,1.109 3.3,2.159 4.59,3.149 l -0.135,7.11 c -3.479,0.18 -5.97,-0.075 -7.47,-0.765 -0.81,-0.36 -2.1,-0.646 -3.87,-0.855 -2.1,-0.27 -3.6,-0.524 -4.5,-0.765 -0.99,-0.301 -2.235,-0.556 -3.734,-0.766 -1.621,-0.21 -3.166,-0.51 -4.636,-0.899 -2.879,-0.78 -5.024,-1.215 -6.435,-1.305 -0.3,-1.261 -0.48,-2.746 -0.54,-4.455 -0.06,-1.05 -0.15,-2.115 -0.27,-3.195 l -0.18,-1.35 c 0.87,0.149 1.845,0.149 2.925,0 1.74,-0.181 3.705,-0.301 5.895,-0.36 4.38,-0.179 7.665,-0.029 9.855,0.451 z"
   id="path14"
   inkscape:connector-curvature="0" />
	<path
   style="clip-rule:evenodd;fill:#d9b63f;fill-rule:evenodd"
   d="m 50.01,39.186 c 0.99,-0.091 1.979,0.179 2.97,0.81 v 1.08 c -0.42,-0.36 -0.976,-0.586 -1.665,-0.675 -1.35,-0.211 -3.33,-0.03 -5.939,0.539 -1.92,0.42 -3.405,0.195 -4.455,-0.675 -0.6,-0.51 -1.38,-0.915 -2.34,-1.215 -0.9,-0.3 -1.726,-0.42 -2.475,-0.36 -1.861,0.12 -3.196,-0.135 -4.005,-0.765 -0.72,-0.6 -1.35,-1.005 -1.89,-1.215 -0.87,-0.39 -1.8,-0.479 -2.79,-0.27 -1.26,0.359 -2.19,0.614 -2.79,0.765 -1.05,0.27 -1.831,0.3 -2.34,0.09 L 21.976,35.54 c 0.51,0.39 1.29,0.51 2.34,0.36 0.51,-0.061 1.35,-0.226 2.52,-0.495 1.11,-0.181 1.995,-0.09 2.655,0.27 0.06,0.03 0.825,0.525 2.294,1.485 0.87,0.54 1.635,0.825 2.295,0.854 0.03,0 0.87,-0.029 2.52,-0.09 0.99,-0.06 1.695,0.015 2.115,0.226 0.33,0.149 1.2,0.615 2.61,1.395 1.35,0.689 2.279,1.021 2.79,0.99 0.449,0 1.409,-0.21 2.88,-0.63 1.62,-0.45 2.625,-0.69 3.015,-0.719 z"
   id="path16"
   inkscape:connector-curvature="0" />
	<path
   style="clip-rule:evenodd;fill:#e3bb32;fill-rule:evenodd"
   d="m 40.965,34.73 c -0.601,0 -1.5,-0.15 -2.7,-0.45 -1.05,-0.24 -1.89,-0.48 -2.52,-0.721 -0.419,-0.18 -1.47,-0.449 -3.15,-0.81 -1.89,-0.42 -3.15,-0.705 -3.78,-0.855 C 26.505,31.535 24.93,31.19 24.09,30.86 23.34,30.589 22.47,30.11 21.48,29.42 l -0.135,-0.854 c 0.87,0.149 1.845,0.149 2.925,0 4.17,-0.421 8.01,-0.54 11.52,-0.36 l 4.635,0.585 c 2.189,0.54 4.965,1.875 8.325,4.005 1.68,1.05 3.135,2.056 4.364,3.015 l -0.045,0.99 -1.395,-0.27 c -0.78,0 -1.561,-0.15 -2.34,-0.45 -0.271,-0.09 -0.84,-0.225 -1.71,-0.405 -0.87,-0.149 -1.5,-0.3 -1.891,-0.45 -0.808,-0.331 -2.398,-0.496 -4.768,-0.496 z"
   id="path18"
   inkscape:connector-curvature="0" />
	<path
   style="clip-rule:evenodd;fill:#628f00;fill-rule:evenodd"
   d="m 38.67,36.935 c 0.6,-0.029 1.545,0.12 2.835,0.45 0.72,0.181 1.71,0.45 2.97,0.81 0.57,0.121 1.74,0.016 3.51,-0.314 1.92,-0.39 3.12,-0.585 3.601,-0.585 0.481,0 0.96,0.09 1.439,0.271 l -0.045,0.27 c -0.06,0.33 -0.06,0.72 0,1.17 -0.689,-0.51 -1.319,-0.766 -1.89,-0.766 -0.571,0 -1.65,0.166 -3.24,0.496 -1.59,0.329 -2.609,0.479 -3.06,0.45 -0.48,0 -1.5,-0.271 -3.06,-0.811 -1.501,-0.54 -2.431,-0.81 -2.79,-0.81 -0.721,-0.03 -1.605,-0.105 -2.655,-0.226 -1.29,-0.18 -2.13,-0.359 -2.52,-0.54 -0.18,-0.09 -0.63,-0.435 -1.35,-1.035 -0.63,-0.54 -1.17,-0.84 -1.62,-0.899 -0.6,-0.09 -2.685,-0.135 -6.255,-0.135 -1.44,0 -2.325,-0.061 -2.655,-0.181 l -0.18,-2.88 c 0.24,0.66 0.48,1.065 0.72,1.215 0.36,0.24 1.125,0.345 2.295,0.315 1.05,-0.03 2.355,-0.075 3.915,-0.135 1.23,0.06 2.31,0.435 3.24,1.125 1.08,0.779 2.295,1.439 3.645,1.979 1.35,0.571 2.4,0.826 3.15,0.766 z"
   id="path20"
   inkscape:connector-curvature="0" />
	<path
   style="clip-rule:evenodd;fill:#d9b63f;fill-rule:evenodd"
   d="m 23.82,31.58 c 0.75,0.15 1.095,0.36 1.035,0.63 -0.03,0.18 -0.21,0.33 -0.54,0.45 -0.66,0.239 -1.14,0.15 -1.44,-0.271 -0.18,-0.239 -0.18,-0.449 0,-0.63 0.21,-0.179 0.525,-0.239 0.945,-0.179 z"
   id="path22"
   inkscape:connector-curvature="0" />
	<path
   style="clip-rule:evenodd;fill:#d9b63f;fill-rule:evenodd"
   d="m 33.9,33.83 c 0.3,0.03 0.495,0.24 0.585,0.63 0.12,0.391 0.03,0.601 -0.27,0.63 -0.27,0.03 -0.555,-0.075 -0.855,-0.314 -0.09,-0.091 -0.33,-0.36 -0.72,-0.811 -0.24,-0.239 -0.255,-0.359 -0.045,-0.359 0.03,-0.001 0.465,0.074 1.305,0.224 z"
   id="path24"
   inkscape:connector-curvature="0" />
	<path
   style="clip-rule:evenodd;fill:#d9b63f;fill-rule:evenodd"
   d="m 36.375,34.73 c 0.45,0.089 0.84,0.314 1.17,0.675 0.33,0.42 0.271,0.675 -0.18,0.765 -0.45,0.12 -0.93,0.09 -1.44,-0.09 -0.45,-0.15 -0.72,-0.345 -0.81,-0.585 -0.09,-0.21 -0.03,-0.405 0.18,-0.585 0.27,-0.18 0.63,-0.24 1.08,-0.18 z"
   id="path26"
   inkscape:connector-curvature="0" />
	<path
   style="clip-rule:evenodd;fill:#d9b63f;fill-rule:evenodd"
   d="m 44.835,36.305 c 0.78,0.21 1.14,0.48 1.08,0.811 -0.061,0.3 -0.436,0.51 -1.125,0.63 -0.54,0.12 -0.96,0.075 -1.26,-0.135 -0.12,-0.091 -0.285,-0.315 -0.495,-0.676 -0.18,-0.239 -0.075,-0.435 0.314,-0.585 0.39,-0.18 0.886,-0.195 1.486,-0.045 z"
   id="path28"
   inkscape:connector-curvature="0" />
	<path
   style="clip-rule:evenodd;fill:#d9b63f;fill-rule:evenodd"
   d="m 29.67,37.115 c 0.69,0.21 1.065,0.495 1.125,0.854 0.09,0.391 -0.15,0.615 -0.72,0.675 -0.51,0.06 -0.975,-0.045 -1.395,-0.314 -0.42,-0.271 -0.675,-0.555 -0.765,-0.855 -0.09,-0.27 0.075,-0.435 0.495,-0.494 0.36,-0.031 0.78,0.014 1.26,0.134 z"
   id="path30"
   inkscape:connector-curvature="0" />
	<path
   style="clip-rule:evenodd;fill:#d9b63f;fill-rule:evenodd"
   d="m 26.43,31.94 c 0.51,0 0.75,0.09 0.72,0.27 0,0.15 -0.135,0.285 -0.405,0.405 -0.39,0.18 -0.765,0.149 -1.125,-0.09 -0.209,-0.12 -0.225,-0.24 -0.044,-0.36 0.149,-0.15 0.434,-0.225 0.854,-0.225 z"
   id="path32"
   inkscape:connector-curvature="0" />
	<path
   style="clip-rule:evenodd;fill:#d9b63f;fill-rule:evenodd"
   d="m 37.41,39.095 c 0.6,0.091 0.93,0.301 0.989,0.63 0.03,0.271 -0.09,0.51 -0.359,0.72 -0.21,0.121 -0.42,0.105 -0.63,-0.044 -0.271,-0.271 -0.54,-0.495 -0.811,-0.676 -0.359,-0.27 -0.42,-0.465 -0.18,-0.585 0.211,-0.09 0.541,-0.105 0.991,-0.045 z"
   id="path34"
   inkscape:connector-curvature="0" />
	<path
   style="clip-rule:evenodd;fill:#d9b63f;fill-rule:evenodd"
   d="m 39.435,39.814 c 0.36,0.12 0.601,0.271 0.721,0.45 0.06,0.15 0.029,0.271 -0.09,0.36 -0.091,0.12 -0.286,0.12 -0.585,0 -0.271,-0.09 -0.45,-0.195 -0.54,-0.314 -0.061,-0.15 -0.046,-0.271 0.044,-0.36 0.09,-0.121 0.24,-0.165 0.45,-0.136 z"
   id="path36"
   inkscape:connector-curvature="0" />
	<path
   style="clip-rule:evenodd;fill:#d9b63f;fill-rule:evenodd"
   d="m 50.01,40.895 c 1.02,0.181 1.396,0.42 1.125,0.72 -0.21,0.271 -0.646,0.45 -1.305,0.541 -0.511,0.09 -0.99,0.06 -1.44,-0.091 -0.51,-0.179 -0.779,-0.419 -0.81,-0.72 -0.061,-0.27 0.149,-0.45 0.63,-0.54 0.45,-0.09 1.05,-0.06 1.8,0.09 z"
   id="path38"
   inkscape:connector-curvature="0" />
	<path
   style="clip-rule:evenodd;fill:#ffcf1f;fill-rule:evenodd"
   d="m 42.585,20.285 3.87,5.58 c 1.08,1.71 2.324,3.585 3.734,5.625 0.931,1.439 1.905,2.88 2.925,4.319 -1.439,-0.27 -2.579,-0.524 -3.42,-0.765 -0.45,-0.15 -1.305,-0.345 -2.564,-0.585 -1.35,-0.27 -2.25,-0.465 -2.7,-0.585 -0.24,-0.061 -1.365,-0.149 -3.375,-0.27 -1.71,-0.091 -2.984,-0.33 -3.824,-0.721 -1.98,-0.96 -4.726,-1.604 -8.236,-1.935 -1.74,-0.15 -3.495,-0.615 -5.265,-1.395 l -2.385,-0.99 c 1.86,-0.69 3.87,-1.59 6.03,-2.7 3.36,-1.74 6.255,-2.971 8.685,-3.69 z"
   id="path40"
   inkscape:connector-curvature="0" />
	<path
   style="clip-rule:evenodd;fill:#fffa75;fill-rule:evenodd"
   d="m 33.315,23.975 c 1.05,0.091 1.59,0.391 1.62,0.9 0,0.45 -0.315,0.75 -0.944,0.9 -0.42,0.119 -0.705,0.135 -0.855,0.045 -0.21,-0.24 -0.45,-0.466 -0.72,-0.676 -0.39,-0.3 -0.48,-0.585 -0.271,-0.854 0.24,-0.24 0.63,-0.345 1.17,-0.315 z"
   id="path42"
   inkscape:connector-curvature="0" />
	<path
   style="clip-rule:evenodd;fill:#fffa75;fill-rule:evenodd"
   d="m 25.485,27.845 c 0.69,0.03 1.11,0.24 1.26,0.63 0.15,0.301 0.105,0.556 -0.135,0.766 -0.27,0.27 -1.17,0.165 -2.7,-0.315 -0.69,-0.21 -0.75,-0.45 -0.18,-0.72 0.57,-0.301 1.155,-0.421 1.755,-0.361 z"
   id="path44"
   inkscape:connector-curvature="0" />
	<path
   style="clip-rule:evenodd;fill:#fffa75;fill-rule:evenodd"
   d="m 28.455,29.06 c 0.54,0.091 0.93,0.285 1.17,0.585 0.21,0.24 0.27,0.45 0.18,0.631 -0.03,0.149 -0.195,0.239 -0.495,0.27 -0.24,0 -0.765,-0.045 -1.575,-0.135 -0.75,-0.09 -0.975,-0.36 -0.675,-0.811 0.27,-0.48 0.735,-0.66 1.395,-0.54 z"
   id="path46"
   inkscape:connector-curvature="0" />
	<path
   style="clip-rule:evenodd;fill:#fffa75;fill-rule:evenodd"
   d="m 34.665,29.825 c 0.63,-0.09 1.035,0 1.215,0.27 0.15,0.24 0.045,0.495 -0.315,0.766 -0.45,0.359 -1.14,0.33 -2.07,-0.091 -0.33,-0.149 -0.345,-0.33 -0.045,-0.539 0.27,-0.21 0.675,-0.346 1.215,-0.406 z"
   id="path48"
   inkscape:connector-curvature="0" />
	<path
   style="clip-rule:evenodd;fill:#fffa75;fill-rule:evenodd"
   d="m 37.77,28.61 c 0.391,-0.18 0.885,-0.226 1.485,-0.136 0.63,0.091 0.69,0.255 0.18,0.495 -0.51,0.36 -1.064,0.675 -1.665,0.945 -0.359,0.15 -0.675,0.18 -0.944,0.09 -0.301,-0.15 -0.615,-0.285 -0.945,-0.405 -0.36,-0.119 -0.375,-0.239 -0.045,-0.359 1.018,-0.3 1.664,-0.511 1.934,-0.63 z"
   id="path50"
   inkscape:connector-curvature="0" />
	<path
   style="clip-rule:evenodd;fill:#fffa75;fill-rule:evenodd"
   d="m 39.93,24.83 c 0.84,0.18 1.335,0.48 1.485,0.9 0.09,0.39 -0.061,0.689 -0.45,0.899 -0.479,0.271 -1.305,0.21 -2.475,-0.18 -0.42,-0.15 -0.556,-0.39 -0.405,-0.72 0.3,-0.42 0.51,-0.795 0.63,-1.125 0.12,-0.36 0.24,-0.466 0.36,-0.315 0.239,0.301 0.525,0.482 0.855,0.541 z"
   id="path52"
   inkscape:connector-curvature="0" />
	<path
   style="clip-rule:evenodd;fill:#fffa75;fill-rule:evenodd"
   d="m 44.34,25.28 c 0.3,-0.391 0.465,-0.33 0.495,0.18 0.06,0.57 -0.016,0.9 -0.226,0.99 -0.18,0.09 -0.449,0.06 -0.81,-0.09 -0.3,-0.12 -0.525,-0.255 -0.675,-0.405 -0.09,-0.09 0.029,-0.18 0.359,-0.271 0.422,-0.089 0.706,-0.224 0.857,-0.404 z"
   id="path54"
   inkscape:connector-curvature="0" />
	<path
   style="clip-rule:evenodd;fill:#fffa75;fill-rule:evenodd"
   d="m 45.87,27.26 c 0.569,-0.06 0.899,0.12 0.989,0.54 0.061,0.39 -0.015,0.69 -0.225,0.9 -0.3,0.27 -0.69,0.405 -1.17,0.405 -0.51,0 -1.095,-0.301 -1.755,-0.9 -0.24,-0.18 -0.135,-0.36 0.314,-0.54 0.452,-0.21 1.067,-0.345 1.847,-0.405 z"
   id="path56"
   inkscape:connector-curvature="0" />
	<path
   style="clip-rule:evenodd;fill:#fffa75;fill-rule:evenodd"
   d="m 41.28,29.51 c 0.659,-0.27 0.749,0 0.27,0.811 -0.21,0.27 -0.66,0.225 -1.35,-0.136 -0.21,-0.09 -0.181,-0.194 0.09,-0.314 0.06,-0.031 0.39,-0.151 0.99,-0.361 z"
   id="path58"
   inkscape:connector-curvature="0" />
	<path
   style="clip-rule:evenodd;fill:#fffa75;fill-rule:evenodd"
   d="m 39.84,31.31 c 0.51,0.03 0.465,0.301 -0.135,0.811 -0.15,0.03 -0.225,-0.105 -0.225,-0.405 -0.03,-0.271 0.089,-0.406 0.36,-0.406 z"
   id="path60"
   inkscape:connector-curvature="0" />
	<path
   style="clip-rule:evenodd;fill:#fffa75;fill-rule:evenodd"
   d="m 47.984,32.255 c 0.87,-0.03 1.471,0.165 1.801,0.585 0.239,0.33 0.239,0.66 0,0.99 -0.15,0.21 -0.33,0.33 -0.541,0.36 -0.089,0 -0.345,-0.03 -0.764,-0.091 -0.241,-0.029 -0.57,-0.194 -0.99,-0.494 -0.511,-0.33 -0.87,-0.54 -1.08,-0.631 -0.36,-0.18 -0.36,-0.33 0,-0.449 0.3,-0.12 0.825,-0.21 1.574,-0.27 z"
   id="path62"
   inkscape:connector-curvature="0" />
	<path
   style="clip-rule:evenodd;fill:#ffcf1f;fill-rule:evenodd"
   d="m 40.2,33.875 c -0.33,0 -0.886,-0.12 -1.665,-0.36 L 37.5,33.155 37.365,33.2 c -0.12,0.06 -0.181,0.63 -0.181,1.71 0,0.359 -0.104,0.569 -0.314,0.63 -0.18,0.03 -0.48,-0.03 -0.9,-0.18 -0.36,-0.091 -0.525,-0.315 -0.495,-0.676 0,-0.3 0.105,-0.63 0.315,-0.99 0.15,-0.27 0.09,-0.494 -0.18,-0.675 -0.24,-0.18 -0.45,-0.239 -0.63,-0.18 -0.36,0.12 -0.345,1.096 0.045,2.925 0.18,0.87 0.135,1.516 -0.135,1.936 -0.24,0.33 -0.57,0.42 -0.99,0.27 -0.57,-0.18 -0.6,-1.05 -0.09,-2.609 0.391,-1.32 0.33,-2.341 -0.18,-3.061 -0.27,-0.33 -1.125,-0.645 -2.565,-0.944 -1.2,-0.24 -2.07,-0.36 -2.61,-0.36 -0.36,0 -0.66,0.135 -0.9,0.405 -0.271,0.3 -0.36,0.6 -0.271,0.899 0.12,0.48 0.166,0.811 0.135,0.99 -0.09,0.3 -0.405,0.436 -0.945,0.404 -0.54,-0.029 -0.84,-0.314 -0.9,-0.854 -0.03,-0.27 0.015,-0.735 0.135,-1.395 0.12,-0.601 -0.27,-1.186 -1.17,-1.755 l 0.63,-0.135 c 0.51,0 1.005,0.164 1.485,0.494 0.78,0.6 2.145,0.75 4.095,0.45 0.42,-0.061 1.035,0.09 1.845,0.45 0.78,0.3 1.995,0.525 3.646,0.675 0.06,0 1.635,0.345 4.725,1.035 l 8.37,1.935 c 0.51,0.09 1.74,0.436 3.689,1.035 l 0.405,0.45 c 0.149,0.12 0.226,0.45 0.226,0.989 -0.03,0.511 -0.105,0.916 -0.226,1.216 -0.12,0.24 -0.255,0.285 -0.405,0.135 -0.15,-0.149 -0.255,-0.36 -0.314,-0.63 0,-0.061 0.03,-0.36 0.09,-0.9 0.03,-0.42 -0.03,-0.704 -0.181,-0.854 -0.149,-0.15 -0.615,-0.226 -1.395,-0.226 -0.81,0 -1.274,0 -1.395,0 -0.121,0 -0.226,0.135 -0.315,0.405 -0.15,0.39 -0.285,0.675 -0.405,0.854 -0.239,0.271 -0.524,0.33 -0.854,0.181 -0.33,-0.181 -0.525,-0.436 -0.585,-0.765 -0.03,-0.24 -0.435,-0.63 -1.215,-1.17 -0.69,-0.45 -1.2,-0.751 -1.53,-0.9 -0.21,-0.061 -0.944,-0.165 -2.205,-0.315 -1.29,-0.149 -2.13,-0.224 -2.52,-0.224 z"
   id="path64"
   inkscape:connector-curvature="0" />
	<path
   style="clip-rule:evenodd;fill:#2a6300;fill-rule:evenodd"
   d="m 30.165,26.54 c 1.11,0.03 2.16,0.3 3.15,0.81 0.87,0.421 1.245,0.766 1.125,1.035 -0.15,0.271 -0.45,0.495 -0.9,0.675 -0.51,0.181 -1.02,0.226 -1.53,0.136 -0.54,-0.09 -1.305,-0.33 -2.295,-0.721 -0.99,-0.39 -1.5,-0.659 -1.53,-0.81 -0.06,-0.18 0.075,-0.405 0.405,-0.675 0.42,-0.33 0.945,-0.48 1.575,-0.45 z"
   id="path66"
   inkscape:connector-curvature="0" />
	<path
   style="clip-rule:evenodd;fill:#388200;fill-rule:evenodd"
   d="m 28.95,27.395 c -0.27,-0.419 -0.075,-0.689 0.585,-0.81 0.54,-0.09 1.14,-0.06 1.8,0.09 1.32,0.33 2.235,0.72 2.745,1.17 0.18,0.181 0.225,0.3 0.135,0.36 -0.15,0.09 -0.3,0.165 -0.45,0.226 -0.51,0.209 -1.02,0.255 -1.53,0.135 -2.07,-0.511 -3.165,-0.901 -3.285,-1.171 z"
   id="path68"
   inkscape:connector-curvature="0" />
	<path
   style="clip-rule:evenodd;fill:#2a6300;fill-rule:evenodd"
   d="m 41.01,22.49 c 0.81,-0.09 1.56,0.195 2.25,0.854 0.51,0.48 0.795,0.931 0.855,1.351 0.06,0.39 -0.705,0.615 -2.296,0.675 -0.419,0.03 -0.915,-0.255 -1.484,-0.854 -0.39,-0.421 -0.69,-0.826 -0.9,-1.216 -0.24,-0.42 0.285,-0.69 1.575,-0.81 z"
   id="path70"
   inkscape:connector-curvature="0" />
	<path
   style="clip-rule:evenodd;fill:#388200;fill-rule:evenodd"
   d="m 39.75,22.985 c -0.09,-0.18 0.149,-0.315 0.72,-0.405 0.45,-0.09 0.87,-0.12 1.261,-0.09 0.479,0.03 1.02,0.345 1.619,0.944 0.42,0.45 0.6,0.795 0.54,1.035 -0.029,0.12 -0.479,0.256 -1.35,0.405 -0.36,0.03 -0.646,0.015 -0.855,-0.045 -0.18,-0.06 -0.435,-0.225 -0.765,-0.495 -0.6,-0.479 -0.99,-0.929 -1.17,-1.349 z"
   id="path72"
   inkscape:connector-curvature="0" />
	<path
   style="clip-rule:evenodd;fill:#2a6300;fill-rule:evenodd"
   d="m 43.08,30.32 c 1.26,-0.03 2.055,0.225 2.385,0.765 0.24,0.391 0.255,0.721 0.045,0.99 -0.21,0.21 -0.51,0.359 -0.9,0.45 -0.119,0.029 -1.05,-0.03 -2.79,-0.181 -0.419,-0.029 -0.63,-0.479 -0.63,-1.35 0,-0.15 0.226,-0.3 0.676,-0.45 0.389,-0.119 0.794,-0.193 1.214,-0.224 z"
   id="path74"
   inkscape:connector-curvature="0" />
	<path
   style="clip-rule:evenodd;fill:#388200;fill-rule:evenodd"
   d="M 41.505,31.265 41.46,30.86 c 0.06,-0.18 0.285,-0.315 0.675,-0.405 0.721,-0.18 1.56,-0.18 2.521,0 0.51,0.15 0.795,0.39 0.854,0.72 0,0.301 -0.09,0.511 -0.27,0.631 -0.091,0.06 -0.556,0.089 -1.396,0.089 -1.05,0.03 -1.695,0 -1.935,-0.089 -0.21,-0.061 -0.345,-0.242 -0.404,-0.541 z"
   id="path76"
   inkscape:connector-curvature="0" />
	<path
   style="clip-rule:evenodd;fill:#967e2b;fill-rule:evenodd"
   d="m 36.285,23.255 c 0.96,0 1.26,0.21 0.899,0.63 -0.39,0.45 -0.795,0.585 -1.215,0.405 -0.36,-0.15 -0.51,-0.359 -0.45,-0.63 0.061,-0.269 0.316,-0.405 0.766,-0.405 z"
   id="path78"
   inkscape:connector-curvature="0" />
	<path
   style="clip-rule:evenodd;fill:#967e2b;fill-rule:evenodd"
   d="m 34.935,26.181 c 0.69,0.089 0.855,0.299 0.496,0.629 -0.36,0.33 -0.706,0.421 -1.036,0.271 -0.27,-0.15 -0.314,-0.345 -0.135,-0.585 0.21,-0.271 0.435,-0.376 0.675,-0.315 z"
   id="path80"
   inkscape:connector-curvature="0" />
	<path
   style="clip-rule:evenodd;fill:#967e2b;fill-rule:evenodd"
   d="m 42,27.89 c 0.87,0.091 1.17,0.33 0.899,0.721 -0.3,0.42 -0.704,0.569 -1.215,0.449 -0.479,-0.119 -0.689,-0.359 -0.63,-0.72 0.061,-0.36 0.376,-0.51 0.946,-0.45 z"
   id="path82"
   inkscape:connector-curvature="0" />
	<path
   style="clip-rule:evenodd;fill:#967e2b;fill-rule:evenodd"
   d="m 48.795,30.095 c 0.63,0.09 0.854,0.285 0.675,0.586 -0.15,0.299 -0.42,0.435 -0.81,0.404 -0.33,-0.03 -0.466,-0.21 -0.405,-0.54 0.09,-0.36 0.269,-0.51 0.54,-0.45 z"
   id="path84"
   inkscape:connector-curvature="0" />
	<path
   style="clip-rule:evenodd;fill:#967e2b;fill-rule:evenodd"
   d="m 36.87,31.22 c 0.449,-0.12 0.81,-0.09 1.08,0.09 0.21,0.15 0.27,0.346 0.18,0.585 -0.12,0.301 -0.555,0.421 -1.305,0.36 -0.301,-0.03 -0.421,-0.194 -0.36,-0.495 0.059,-0.3 0.195,-0.48 0.405,-0.54 z"
   id="path86"
   inkscape:connector-curvature="0" />
	<path
   style="clip-rule:evenodd;fill:#967e2b;fill-rule:evenodd"
   d="m 27.375,26.81 c 0.63,-0.029 0.885,0.12 0.765,0.45 -0.09,0.181 -0.24,0.301 -0.45,0.36 -0.27,0.09 -0.495,0.06 -0.675,-0.09 -0.18,-0.181 -0.225,-0.345 -0.135,-0.495 0.09,-0.15 0.255,-0.225 0.495,-0.225 z"
   id="path88"
   inkscape:connector-curvature="0" />
	<path
   style="clip-rule:evenodd;fill:#967e2b;fill-rule:evenodd"
   d="m 41.46,26 c 0.81,0.09 1.065,0.285 0.765,0.585 -0.3,0.33 -0.63,0.405 -0.99,0.225 C 40.996,26.661 40.951,26.48 41.1,26.27 41.22,26.09 41.34,26 41.46,26 Z"
   id="path90"
   inkscape:connector-curvature="0" />
	<path
   style="clip-rule:evenodd;fill:#9e883e;fill-rule:evenodd"
   d="m 36.149,23.3 c 0.57,0.03 0.84,0.091 0.811,0.181 -0.33,0.27 -0.63,0.375 -0.9,0.314 -0.18,-0.03 -0.255,-0.12 -0.225,-0.27 C 35.895,23.375 36,23.3 36.149,23.3 Z"
   id="path92"
   inkscape:connector-curvature="0" />
</g>
</svg>