<?xml version="1.0" encoding="UTF-8" standalone="no"?>
<!-- Generator: Adobe Illustrator 15.1.0, SVG Export Plug-In . SVG Version: 6.00 Build 0)  -->

<svg
   xmlns:dc="http://purl.org/dc/elements/1.1/"
   xmlns:cc="http://creativecommons.org/ns#"
   xmlns:rdf="http://www.w3.org/1999/02/22-rdf-syntax-ns#"
   xmlns:svg="http://www.w3.org/2000/svg"
   xmlns="http://www.w3.org/2000/svg"
   xmlns:xlink="http://www.w3.org/1999/xlink"
   xmlns:sodipodi="http://sodipodi.sourceforge.net/DTD/sodipodi-0.dtd"
   xmlns:inkscape="http://www.inkscape.org/namespaces/inkscape"
   version="1.1"
   id="flash0.ai"
   x="0px"
   y="0px"
   width="256"
   height="256"
   viewBox="0 0 255.99999 256"
   xml:space="preserve"
   sodipodi:docname="sandwich_grilled_cheese_01.svg"
   inkscape:version="0.92.4 (5da689c313, 2019-01-14)"
   inkscape:export-xdpi="10.5"
   inkscape:export-ydpi="10.5"><metadata
   id="metadata318"><rdf:RDF><cc:Work
       rdf:about=""><dc:format>image/svg+xml</dc:format><dc:type
         rdf:resource="http://purl.org/dc/dcmitype/StillImage" /><dc:title></dc:title><cc:license
         rdf:resource="http://creativecommons.org/publicdomain/zero/1.0/" /><dc:creator><cc:Agent><dc:title>Glitch</dc:title></cc:Agent></dc:creator><dc:source>https://opengameart.org/node/20149</dc:source></cc:Work><cc:License
       rdf:about="http://creativecommons.org/publicdomain/zero/1.0/"><cc:permits
         rdf:resource="http://creativecommons.org/ns#Reproduction" /><cc:permits
         rdf:resource="http://creativecommons.org/ns#Distribution" /><cc:permits
         rdf:resource="http://creativecommons.org/ns#DerivativeWorks" /></cc:License></rdf:RDF></metadata><defs
   id="defs316" /><sodipodi:namedview
   pagecolor="#ffffff"
   bordercolor="#666666"
   borderopacity="1"
   objecttolerance="10"
   gridtolerance="10"
   guidetolerance="10"
   inkscape:pageopacity="0"
   inkscape:pageshadow="2"
   inkscape:window-width="1920"
   inkscape:window-height="1025"
   id="namedview314"
   showgrid="false"
   inkscape:zoom="0.76173087"
   inkscape:cx="110.3803"
   inkscape:cy="143.28344"
   inkscape:window-x="-8"
   inkscape:window-y="-8"
   inkscape:window-maximized="1"
   inkscape:current-layer="flash0.ai"
   fit-margin-top="0"
   fit-margin-left="0"
   fit-margin-right="0"
   fit-margin-bottom="0" />
<symbol
   id="flash0.ai_x5F_8_x2F_Layer_17_x2F__x3C_Path_x3E_"
   viewBox="0.046 -2.762 17.654 2.762"
   transform="translate(105.58153,151.834)">
	<g
   id="Layer_1_10_">
		<path
   style="clip-rule:evenodd;fill:#965a00;fill-rule:evenodd"
   d="m 1.25,-1.75 c 0.6,0.167 1.767,0.333 3.5,0.5 1.9,0.2 3.567,0.317 5,0.35 2.033,0.066 4.683,0.367 7.95,0.9 L 15.2,-1.45 C 14.367,-1.45 13.583,-1.5 12.85,-1.6 11.083,-1.933 7.7,-2.3 2.7,-2.7 0.867,-2.833 -0.017,-2.75 0.05,-2.45 c 0.033,0.233 0.433,0.467 1.2,0.7 z"
   id="path2"
   inkscape:connector-curvature="0" />
	</g>
</symbol>
<symbol
   id="flash0.ai_x5F_8_x2F_Layer_17_x2F__x3C_Path_x3E__x5F_1"
   viewBox="-0.012 -2.833 20.213 2.833"
   transform="translate(105.58153,151.834)">
	<g
   id="Layer_1_9_">
		<path
   style="clip-rule:evenodd;fill:#965a00;fill-rule:evenodd"
   d="m 20.2,0 -1.25,-0.9 c -0.2,-0.2 -0.717,-0.483 -1.55,-0.85 l -1.15,-0.5 h -2.6 C 10.683,-2.25 8.167,-2.333 6.1,-2.5 4.233,-2.667 2.967,-2.767 2.3,-2.8 c -1.066,-0.067 -1.733,-0.034 -2,0.1 -0.333,0.133 -0.4,0.25 -0.2,0.35 0.433,0.167 0.8,0.35 1.1,0.55 0.733,0.433 3.517,0.767 8.35,1 z"
   id="path6"
   inkscape:connector-curvature="0" />
	</g>
</symbol>
<symbol
   id="flash0.ai_x5F_8_x2F_Layer_17_x2F__x3C_Path_x3E__x5F_2"
   viewBox="-0.039 -2.34 12.139 2.34"
   transform="translate(105.58153,151.834)">
	<g
   id="Layer_1_8_">
		<path
   style="clip-rule:evenodd;fill:#965a00;fill-rule:evenodd"
   d="m 0.95,-0.8 c 0.833,0.3 2.65,0.5 5.45,0.6 L 12.1,0 10.75,-0.55 7.9,-2.05 c -1.367,0.1 -2.467,0.1 -3.3,0 C 3.533,-2.15 2.7,-2.233 2.1,-2.3 1,-2.367 0.35,-2.35 0.15,-2.25 c -0.233,0.1 -0.25,0.333 -0.05,0.7 0.233,0.4 0.517,0.65 0.85,0.75 z"
   id="path10"
   inkscape:connector-curvature="0" />
	</g>
</symbol>
<symbol
   id="flash0.ai_x5F_8_x2F_Layer_17_x2F__x3C_Path_x3E__x5F_24"
   viewBox="0 -17.5 32.957 17.5"
   transform="translate(105.58153,151.834)">
	<g
   id="Layer_1_7_">
		<path
   style="clip-rule:evenodd;fill:#664b16;fill-rule:evenodd"
   d="m 32.5,0 c 0.533,0 0.6,-0.233 0.2,-0.7 C 32.333,-1.133 31.9,-1.45 31.4,-1.65 31.2,-1.75 30.817,-2.033 30.25,-2.5 29.783,-2.867 29.433,-3.067 29.2,-3.1 28.967,-3.133 28.75,-3.433 28.55,-4 28.45,-4.267 28.367,-4.533 28.3,-4.8 28.267,-5.1 28.167,-5.3 28,-5.4 l -1.65,-1.2 c -0.067,0.867 -0.35,1.267 -0.85,1.2 -0.3,-0.033 -0.983,-0.417 -2.05,-1.15 -1.333,-0.967 -2.35,-1.667 -3.05,-2.1 -1.667,-1.167 -4,-2.317 -7,-3.45 -1.066,-0.367 -2.467,-0.983 -4.2,-1.85 -1.534,-0.733 -2.8,-1.4 -3.8,-2 -1.1,-0.667 -2.9,-1.183 -5.4,-1.55 1.7,1.533 3.683,3.183 5.95,4.95 4.5,3.533 8.1,5.867 10.8,7 3.067,1.333 6.35,2.6 9.85,3.8 3.333,1.167 5.3,1.75 5.9,1.75 z"
   id="path14"
   inkscape:connector-curvature="0" />
	</g>
</symbol>
<symbol
   id="flash0.ai_x5F_8_x2F_Layer_17_x2F__x3C_Path_x3E__x5F_32"
   viewBox="0 -5.05 12.101 5.025"
   transform="translate(105.58153,151.834)">
	<g
   id="Layer_1_6_">
		<path
   style="clip-rule:evenodd;fill:#785307;fill-rule:evenodd"
   d="m 11.2,-0.05 c 0.533,0.066 0.833,0 0.9,-0.2 C 12.133,-0.517 11.533,-0.933 10.3,-1.5 6.4,-3.167 4.1,-4.1 3.4,-4.3 2.9,-4.467 2.367,-4.717 1.8,-5.05 L 0,-4.55 c 2.233,0.733 4.033,1.45 5.4,2.15 1.033,0.533 2.15,1.05 3.35,1.55 1.233,0.467 2.05,0.733 2.45,0.8 z"
   id="path18"
   inkscape:connector-curvature="0" />
	</g>
</symbol>
<symbol
   id="flash0.ai_x5F_8_x2F_Layer_23_x2F__x3C_Path_x3E_"
   viewBox="0 -6.25 13.753 6.251"
   transform="translate(105.58153,151.834)">
	<g
   id="Layer_1_5_">
		<path
   style="clip-rule:evenodd;fill:#784000;fill-rule:evenodd"
   d="m 13.6,-0.6 c -0.2,-0.267 -0.467,-0.483 -0.8,-0.65 -0.1,-0.067 -0.833,-0.4 -2.2,-1 -2,-0.9 -3.85,-1.867 -5.55,-2.9 L 3.1,-6.25 C 2,-6.183 1.3,-6.067 1,-5.9 l -1,0.45 c 3.267,1.434 5.9,2.633 7.9,3.6 2.6,1.267 4.167,1.883 4.7,1.85 0.167,-0.033 0.467,-0.05 0.9,-0.05 0.3,-0.067 0.333,-0.25 0.1,-0.55 z"
   id="path22"
   inkscape:connector-curvature="0" />
	</g>
</symbol>
<symbol
   id="flash0.ai_x5F_8_x2F_Layer_23_x2F__x3C_Path_x3E__x5F_1"
   viewBox="0 -3.5 7.673 3.508"
   transform="translate(105.58153,151.834)">
	<g
   id="Layer_1_4_">
		<path
   style="clip-rule:evenodd;fill:#785307;fill-rule:evenodd"
   d="M 7.6,-0.75 C 7.167,-1.317 6.55,-1.767 5.75,-2.1 5.15,-2.367 4.35,-2.833 3.35,-3.5 2.317,-3.233 1.567,-3.1 1.1,-3.1 L 0,-3.05 4.25,-0.9 c 0.617,0.296 0.976,0.488 1.075,0.575 L 5.35,-0.35 6.7,0 C 7,0.033 7.25,-0.033 7.45,-0.2 7.683,-0.367 7.733,-0.55 7.6,-0.75 Z"
   id="path26"
   inkscape:connector-curvature="0" />
	</g>
</symbol>
<symbol
   id="flash0.ai_x5F_8_x2F_Layer_23_x2F__x3C_Path_x3E__x5F_2"
   viewBox="0.003 -15.25 23.848 15.25"
   transform="translate(105.58153,151.834)">
	<g
   id="Layer_1_3_">
		<path
   style="clip-rule:evenodd;fill:#664b16;fill-rule:evenodd"
   d="m 23.85,-0.7 c -3.633,-2.367 -6.1,-3.883 -7.4,-4.55 -2.867,-1.433 -4.617,-2.433 -5.25,-3 -2.567,-1.3 -4.067,-2.55 -4.5,-3.75 -0.233,-0.733 -0.1,-1.5 0.4,-2.3 0.267,-0.4 0.55,-0.717 0.85,-0.95 -4.167,1.067 -6.784,1.8 -7.85,2.2 -0.633,0.267 1.816,2.517 7.35,6.75 2.8,2.133 5.65,4.233 8.55,6.3 l 6.25,-0.45 c 0.733,-0.067 1.267,-0.15 1.6,-0.25 z"
   id="path30"
   inkscape:connector-curvature="0" />
	</g>
</symbol>
<symbol
   id="flash0.ai_x5F_8_x2F_Layer_23_x2F__x3C_Path_x3E__x5F_23"
   viewBox="-0.038 -6.978 31.838 6.984"
   transform="translate(105.58153,151.834)">
	<g
   id="Layer_1_2_">
		<path
   style="clip-rule:evenodd;fill:#664b16;fill-rule:evenodd"
   d="m 31.8,-6.4 c -2.233,-0.567 -3.883,-0.717 -4.95,-0.45 -2.9,0.7 -5.467,1.05 -7.7,1.05 -2.667,0.066 -4.9,0.383 -6.7,0.95 -1.4,0.5 -2.417,0.85 -3.05,1.05 -1.033,0.367 -1.7,0.517 -2,0.45 C 7.133,-3.45 6.967,-3.733 6.9,-4.2 6.867,-4.433 6.867,-4.666 6.9,-4.9 l -1.7,0.6 -0.35,0.55 c -0.367,1 -0.733,1.45 -1.1,1.35 -0.2,-0.067 -0.533,0.017 -1,0.25 -0.567,0.267 -0.967,0.417 -1.2,0.45 -0.466,0.067 -0.9,0.25 -1.3,0.55 -0.4,0.333 -0.383,0.583 0.05,0.75 0.5,0.233 2.317,0.367 5.45,0.4 3.233,0.033 6.35,-0.067 9.35,-0.3 2.533,-0.2 6.066,-1.267 10.6,-3.2 2.3,-1 4.333,-1.967 6.1,-2.9 z"
   id="path34"
   inkscape:connector-curvature="0" />
	</g>
</symbol>






<linearGradient
   id="SVGID_14_"
   gradientUnits="userSpaceOnUse"
   x1="7.1499"
   y1="23.127001"
   x2="8.6499004"
   y2="23.127001">
	<stop
   offset="0"
   style="stop-color:#C4A149"
   id="stop181" />
	<stop
   offset="1"
   style="stop-color:#DBC674"
   id="stop183" />
</linearGradient>

<linearGradient
   id="SVGID_15_"
   gradientUnits="userSpaceOnUse"
   x1="13.7876"
   y1="18.9639"
   x2="16.5126"
   y2="18.9639">
	<stop
   offset="0"
   style="stop-color:#C4A149"
   id="stop188" />
	<stop
   offset="1"
   style="stop-color:#DBC674"
   id="stop190" />
</linearGradient>

<linearGradient
   id="SVGID_16_"
   gradientUnits="userSpaceOnUse"
   x1="28.4111"
   y1="12.2358"
   x2="30.0861"
   y2="12.2358">
	<stop
   offset="0"
   style="stop-color:#C4A149"
   id="stop195" />
	<stop
   offset="1"
   style="stop-color:#DBC674"
   id="stop197" />
</linearGradient>













<linearGradient
   id="SVGID_17_"
   gradientUnits="userSpaceOnUse"
   x1="12.3892"
   y1="-6.9351001"
   x2="15.8943"
   y2="-6.9351001"
   gradientTransform="matrix(0.592,0.806,-0.806,0.592,-1.296401e-4,-1.066923e-5)">
	<stop
   offset="0"
   style="stop-color:#EDCA6B"
   id="stop230" />
	<stop
   offset="1"
   style="stop-color:#FFEF9E"
   id="stop232" />
</linearGradient>

<linearGradient
   id="SVGID_18_"
   gradientUnits="userSpaceOnUse"
   x1="12.3076"
   y1="-1.6719"
   x2="13.9326"
   y2="-1.6719"
   gradientTransform="rotate(53.130102,4.8828125e-4,2.4208425e-4)">
	<stop
   offset="0"
   style="stop-color:#EDCA6B"
   id="stop237" />
	<stop
   offset="1"
   style="stop-color:#FFEF9E"
   id="stop239" />
</linearGradient>

<linearGradient
   id="SVGID_19_"
   gradientUnits="userSpaceOnUse"
   x1="13.9707"
   y1="2.7177999"
   x2="15.5257"
   y2="2.7177999"
   gradientTransform="matrix(0.5948,0.8038,-0.8038,0.5948,1.029968e-4,2.757311e-4)">
	<stop
   offset="0"
   style="stop-color:#EDCA6B"
   id="stop244" />
	<stop
   offset="1"
   style="stop-color:#FFEF9E"
   id="stop246" />
</linearGradient>

<linearGradient
   id="SVGID_20_"
   gradientUnits="userSpaceOnUse"
   x1="15.168"
   y1="0.89109999"
   x2="16.757999"
   y2="0.89109999"
   gradientTransform="matrix(0.5975,0.8019,-0.8019,0.5975,-5.203485e-5,-4.272461e-4)">
	<stop
   offset="0"
   style="stop-color:#EDCA6B"
   id="stop251" />
	<stop
   offset="1"
   style="stop-color:#FFEF9E"
   id="stop253" />
</linearGradient>

<linearGradient
   id="SVGID_21_"
   gradientUnits="userSpaceOnUse"
   x1="23.8374"
   y1="4.4277"
   x2="27.8624"
   y2="4.4277">
	<stop
   offset="0"
   style="stop-color:#EDCA6B"
   id="stop258" />
	<stop
   offset="1"
   style="stop-color:#FFEF9E"
   id="stop260" />
</linearGradient>

<linearGradient
   id="SVGID_22_"
   gradientUnits="userSpaceOnUse"
   x1="15.0425"
   y1="-13.7988"
   x2="16.3475"
   y2="-13.7988"
   gradientTransform="matrix(0.5939,0.8046,-0.8046,0.5939,3.49164e-4,-2.102256e-4)">
	<stop
   offset="0"
   style="stop-color:#EDCA6B"
   id="stop265" />
	<stop
   offset="1"
   style="stop-color:#FFEF9E"
   id="stop267" />
</linearGradient>

<linearGradient
   id="SVGID_23_"
   gradientUnits="userSpaceOnUse"
   x1="19.5317"
   y1="-24.101601"
   x2="20.8018"
   y2="-24.101601"
   gradientTransform="matrix(0.5905,0.807,-0.807,0.5905,3.945231e-4,-5.486012e-4)">
	<stop
   offset="0"
   style="stop-color:#EDCA6B"
   id="stop272" />
	<stop
   offset="1"
   style="stop-color:#FFEF9E"
   id="stop274" />
</linearGradient>

<linearGradient
   id="SVGID_24_"
   gradientUnits="userSpaceOnUse"
   x1="17.6001"
   y1="-9.8311005"
   x2="19.1001"
   y2="-9.8311005"
   gradientTransform="rotate(53.130102,-2.467334e-4,-2.02655e-6)">
	<stop
   offset="0"
   style="stop-color:#EDCA6B"
   id="stop279" />
	<stop
   offset="1"
   style="stop-color:#FFEF9E"
   id="stop281" />
</linearGradient>

<linearGradient
   id="SVGID_25_"
   gradientUnits="userSpaceOnUse"
   x1="17.6147"
   y1="-6.1064"
   x2="19.294399"
   y2="-6.1064"
   gradientTransform="matrix(0.0744,0.9972,-0.9972,0.0744,1.412779e-4,-4.807264e-4)">
	<stop
   offset="0"
   style="stop-color:#C4A149"
   id="stop286" />
	<stop
   offset="1"
   style="stop-color:#DBC674"
   id="stop288" />
</linearGradient>

<linearGradient
   id="SVGID_26_"
   gradientUnits="userSpaceOnUse"
   x1="16.3638"
   y1="-12.1885"
   x2="18.219801"
   y2="-12.1885"
   gradientTransform="matrix(0.0808,0.9967,-0.9967,0.0808,2.384335e-4,-4.786998e-5)">
	<stop
   offset="0"
   style="stop-color:#C4A149"
   id="stop293" />
	<stop
   offset="1"
   style="stop-color:#DBC674"
   id="stop295" />
</linearGradient>

<linearGradient
   id="SVGID_27_"
   gradientUnits="userSpaceOnUse"
   x1="8.9921999"
   y1="-26.767599"
   x2="10.1216"
   y2="-26.767599"
   gradientTransform="matrix(0.0885,0.9961,-0.9961,0.0885,-2.545267e-4,3.222376e-4)">
	<stop
   offset="0"
   style="stop-color:#C4A149"
   id="stop300" />
	<stop
   offset="1"
   style="stop-color:#DBC674"
   id="stop302" />
</linearGradient>



<g
   id="g1098"
   transform="matrix(5.7095652,0,0,5.7095652,-5.9295071e-5,39.359)"><g
     id="g169">
	<path
   inkscape:connector-curvature="0"
   id="path38"
   d="m 44.75,28.6 -1,0.15 -10.8,-3.1 -23.25,-3.5 -2.25,-0.5 c 6.9,-2.067 12.816,-3.5 17.75,-4.301 3.333,-0.533 6.017,-0.566 8.05,-0.1 1.467,0.366 2.783,1.083 3.95,2.15 1.333,1.167 3.85,4.235 7.55,9.201 z"
   style="clip-rule:evenodd;fill:#c98000;fill-rule:evenodd" />
	<path
   inkscape:connector-curvature="0"
   id="path40"
   d="M 43.8,31.05 C 37.067,30.317 31.367,29.533 26.7,28.7 22.067,27.9 16.083,26.384 8.75,24.15 L 8.7,21.7 l 20.2,-2.05 14.85,9.1 z"
   style="clip-rule:evenodd;fill:#dbc674;fill-rule:evenodd" />
	<path
   inkscape:connector-curvature="0"
   id="path42"
   d="m 8.7,21.7 c 6.633,-1.767 12.383,-3.033 17.25,-3.8 3.4,-0.567 6.066,-0.45 8,0.35 1.467,0.6 2.95,1.884 4.45,3.85 1.8,2.301 3.583,4.517 5.35,6.65 C 38.083,27.85 31.817,26.8 24.95,25.6 18.75,24.5 13.333,23.2 8.7,21.7 Z"
   style="clip-rule:evenodd;fill:#ffd875;fill-rule:evenodd" />
	
		<linearGradient
   gradientTransform="matrix(0.5145,0.8575,-0.8575,0.5145,2.028346e-4,5.965829e-4)"
   y2="-17.5625"
   x2="45.0354"
   y1="-17.5625"
   x1="43.286098"
   gradientUnits="userSpaceOnUse"
   id="SVGID_1_">
		<stop
   id="stop44"
   style="stop-color:#C4A149"
   offset="0" />
		<stop
   id="stop46"
   style="stop-color:#DBC674"
   offset="1" />
	</linearGradient>
	<path
   inkscape:connector-curvature="0"
   id="path49"
   d="m 37.5,28.4 c 0.233,-0.367 0.517,-0.351 0.85,0.05 0.334,0.399 0.434,0.767 0.301,1.1 -0.167,0.4 -0.5,0.467 -1,0.2 C 37.184,29.517 37.134,29.066 37.5,28.4 Z"
   style="clip-rule:evenodd;fill:url(#SVGID_1_);fill-rule:evenodd" />
	
		<linearGradient
   gradientTransform="matrix(0.6585,0.7526,-0.7526,0.6585,-4.443526e-4,3.942251e-4)"
   y2="-5.2119002"
   x2="42.048199"
   y1="-5.2119002"
   x1="39.390598"
   gradientUnits="userSpaceOnUse"
   id="SVGID_2_">
		<stop
   id="stop51"
   style="stop-color:#C4A149"
   offset="0" />
		<stop
   id="stop53"
   style="stop-color:#DBC674"
   offset="1" />
	</linearGradient>
	<path
   inkscape:connector-curvature="0"
   id="path56"
   d="m 32.05,26.95 c 0.2,0.899 -0.133,1.45 -1,1.649 -0.533,0.134 -0.966,-0.133 -1.3,-0.8 l -0.3,-1.05 1.2,-0.25 c 0.8,-0.099 1.267,0.051 1.4,0.451 z"
   style="clip-rule:evenodd;fill:url(#SVGID_2_);fill-rule:evenodd" />
	
		<linearGradient
   gradientTransform="matrix(0.4805,0.877,-0.877,0.4805,2.777576e-5,-2.028644e-4)"
   y2="-2.8378999"
   x2="31.848101"
   y1="-2.8378999"
   x1="29.767099"
   gradientUnits="userSpaceOnUse"
   id="SVGID_3_">
		<stop
   id="stop58"
   style="stop-color:#C4A149"
   offset="0" />
		<stop
   id="stop60"
   style="stop-color:#DBC674"
   offset="1" />
	</linearGradient>
	<path
   inkscape:connector-curvature="0"
   id="path63"
   d="m 17.3,25 c 0.267,-0.233 0.5,-0.15 0.7,0.25 0.2,0.4 0.233,0.684 0.1,0.85 -0.233,0.267 -0.633,0.334 -1.2,0.2 -0.533,-0.166 -0.4,-0.6 0.4,-1.3 z"
   style="clip-rule:evenodd;fill:url(#SVGID_3_);fill-rule:evenodd" />
	
		<use
   id="use65"
   style="overflow:visible;opacity:0.48830004;enable-background:new"
   transform="matrix(1,0,0,-1,-97.63133,172.8838)"
   y="-6.9780002"
   x="-0.037999999"
   height="6.9840002"
   width="31.837999"
   xlink:href="#flash0.ai_x5F_8_x2F_Layer_23_x2F__x3C_Path_x3E__x5F_23" />
	<path
   inkscape:connector-curvature="0"
   id="path67"
   d="m 42.6,27.95 c -1.333,-0.233 -2.5,-0.334 -3.5,-0.3 -1.133,0.066 -2.899,-0.084 -5.3,-0.45 -3.3,-0.533 -6.083,-0.9 -8.35,-1.101 -2,-0.166 -4.667,-0.883 -8,-2.149 -1.9,-0.733 -3.067,-0.55 -3.5,0.55 -0.267,0.634 -0.7,0.917 -1.3,0.85 -0.6,-0.066 -0.967,-0.383 -1.1,-0.949 C 11.35,23.267 10.667,22.55 9.5,22.251 8.733,22.084 8.2,21.734 7.9,21.201 7.567,20.567 7.8,19.951 8.6,19.35 c 1.433,-1.066 6.367,-1.866 14.8,-2.399 8,-0.534 12.517,-0.583 13.55,-0.15 0.434,0.167 1.5,1.417 3.2,3.75 1.733,2.3 2.699,3.483 2.899,3.55 0.434,0.167 0.9,0.717 1.4,1.65 0.5,1.033 0.517,1.7 0.05,2 -0.399,0.266 -1.032,0.332 -1.899,0.199 z"
   style="clip-rule:evenodd;fill:#ffab0f;fill-rule:evenodd" />
	<path
   inkscape:connector-curvature="0"
   id="path69"
   d="M 17.8,23.7 C 17.5,23.5 17.267,23.316 17.1,23.15 L 17,22.95 c 5.833,1.434 9.217,2.149 10.15,2.149 1.1,0 2.767,0.084 5,0.25 2.733,0.233 4.484,0.483 5.25,0.75 0.866,0.301 0.85,0.551 -0.051,0.75 -0.866,0.167 -1.85,0.167 -2.95,0 L 23.05,25.2 20.2,24.35 c -1.1,-0.1 -1.9,-0.317 -2.4,-0.65 z"
   style="clip-rule:evenodd;fill:#fff0b8;fill-rule:evenodd" />
	<g
   id="g75">
		<path
   inkscape:connector-curvature="0"
   id="path71"
   d="m 42.6,27.95 c -1.333,-0.233 -2.5,-0.334 -3.5,-0.3 -1.133,0.066 -2.899,-0.084 -5.3,-0.45 -3.3,-0.533 -6.083,-0.9 -8.35,-1.101 -2,-0.166 -4.667,-0.883 -8,-2.149 -1.9,-0.733 -3.067,-0.55 -3.5,0.55 -0.267,0.634 -0.7,0.917 -1.3,0.85 -0.6,-0.066 -0.967,-0.383 -1.1,-0.949 l -0.05,-0.25 c 0.367,0.666 0.8,0.883 1.3,0.649 0.267,-0.1 0.467,-0.316 0.6,-0.649 0.1,-0.367 0.184,-0.65 0.25,-0.851 0.1,-0.333 0.467,-0.566 1.1,-0.7 0.7,-0.1 1.45,0.017 2.25,0.351 0.833,0.333 2.367,0.783 4.6,1.35 1.967,0.5 3.533,0.851 4.7,1.05 0.633,0.101 2.617,0.233 5.95,0.4 3.467,0.134 5.767,0.283 6.9,0.45 1.267,0.166 2.1,0.333 2.5,0.5 0.6,0.233 1.083,0.383 1.449,0.45 0.767,0.166 1.334,0.066 1.7,-0.301 0.066,0.4 -0.033,0.7 -0.3,0.9 -0.399,0.267 -1.032,0.333 -1.899,0.2 z"
   style="clip-rule:evenodd;fill:#d48900;fill-rule:evenodd" />
		<path
   inkscape:connector-curvature="0"
   id="path73"
   d="m 10.3,21.75 c 0.434,0.066 0.7,0.283 0.8,0.65 0.066,0.199 0.133,0.583 0.2,1.149 -0.367,-0.633 -0.966,-1.066 -1.8,-1.3 -0.667,-0.134 -1.167,-0.434 -1.5,-0.9 -0.367,-0.533 -0.317,-1.066 0.15,-1.6 0,0.467 0.233,0.9 0.7,1.3 0.433,0.401 0.917,0.635 1.45,0.701 z"
   style="clip-rule:evenodd;fill:#dbbb46;fill-rule:evenodd" />
	</g>
	<path
   inkscape:connector-curvature="0"
   id="path77"
   d="m 12.4,22.2 c 0.367,-0.233 0.717,-0.351 1.05,-0.351 0.367,-0.033 0.4,0.15 0.1,0.551 -0.133,0.199 -0.35,0.616 -0.65,1.25 -0.167,0.399 -0.333,0.566 -0.5,0.5 -0.233,-0.134 -0.333,-0.45 -0.3,-0.95 0,-0.533 0.1,-0.867 0.3,-1 z"
   style="clip-rule:evenodd;fill:#fff0b8;fill-rule:evenodd" />
	<path
   inkscape:connector-curvature="0"
   id="path79"
   d="m 9.1,19.75 c 0.3,-0.066 0.617,0.083 0.95,0.45 0.367,0.333 0.4,0.566 0.1,0.7 -0.3,0.133 -0.65,-0.017 -1.05,-0.45 -0.4,-0.4 -0.4,-0.634 0,-0.7 z"
   style="clip-rule:evenodd;fill:#fff0b8;fill-rule:evenodd" />
	<path
   inkscape:connector-curvature="0"
   id="path81"
   d="m 43.55,26.1 c 0.233,-0.066 0.45,0 0.65,0.2 0.2,0.2 0.166,0.351 -0.101,0.45 -0.333,0.134 -0.616,0.1 -0.85,-0.1 -0.266,-0.2 -0.166,-0.383 0.301,-0.55 z"
   style="clip-rule:evenodd;fill:#fff0b8;fill-rule:evenodd" />
	<path
   inkscape:connector-curvature="0"
   id="path83"
   d="M 43.5,24.95 44,26.1 c -1.167,0 -2.366,-0.083 -3.6,-0.25 -10.067,-1.333 -15.15,-2 -15.25,-2 -1.233,-0.1 -3.433,-0.55 -6.6,-1.35 L 14.2,21.35 21.45,19.1 Z"
   style="clip-rule:evenodd;fill:#d48900;fill-rule:evenodd" />
	<path
   inkscape:connector-curvature="0"
   id="path85"
   d="M 42,25.6 C 41.434,25.367 33.7,23.717 18.8,20.651 L 9.15,18.7 l -0.9,-0.351 -0.45,-2.2 22.65,1.2 4.4,1.4 9.45,4.6 0.2,2.45 C 43.4,25.9 42.566,25.833 42,25.6 Z"
   style="clip-rule:evenodd;fill:#9e6500;fill-rule:evenodd" />
	<path
   inkscape:connector-curvature="0"
   id="path87"
   d="M 44.3,23.35 43.35,23.5 32.75,20.35 7.8,16.15 c 6.767,-2 12.567,-3.383 17.4,-4.15 3.267,-0.533 5.883,-0.55 7.85,-0.05 1.434,0.367 2.717,1.083 3.851,2.15 1.299,1.2 3.766,4.284 7.399,9.25 z"
   style="clip-rule:evenodd;fill:#c98000;fill-rule:evenodd" />
	<path
   inkscape:connector-curvature="0"
   id="path89"
   d="M 43.4,25.8 C 36.833,25.033 31.25,24.217 26.65,23.35 22.117,22.484 16.283,20.934 9.15,18.701 L 9.05,16.251 28.8,14.3 43.35,23.5 Z"
   style="clip-rule:evenodd;fill:#dbc674;fill-rule:evenodd" />
	<path
   inkscape:connector-curvature="0"
   id="path91"
   d="m 9.05,16.25 c 6.467,-1.733 12.083,-2.983 16.85,-3.75 3.333,-0.5 5.95,-0.35 7.85,0.45 1.434,0.6 2.884,1.883 4.35,3.85 1.767,2.334 3.517,4.566 5.25,6.7 C 37.784,22.533 31.65,21.434 24.951,20.2 18.883,19.1 13.583,17.783 9.05,16.25 Z"
   style="clip-rule:evenodd;fill:#ffef9e;fill-rule:evenodd" />
	
		<linearGradient
   gradientTransform="matrix(-0.9514,-0.3081,0.8718,-0.7688,3.02732e-4,6.142855e-4)"
   y2="-5.0634999"
   x2="-34.574799"
   y1="-5.0634999"
   x1="-37.334"
   gradientUnits="userSpaceOnUse"
   id="SVGID_4_">
		<stop
   id="stop93"
   style="stop-color:#EDCA6B"
   offset="0" />
		<stop
   id="stop95"
   style="stop-color:#FFEF9E"
   offset="1" />
	</linearGradient>
	<path
   inkscape:connector-curvature="0"
   id="path98"
   d="m 29.6,13.65 c 0.833,-0.3 1.517,-0.333 2.05,-0.1 0.5,0.233 0.667,0.617 0.5,1.15 -0.2,0.6 -0.417,0.983 -0.65,1.15 -0.367,0.267 -1.067,0.467 -2.1,0.6 -1.233,0.167 -1.95,-0.067 -2.15,-0.7 -0.167,-0.7 0.617,-1.4 2.35,-2.1 z"
   style="clip-rule:evenodd;fill:url(#SVGID_4_);fill-rule:evenodd" />
	
		<linearGradient
   gradientTransform="matrix(-0.9509,-0.3096,0.869,-0.7687,-3.935099e-4,1.999736e-4)"
   y2="-4.1034999"
   x2="-39.271801"
   y1="-4.1034999"
   x1="-40.402302"
   gradientUnits="userSpaceOnUse"
   id="SVGID_5_">
		<stop
   id="stop100"
   style="stop-color:#EDCA6B"
   offset="0" />
		<stop
   id="stop102"
   style="stop-color:#FFEF9E"
   offset="1" />
	</linearGradient>
	<path
   inkscape:connector-curvature="0"
   id="path105"
   d="m 33.85,14.5 c 0.533,-0.133 1,0.067 1.4,0.6 0.434,0.566 0.4,1 -0.1,1.3 -0.567,0.333 -1.167,0.15 -1.8,-0.55 -0.633,-0.667 -0.467,-1.117 0.5,-1.35 z"
   style="clip-rule:evenodd;fill:url(#SVGID_5_);fill-rule:evenodd" />
	
		<linearGradient
   gradientTransform="matrix(-0.951,-0.3091,0.8613,-0.7716,-2.067089e-4,-1.303256e-4)"
   y2="-6.21"
   x2="-44.398201"
   y1="-6.21"
   x1="-45.449699"
   gradientUnits="userSpaceOnUse"
   id="SVGID_6_">
		<stop
   id="stop107"
   style="stop-color:#EDCA6B"
   offset="0" />
		<stop
   id="stop109"
   style="stop-color:#FFEF9E"
   offset="1" />
	</linearGradient>
	<path
   inkscape:connector-curvature="0"
   id="path112"
   d="m 36.4,17.55 c 0.5,-0.1 1.066,0.101 1.699,0.601 0.7,0.533 0.801,1 0.301,1.399 -0.5,0.433 -1.1,0.25 -1.8,-0.55 -0.7,-0.833 -0.767,-1.316 -0.2,-1.45 z"
   style="clip-rule:evenodd;fill:url(#SVGID_6_);fill-rule:evenodd" />
	
		<linearGradient
   gradientTransform="matrix(-0.9532,-0.3022,0.8764,-0.7712,-3.35753e-4,1.201332e-4)"
   y2="-7.7157998"
   x2="-43.681499"
   y1="-7.7157998"
   x1="-44.756802"
   gradientUnits="userSpaceOnUse"
   id="SVGID_7_">
		<stop
   id="stop114"
   style="stop-color:#EDCA6B"
   offset="0" />
		<stop
   id="stop116"
   style="stop-color:#FFEF9E"
   offset="1" />
	</linearGradient>
	<path
   inkscape:connector-curvature="0"
   id="path119"
   d="m 35.25,18.3 c 0.333,0 0.634,0.267 0.9,0.8 0.233,0.567 0.116,0.95 -0.351,1.15 -0.533,0.2 -0.95,-0.083 -1.25,-0.85 -0.266,-0.766 -0.032,-1.133 0.701,-1.1 z"
   style="clip-rule:evenodd;fill:url(#SVGID_7_);fill-rule:evenodd" />
	
		<linearGradient
   gradientTransform="matrix(-0.9522,-0.3054,0.8669,-0.7721,3.56257e-4,1.6734e-4)"
   y2="-9.7607002"
   x2="-28.032801"
   y1="-9.7607002"
   x1="-29.424299"
   gradientUnits="userSpaceOnUse"
   id="SVGID_8_">
		<stop
   id="stop121"
   style="stop-color:#C2AF67"
   offset="0" />
		<stop
   id="stop123"
   style="stop-color:#EBD88D"
   offset="1" />
	</linearGradient>
	<path
   inkscape:connector-curvature="0"
   id="path126"
   d="m 17.85,15.55 c 0.967,-0.233 1.783,-0.117 2.45,0.35 0.633,0.467 0.667,0.883 0.1,1.25 -0.566,0.366 -1.467,0.267 -2.7,-0.3 -1.233,-0.533 -1.183,-0.967 0.15,-1.3 z"
   style="clip-rule:evenodd;fill:url(#SVGID_8_);fill-rule:evenodd" />
	
		<linearGradient
   gradientTransform="matrix(-0.9536,-0.3011,0.8688,-0.7743,0,5.866885e-4)"
   y2="-6.6875"
   x2="-30.3685"
   y1="-6.6875"
   x1="-31.3647"
   gradientUnits="userSpaceOnUse"
   id="SVGID_9_">
		<stop
   id="stop128"
   style="stop-color:#C2AF67"
   offset="0" />
		<stop
   id="stop130"
   style="stop-color:#EBD88D"
   offset="1" />
	</linearGradient>
	<path
   inkscape:connector-curvature="0"
   id="path133"
   d="m 23.1,13.85 c 0.633,-0.067 1.133,0 1.5,0.2 0.4,0.2 0.4,0.517 0,0.95 -0.467,0.433 -1.05,0.367 -1.75,-0.2 -0.7,-0.533 -0.617,-0.85 0.25,-0.95 z"
   style="clip-rule:evenodd;fill:url(#SVGID_9_);fill-rule:evenodd" />
	
		<linearGradient
   gradientTransform="matrix(-0.9487,-0.3162,0.8642,-0.766,-1.111627e-4,9.147525e-4)"
   y2="-10.8662"
   x2="-23.809601"
   y1="-10.8662"
   x1="-24.758301"
   gradientUnits="userSpaceOnUse"
   id="SVGID_10_">
		<stop
   id="stop135"
   style="stop-color:#C2AF67"
   offset="0" />
		<stop
   id="stop137"
   style="stop-color:#EBD88D"
   offset="1" />
	</linearGradient>
	<path
   inkscape:connector-curvature="0"
   id="path140"
   d="m 13.6,15.25 c 1.233,0.433 1.383,0.833 0.45,1.2 -0.7,0.3 -1.15,0.183 -1.35,-0.35 -0.167,-0.5 0.133,-0.783 0.9,-0.85 z"
   style="clip-rule:evenodd;fill:url(#SVGID_10_);fill-rule:evenodd" />
	
		<linearGradient
   gradientTransform="matrix(-0.951,-0.3091,0.8744,-0.7673,-1.496077e-4,2.785027e-4)"
   y2="-9.4502001"
   x2="-35.321098"
   y1="-9.4502001"
   x1="-36.372601"
   gradientUnits="userSpaceOnUse"
   id="SVGID_11_">
		<stop
   id="stop142"
   style="stop-color:#EDCA6B"
   offset="0" />
		<stop
   id="stop144"
   style="stop-color:#FFEF9E"
   offset="1" />
	</linearGradient>
	<path
   inkscape:connector-curvature="0"
   id="path147"
   d="m 26,17.45 c 0.4,0.166 0.617,0.416 0.65,0.75 0.033,0.399 -0.217,0.7 -0.75,0.899 C 25.3,19.3 25,19 25,18.2 c 0,-0.766 0.333,-1.016 1,-0.75 z"
   style="clip-rule:evenodd;fill:url(#SVGID_11_);fill-rule:evenodd" />
	
		<linearGradient
   gradientTransform="matrix(-0.6321,-0.7749,1.1307,-0.196,2.151728e-5,4.364699e-4)"
   y2="14.062"
   x2="-33.390701"
   y1="14.062"
   x1="-34.616699"
   gradientUnits="userSpaceOnUse"
   id="SVGID_12_">
		<stop
   id="stop149"
   style="stop-color:#C4A149"
   offset="0" />
		<stop
   id="stop151"
   style="stop-color:#DBC674"
   offset="1" />
	</linearGradient>
	<path
   inkscape:connector-curvature="0"
   id="path154"
   d="m 38.1,23.45 c 0.067,0.5 -0.017,0.833 -0.25,1 -0.233,0.166 -0.483,0.149 -0.75,-0.05 -0.267,-0.167 -0.433,-0.434 -0.5,-0.801 -0.066,-0.366 -0.017,-0.683 0.15,-0.949 0.167,-0.233 0.417,-0.25 0.75,-0.051 0.333,0.201 0.533,0.484 0.6,0.851 z"
   style="clip-rule:evenodd;fill:url(#SVGID_12_);fill-rule:evenodd" />
	
		<linearGradient
   gradientTransform="matrix(-0.6495,-0.7604,1.1512,-0.1919,1.174212e-4,-4.851818e-5)"
   y2="8.6513996"
   x2="-33.162998"
   y1="8.6513996"
   x1="-34.741199"
   gradientUnits="userSpaceOnUse"
   id="SVGID_13_">
		<stop
   id="stop156"
   style="stop-color:#C4A149"
   offset="0" />
		<stop
   id="stop158"
   style="stop-color:#DBC674"
   offset="1" />
	</linearGradient>
	<path
   inkscape:connector-curvature="0"
   id="path161"
   d="m 33.75,24.55 -4,-0.6 0.75,-0.7 c 0.6,-0.467 1.25,-0.616 1.95,-0.45 0.667,0.2 1.083,0.55 1.25,1.05 0.1,0.266 0.117,0.5 0.05,0.7 z"
   style="clip-rule:evenodd;fill:url(#SVGID_13_);fill-rule:evenodd" />
	
		<use
   id="use163"
   style="overflow:visible;opacity:0.42190001;enable-background:new"
   transform="matrix(1,0,0,-1,-95.93163,163.2339)"
   y="-15.25"
   x="0.003"
   height="15.25"
   width="23.848"
   xlink:href="#flash0.ai_x5F_8_x2F_Layer_23_x2F__x3C_Path_x3E__x5F_2" />
	
		<use
   x="0"
   id="use165"
   style="overflow:visible;opacity:0.58980001;enable-background:new"
   transform="matrix(1,0,0,-1,-72.78173,170.4336)"
   y="-3.5"
   height="3.5079999"
   width="7.6729999"
   xlink:href="#flash0.ai_x5F_8_x2F_Layer_23_x2F__x3C_Path_x3E__x5F_1" />
	
		<use
   x="0"
   id="use167"
   style="overflow:visible;opacity:0.58980001;enable-background:new"
   transform="matrix(1,0,0,-1,-81.93163,166.1841)"
   y="-6.25"
   height="6.2509999"
   width="13.753"
   xlink:href="#flash0.ai_x5F_8_x2F_Layer_23_x2F__x3C_Path_x3E_" />
</g><use
     id="use171"
     style="overflow:visible;opacity:0.58980001;enable-background:new"
     transform="matrix(1,0,0,-1,-87.83153,161.084)"
     y="-5.0500002"
     height="5.0250001"
     width="12.101"
     xlink:href="#flash0.ai_x5F_8_x2F_Layer_17_x2F__x3C_Path_x3E__x5F_32"
     x="0" /><path
     id="path173"
     d="M 39,6.9 38.15,7.55 3.5,26.45 c -0.567,0.434 -1.467,0.8 -2.7,1.1 L 0.55,25.3 10,17.5 l 4.55,-2.95 24.5,-9.8 z"
     style="clip-rule:evenodd;fill:#9e6500;fill-rule:evenodd"
     inkscape:connector-curvature="0" /><path
     id="path175"
     d="m 12.6,18.15 -10.95,6.9 -1.1,0.25 c 3,-5.899 5.083,-9.633 6.25,-11.2 1.1,-1.434 2.383,-2.567 3.85,-3.4 2.067,-1.2 4.934,-2.2 8.6,-3 5.433,-1.167 12.033,-2.15 19.8,-2.95 z"
     style="clip-rule:evenodd;fill:#c98000;fill-rule:evenodd"
     inkscape:connector-curvature="0" /><path
     id="path177"
     d="m 15.7,11.2 22,-5.9 0.45,2.25 c -7.4,4.8 -13.5,8.467 -18.3,11 -4.833,2.5 -10.767,5.367 -17.8,8.601 L 1.65,25.05 Z"
     style="clip-rule:evenodd;fill:#dbc674;fill-rule:evenodd"
     inkscape:connector-curvature="0" /><path
     id="path179"
     d="M 37.7,5.3 C 33.067,8.433 27.55,11.667 21.15,15 14.017,18.733 7.517,22.083 1.65,25.05 3.117,22.45 4.584,19.767 6.05,17 7.283,14.667 8.633,12.95 10.1,11.85 11.967,10.383 14.783,9.25 18.55,8.45 23.917,7.283 30.3,6.233 37.7,5.3 Z"
     style="clip-rule:evenodd;fill:#ebd88d;fill-rule:evenodd"
     inkscape:connector-curvature="0" /><path
     id="path186"
     d="m 8.25,22.4 c 0.533,0.433 0.567,0.85 0.1,1.25 -0.5,0.4 -0.867,0.45 -1.1,0.15 C 7.05,23.567 7.1,23.217 7.4,22.75 7.667,22.25 7.95,22.134 8.25,22.4 Z"
     style="clip-rule:evenodd;fill:url(#SVGID_14_);fill-rule:evenodd"
     inkscape:connector-curvature="0" /><path
     id="path193"
     d="m 13.8,18.95 c 0.067,-0.4 0.55,-0.717 1.45,-0.95 0.433,-0.1 0.867,-0.167 1.3,-0.2 l -0.15,1.05 c -0.233,0.733 -0.65,1.15 -1.25,1.25 -0.6,0.101 -1,-0.066 -1.2,-0.5 z"
     style="clip-rule:evenodd;fill:url(#SVGID_15_);fill-rule:evenodd"
     inkscape:connector-curvature="0" /><path
     id="path200"
     d="m 29.15,11.6 c 1.533,0.5 1.333,0.933 -0.6,1.3 -0.167,-0.133 -0.183,-0.4 -0.05,-0.8 0.1,-0.433 0.317,-0.6 0.65,-0.5 z"
     style="clip-rule:evenodd;fill:url(#SVGID_16_);fill-rule:evenodd"
     inkscape:connector-curvature="0" /><use
     id="use202"
     style="overflow:visible;opacity:0.48830004;enable-background:new"
     transform="matrix(1,0,0,-1,-99.93163,156.7339)"
     y="-17.5"
     height="17.5"
     width="32.957001"
     xlink:href="#flash0.ai_x5F_8_x2F_Layer_17_x2F__x3C_Path_x3E__x5F_24"
     x="0" /><path
     id="path204"
     d="m 21.1,6.6 c 9.133,-2.7 14.567,-3.85 16.3,-3.45 0.966,0.233 1.333,0.7 1.1,1.4 -0.233,0.6 -0.733,1.117 -1.5,1.55 -1.134,0.667 -1.733,1.583 -1.8,2.75 -0.033,0.566 -0.35,0.983 -0.95,1.25 -0.633,0.267 -1.15,0.167 -1.55,-0.3 -0.7,-0.833 -2,-0.55 -3.9,0.85 -3.267,2.434 -5.983,4.117 -8.15,5.05 -2.367,1.033 -5.267,2.416 -8.7,4.149 -2.5,1.267 -4.35,2.084 -5.55,2.45 -1.066,0.334 -2.3,0.867 -3.7,1.601 -0.9,0.466 -1.583,0.649 -2.05,0.55 -0.566,-0.101 -0.667,-0.717 -0.3,-1.851 0.333,-1.066 0.717,-1.733 1.15,-2 0.2,-0.133 0.983,-1.566 2.35,-4.3 1.4,-2.767 2.3,-4.316 2.7,-4.65 C 7.583,10.85 12.433,9.167 21.1,6.6 Z"
     style="clip-rule:evenodd;fill:#ffab0f;fill-rule:evenodd"
     inkscape:connector-curvature="0" /><path
     id="path206"
     d="m 27.75,10.2 c 0.867,-0.767 2,-1.333 3.4,-1.7 1.467,-0.4 1.817,-0.367 1.05,0.1 -4.067,2.3 -6.267,3.583 -6.6,3.85 -0.434,0.367 -1.483,0.983 -3.15,1.85 -1.4,0.767 -2.583,1.367 -3.55,1.8 -4.2,2.034 -6.433,3.133 -6.7,3.3 -0.833,0.533 -1.817,0.733 -2.95,0.6 2.267,-1.233 4.233,-2.233 5.9,-3 2.467,-1.067 4.867,-2.217 7.2,-3.45 2.733,-1.433 4.533,-2.55 5.4,-3.35 z"
     style="clip-rule:evenodd;fill:#fff0b8;fill-rule:evenodd"
     inkscape:connector-curvature="0" /><g
     id="g212">
	<path
   inkscape:connector-curvature="0"
   id="path208"
   d="m 31.45,8.45 c 0.7,-0.167 1.133,-0.117 1.3,0.15 0.1,0.167 0.25,0.417 0.45,0.75 0.167,0.233 0.417,0.35 0.75,0.35 0.6,0 1.017,-0.383 1.25,-1.15 v 0.3 c -0.033,0.566 -0.35,0.983 -0.95,1.25 -0.633,0.267 -1.15,0.167 -1.55,-0.3 -0.7,-0.833 -2,-0.55 -3.9,0.85 -3.267,2.434 -5.983,4.117 -8.15,5.05 -2.367,1.033 -5.267,2.416 -8.7,4.149 -2.5,1.267 -4.35,2.084 -5.55,2.45 -1.066,0.334 -2.3,0.867 -3.7,1.601 -0.9,0.466 -1.583,0.649 -2.05,0.55 -0.267,-0.101 -0.433,-0.334 -0.5,-0.7 0.5,0.134 1.117,0 1.85,-0.4 0.4,-0.233 0.883,-0.55 1.45,-0.949 0.4,-0.267 1.267,-0.733 2.6,-1.4 1.2,-0.566 3.633,-1.583 7.3,-3.05 3.566,-1.434 5.667,-2.317 6.3,-2.65 1.233,-0.633 2.85,-1.533 4.85,-2.7 2.267,-1.367 3.8,-2.367 4.6,-3 0.8,-0.634 1.583,-1.018 2.35,-1.151 z"
   style="clip-rule:evenodd;fill:#d48900;fill-rule:evenodd" />
	<path
   inkscape:connector-curvature="0"
   id="path210"
   d="M 36,5.95 C 36.566,5.683 37.033,5.3 37.4,4.8 37.833,4.267 38,3.783 37.9,3.35 c 0.633,0.3 0.8,0.767 0.5,1.4 C 38.134,5.283 37.667,5.733 37,6.1 36.1,6.666 35.55,7.3 35.35,8 35.317,7.467 35.3,7.083 35.3,6.85 35.333,6.483 35.566,6.183 36,5.95 Z"
   style="clip-rule:evenodd;fill:#d48900;fill-rule:evenodd" />
</g><path
     id="path214"
     d="m 33.9,7.2 c 0.2,0.033 0.367,0.283 0.5,0.75 0.1,0.466 0.05,0.783 -0.15,0.95 C 34.083,9.067 33.867,9 33.6,8.7 33.166,8.233 32.85,7.933 32.65,7.8 32.283,7.567 32.3,7.383 32.7,7.25 33.067,7.117 33.467,7.1 33.9,7.2 Z"
     style="clip-rule:evenodd;fill:#fff0b8;fill-rule:evenodd"
     inkscape:connector-curvature="0" /><path
     id="path216"
     d="m 36.9,3.7 c 0.466,-0.133 0.517,0.083 0.149,0.65 -0.333,0.533 -0.684,0.8 -1.05,0.8 -0.3,0 -0.3,-0.217 0,-0.65 C 36.3,4.033 36.6,3.767 36.9,3.7 Z"
     style="clip-rule:evenodd;fill:#fff0b8;fill-rule:evenodd"
     inkscape:connector-curvature="0" /><path
     id="path218"
     d="m 1.35,22.6 c 0.533,-0.033 0.683,0.084 0.45,0.351 -0.267,0.267 -0.583,0.399 -0.95,0.399 -0.3,0 -0.367,-0.116 -0.2,-0.35 0.2,-0.233 0.433,-0.366 0.7,-0.4 z"
     style="clip-rule:evenodd;fill:#fff0b8;fill-rule:evenodd"
     inkscape:connector-curvature="0" /><path
     id="path220"
     d="M 35.85,3.8 29,8.75 c -2.867,2.067 -6.683,4.183 -11.45,6.35 -1.066,0.467 -2.75,1.3 -5.05,2.5 -2.1,1.067 -3.767,1.867 -5,2.4 -2.733,1.134 -5.083,2.033 -7.05,2.7 1.533,-1.967 3.433,-3.717 5.7,-5.25 L 17,8.7 c 2.533,-0.8 5.133,-1.633 7.8,-2.5 5.4,-1.7 8.55,-2.65 9.45,-2.85 1.467,-0.3 2.517,-0.367 3.15,-0.2 -0.5,0.067 -1.016,0.283 -1.55,0.65 z"
     style="clip-rule:evenodd;fill:#d48900;fill-rule:evenodd"
     inkscape:connector-curvature="0" /><path
     id="path222"
     d="M 36.7,2.75 26.75,8.2 c -3.833,2.133 -7.7,4.283 -11.6,6.45 -7.8,4.333 -11.883,6.633 -12.25,6.9 -0.566,0.434 -1.45,0.8 -2.65,1.101 L 0,20.4 9.2,12.6 13.65,9.7 37.6,0 37.5,2.1 Z"
     style="clip-rule:evenodd;fill:#9e6500;fill-rule:evenodd"
     inkscape:connector-curvature="0" /><path
     id="path224"
     d="M 11.75,13.25 1.05,20.15 0,20.4 C 2.9,14.5 4.917,10.766 6.05,9.2 7.117,7.767 8.367,6.633 9.8,5.8 11.834,4.6 14.633,3.617 18.2,2.85 23.533,1.717 30,0.767 37.6,0 Z"
     style="clip-rule:evenodd;fill:#c98000;fill-rule:evenodd"
     inkscape:connector-curvature="0" /><path
     id="path226"
     d="m 14.8,6.3 21.45,-5.75 0.45,2.2 c -7.233,4.767 -13.184,8.4 -17.85,10.9 -4.733,2.533 -10.533,5.4 -17.4,8.6 l -0.4,-2.1 z"
     style="clip-rule:evenodd;fill:#dbc674;fill-rule:evenodd"
     inkscape:connector-curvature="0" /><path
     id="path228"
     d="m 36.25,0.55 c -4.533,3.1 -9.917,6.3 -16.15,9.6 -6.967,3.7 -13.317,7.034 -19.05,10 1.434,-2.601 2.867,-5.284 4.3,-8.05 1.2,-2.333 2.5,-4.05 3.9,-5.15 1.833,-1.434 4.6,-2.55 8.3,-3.35 5.233,-1.133 11.467,-2.15 18.7,-3.05 z"
     style="clip-rule:evenodd;fill:#ffef9e;fill-rule:evenodd"
     inkscape:connector-curvature="0" /><path
     id="path235"
     d="M 13.8,6.05 C 15.8,5.984 16.767,6.3 16.7,7 16.666,7.667 15.95,8.15 14.55,8.45 13.417,8.717 12.633,8.817 12.2,8.75 11.9,8.65 11.6,8.383 11.3,7.95 11,7.55 11.1,7.133 11.6,6.7 12.133,6.3 12.867,6.083 13.8,6.05 Z"
     style="clip-rule:evenodd;fill:url(#SVGID_17_);fill-rule:evenodd"
     inkscape:connector-curvature="0" /><path
     id="path242"
     d="m 9.45,8.4 c 1.066,-0.133 1.333,0.217 0.8,1.05 C 9.683,10.317 9.067,10.7 8.4,10.6 7.834,10.533 7.717,10.166 8.05,9.5 8.417,8.833 8.883,8.467 9.45,8.4 Z"
     style="clip-rule:evenodd;fill:url(#SVGID_18_);fill-rule:evenodd"
     inkscape:connector-curvature="0" /><path
     id="path249"
     d="m 7.35,12.1 c 0.6,-0.067 0.617,0.4 0.05,1.4 -0.6,1 -1.2,1.4 -1.8,1.2 C 5,14.533 5.017,14.067 5.65,13.3 6.217,12.6 6.783,12.2 7.35,12.1 Z"
     style="clip-rule:evenodd;fill:url(#SVGID_19_);fill-rule:evenodd"
     inkscape:connector-curvature="0" /><path
     id="path256"
     d="M 8.7,12.35 C 9.467,12.05 9.783,12.3 9.65,13.1 9.483,13.9 9.084,14.3 8.45,14.3 7.916,14.3 7.733,14 7.9,13.4 8.067,12.867 8.333,12.517 8.7,12.35 Z"
     style="clip-rule:evenodd;fill:url(#SVGID_20_);fill-rule:evenodd"
     inkscape:connector-curvature="0" /><path
     id="path263"
     d="m 26.75,3.25 c 1.5,-0.233 1.65,0.133 0.45,1.1 -1.267,1 -2.217,1.433 -2.85,1.3 -0.633,-0.1 -0.667,-0.483 -0.1,-1.15 0.6,-0.7 1.433,-1.117 2.5,-1.25 z"
     style="clip-rule:evenodd;fill:url(#SVGID_21_);fill-rule:evenodd"
     inkscape:connector-curvature="0" /><path
     id="path270"
     d="M 20.85,3.7 C 21.783,3.467 21.933,3.733 21.3,4.5 20.667,5.267 20.067,5.533 19.5,5.3 18.967,5.067 18.883,4.783 19.25,4.45 19.583,4.117 20.117,3.867 20.85,3.7 Z"
     style="clip-rule:evenodd;fill:url(#SVGID_22_);fill-rule:evenodd"
     inkscape:connector-curvature="0" /><path
     id="path277"
     d="M 31.2,1.4 C 32.033,1.167 32.416,1.3 32.35,1.8 32.25,2.333 31.8,2.6 31,2.6 30.3,2.6 30.083,2.416 30.35,2.05 30.617,1.717 30.9,1.5 31.2,1.4 Z"
     style="clip-rule:evenodd;fill:url(#SVGID_23_);fill-rule:evenodd"
     inkscape:connector-curvature="0" /><path
     id="path284"
     d="M 18.45,8.1 C 19.15,7.567 19.567,7.666 19.7,8.4 19.8,9.1 19.5,9.483 18.8,9.55 18.2,9.583 17.9,9.4 17.9,9 c 0,-0.333 0.183,-0.633 0.55,-0.9 z"
     style="clip-rule:evenodd;fill:url(#SVGID_24_);fill-rule:evenodd"
     inkscape:connector-curvature="0" /><path
     id="path291"
     d="m 6.65,18.1 c 0,-0.333 0.15,-0.649 0.45,-0.949 0.333,-0.333 0.617,-0.417 0.85,-0.25 0.233,0.167 0.333,0.433 0.3,0.8 0,0.333 -0.117,0.633 -0.35,0.899 C 7.633,18.867 7.383,18.984 7.15,18.951 6.85,18.884 6.683,18.6 6.65,18.1 Z"
     style="clip-rule:evenodd;fill:url(#SVGID_25_);fill-rule:evenodd"
     inkscape:connector-curvature="0" /><path
     id="path298"
     d="m 11.5,17.45 c -0.1,-0.167 -0.133,-0.384 -0.1,-0.65 0.1,-0.533 0.5,-1 1.2,-1.4 0.7,-0.4 1.417,-0.517 2.15,-0.35 0.4,0.067 0.717,0.184 0.95,0.35 z"
     style="clip-rule:evenodd;fill:url(#SVGID_26_);fill-rule:evenodd"
     inkscape:connector-curvature="0" /><path
     id="path305"
     d="m 27.95,6.35 c 0.5,0.033 0.566,0.283 0.2,0.75 -0.367,0.5 -0.767,0.733 -1.2,0.7 -0.4,-0.033 -0.434,-0.3 -0.1,-0.8 0.333,-0.467 0.7,-0.683 1.1,-0.65 z"
     style="clip-rule:evenodd;fill:url(#SVGID_27_);fill-rule:evenodd"
     inkscape:connector-curvature="0" /><use
     id="use307"
     style="overflow:visible;opacity:0.48830004;enable-background:new"
     transform="matrix(1,0,0,-1,-102.88133,164.8838)"
     y="-2.3399999"
     x="-0.039000001"
     height="2.3399999"
     width="12.139"
     xlink:href="#flash0.ai_x5F_8_x2F_Layer_17_x2F__x3C_Path_x3E__x5F_2" /><use
     id="use309"
     style="overflow:visible;opacity:0.48830004;enable-background:new"
     transform="matrix(1,0,0,-1,-98.93163,158.0342)"
     y="-2.8329999"
     x="-0.012"
     height="2.8329999"
     width="20.212999"
     xlink:href="#flash0.ai_x5F_8_x2F_Layer_17_x2F__x3C_Path_x3E__x5F_1" /><use
     id="use311"
     style="overflow:visible;opacity:0.48830004;enable-background:new"
     transform="matrix(1,0,0,-1,-87.43163,152.834)"
     y="-2.7620001"
     x="0.046"
     height="2.7620001"
     width="17.653999"
     xlink:href="#flash0.ai_x5F_8_x2F_Layer_17_x2F__x3C_Path_x3E_" /></g>
</svg>