<?xml version="1.0" encoding="UTF-8" standalone="no"?>
<!-- Generator: Adobe Illustrator 12.0.1, SVG Export Plug-In . SVG Version: 6.00 Build 51448)  -->

<svg
   id="Layer_1"
   xml:space="preserve"
   overflow="visible"
   viewBox="0 0 63.999999 64"
   version="1.1"
   enable-background="new 0 0 600.044 455"
   sodipodi:docname="ham.svg"
   inkscape:version="1.2 (dc2aedaf03, 2022-05-15)"
   width="64"
   height="64"
   xmlns:inkscape="http://www.inkscape.org/namespaces/inkscape"
   xmlns:sodipodi="http://sodipodi.sourceforge.net/DTD/sodipodi-0.dtd"
   xmlns="http://www.w3.org/2000/svg"
   xmlns:svg="http://www.w3.org/2000/svg"
   xmlns:rdf="http://www.w3.org/1999/02/22-rdf-syntax-ns#"
   xmlns:cc="http://creativecommons.org/ns#"
   xmlns:dc="http://purl.org/dc/elements/1.1/"><defs
   id="defs45" /><sodipodi:namedview
   id="namedview43"
   pagecolor="#505050"
   bordercolor="#eeeeee"
   borderopacity="1"
   inkscape:showpageshadow="0"
   inkscape:pageopacity="0"
   inkscape:pagecheckerboard="0"
   inkscape:deskcolor="#505050"
   showgrid="false"
   inkscape:zoom="2.0165188"
   inkscape:cx="286.38464"
   inkscape:cy="224.14867"
   inkscape:window-width="2560"
   inkscape:window-height="1417"
   inkscape:window-x="-8"
   inkscape:window-y="-8"
   inkscape:window-maximized="1"
   inkscape:current-layer="g38" />
<g
   clip-rule="evenodd"
   fill-rule="evenodd"
   id="g38"
   transform="translate(-2.857257,-3.6301672)">
	<path
   d="m 5.9957018,18.368913 c 0.3696875,-0.06245 0.6027046,0.05632 0.8602384,0.142583 -0.2622651,1.271837 0.7758275,1.675488 0.9677682,2.423905 -0.6648567,0.444858 -1.4158448,0.2595 -2.0430662,0.712913 -0.3407619,-1.110719 -0.2435549,-1.856426 0.2150596,-3.279401 z m 0.2150596,2.70907 C 6.5899115,20.605179 6.8449722,20.853844 7.2860594,20.507653 6.700022,20.164599 6.8648652,19.614372 6.3182912,19.366992 6.4929196,20.202526 5.7770938,20.586073 6.2107614,21.077983 Z"
   id="path2"
   style="stroke-width:0.123822" />
	<path
   fill="#f69d9a"
   d="m 6.3182912,19.366992 c 0.546574,0.24738 0.3817308,0.797607 0.9677682,1.140661 -0.4410872,0.346191 -0.6961479,0.09753 -1.075298,0.57033 -0.4336676,-0.49191 0.2821582,-0.875457 0.1075298,-1.710991 z"
   id="path4"
   style="stroke-width:0.123822" />
	<path
   d="M 15.780483,38.04532 C 12.757821,38.647874 10.432811,38.491603 8.6835167,36.049163 6.580664,33.1131 5.6714995,29.534561 5.7802121,22.931558 c 0.066023,-0.19762 0.4139898,-0.02139 0.4301192,-0.285165 1.071642,0.234691 2.1680158,0.748273 2.9033046,0.712913 3.1527741,3.752348 3.4342871,9.912632 6.0216691,14.115683 0.249361,-0.04548 0.412807,0.02296 0.537649,0.142583 -0.0086,0.202467 -0.01721,0.403509 0.107529,0.427748 z M 10.296894,25.925794 C 9.6897806,24.763888 8.2050091,23.191771 6.6408806,23.929637 c -0.7008792,6.003157 0.6664697,10.2852 3.8710724,13.545352 1.964247,0.292009 2.54394,0.306268 3.763543,-0.142583 -2.648244,-2.304135 -2.346085,-8.282626 -3.978172,-11.406612 z"
   id="path6"
   style="stroke-width:0.123822" />
	<path
   d="m 30.727125,52.873916 c -3.552569,-2.101953 -2.848464,-7.212829 -6.236728,-9.267873 0.391516,-1.43766 0.147101,-2.443439 -0.215059,-3.564566 0.579908,-1.188712 1.454448,-2.702797 2.688245,-2.423905 3.634507,0.821276 5.495848,10.796359 3.763542,15.256344 z M 27.286172,38.187902 c -0.369472,0.360735 -0.538832,0.09853 -0.752709,0.142583 -1.566064,0.322094 -0.964972,3.262719 -1.612947,4.84781 2.54437,1.703721 2.768463,6.245121 5.37649,7.842047 C 31.248645,46.091259 30.12926,40.5562 27.286172,38.187902 Z"
   id="path8"
   style="stroke-width:0.123822" />
	<path
   fill="#f69d9a"
   d="m 30.297006,51.020342 c -2.608027,-1.596926 -2.83212,-6.138326 -5.37649,-7.842047 0.647975,-1.585091 0.04688,-4.525716 1.612947,-4.84781 0.213877,-0.04406 0.383237,0.218152 0.752709,-0.142583 2.843088,2.368298 3.962473,7.903357 3.010834,12.83244 z"
   id="path10"
   style="stroke-width:0.123822" />
	<path
   d="m 8.3613574,39.185981 c 3.1265366,1.87653 6.2213516,0.08355 9.2475626,0.998079 0.382914,0.442861 0.636254,1.057393 1.075298,1.425826 -0.302266,0.85849 0.02376,1.052831 -0.322589,1.568409 -0.253233,1.753339 1.811769,2.163122 1.935536,4.134898 0.03581,0.57033 -0.38872,0.771942 -0.537649,1.425826 -0.2185,0.959439 0.04527,2.070443 0.10753,3.136819 0.14624,2.508314 -0.01892,6.015419 -2.258126,6.558802 -1.801339,0.437016 -3.070513,-2.606269 -3.978602,-4.134897 -0.06022,-0.322094 -0.167747,0.172953 -0.32259,-0.142583 C 11.061646,49.605922 8.8834146,44.766666 8.3617875,39.185981 Z m 4.9459406,14.258266 h 0.322589 c 0.771097,1.685612 1.73951,3.457772 3.333424,4.562645 0.512487,0.01426 0.588618,-0.550227 1.075298,-0.570331 -0.08473,-0.702932 0.390011,-1.040283 0.537649,-1.283244 0.802173,-1.3206 0.577005,-2.896566 0.537649,-5.132975 -0.764214,-1.03016 0.537434,-2.815152 0.752709,-3.992315 -1.266916,-1.189424 -2.813732,-3.397602 -1.935537,-5.418141 -2.832012,-1.512374 -6.025539,-0.586014 -8.7099133,-0.998078 0.6425981,4.311699 1.9363963,8.788795 4.0861323,12.832439 z"
   id="path12"
   style="stroke-width:0.123822" />
	<path
   fill="#f69d9a"
   d="m 9.2215958,40.611808 c 2.6843742,0.412064 5.8779012,-0.514296 8.7099142,0.998078 -0.878196,2.020539 0.66862,4.228717 1.935536,5.418141 -0.215275,1.177163 -1.516923,2.962155 -0.752709,3.992315 0.03936,2.236409 0.264524,3.812375 -0.537649,5.132975 -0.147638,0.242961 -0.622382,0.580312 -0.537649,1.283244 -0.48668,0.0201 -0.562811,0.584589 -1.075298,0.570331 -1.593914,-1.104873 -2.562327,-2.877033 -3.333423,-4.562645 h -0.32259 C 11.157992,49.400603 9.8641939,44.923507 9.2220259,40.611808 Z"
   id="path14"
   style="stroke-width:0.123822" />
	<path
   d="m 22.017212,61.856624 c -0.03194,1.883231 -1.761984,0.174663 -2.150596,-0.142583 -0.362698,-0.296002 -0.971209,-0.85792 -1.397888,-0.998079 0.06613,-0.127041 0.129896,-0.254937 0,-0.285165 1.10003,-0.192486 3.214066,0.329366 3.548484,1.425827 z"
   id="path16"
   style="stroke-width:0.123822" />
	
	<path
   d="m 61.695708,36.049163 c -3.277079,5.207974 -10.180384,7.668238 -12.150868,14.400848 -0.979489,0.946321 -1.438641,2.547952 -2.258125,3.849732 -0.735612,1.168322 -1.759511,2.154852 -2.365656,3.707149 -0.737654,0.303558 -1.044975,1.809231 -1.720477,2.566488 -0.394097,0.441721 -0.982822,0.878452 -1.182828,1.140661 -0.724643,0.949458 -1.291648,1.279109 -2.150596,1.853575 -1.247668,0.834393 -1.982096,1.831616 -3.548483,2.281322 -1.25369,0.359879 -2.456303,0.956445 -4.193662,1.140661 -1.411974,0.149712 -2.553295,0.864336 -5.053901,0.570331 -3.487621,-0.41021 -7.9043,-2.782501 -10.53792,-5.703306 -0.292051,-0.323806 -0.140434,-0.299566 -0.430119,-0.570331 -0.787871,-0.736582 -1.359499,-1.928145 -2.043066,-2.851653 -0.142907,-0.193057 -0.38528,-0.06316 -0.537649,-0.285165 -0.0343,-0.05005 0.152477,-0.195196 0.107529,-0.285166 -0.379902,-0.758539 -1.406382,-1.870827 -1.935536,-2.70907 -0.169144,-0.268056 -0.666792,-0.733731 -0.967768,-1.283244 -0.156564,-0.285878 -0.160972,-0.840953 -0.32259,-1.140661 C 9.8460214,51.697182 9.0315907,50.828711 8.5759869,49.87968 8.4821134,49.6842 8.5570617,49.344568 8.4684571,49.166767 7.7586529,47.741511 7.2608975,46.105232 6.6404505,44.318957 6.3735616,43.550436 6.2203316,42.743133 6.1028015,42.3228 5.6636498,40.751396 5.079548,39.593482 4.8124439,37.617572 4.4509288,34.944147 4.3276996,33.808904 4.1672651,31.771683 4.0280141,30.003943 4.1103819,28.384061 3.7371459,26.638707 3.365523,24.900625 2.9416405,22.737788 2.8769076,21.077983 c -0.018388,-0.473089 -0.033012,-1.008344 0,-1.425826 0.2040915,-2.578893 0.5356059,-5.643564 2.3656555,-7.271716 0.1276379,-0.06987 0.3132343,-0.699795 0.3225894,-0.712913 2.821582,-3.9431234 6.9880395,-2.7793637 10.6454505,-3.2794011 1.547031,-0.2114501 3.145999,-0.5519375 4.731311,-0.855496 3.011264,-0.5766042 5.455847,-0.9687065 8.387324,-0.5703306 2.898788,0.3939559 6.046401,1.7114196 9.247563,0.855496 0.367967,-0.098382 0.697976,-0.18108 1.075298,-0.2851654 4.073121,-1.1238365 8.270117,-1.2031124 12.043337,-2.5664878 2.313074,-0.8358196 4.11151,-1.0839134 6.129199,-1.2832439 0.976585,-0.096529 1.765639,-0.067014 2.473185,0.1425826 0.762171,0.2257084 1.747897,0.4462837 2.365656,0.855496 1.573053,1.0418515 3.086213,3.6304396 3.548483,5.2755583 0.310976,1.1068689 0.523348,2.0463459 0.430119,3.4219839 -0.02742,0.404222 0.221404,0.812436 0.21506,1.140661 -0.05151,2.660165 -0.466787,6.033385 -0.860238,9.267873 -0.151295,1.244034 -0.643996,3.591087 -1.182828,5.132976 -0.343773,0.983963 -0.763999,2.770666 -1.182828,3.849731 -0.525821,1.354536 -1.467782,2.65489 -1.935536,3.279402 z M 37.501503,62.854702 c 1.491223,-0.760678 2.516305,-1.534332 3.656013,-2.566488 0.891207,-0.80716 1.488965,-2.062885 2.365656,-2.851653 0.454098,-0.408499 0.624425,-1.029161 0.967768,-1.425826 2.341784,-2.704793 3.502138,-5.624316 5.0539,-8.55496 0.617436,-1.166041 1.251325,-2.51858 1.935537,-3.421984 1.939945,-2.561069 5.172506,-5.236775 6.881907,-6.843967 2.63534,-2.477659 3.896772,-4.466687 5.26896,-7.984629 0.06398,-0.16397 0.293986,-0.840097 0.322589,-0.998079 0.08183,-0.451559 0.592167,-1.97206 0.752709,-2.70907 0.502379,-2.305134 0.467647,-4.70095 0.752709,-7.414298 0.366891,-3.492135 1.211,-8.017281 -1.612947,-10.6936997 0.08893,-0.5000374 -0.824539,-0.7718 -0.967769,-1.4258266 -0.795828,-0.2011841 -1.184763,-0.6260805 -2.043066,-1.1406613 -1.131858,-0.4298867 -2.353505,0.1884943 -3.871073,0.2851653 -0.884647,0.05632 -1.147343,0.1096461 -1.828006,0.2851654 -2.404044,0.6200919 -5.421438,1.7935472 -7.527086,1.9961572 -2.080164,0.200186 -4.970673,0.4343068 -5.59155,0.8554959 -0.333772,0.2264213 0.133767,-0.061025 -0.322589,0 C 41.371393,8.2888894 40.935897,8.692826 40.512337,8.8158749 38.761214,9.3244672 36.734923,9.4703293 34.813258,9.3862055 34.802288,9.020481 34.412494,9.1570752 34.275609,8.9584575 31.42822,8.8788964 28.329856,7.3997439 24.705457,7.8177963 c -3.128365,0.3607341 -6.11436,1.6890341 -10.107801,1.5684092 1.58058,3.5590055 3.345252,7.5614435 5.37649,11.8343605 1.71639,2.120489 3.025996,3.947971 5.0539,5.703306 0.412484,0.816286 1.758005,2.018828 2.580715,2.994236 0.577113,0.684112 0.889379,1.466891 1.720477,1.853575 0.899272,1.672637 1.660045,2.694384 2.473185,4.420062 0.0357,0.07571 0.327214,1.006919 0.43012,1.283244 1.018522,2.73445 1.595742,4.808743 1.935536,7.271716 0.582274,4.220874 0.842496,8.984561 0,13.687935 -0.412484,2.146867 -1.049598,4.945337 -1.828007,6.98655 1.601119,-0.667287 3.893654,-1.385903 5.161431,-2.566488 z M 19.974146,21.505731 C 19.832851,21.360297 19.577791,21.366 19.436497,21.220566 17.530531,17.310664 15.563273,13.091073 13.414828,9.6713708 11.296276,9.6086344 9.6610701,9.5982259 7.7157485,11.097197 7.6976835,10.931089 7.5457439,10.942353 7.3931591,10.954615 4.9785775,13.291259 3.4671386,17.174641 3.9522055,22.076062 c 0.2562436,2.589586 1.1940109,6.522159 1.3978874,9.553038 0.2202211,3.274268 0.5522731,8.565226 1.7204768,10.551117 0.046023,0.07814 0.2168876,0.888432 0.4301192,1.568409 0.8208825,2.617533 1.6093985,4.466117 2.6882451,6.41622 0.683567,1.690887 1.812092,3.482581 2.903304,4.990393 1.355521,1.873108 2.939973,4.571342 4.301192,5.988471 0.707654,0.736868 2.399313,1.707713 2.580716,2.281323 1.474018,0.794185 3.379876,2.020681 5.0539,2.423905 1.65198,0.729738 4.211942,1.073933 5.59155,-0.142583 0.933896,-0.823414 1.127235,-2.13603 1.612947,-3.421983 0.194844,-0.516007 0.668512,-0.994514 0.860238,-1.56841 0.219468,-0.656878 0.230867,-1.62145 0.430119,-2.423905 0.32474,-1.307625 0.723998,-2.918096 0.860239,-4.134897 0.06559,-0.585729 0.108282,-1.291514 0.107529,-1.853574 -0.0052,-3.835759 -0.598725,-7.060551 -1.182827,-10.408534 -0.654427,-3.751493 -2.399205,-7.030324 -4.193663,-9.695621 -1.730477,-1.640414 -3.400199,-3.79056 -4.623781,-4.990393 -1.101105,-1.511376 -3.412996,-3.13967 -4.516251,-5.703307 z"
   id="path20"
   style="stroke-width:0.123822" />
	<path
   fill="#b15c11"
   d="m 32.340072,65.42119 c 0.778409,-2.041213 1.415523,-4.839683 1.828007,-6.98655 0.842496,-4.703374 0.582274,-9.467061 0,-13.687935 -0.339794,-2.462973 -0.917014,-4.537266 -1.935536,-7.271716 -0.102906,-0.276325 -0.39442,-1.207532 -0.43012,-1.283244 -0.81314,-1.725678 -1.573913,-2.747425 -2.473185,-4.420062 -0.831098,-0.386684 -1.143364,-1.169463 -1.720477,-1.853575 -0.82271,-0.975408 -2.168231,-2.17795 -2.580715,-2.994236 -2.027904,-1.755335 -3.33751,-3.582817 -5.0539,-5.703306 -2.031238,-4.272917 -3.79591,-8.275355 -5.37649,-11.8343605 3.993441,0.1206249 6.979436,-1.2076751 10.107801,-1.5684092 3.624399,-0.4180524 6.722763,1.0611001 9.570152,1.1406612 0.136885,0.1986177 0.526681,0.062024 0.537649,0.427748 1.921665,0.084124 3.947956,-0.061738 5.699079,-0.5703306 0.42356,-0.1230489 0.859056,-0.5269855 1.182828,-0.5703307 0.456356,-0.061025 -0.01118,0.2264213 0.322589,0 0.620877,-0.4211891 3.511386,-0.6553099 5.59155,-0.8554959 2.105648,-0.20261 5.123042,-1.3760653 7.527086,-1.9961572 0.680663,-0.1755193 0.943359,-0.2288452 1.828006,-0.2851654 1.517568,-0.096671 2.739215,-0.715052 3.871073,-0.2851653 0.858303,0.5145808 1.247238,0.9394772 2.043066,1.1406613 0.14323,0.6540266 1.056696,0.9257892 0.967769,1.4258266 2.823947,2.6764187 1.979838,7.2015647 1.612947,10.6936997 -0.285062,2.713348 -0.25033,5.109164 -0.752709,7.414298 -0.160542,0.73701 -0.670878,2.257511 -0.752709,2.70907 -0.0286,0.157982 -0.258609,0.834109 -0.322589,0.998079 -1.372188,3.517942 -2.63362,5.50697 -5.26896,7.984629 -1.709401,1.607192 -4.941962,4.282898 -6.881907,6.843967 -0.684212,0.903404 -1.318101,2.255943 -1.935537,3.421984 -1.551762,2.930644 -2.712116,5.850167 -5.0539,8.55496 -0.343343,0.396665 -0.51367,1.017327 -0.967768,1.425826 -0.876691,0.788768 -1.474449,2.044493 -2.365656,2.851653 -1.139708,1.032156 -2.16479,1.80581 -3.656013,2.566488 -1.267777,1.180585 -3.560312,1.899201 -5.161431,2.566488 z"
   id="path22"
   style="stroke-width:0.123822" />
	<path
   fill="#efdacc"
   d="m 24.490397,27.209038 c 1.223582,1.199833 2.893304,3.349979 4.623781,4.990393 1.794458,2.665297 3.539236,5.944128 4.193663,9.695621 0.584102,3.347983 1.177666,6.572775 1.182827,10.408534 7.53e-4,0.56206 -0.04194,1.267845 -0.107529,1.853574 -0.136241,1.216801 -0.535499,2.827272 -0.860239,4.134897 -0.199252,0.802455 -0.210651,1.767027 -0.430119,2.423905 -0.191726,0.573896 -0.665394,1.052403 -0.860238,1.56841 -0.485712,1.285953 -0.679051,2.598569 -1.612947,3.421983 -1.379608,1.216516 -3.93957,0.872321 -5.59155,0.142583 -1.674024,-0.403224 -3.579882,-1.62972 -5.0539,-2.423905 C 19.792743,62.851423 18.101084,61.880578 17.39343,61.14371 16.032211,59.726581 14.447759,57.028347 13.092238,55.155239 12.001026,53.647427 10.872501,51.855733 10.188934,50.164846 9.1100874,48.214743 8.3215714,46.366159 7.5006889,43.748626 7.2874573,43.068649 7.1165925,42.258352 7.0705697,42.180217 5.902366,40.194326 5.570314,34.903368 5.3500929,31.6291 5.1462164,28.598221 4.2084491,24.665648 3.9522055,22.076062 3.4671386,17.174641 4.9785775,13.291259 7.3931591,10.954615 c 0.1525848,-0.01226 0.3045244,-0.02353 0.3225894,0.142582 1.9453216,-1.4989711 3.5805275,-1.4885626 5.6990795,-1.4258262 2.148445,3.4197022 4.115703,7.6392932 6.021669,11.5491952 0.141294,0.145434 0.396354,0.139731 0.537649,0.285165 1.103255,2.563637 3.415146,4.191931 4.516251,5.703307 z M 6.8555101,17.370834 c 0.3461384,0.158837 0.380763,0.730736 0.9677682,0.570331 1.5019762,1.187001 2.17393,3.363097 2.9033047,5.132976 0.35173,0.853357 1.094761,2.149291 1.182828,2.70907 0.123229,0.783349 0.718191,2.01783 1.075298,3.136819 0.702599,2.201476 1.495094,3.837469 2.365655,5.418141 0.121724,0.221003 0.547004,1.296504 0.537649,1.283244 0.161295,0.226706 0.85798,0.709919 0.967768,0.855496 0.05237,0.06944 -0.140649,0.246382 -0.107529,0.285165 1.06519,1.251448 2.627383,1.891501 4.301192,0.998078 0.454098,0.310831 1.001747,0.334785 1.612947,0.712914 0.06,0.290726 0.323557,0.279604 0.107529,0.57033 1.315197,0.818425 2.442217,-1.073504 2.903305,-3.279401 0.286782,-1.372073 -0.0083,-4.249818 -0.752709,-5.132975 -0.04129,-0.04905 -0.364741,-0.202325 -0.107529,-0.570331 -1.232292,-0.856922 -2.111025,-2.073009 -3.763543,-2.851653 -0.508401,-0.988383 -1.533913,-1.829621 -2.150596,-2.994236 -1.000243,-1.889078 -1.055298,-4.232709 -2.473186,-6.273637 -0.0024,-0.0034 0.06839,0.0096 0,-0.142583 -0.995833,-2.21773 -5.461116,-5.11501 -6.9894367,-4.420062 0.059679,4.28e-4 0.1220463,-0.115492 0,-0.142583 -1.1991723,0.813719 -2.2093073,2.286884 -2.5802851,4.134897 z m -1.075298,4.27748 C 6.4074334,21.194901 7.1584216,21.380259 7.8232783,20.935401 7.6313376,20.186984 6.5932449,19.783333 6.8555101,18.511496 6.5979762,18.425233 6.3649592,18.306462 5.9952717,18.368913 5.5366571,19.791888 5.4394502,20.537595 5.7802121,21.648314 Z M 15.672524,37.617572 C 15.547681,37.497945 15.384236,37.429505 15.134875,37.474989 12.547492,33.271938 12.265979,27.111654 9.1132058,23.359306 8.377917,23.394666 7.2815432,22.881084 6.2099012,22.646393 6.1937722,22.910171 5.8458053,22.733938 5.779782,22.931558 5.6710694,29.534561 6.5802338,33.1131 8.6830866,36.049163 c 1.7492944,2.44244 4.0743044,2.598711 7.0969664,1.996157 -0.124734,-0.02424 -0.116132,-0.225281 -0.107529,-0.427748 z m 11.290628,0 c -1.233797,-0.278892 -2.108336,1.235193 -2.688245,2.423905 0.362161,1.121127 0.606576,2.126906 0.21506,3.564566 3.388264,2.055044 2.684159,7.16592 6.236728,9.267873 C 32.459,48.413931 30.59766,38.438848 26.963152,37.617572 Z M 13.306868,54.15716 c 0.154843,0.315536 0.262373,-0.179511 0.322589,0.142583 0.908089,1.528628 2.177264,4.571913 3.978603,4.134897 2.2392,-0.543383 2.404366,-4.050488 2.258126,-6.558802 -0.06226,-1.066376 -0.326031,-2.17738 -0.10753,-3.136819 0.148929,-0.653884 0.573456,-0.855496 0.537649,-1.425826 -0.123767,-1.971776 -2.188769,-2.381559 -1.935537,-4.134898 0.346354,-0.515578 0.02032,-0.709919 0.32259,-1.568409 C 18.244314,41.241453 17.990974,40.626921 17.60806,40.18406 14.581849,39.269534 11.487034,41.062511 8.3604972,39.185981 8.8825544,44.766666 11.060785,49.605922 13.306868,54.15716 Z M 23.414669,42.037634 c -0.0061,0.08698 -0.01602,0.168818 -0.10753,0.142583 -0.596898,-2.082705 -1.79693,-2.543675 -3.548483,-1.853575 0.147638,0.324946 -0.277212,0.535969 0,0.570331 0.09645,-0.343197 0.167101,0.522423 0.322589,0.570331 0.265061,0.01882 0.518079,0.02153 0.645179,-0.142583 0.117638,0.670851 0.347429,0.125473 0.645179,0.285165 1.580473,0.848082 2.030808,3.564709 0.752708,4.705228 -0.274093,0.118914 -1.183688,0.132031 -0.752708,0.712913 2.274255,0.01 2.802226,-3.340711 2.043066,-4.990393 z m -1.290358,14.543431 c 0.364634,2.087268 0.778194,4.848096 1.397888,5.988472 0.601844,1.107582 2.107799,2.191781 3.333424,2.423905 4.534531,0.858918 3.866879,-4.985688 4.301192,-7.842046 -0.06807,-0.409925 -0.650771,-1.482147 -0.32259,-1.425827 -2.316729,-1.533048 -3.750209,-3.303212 -3.978602,-6.131054 -0.838518,-0.860771 -0.650233,-2.98782 -1.828007,-3.564566 -0.976801,1.323024 -1.219495,3.057685 -3.333424,2.851653 -0.492486,2.25138 -0.0129,5.15864 0.430119,7.699463 z m -3.656013,3.849732 c 0.129896,0.03023 0.06613,0.158124 0,0.285165 0.426679,0.140159 1.03519,0.702077 1.397888,0.998079 0.388612,0.317246 2.118659,2.025814 2.150596,0.142583 -0.334418,-1.096461 -2.448454,-1.618313 -3.548484,-1.425827 z"
   id="path24"
   style="stroke-width:0.123822" />
	<path
   d="m 9.4366554,13.235937 c 0.1220463,0.02709 0.059679,0.143011 0,0.142583 1.5283206,-0.694948 5.9936036,2.202332 6.9894366,4.420062 0.06839,0.152136 -0.0024,0.139161 0,0.142583 1.417888,2.040928 1.472944,4.384559 2.473186,6.273637 0.616683,1.164615 1.642195,2.005853 2.150596,2.994236 1.652518,0.778644 2.531251,1.994731 3.763543,2.851653 -0.257212,0.368006 0.06624,0.521282 0.107529,0.570331 0.744429,0.883157 1.039491,3.760902 0.752709,5.132975 -0.461088,2.205897 -1.588108,4.097826 -2.903305,3.279401 0.216028,-0.290726 -0.04753,-0.279604 -0.107529,-0.57033 -0.6112,-0.378129 -1.158849,-0.402083 -1.612947,-0.712914 -1.673809,0.893423 -3.236002,0.25337 -4.301192,-0.998078 -0.03312,-0.03878 0.159897,-0.215728 0.10753,-0.285165 -0.109788,-0.145577 -0.806474,-0.62879 -0.967769,-0.855496 0.0094,0.01326 -0.415925,-1.062241 -0.537649,-1.283244 C 14.480233,32.757499 13.687738,31.121506 12.985139,28.92003 12.628032,27.801041 12.03307,26.56656 11.909841,25.783211 11.821771,25.223432 11.078743,23.927498 10.727013,23.074141 9.9976384,21.304262 9.3256847,19.128166 7.8237084,17.941165 7.2367033,18.10157 7.2020787,17.529671 6.8559402,17.370834 7.2273482,15.522821 8.2374831,14.049656 9.4370855,13.235937 Z M 24.060708,36.619493 c 0.01968,-0.0566 0.204737,0.165396 0.21506,0.142583 0.225705,-0.499325 0.391838,-1.346693 0.430119,-1.710992 0.279792,-2.66045 -0.542488,-3.100745 -1.290358,-4.705228 -0.373021,-0.800316 -1.778112,-2.097533 -2.795775,-2.423905 -0.221618,-0.548943 -0.776365,-1.521214 -1.720476,-1.996157 -1.246808,-2.346198 -2.2349,-5.017341 -3.010835,-7.984629 -0.04183,-0.16012 -0.886905,-1.424829 -1.182827,-1.710992 -0.660448,-0.63877 -1.759403,-1.408574 -2.473186,-1.710992 -0.102368,-0.04335 -0.501626,0.08213 -0.645179,0 -0.04161,-0.02381 0.122692,-0.269338 0.10753,-0.285165 -1.281325,-1.341133 -3.9755915,0.0472 -3.7635428,3.136818 0.6472219,0.757685 1.2121834,1.624587 2.0430662,2.13874 0.040324,0.762105 0.9051856,1.443079 1.2903576,2.13874 0.439367,0.793758 0.845399,1.862557 1.182828,2.994236 0.07022,0.235404 -0.06796,0.599417 0,0.855496 0.214092,0.806875 0.724105,1.602914 0.967768,2.423905 0.05,0.16839 -0.145918,0.26335 -0.10753,0.427748 0.385387,1.6474 1.269605,3.024749 2.043066,4.562645 0.716256,1.424116 1.274444,2.605556 1.935537,3.564567 2.243932,2.409219 4.269148,-1.457908 6.344258,1.568409 0.417215,-0.319385 0.260222,-0.935342 0.430119,-1.425827 z"
   id="path26"
   style="stroke-width:0.123822" />
	<path
   fill="#f69d9a"
   d="m 23.630159,38.04532 c -2.07511,-3.026317 -4.100327,0.84081 -6.344258,-1.568409 -0.661094,-0.959011 -1.219281,-2.140451 -1.935537,-3.564567 -0.773462,-1.537896 -1.657679,-2.915245 -2.043066,-4.562645 -0.03839,-0.164398 0.157531,-0.259358 0.10753,-0.427748 -0.243663,-0.820991 -0.753677,-1.61703 -0.967768,-2.423905 -0.06796,-0.256079 0.07022,-0.620092 0,-0.855496 C 12.109631,23.510871 11.703599,22.442072 11.264232,21.648314 10.87906,20.952653 10.014198,20.271679 9.9738743,19.509574 9.1429915,18.995421 8.57803,18.128519 7.9308081,17.370834 7.7187593,14.281211 10.413026,12.892883 11.694351,14.234016 c 0.01516,0.01583 -0.149144,0.261354 -0.10753,0.285165 0.143553,0.08213 0.542811,-0.04335 0.645179,0 0.713783,0.302418 1.812737,1.072222 2.473185,1.710992 0.295922,0.286163 1.140999,1.550872 1.182828,1.710992 0.775935,2.967288 1.764027,5.638431 3.010835,7.984629 0.944111,0.474943 1.498857,1.447214 1.720476,1.996157 1.017662,0.326372 2.422754,1.623589 2.795775,2.423905 0.74787,1.604483 1.57015,2.044778 1.290358,4.705228 -0.03828,0.364299 -0.204414,1.211667 -0.430119,1.710992 -0.01032,0.02281 -0.195382,-0.199188 -0.21506,-0.142583 -0.169897,0.490485 -0.0129,1.106442 -0.430119,1.425827 z"
   id="path28"
   style="stroke-width:0.123822" />
	<path
   fill="#f69d9a"
   d="m 14.275066,37.332406 c -1.219603,0.448851 -1.799296,0.434592 -3.763543,0.142583 -3.2046028,-3.260152 -4.5719517,-7.542195 -3.8710725,-13.545352 1.5641285,-0.737866 3.0488999,0.834251 3.6560135,1.996157 1.632517,3.123986 1.330358,9.102477 3.978602,11.406612 z"
   id="path30"
   style="stroke-width:0.123822" />
	<path
   d="m 21.372033,47.028027 c -0.430979,-0.580882 0.478615,-0.593999 0.752709,-0.712913 1.278099,-1.140519 0.827764,-3.857146 -0.752709,-4.705228 -0.29775,-0.159692 -0.527541,0.385686 -0.645179,-0.285165 -0.1271,0.164113 -0.380118,0.161403 -0.645179,0.142583 -0.155488,-0.04791 -0.226135,-0.913528 -0.322589,-0.570331 -0.277212,-0.03436 0.147638,-0.245385 0,-0.570331 1.751553,-0.6901 2.951585,-0.22913 3.548483,1.853575 0.09151,0.02623 0.101401,-0.05561 0.10753,-0.142583 0.759161,1.649682 0.231189,5.000374 -2.043066,4.990393 z"
   id="path32"
   style="stroke-width:0.123822" />
	<path
   d="m 21.694622,48.881602 c 2.113929,0.206032 2.356623,-1.528629 3.333424,-2.851653 1.177774,0.576746 0.989489,2.703795 1.828007,3.564566 0.228393,2.827842 1.661873,4.598006 3.978602,6.131054 -0.328181,-0.05632 0.254523,1.015902 0.32259,1.425827 -0.434313,2.856358 0.233339,8.700964 -4.301192,7.842046 -1.225625,-0.232124 -2.73158,-1.316323 -3.333424,-2.423905 -0.619694,-1.140376 -1.033254,-3.901204 -1.397887,-5.988472 -0.443023,-2.540823 -0.922606,-5.448083 -0.43012,-7.699463 z m 0.645179,0.427748 c -0.01484,0.265489 -0.07075,0.476511 -0.215059,0.57033 0.205381,5.415575 0.758192,12.019433 4.086132,14.258266 0.441625,0.297142 1.585419,0.588011 2.258126,0.427748 1.068308,-0.254367 1.565096,-1.869401 1.720476,-2.994236 0.21635,-1.566555 -0.35302,-3.213385 -0.645178,-4.84781 -2.818249,-1.923297 -3.169011,-6.532852 -4.301192,-9.267873 -0.258072,2.066023 -1.750585,1.792264 -2.903305,1.853575 z"
   id="path34"
   style="stroke-width:0.123822" />
	<path
   fill="#f69d9a"
   d="m 25.243106,47.455775 c 1.132181,2.735021 1.482943,7.344576 4.301192,9.267873 0.292158,1.634425 0.861528,3.281255 0.645178,4.84781 -0.15538,1.124835 -0.652168,2.739869 -1.720476,2.994236 -0.672707,0.160263 -1.816501,-0.130606 -2.258126,-0.427748 -3.32794,-2.238833 -3.880751,-8.842691 -4.086132,-14.258266 0.144305,-0.09382 0.20022,-0.304841 0.215059,-0.57033 1.15272,-0.06131 2.645233,0.212448 2.903305,-1.853575 z"
   id="path36"
   style="stroke-width:0.123822" />
</g>
<metadata
   id="metadata40"><rdf:RDF><cc:Work><dc:format>image/svg+xml</dc:format><dc:type
         rdf:resource="http://purl.org/dc/dcmitype/StillImage" /><cc:license
         rdf:resource="http://creativecommons.org/publicdomain/zero/1.0/" /><dc:publisher><cc:Agent
           rdf:about="http://openclipart.org/"><dc:title>Openclipart</dc:title></cc:Agent></dc:publisher><dc:title>whole ham</dc:title><dc:date>2006-10-30T13:55:05</dc:date><dc:description>a whole ham</dc:description><dc:source>https://openclipart.org/detail/1023/whole-ham-by-johnny_automatic</dc:source><dc:creator><cc:Agent><dc:title>johnny_automatic</dc:title></cc:Agent></dc:creator><dc:subject><rdf:Bag><rdf:li>comment_problem</rdf:li><rdf:li>cured</rdf:li><rdf:li>food</rdf:li><rdf:li>ham</rdf:li><rdf:li>leg</rdf:li><rdf:li>meat</rdf:li><rdf:li>pork</rdf:li><rdf:li>remix_problem</rdf:li></rdf:Bag></dc:subject></cc:Work><cc:License
       rdf:about="http://creativecommons.org/publicdomain/zero/1.0/"><cc:permits
         rdf:resource="http://creativecommons.org/ns#Reproduction" /><cc:permits
         rdf:resource="http://creativecommons.org/ns#Distribution" /><cc:permits
         rdf:resource="http://creativecommons.org/ns#DerivativeWorks" /></cc:License></rdf:RDF></metadata></svg>
