<?xml version="1.0" encoding="UTF-8" standalone="no"?>
<!-- Generator: Adobe Illustrator 15.1.0, SVG Export Plug-In . SVG Version: 6.00 Build 0)  -->

<svg
   xmlns:dc="http://purl.org/dc/elements/1.1/"
   xmlns:cc="http://creativecommons.org/ns#"
   xmlns:rdf="http://www.w3.org/1999/02/22-rdf-syntax-ns#"
   xmlns:svg="http://www.w3.org/2000/svg"
   xmlns="http://www.w3.org/2000/svg"
   xmlns:xlink="http://www.w3.org/1999/xlink"
   xmlns:sodipodi="http://sodipodi.sourceforge.net/DTD/sodipodi-0.dtd"
   xmlns:inkscape="http://www.inkscape.org/namespaces/inkscape"
   version="1.1"
   id="flash0.ai"
   x="0px"
   y="0px"
   width="256"
   height="256"
   viewBox="0 0 256 256"
   xml:space="preserve"
   sodipodi:docname="tangy_sauce.svg"
   inkscape:version="0.92.4 (5da689c313, 2019-01-14)"
   inkscape:export-xdpi="10.5"
   inkscape:export-ydpi="10.5"><title
   id="title1312">Tangy Sauce</title><metadata
   id="metadata505"><rdf:RDF><cc:Work
       rdf:about=""><dc:format>image/svg+xml</dc:format><dc:type
         rdf:resource="http://purl.org/dc/dcmitype/StillImage" /><dc:title>Tangy Sauce</dc:title><cc:license
         rdf:resource="http://creativecommons.org/publicdomain/zero/1.0/" /><dc:creator><cc:Agent><dc:title>Glitch</dc:title></cc:Agent></dc:creator><dc:source>https://opengameart.org/node/20149</dc:source></cc:Work><cc:License
       rdf:about="http://creativecommons.org/publicdomain/zero/1.0/"><cc:permits
         rdf:resource="http://creativecommons.org/ns#Reproduction" /><cc:permits
         rdf:resource="http://creativecommons.org/ns#Distribution" /><cc:permits
         rdf:resource="http://creativecommons.org/ns#DerivativeWorks" /></cc:License></rdf:RDF></metadata><defs
   id="defs503"><linearGradient
     inkscape:collect="always"
     xlink:href="#SVGID_1_"
     id="linearGradient1372"
     gradientUnits="userSpaceOnUse"
     gradientTransform="matrix(0.0696,-0.9976,0.9976,0.0696,15751.972,548.4561)"
     x1="-545.92188"
     y1="-15750.113"
     x2="-520.76093"
     y2="-15750.113" /><linearGradient
     inkscape:collect="always"
     xlink:href="#SVGID_8_"
     id="linearGradient1374"
     gradientUnits="userSpaceOnUse"
     x1="4.2642002"
     y1="-27.4312"
     x2="2.5142"
     y2="-2.3311999" /></defs><sodipodi:namedview
   pagecolor="#ffffff"
   bordercolor="#666666"
   borderopacity="1"
   objecttolerance="10"
   gridtolerance="10"
   guidetolerance="10"
   inkscape:pageopacity="0"
   inkscape:pageshadow="2"
   inkscape:window-width="1920"
   inkscape:window-height="1025"
   id="namedview501"
   showgrid="false"
   inkscape:zoom="0.96572452"
   inkscape:cx="-11.091038"
   inkscape:cy="218.20269"
   inkscape:window-x="-8"
   inkscape:window-y="-8"
   inkscape:window-maximized="1"
   inkscape:current-layer="flash0.ai"
   fit-margin-top="0"
   fit-margin-left="0"
   fit-margin-right="0"
   fit-margin-bottom="0" />
<symbol
   id="flash0.ai_x5F_4_x2F_Layer_18_x2F__x3C_Path_x3E__x5F_10"
   viewBox="0.05 -31.45 5.25 31.45"
   transform="translate(-10.88,212.81278)">
	<g
   id="Layer_1_14_">
		
			<linearGradient
   id="SVGID_1_"
   gradientUnits="userSpaceOnUse"
   x1="-545.92188"
   y1="-15750.113"
   x2="-520.76093"
   y2="-15750.113"
   gradientTransform="matrix(0.0696,-0.9976,0.9976,0.0696,15751.972,548.4561)">
			<stop
   offset="0"
   style="stop-color:#FFFFFF"
   id="stop2" />
			<stop
   offset="1"
   style="stop-color:#000000"
   id="stop4" />
		</linearGradient>
		<path
   style="clip-rule:evenodd;fill:url(#linearGradient1372);fill-rule:evenodd"
   d="M 3.35,-0.5 5.3,0 C 5.3,-0.233 5.1,-0.967 4.7,-2.2 4.567,-2.633 4.2,-3.533 3.6,-4.9 3.133,-5.967 2.867,-6.75 2.8,-7.25 c -0.2,-1.733 -0.233,-7.733 -0.1,-18 0.033,-2.867 0.233,-4.933 0.6,-6.2 -0.367,0.233 -0.85,0.717 -1.45,1.45 -0.367,0.467 -0.733,1.017 -1.1,1.65 l -0.4,0.85 -0.3,21 c 0.034,0.5 0.3,1.1 0.8,1.8 0.6,0.733 0.983,1.25 1.15,1.55 0.733,1.167 1.183,2.05 1.35,2.65 z"
   id="path7"
   inkscape:connector-curvature="0" />
	</g>
</symbol>

<symbol
   id="flash0.ai_x5F_4_x2F_Layer_18_x2F__x3C_Path_x3E__x5F_2"
   viewBox="-0.022 -1.179 9.522 1.229"
   transform="translate(-10.88,212.81278)">
	<g
   id="Layer_1_17_">
		<path
   style="clip-rule:evenodd;fill:#ffffff;fill-rule:evenodd"
   d="M 0.4,0 C 1.033,-0.233 2.067,-0.45 3.5,-0.65 5.3,-0.883 7.3,-1 9.5,-1 9.433,-1.167 8.35,-1.217 6.25,-1.15 4.85,-1.083 3.5,-0.933 2.2,-0.7 1.2,-0.533 0.55,-0.383 0.25,-0.25 0.017,-0.15 -0.067,-0.067 0,0 0.067,0.067 0.2,0.067 0.4,0 Z"
   id="path15"
   inkscape:connector-curvature="0" />
	</g>
</symbol>











<symbol
   id="flash0.ai_x5F_4_x2F_Layer_18_x2F__x3C_Path_x3E__x5F_8"
   viewBox="0 -3.153 16.5 3.153"
   transform="translate(-10.88,212.81278)">
	<g
   id="Layer_1_16_">
		<path
   style="clip-rule:evenodd;fill:#755332;fill-rule:evenodd"
   d="m 15.6,0 c 0.1,-0.3 0.4,-0.783 0.9,-1.45 -0.467,-0.4 -1.183,-0.767 -2.15,-1.1 C 12.85,-2.983 11,-3.183 8.8,-3.15 4.633,-3.017 1.7,-2.267 0,-0.9 L 0.55,0 8.05,-0.4 Z"
   id="path93"
   inkscape:connector-curvature="0" />
	</g>
</symbol>
<symbol
   id="flash0.ai_x5F_4_x2F_Layer_18_x2F__x3C_Path_x3E__x5F_9"
   viewBox="0 -31.45 5.3 31.45"
   transform="translate(-10.88,212.81278)">
	<g
   id="Layer_1_15_">
		<linearGradient
   id="SVGID_8_"
   gradientUnits="userSpaceOnUse"
   x1="4.2642002"
   y1="-27.4312"
   x2="2.5142"
   y2="-2.3311999">
			<stop
   offset="0"
   style="stop-color:#FFFFFF"
   id="stop97" />
			<stop
   offset="1"
   style="stop-color:#000000"
   id="stop99" />
		</linearGradient>
		<path
   style="clip-rule:evenodd;fill:url(#linearGradient1374);fill-rule:evenodd"
   d="M 1.95,-0.5 C 2.117,-1.1 2.583,-1.983 3.35,-3.15 3.55,-3.45 3.933,-3.967 4.5,-4.7 5,-5.4 5.267,-6 5.3,-6.5 l -0.35,-21 -0.4,-0.85 c -0.367,-0.633 -0.733,-1.183 -1.1,-1.65 -0.6,-0.733 -1.067,-1.217 -1.4,-1.45 0.333,1.267 0.517,3.333 0.55,6.2 0.066,2.367 0.083,5.717 0.05,10.05 0,4.633 -0.05,7.284 -0.15,7.95 C 2.433,-6.75 2.167,-5.967 1.7,-4.9 1.1,-3.533 0.733,-2.633 0.6,-2.2 0.2,-0.967 0,-0.233 0,0 Z"
   id="path102"
   inkscape:connector-curvature="0" />
	</g>
</symbol>
<g
   id="g498"
   transform="matrix(8.008203,0,0,8.008203,-36.64465,-89.852038)">
	
		<linearGradient
   id="SVGID_9_"
   gradientUnits="userSpaceOnUse"
   x1="23.4121"
   y1="20.7813"
   x2="45.287102"
   y2="20.7813"
   gradientTransform="matrix(0.8,0,0,0.8,-1.220703e-4,1.8998)">
		<stop
   offset="0"
   style="stop-color:#FFE9D1"
   id="stop106" />
		<stop
   offset="1"
   style="stop-color:#855C30"
   id="stop108" />
	</linearGradient>
	
	
		<linearGradient
   id="SVGID_10_"
   gradientUnits="userSpaceOnUse"
   x1="24.0254"
   y1="20.6499"
   x2="44.575199"
   y2="20.6499"
   gradientTransform="matrix(0.8,0,0,0.8,-1.220703e-4,1.8998)">
		<stop
   offset="0"
   style="stop-color:#FFC98C"
   id="stop113" />
		<stop
   offset="1"
   style="stop-color:#9C703F"
   id="stop115" />
	</linearGradient>
	
	
		<linearGradient
   id="SVGID_11_"
   gradientUnits="userSpaceOnUse"
   x1="24.625"
   y1="22.5439"
   x2="38.674999"
   y2="22.5439"
   gradientTransform="matrix(0.8,0,0,0.8,-1.220703e-4,1.8998)">
		<stop
   offset="0"
   style="stop-color:#6E7DFF"
   id="stop120" />
		<stop
   offset="0.2039"
   style="stop-color:#6574FB"
   id="stop122" />
		<stop
   offset="0.5451"
   style="stop-color:#4C5BEF"
   id="stop124" />
		<stop
   offset="0.9686"
   style="stop-color:#2433DC"
   id="stop126" />
		<stop
   offset="1"
   style="stop-color:#2130DB"
   id="stop128" />
	</linearGradient>
	
	
	
		<linearGradient
   id="SVGID_12_"
   gradientUnits="userSpaceOnUse"
   x1="27.8379"
   y1="19.300301"
   x2="33.462898"
   y2="19.300301"
   gradientTransform="matrix(0.8,0,0,0.8,-1.220703e-4,1.8998)">
		<stop
   offset="0"
   style="stop-color:#FF9354"
   id="stop135" />
		<stop
   offset="0.2235"
   style="stop-color:#F68E51"
   id="stop137" />
		<stop
   offset="0.5882"
   style="stop-color:#DD8048"
   id="stop139" />
		<stop
   offset="1"
   style="stop-color:#BA6C3C"
   id="stop141" />
	</linearGradient>
	
	
	
	
		
	
		
	
		
	
		<radialGradient
   id="SVGID_13_"
   cx="34.349602"
   cy="5.4502001"
   r="7.7375002"
   gradientTransform="matrix(0.8,0,0,-0.1861,-1.220703e-4,7.2742)"
   gradientUnits="userSpaceOnUse">
		<stop
   offset="0"
   style="stop-color:#FFC98C"
   id="stop156" />
		<stop
   offset="1"
   style="stop-color:#CC9B66"
   id="stop158" />
	</radialGradient>
	
	
		<linearGradient
   id="SVGID_14_"
   gradientUnits="userSpaceOnUse"
   x1="26.174801"
   y1="5"
   x2="42.624802"
   y2="5"
   gradientTransform="matrix(0.8,0,0,0.8,-1.220703e-4,1.8998)">
		<stop
   offset="0"
   style="stop-color:#2929D6"
   id="stop163" />
		<stop
   offset="0.3255"
   style="stop-color:#4255FF"
   id="stop165" />
		<stop
   offset="0.502"
   style="stop-color:#3F4FF6"
   id="stop167" />
		<stop
   offset="0.7882"
   style="stop-color:#373FDD"
   id="stop169" />
		<stop
   offset="1"
   style="stop-color:#3030C7"
   id="stop171" />
	</linearGradient>
	
	
	
		<linearGradient
   id="SVGID_15_"
   gradientUnits="userSpaceOnUse"
   x1="26.3496"
   y1="3.875"
   x2="42.349602"
   y2="3.875"
   gradientTransform="matrix(0.8,0,0,0.8,-1.220703e-4,1.8998)">
		<stop
   offset="0"
   style="stop-color:#2B2BE2"
   id="stop178" />
		<stop
   offset="0.3255"
   style="stop-color:#3045FF"
   id="stop180" />
		<stop
   offset="0.6"
   style="stop-color:#3241F6"
   id="stop182" />
		<stop
   offset="1"
   style="stop-color:#3636E0"
   id="stop184" />
	</linearGradient>
	
	
		<linearGradient
   id="SVGID_16_"
   gradientUnits="userSpaceOnUse"
   x1="-40.942402"
   y1="-4.0112"
   x2="-26.4543"
   y2="-4.0112"
   gradientTransform="matrix(-0.7979,0.058,-0.058,-0.7979,4.689991e-4,1.9004)">
		<stop
   offset="0"
   style="stop-color:#3B5BFF"
   id="stop189" />
		<stop
   offset="0.8157"
   style="stop-color:#3B52FF"
   id="stop191" />
		<stop
   offset="1"
   style="stop-color:#3B4FFF"
   id="stop193" />
	</linearGradient>
	
	
		
	
	
	
		<linearGradient
   id="SVGID_17_"
   gradientUnits="userSpaceOnUse"
   x1="0.037599999"
   y1="27.556601"
   x2="23.1626"
   y2="27.556601"
   gradientTransform="matrix(0.8,0,0,0.8,-1.220703e-4,1.8998)">
		<stop
   offset="0"
   style="stop-color:#FFE9D1"
   id="stop204" />
		<stop
   offset="1"
   style="stop-color:#855C30"
   id="stop206" />
	</linearGradient>
	
	
		<linearGradient
   id="SVGID_18_"
   gradientUnits="userSpaceOnUse"
   x1="0.64990002"
   y1="27.4072"
   x2="22.374901"
   y2="27.4072"
   gradientTransform="matrix(0.8,0,0,0.8,-1.220703e-4,1.8998)">
		<stop
   offset="0"
   style="stop-color:#FFC98C"
   id="stop211" />
		<stop
   offset="1"
   style="stop-color:#9C703F"
   id="stop213" />
	</linearGradient>
	
	
		<linearGradient
   id="SVGID_19_"
   gradientUnits="userSpaceOnUse"
   x1="1.2749"
   y1="29.416"
   x2="16.125"
   y2="29.416"
   gradientTransform="matrix(0.8,0,0,0.8,-1.220703e-4,1.8998)">
		<stop
   offset="0"
   style="stop-color:#6E7DFF"
   id="stop218" />
		<stop
   offset="0.2039"
   style="stop-color:#6574FB"
   id="stop220" />
		<stop
   offset="0.5451"
   style="stop-color:#4C5BEF"
   id="stop222" />
		<stop
   offset="0.9686"
   style="stop-color:#2433DC"
   id="stop224" />
		<stop
   offset="1"
   style="stop-color:#2130DB"
   id="stop226" />
	</linearGradient>
	
	
	
		<linearGradient
   id="SVGID_20_"
   gradientUnits="userSpaceOnUse"
   x1="4.6747999"
   y1="26"
   x2="10.625"
   y2="26"
   gradientTransform="matrix(0.8,0,0,0.8,-1.220703e-4,1.8998)">
		<stop
   offset="0"
   style="stop-color:#FF9354"
   id="stop233" />
		<stop
   offset="0.2235"
   style="stop-color:#F68E51"
   id="stop235" />
		<stop
   offset="0.5882"
   style="stop-color:#DD8048"
   id="stop237" />
		<stop
   offset="1"
   style="stop-color:#BA6C3C"
   id="stop239" />
	</linearGradient>
	
	
	
	
		
	
		
	
		
	
		<radialGradient
   id="SVGID_21_"
   cx="11.5498"
   cy="11.3501"
   r="8.1750002"
   gradientTransform="matrix(0.8,0,0,-0.1859,-1.220703e-4,13.09)"
   gradientUnits="userSpaceOnUse">
		<stop
   offset="0"
   style="stop-color:#FFC98C"
   id="stop254" />
		<stop
   offset="1"
   style="stop-color:#CC9B66"
   id="stop256" />
	</radialGradient>
	
	
		<linearGradient
   id="SVGID_22_"
   gradientUnits="userSpaceOnUse"
   x1="2.9502001"
   y1="10.875"
   x2="20.3501"
   y2="10.875"
   gradientTransform="matrix(0.8,0,0,0.8,-1.220703e-4,1.8998)">
		<stop
   offset="0"
   style="stop-color:#2929D6"
   id="stop261" />
		<stop
   offset="0.3255"
   style="stop-color:#4255FF"
   id="stop263" />
		<stop
   offset="0.502"
   style="stop-color:#3F4FF6"
   id="stop265" />
		<stop
   offset="0.7882"
   style="stop-color:#373FDD"
   id="stop267" />
		<stop
   offset="1"
   style="stop-color:#3030C7"
   id="stop269" />
	</linearGradient>
	
	
	
		<linearGradient
   id="SVGID_23_"
   gradientUnits="userSpaceOnUse"
   x1="3.1499"
   y1="9.7002001"
   x2="20.049801"
   y2="9.7002001"
   gradientTransform="matrix(0.8,0,0,0.8,-1.220703e-4,1.8998)">
		<stop
   offset="0"
   style="stop-color:#2B2BE2"
   id="stop276" />
		<stop
   offset="0.3255"
   style="stop-color:#3045FF"
   id="stop278" />
		<stop
   offset="0.6"
   style="stop-color:#3241F6"
   id="stop280" />
		<stop
   offset="1"
   style="stop-color:#3636E0"
   id="stop282" />
	</linearGradient>
	
	
		<linearGradient
   id="SVGID_24_"
   gradientUnits="userSpaceOnUse"
   x1="-18.195801"
   y1="-8.0517998"
   x2="-2.8794"
   y2="-8.0517998"
   gradientTransform="matrix(-0.7978,0.0588,-0.0588,-0.7978,1.502857e-4,1.8996)">
		<stop
   offset="0"
   style="stop-color:#3B5BFF"
   id="stop287" />
		<stop
   offset="0.8157"
   style="stop-color:#3B52FF"
   id="stop289" />
		<stop
   offset="1"
   style="stop-color:#3B4FFF"
   id="stop291" />
	</linearGradient>
	
	
		
	
	
	
		<linearGradient
   id="SVGID_25_"
   gradientUnits="userSpaceOnUse"
   x1="32.450199"
   y1="29.931601"
   x2="55.625198"
   y2="29.931601"
   gradientTransform="matrix(0.8,0,0,0.8,-1.220703e-4,1.8998)">
		<stop
   offset="0"
   style="stop-color:#FFE9D1"
   id="stop302" />
		<stop
   offset="1"
   style="stop-color:#855C30"
   id="stop304" />
	</linearGradient>
	
	
		<linearGradient
   id="SVGID_26_"
   gradientUnits="userSpaceOnUse"
   x1="33.075199"
   y1="29.7813"
   x2="54.825199"
   y2="29.7813"
   gradientTransform="matrix(0.8,0,0,0.8,-1.220703e-4,1.8998)">
		<stop
   offset="0"
   style="stop-color:#FFC98C"
   id="stop309" />
		<stop
   offset="1"
   style="stop-color:#9C703F"
   id="stop311" />
	</linearGradient>
	
	
		<linearGradient
   id="SVGID_27_"
   gradientUnits="userSpaceOnUse"
   x1="39.650398"
   y1="32.332001"
   x2="53.950401"
   y2="32.332001"
   gradientTransform="matrix(0.8,0,0,0.8,-1.220703e-4,1.8998)">
		<stop
   offset="0"
   style="stop-color:#6E7DFF"
   id="stop316" />
		<stop
   offset="0.2039"
   style="stop-color:#6574FB"
   id="stop318" />
		<stop
   offset="0.5451"
   style="stop-color:#4C5BEF"
   id="stop320" />
		<stop
   offset="0.9686"
   style="stop-color:#2433DC"
   id="stop322" />
		<stop
   offset="1"
   style="stop-color:#2130DB"
   id="stop324" />
	</linearGradient>
	
	
	
		<linearGradient
   id="SVGID_28_"
   gradientUnits="userSpaceOnUse"
   x1="45.375"
   y1="28.8496"
   x2="51.325199"
   y2="28.8496"
   gradientTransform="matrix(0.8,0,0,0.8,-1.220703e-4,1.8998)">
		<stop
   offset="0"
   style="stop-color:#FF9354"
   id="stop331" />
		<stop
   offset="0.2235"
   style="stop-color:#F68E51"
   id="stop333" />
		<stop
   offset="0.5882"
   style="stop-color:#DD8048"
   id="stop335" />
		<stop
   offset="1"
   style="stop-color:#BA6C3C"
   id="stop337" />
	</linearGradient>
	
	
	
	
		
	
		
	
		
	
		<radialGradient
   id="SVGID_29_"
   cx="44"
   cy="13.6499"
   r="8.1875"
   gradientTransform="matrix(0.8,0,0,-0.1856,-1.220703e-4,15.3536)"
   gradientUnits="userSpaceOnUse">
		<stop
   offset="0"
   style="stop-color:#FFC98C"
   id="stop352" />
		<stop
   offset="1"
   style="stop-color:#CC9B66"
   id="stop354" />
	</radialGradient>
	
	
		<linearGradient
   id="SVGID_30_"
   gradientUnits="userSpaceOnUse"
   x1="35.375"
   y1="13.2002"
   x2="52.825199"
   y2="13.2002"
   gradientTransform="matrix(0.8,0,0,0.8,-1.220703e-4,1.8998)">
		<stop
   offset="0"
   style="stop-color:#2929D6"
   id="stop359" />
		<stop
   offset="0.3255"
   style="stop-color:#4255FF"
   id="stop361" />
		<stop
   offset="0.502"
   style="stop-color:#3F4FF6"
   id="stop363" />
		<stop
   offset="0.7882"
   style="stop-color:#373FDD"
   id="stop365" />
		<stop
   offset="1"
   style="stop-color:#3030C7"
   id="stop367" />
	</linearGradient>
	
	
	
		<linearGradient
   id="SVGID_31_"
   gradientUnits="userSpaceOnUse"
   x1="35.575199"
   y1="12"
   x2="52.525398"
   y2="12"
   gradientTransform="matrix(0.8,0,0,0.8,-1.220703e-4,1.8998)">
		<stop
   offset="0"
   style="stop-color:#2B2BE2"
   id="stop374" />
		<stop
   offset="0.3255"
   style="stop-color:#3045FF"
   id="stop376" />
		<stop
   offset="0.6"
   style="stop-color:#3241F6"
   id="stop378" />
		<stop
   offset="1"
   style="stop-color:#3636E0"
   id="stop380" />
	</linearGradient>
	
	
		<linearGradient
   id="SVGID_32_"
   gradientUnits="userSpaceOnUse"
   x1="-50.417"
   y1="-12.7236"
   x2="-35.0508"
   y2="-12.7236"
   gradientTransform="matrix(-0.7978,0.0586,-0.0586,-0.7978,8.698553e-4,1.9)">
		<stop
   offset="0"
   style="stop-color:#3B5BFF"
   id="stop385" />
		<stop
   offset="0.8157"
   style="stop-color:#3B52FF"
   id="stop387" />
		<stop
   offset="1"
   style="stop-color:#3B4FFF"
   id="stop389" />
	</linearGradient>
	
	
		
	
	
	
		<linearGradient
   id="SVGID_33_"
   gradientUnits="userSpaceOnUse"
   x1="13.6001"
   y1="34.630901"
   x2="37.775101"
   y2="34.630901"
   gradientTransform="matrix(0.8,0,0,0.8,-1.220703e-4,1.8998)">
		<stop
   offset="0"
   style="stop-color:#FFE9D1"
   id="stop400" />
		<stop
   offset="1"
   style="stop-color:#855C30"
   id="stop402" />
	</linearGradient>
	<path
   style="clip-rule:evenodd;fill:url(#SVGID_33_);fill-rule:evenodd"
   d="m 28.76,18.979 c 0.533,0.613 0.906,1.187 1.119,1.72 0.241,0.64 0.36,1.507 0.36,2.6 0,1.093 -0.093,3.666 -0.279,7.72 -0.187,3.84 -0.32,6.12 -0.4,6.84 -0.053,0.854 -0.413,1.68 -1.08,2.479 -0.88,1.094 -2.173,1.881 -3.88,2.36 -1.387,0.373 -2.733,0.533 -4.04,0.479 -1.307,0.054 -2.64,-0.106 -4,-0.479 -1.707,-0.479 -3,-1.267 -3.88,-2.36 -0.667,-0.8 -1.04,-1.626 -1.12,-2.479 -0.08,-0.72 -0.214,-3 -0.4,-6.84 -0.187,-4.054 -0.28,-6.627 -0.28,-7.72 0,-1.093 0.133,-1.96 0.4,-2.6 0.187,-0.534 0.56,-1.107 1.12,-1.72 0.987,-1.066 1.707,-2.053 2.16,-2.96 l 6,0.32 6.04,-0.32 c 0.32,0.774 1.04,1.761 2.16,2.96 z"
   id="path405"
   inkscape:connector-curvature="0" />
	
		<linearGradient
   id="SVGID_34_"
   gradientUnits="userSpaceOnUse"
   x1="14.25"
   y1="34.474602"
   x2="36.950001"
   y2="34.474602"
   gradientTransform="matrix(0.8,0,0,0.8,-1.220703e-4,1.8998)">
		<stop
   offset="0"
   style="stop-color:#FFC98C"
   id="stop407" />
		<stop
   offset="1"
   style="stop-color:#9C703F"
   id="stop409" />
	</linearGradient>
	<path
   style="clip-rule:evenodd;fill:url(#SVGID_34_);fill-rule:evenodd"
   d="m 28.16,19.14 c 0.532,0.586 0.893,1.133 1.079,1.64 0.24,0.641 0.36,1.494 0.36,2.561 0,1.067 -0.093,3.56 -0.279,7.479 -0.16,3.787 -0.281,6.014 -0.36,6.68 -0.081,0.854 -0.427,1.667 -1.04,2.44 -0.827,1.066 -2.041,1.826 -3.641,2.28 -1.093,0.319 -2.359,0.479 -3.8,0.479 -1.414,0 -2.667,-0.16 -3.76,-0.479 -1.6,-0.454 -2.813,-1.214 -3.64,-2.28 -0.613,-0.773 -0.96,-1.587 -1.041,-2.44 -0.053,-0.666 -0.173,-2.893 -0.36,-6.68 -0.187,-3.92 -0.28,-6.413 -0.28,-7.479 0,-1.066 0.12,-1.92 0.36,-2.561 0.187,-0.506 0.547,-1.053 1.08,-1.64 1.014,-1.146 1.68,-2.107 2,-2.88 l 5.64,0.32 5.681,-0.32 c 0.32,0.773 0.987,1.733 2.001,2.88 z"
   id="path412"
   inkscape:connector-curvature="0" />
	
		<linearGradient
   id="SVGID_35_"
   gradientUnits="userSpaceOnUse"
   x1="14.9502"
   y1="36.590801"
   x2="30.475201"
   y2="36.590801"
   gradientTransform="matrix(0.8,0,0,0.8,-1.220703e-4,1.8998)">
		<stop
   offset="0"
   style="stop-color:#6E7DFF"
   id="stop414" />
		<stop
   offset="0.2039"
   style="stop-color:#6574FB"
   id="stop416" />
		<stop
   offset="0.5451"
   style="stop-color:#4C5BEF"
   id="stop418" />
		<stop
   offset="0.9686"
   style="stop-color:#2433DC"
   id="stop420" />
		<stop
   offset="1"
   style="stop-color:#2130DB"
   id="stop422" />
	</linearGradient>
	<path
   style="clip-rule:evenodd;fill:url(#SVGID_35_);fill-rule:evenodd"
   d="m 13.64,26.46 c 0.32,-0.987 0.8,-1.787 1.44,-2.4 0.666,-0.64 1.413,-0.96 2.24,-0.96 0.88,-0.026 1.68,0.32 2.4,1.04 0.719,0.667 1.227,1.56 1.52,2.681 1.28,-0.055 2.32,-0.147 3.12,-0.281 l -0.28,12.12 c -1.653,0.587 -3.879,0.733 -6.679,0.44 -1.574,-0.16 -2.854,-0.587 -3.84,-1.28 l -1.041,-1 C 12.467,36.421 12.414,35.58 12.36,34.3 l -0.4,-8.28 0.36,0.12 c 0.32,0.106 0.76,0.213 1.32,0.32 z"
   id="path425"
   inkscape:connector-curvature="0" />
	<path
   style="clip-rule:evenodd;fill:#ffd66e;fill-rule:evenodd"
   d="m 15.24,24.739 c 0.64,-0.56 1.333,-0.853 2.08,-0.88 0.827,0 1.573,0.307 2.24,0.92 0.666,0.641 1.133,1.467 1.4,2.48 1.84,-0.08 2.76,-0.16 2.76,-0.24 h 0.159 l -0.319,11.32 -0.08,0.04 c -0.987,0.347 -2.32,0.521 -4,0.521 -0.693,0 -1.4,-0.04 -2.12,-0.12 -1.44,-0.159 -2.627,-0.546 -3.56,-1.159 -0.64,-0.613 -0.974,-0.934 -1,-0.961 v -0.08 c -0.054,-0.373 -0.106,-1.146 -0.16,-2.319 l -0.36,-7.84 0.2,0.119 0.28,0.121 c 0.293,0.105 0.653,0.199 1.08,0.279 0.293,-0.907 0.76,-1.64 1.4,-2.201 z M 14.04,27.1 14,27.22 13.92,27.18 c -0.56,-0.08 -1.027,-0.188 -1.4,-0.32 l 0.4,7.4 c 0.026,1.013 0.066,1.773 0.12,2.279 0.187,0.32 0.534,0.64 1.041,0.96 0.906,0.561 2.013,0.907 3.32,1.04 0.72,0.081 1.413,0.12 2.08,0.12 1.627,0 2.907,-0.173 3.841,-0.52 L 23.6,27.3 20.88,27.539 H 20.76 V 27.42 c -0.267,-0.986 -0.72,-1.787 -1.36,-2.4 -0.64,-0.613 -1.334,-0.92 -2.08,-0.92 -0.72,0.026 -1.374,0.307 -1.96,0.84 -0.586,0.533 -1.027,1.252 -1.32,2.16 z"
   id="path427"
   inkscape:connector-curvature="0" />
	
		<linearGradient
   id="SVGID_36_"
   gradientUnits="userSpaceOnUse"
   x1="18.449699"
   y1="32.974602"
   x2="24.6497"
   y2="32.974602"
   gradientTransform="matrix(0.8,0,0,0.8,-1.220703e-4,1.8998)">
		<stop
   offset="0"
   style="stop-color:#FF9354"
   id="stop429" />
		<stop
   offset="0.2235"
   style="stop-color:#F68E51"
   id="stop431" />
		<stop
   offset="0.5882"
   style="stop-color:#DD8048"
   id="stop433" />
		<stop
   offset="1"
   style="stop-color:#BA6C3C"
   id="stop435" />
	</linearGradient>
	<path
   style="clip-rule:evenodd;fill:url(#SVGID_36_);fill-rule:evenodd"
   d="m 19.76,28.3 c 0,0.879 -0.24,1.626 -0.72,2.239 -0.479,0.613 -1.066,0.921 -1.76,0.921 -0.694,0 -1.293,-0.308 -1.8,-0.921 -0.48,-0.613 -0.72,-1.36 -0.72,-2.239 0,-0.88 0.24,-1.627 0.72,-2.24 0.506,-0.64 1.106,-0.96 1.8,-0.96 0.694,0 1.28,0.32 1.76,0.96 0.48,0.613 0.72,1.36 0.72,2.24 z"
   id="path438"
   inkscape:connector-curvature="0" />
	<path
   style="clip-rule:evenodd;fill:#ffd66e;fill-rule:evenodd"
   d="m 16,27.62 -0.12,3.279 c -0.32,-0.24 -0.573,-0.587 -0.76,-1.04 l 0.44,-2.439 c -0.24,-0.24 -0.374,-0.521 -0.4,-0.841 0.293,-0.532 0.653,-0.919 1.08,-1.159 l 0.28,0.08 0.44,-0.36 0.32,-0.04 c 0.24,0 0.546,0.08 0.92,0.24 l -1.36,0.48 0.16,0.36 1.84,-0.32 c 0.268,0.32 0.453,0.587 0.561,0.801 l -2.36,-0.16 -0.08,0.439 2.76,1 0.04,0.36 c 0,0.266 -0.053,0.613 -0.16,1.039 L 16.76,27.3 l -0.12,0.12 2,3.479 c -0.347,0.32 -0.707,0.493 -1.08,0.521 l -1.36,-3.8 z"
   id="path440"
   inkscape:connector-curvature="0" />
	<path
   style="clip-rule:evenodd;fill:#ffd66e;fill-rule:evenodd"
   d="m 13.84,31.22 0.24,0.8 0.76,0.28 c 0.667,0.187 1.427,0.293 2.28,0.32 1.36,0.053 2.76,-0.014 4.2,-0.2 l 0.32,-0.721 c 0.053,-0.134 0.173,-0.106 0.36,0.08 0.187,0.187 0.307,0.399 0.36,0.641 0.106,0.319 0.133,0.706 0.08,1.159 -0.053,0.507 -0.187,0.76 -0.4,0.76 -0.213,0 -0.36,-0.16 -0.439,-0.479 l -0.04,-0.48 -3.681,0.16 0.041,3.48 1,0.04 c 0.667,0.08 0.973,0.24 0.919,0.479 -0.187,0.507 -1.026,0.64 -2.52,0.4 -1.387,-0.24 -2.08,-0.573 -2.08,-1 0,-0.16 0.253,-0.214 0.76,-0.16 0.24,0.027 0.48,0.067 0.72,0.12 v -0.561 l -0.24,-3.119 -2.56,-0.44 v 0.32 c -0.053,0.267 -0.146,0.493 -0.28,0.68 -0.32,0.399 -0.479,-0.026 -0.479,-1.28 -10e-4,-1.066 0.226,-1.492 0.679,-1.279 z"
   id="path442"
   inkscape:connector-curvature="0" />
	
		<use
   xlink:href="#flash0.ai_x5F_4_x2F_Layer_18_x2F__x3C_Path_x3E__x5F_10"
   width="5.25"
   height="31.450001"
   x="0.050000001"
   y="-31.450001"
   transform="matrix(0.8,0,0,-0.8,21.3539,186.55003)"
   style="overflow:visible;opacity:0.57810005;enable-background:new"
   id="use444" />
	
		<use
   xlink:href="#flash0.ai_x5F_4_x2F_Layer_18_x2F__x3C_Path_x3E__x5F_9"
   width="5.3000002"
   height="31.450001"
   y="-31.450001"
   transform="matrix(0.8,0,0,-0.8,33.1044,186.55003)"
   style="overflow:visible;opacity:0.21089998;enable-background:new"
   id="use446"
   x="0" />
	
		<use
   xlink:href="#flash0.ai_x5F_4_x2F_Layer_18_x2F__x3C_Path_x3E__x5F_8"
   width="16.5"
   height="3.1530001"
   y="-3.1530001"
   transform="matrix(0.8,0,0,-0.8,22.8041,186.25023)"
   style="overflow:visible;opacity:0.67189995;enable-background:new"
   id="use448"
   x="0" />
	
		<radialGradient
   id="SVGID_37_"
   cx="25.700199"
   cy="17.699699"
   r="8.5501003"
   gradientTransform="matrix(0.8,0,0,-0.186,-1.220703e-4,19.3508)"
   gradientUnits="userSpaceOnUse">
		<stop
   offset="0"
   style="stop-color:#FFC98C"
   id="stop450" />
		<stop
   offset="1"
   style="stop-color:#CC9B66"
   id="stop452" />
	</radialGradient>
	<path
   style="clip-rule:evenodd;fill:url(#SVGID_37_);fill-rule:evenodd"
   d="m 27.52,16.06 c 0,0.453 -0.68,0.84 -2.04,1.16 -1.359,0.32 -3,0.48 -4.919,0.48 -1.92,0 -3.574,-0.16 -4.96,-0.48 -1.36,-0.32 -2.04,-0.707 -2.04,-1.16 0,-0.454 0.68,-0.84 2.04,-1.16 1.36,-0.32 3.013,-0.48 4.96,-0.48 1.919,0 3.56,0.16 4.919,0.48 1.36,0.32 2.04,0.706 2.04,1.16 z"
   id="path455"
   inkscape:connector-curvature="0" />
	
		<linearGradient
   id="SVGID_38_"
   gradientUnits="userSpaceOnUse"
   x1="16.6499"
   y1="17.200199"
   x2="34.848598"
   y2="17.200199"
   gradientTransform="matrix(0.8,0,0,0.8,-1.220703e-4,1.8998)">
		<stop
   offset="0"
   style="stop-color:#2929D6"
   id="stop457" />
		<stop
   offset="0.3255"
   style="stop-color:#4255FF"
   id="stop459" />
		<stop
   offset="0.502"
   style="stop-color:#3F4FF6"
   id="stop461" />
		<stop
   offset="0.7882"
   style="stop-color:#373FDD"
   id="stop463" />
		<stop
   offset="1"
   style="stop-color:#3030C7"
   id="stop465" />
	</linearGradient>
	<path
   style="clip-rule:evenodd;fill:url(#SVGID_38_);fill-rule:evenodd"
   d="m 27.879,15.66 c 0,0.453 -0.706,0.827 -2.119,1.12 -1.413,0.32 -3.134,0.48 -5.16,0.48 -2,0 -3.707,-0.16 -5.12,-0.48 -1.44,-0.293 -2.16,-0.667 -2.16,-1.12 0,-0.427 0.72,-0.8 2.16,-1.12 1.413,-0.32 3.12,-0.479 5.12,-0.479 2.026,0 3.747,0.16 5.16,0.479 1.413,0.293 2.119,0.667 2.119,1.12 z"
   id="path468"
   inkscape:connector-curvature="0" />
	<path
   style="clip-rule:evenodd;fill:#0304d6;fill-rule:evenodd"
   d="m 27.64,12.7 v 2.68 c -0.026,0.32 -0.733,0.6 -2.12,0.84 -1.359,0.213 -3.013,0.32 -4.959,0.32 -1.92,0 -3.561,-0.106 -4.92,-0.32 -1.386,-0.24 -2.106,-0.52 -2.16,-0.84 V 12.7 Z"
   id="path470"
   inkscape:connector-curvature="0" />
	
		<linearGradient
   id="SVGID_39_"
   gradientUnits="userSpaceOnUse"
   x1="16.8501"
   y1="15.9751"
   x2="34.525101"
   y2="15.9751"
   gradientTransform="matrix(0.8,0,0,0.8,-1.220703e-4,1.8998)">
		<stop
   offset="0"
   style="stop-color:#2B2BE2"
   id="stop472" />
		<stop
   offset="0.3255"
   style="stop-color:#3045FF"
   id="stop474" />
		<stop
   offset="0.6"
   style="stop-color:#3241F6"
   id="stop476" />
		<stop
   offset="1"
   style="stop-color:#3636E0"
   id="stop478" />
	</linearGradient>
	<path
   style="clip-rule:evenodd;fill:url(#SVGID_39_);fill-rule:evenodd"
   d="m 27.64,15.38 c -0.054,0.346 -0.761,0.667 -2.12,0.959 -1.44,0.32 -3.094,0.48 -4.959,0.48 -1.84,0 -3.48,-0.16 -4.92,-0.48 -1.386,-0.293 -2.106,-0.613 -2.16,-0.959 v -2.84 h 14.16 v 2.84 z"
   id="path481"
   inkscape:connector-curvature="0" />
	
		<linearGradient
   id="SVGID_40_"
   gradientUnits="userSpaceOnUse"
   x1="-32.158199"
   y1="-15.1992"
   x2="-16.139999"
   y2="-15.1992"
   gradientTransform="matrix(-0.7978,0.0587,-0.0587,-0.7978,7.124618e-4,1.9003)">
		<stop
   offset="0"
   style="stop-color:#3B5BFF"
   id="stop483" />
		<stop
   offset="0.8157"
   style="stop-color:#3B52FF"
   id="stop485" />
		<stop
   offset="1"
   style="stop-color:#3B4FFF"
   id="stop487" />
	</linearGradient>
	<path
   style="clip-rule:evenodd;fill:url(#SVGID_40_);fill-rule:evenodd"
   d="m 27.64,12.58 c 0,0.374 -0.693,0.693 -2.08,0.96 -1.36,0.267 -3.026,0.4 -5,0.4 -1.974,0 -3.641,-0.133 -5,-0.4 -1.387,-0.267 -2.08,-0.586 -2.08,-0.96 0,-0.373 0.693,-0.693 2.08,-0.96 1.386,-0.266 3.053,-0.4 5,-0.4 1.947,0 3.613,0.134 5,0.4 1.386,0.266 2.08,0.587 2.08,0.96 z"
   id="path490"
   inkscape:connector-curvature="0" />
	
		<use
   xlink:href="#flash0.ai_x5F_4_x2F_Layer_18_x2F__x3C_Path_x3E__x5F_2"
   width="9.5220003"
   height="1.229"
   x="-0.022"
   y="-1.179"
   transform="matrix(0.8,0,0,-0.8,23.0541,186.95043)"
   style="overflow:visible;opacity:0.48050005;enable-background:new"
   id="use492" />
	<path
   style="clip-rule:evenodd;fill:#f9e2c9;fill-rule:evenodd"
   d="m 14.52,40.299 c 0.561,0.32 0.894,0.641 1,0.961 0.107,0.266 0.041,0.399 -0.2,0.399 -0.4,0 -0.907,-0.294 -1.52,-0.88 -0.293,-0.293 -0.32,-0.493 -0.08,-0.601 0.24,-0.105 0.507,-0.066 0.8,0.121 z"
   id="path494"
   inkscape:connector-curvature="0" />
	<path
   style="clip-rule:evenodd;fill:#f9e2c9;fill-rule:evenodd"
   d="m 17,41.819 c -0.187,0.214 -0.346,0.267 -0.48,0.159 -0.133,-0.105 -0.213,-0.239 -0.24,-0.399 -0.026,-0.187 0.106,-0.24 0.4,-0.159 0.373,0.079 0.48,0.213 0.32,0.399 z"
   id="path496"
   inkscape:connector-curvature="0" />
</g>
</svg>