<?xml version="1.0" encoding="UTF-8" standalone="no"?>
<!-- Generator: Adobe Illustrator 15.1.0, SVG Export Plug-In . SVG Version: 6.00 Build 0)  -->

<svg
   xmlns:dc="http://purl.org/dc/elements/1.1/"
   xmlns:cc="http://creativecommons.org/ns#"
   xmlns:rdf="http://www.w3.org/1999/02/22-rdf-syntax-ns#"
   xmlns:svg="http://www.w3.org/2000/svg"
   xmlns="http://www.w3.org/2000/svg"
   xmlns:sodipodi="http://sodipodi.sourceforge.net/DTD/sodipodi-0.dtd"
   xmlns:inkscape="http://www.inkscape.org/namespaces/inkscape"
   version="1.1"
   id="flash0.ai"
   x="0px"
   y="0px"
   width="256"
   height="256"
   viewBox="0 0 255.99999 256.00001"
   xml:space="preserve"
   sodipodi:docname="pinch_of_salt.svg"
   inkscape:version="0.92.4 (5da689c313, 2019-01-14)"
   inkscape:export-xdpi="9"
   inkscape:export-ydpi="9"><title
   id="title1162">Salt</title><metadata
   id="metadata355"><rdf:RDF><cc:Work
       rdf:about=""><dc:format>image/svg+xml</dc:format><dc:type
         rdf:resource="http://purl.org/dc/dcmitype/StillImage" /><dc:title>Salt</dc:title><cc:license
         rdf:resource="http://creativecommons.org/publicdomain/zero/1.0/" /><dc:creator><cc:Agent><dc:title>Glitch</dc:title></cc:Agent></dc:creator><dc:source>https://opengameart.org/node/20149</dc:source></cc:Work><cc:License
       rdf:about="http://creativecommons.org/publicdomain/zero/1.0/"><cc:permits
         rdf:resource="http://creativecommons.org/ns#Reproduction" /><cc:permits
         rdf:resource="http://creativecommons.org/ns#Distribution" /><cc:permits
         rdf:resource="http://creativecommons.org/ns#DerivativeWorks" /></cc:License></rdf:RDF></metadata><defs
   id="defs353" /><sodipodi:namedview
   pagecolor="#ffffff"
   bordercolor="#666666"
   borderopacity="1"
   objecttolerance="10"
   gridtolerance="10"
   guidetolerance="10"
   inkscape:pageopacity="0"
   inkscape:pageshadow="2"
   inkscape:window-width="1920"
   inkscape:window-height="1025"
   id="namedview351"
   showgrid="false"
   inkscape:zoom="1.6879511"
   inkscape:cx="47.318679"
   inkscape:cy="18.874055"
   inkscape:window-x="-8"
   inkscape:window-y="-8"
   inkscape:window-maximized="1"
   inkscape:current-layer="flash0.ai"
   fit-margin-top="0"
   fit-margin-left="0"
   fit-margin-right="0"
   fit-margin-bottom="0" />
<g
   id="g348"
   transform="matrix(2.8526186,0,0,2.8526186,-0.85120282,84.844428)">
	
		<linearGradient
   id="SVGID_1_"
   gradientUnits="userSpaceOnUse"
   x1="28.090799"
   y1="42.919899"
   x2="48.241402"
   y2="42.919899"
   gradientTransform="matrix(0.7436,-0.5069,0.5069,0.7436,0.3001,0.4501)">
		<stop
   offset="0"
   style="stop-color:#FFFFFF"
   id="stop2" />
		<stop
   offset="1"
   style="stop-color:#B6DAF0"
   id="stop4" />
	</linearGradient>
	<path
   style="clip-rule:evenodd;fill:url(#SVGID_1_);fill-rule:evenodd"
   d="m 44.714,24.3 c -10.53,0 -19.02,-1.125 -25.47,-3.375 -3.24,-1.14 -5.43,-2.279 -6.57,-3.42 1.89,-0.27 4.275,-1.319 7.155,-3.149 5.28,-3.36 8.34,-5.265 9.18,-5.715 5.01,-2.73 9.33,-5.46 12.959,-8.19 l 3.419,2.205 c 3.391,2.07 7.921,4.515 13.591,7.335 5.939,2.97 10.949,5.7 15.03,8.19 -1.261,1.02 -3.421,2.039 -6.48,3.059 -6.118,2.039 -13.723,3.06 -22.814,3.06 z"
   id="path7"
   inkscape:connector-curvature="0" />
	
		<linearGradient
   id="SVGID_2_"
   gradientUnits="userSpaceOnUse"
   x1="-0.57520002"
   y1="24.1094"
   x2="0.63129997"
   y2="24.1094"
   gradientTransform="matrix(0.746,-0.5035,0.5035,0.746,0.2994,0.4501)">
		<stop
   offset="0"
   style="stop-color:#D6E6FF"
   id="stop9" />
		<stop
   offset="1"
   style="stop-color:#94BDD4"
   id="stop11" />
	</linearGradient>
	<path
   style="clip-rule:evenodd;fill:url(#SVGID_2_);fill-rule:evenodd"
   d="m 12.99,17.505 c 1.08,1.229 0.99,1.935 -0.27,2.115 -1.38,0.18 -2.16,-0.045 -2.34,-0.675 -0.15,-0.45 0.15,-0.9 0.9,-1.351 0.78,-0.479 1.35,-0.509 1.71,-0.089 z"
   id="path14"
   inkscape:connector-curvature="0" />
	
		<linearGradient
   id="SVGID_3_"
   gradientUnits="userSpaceOnUse"
   x1="-5.1855001"
   y1="22.806601"
   x2="-3.9791"
   y2="22.806601"
   gradientTransform="matrix(0.746,-0.5035,0.5035,0.746,0.2994,0.4501)">
		<stop
   offset="0"
   style="stop-color:#D6E6FF"
   id="stop16" />
		<stop
   offset="1"
   style="stop-color:#94BDD4"
   id="stop18" />
	</linearGradient>
	<path
   style="clip-rule:evenodd;fill:url(#SVGID_3_);fill-rule:evenodd"
   d="M 8.31,19.125 C 9.96,19.726 10.2,20.22 9.03,20.61 7.77,21.029 6.9,21.014 6.42,20.564 6.09,20.235 6.211,19.859 6.78,19.439 7.35,19.051 7.86,18.945 8.31,19.125 Z"
   id="path21"
   inkscape:connector-curvature="0" />
	
		<linearGradient
   id="SVGID_4_"
   gradientUnits="userSpaceOnUse"
   x1="-12.229"
   y1="19.2432"
   x2="-11.6187"
   y2="19.2432"
   gradientTransform="matrix(0.7373,-0.5161,0.5161,0.7373,0.2994,0.4502)">
		<stop
   offset="0"
   style="stop-color:#D6E6FF"
   id="stop23" />
		<stop
   offset="1"
   style="stop-color:#94BDD4"
   id="stop25" />
	</linearGradient>
	<path
   style="clip-rule:evenodd;fill:url(#SVGID_4_);fill-rule:evenodd"
   d="m 1.02,20.564 c 0.3,0.15 0.706,0.331 1.215,0.541 0.24,0.119 -0.015,0.18 -0.765,0.18 -0.81,0 -1.2,-0.165 -1.17,-0.495 0.03,-0.39 0.27,-0.465 0.72,-0.226 z"
   id="path28"
   inkscape:connector-curvature="0" />
	
		<linearGradient
   id="SVGID_5_"
   gradientUnits="userSpaceOnUse"
   x1="-0.9497"
   y1="27.966801"
   x2="-0.048300002"
   y2="27.966801"
   gradientTransform="matrix(0.7488,-0.4992,0.4992,0.7488,0.2999,0.4501)">
		<stop
   offset="0"
   style="stop-color:#D6E6FF"
   id="stop30" />
		<stop
   offset="1"
   style="stop-color:#94BDD4"
   id="stop32" />
	</linearGradient>
	<path
   style="clip-rule:evenodd;fill:url(#SVGID_5_);fill-rule:evenodd"
   d="m 13.89,21.15 c 1.08,0.39 1.365,0.72 0.855,0.989 -0.48,0.271 -1.11,0.33 -1.89,0.181 -0.63,-0.12 -0.735,-0.391 -0.315,-0.81 0.42,-0.42 0.87,-0.54 1.35,-0.36 z"
   id="path35"
   inkscape:connector-curvature="0" />
	
		<linearGradient
   id="SVGID_6_"
   gradientUnits="userSpaceOnUse"
   x1="3.3383999"
   y1="28.119101"
   x2="3.7890999"
   y2="28.119101"
   gradientTransform="matrix(0.7488,-0.4992,0.4992,0.7488,0.2999,0.4501)">
		<stop
   offset="0"
   style="stop-color:#D6E6FF"
   id="stop37" />
		<stop
   offset="1"
   style="stop-color:#94BDD4"
   id="stop39" />
	</linearGradient>
	<path
   style="clip-rule:evenodd;fill:url(#SVGID_6_);fill-rule:evenodd"
   d="m 16.95,19.53 c 0.6,0.09 0.765,0.255 0.495,0.495 -0.299,0.239 -0.615,0.27 -0.945,0.089 -0.3,-0.149 -0.405,-0.284 -0.315,-0.404 0.09,-0.149 0.345,-0.21 0.765,-0.18 z"
   id="path42"
   inkscape:connector-curvature="0" />
	
		<linearGradient
   id="SVGID_7_"
   gradientUnits="userSpaceOnUse"
   x1="4.105"
   y1="30.6045"
   x2="4.4654999"
   y2="30.6045"
   gradientTransform="matrix(0.7488,-0.4992,0.4992,0.7488,0.2994,0.4501)">
		<stop
   offset="0"
   style="stop-color:#D6E6FF"
   id="stop44" />
		<stop
   offset="1"
   style="stop-color:#94BDD4"
   id="stop46" />
	</linearGradient>
	<path
   style="clip-rule:evenodd;fill:url(#SVGID_7_);fill-rule:evenodd"
   d="m 18.75,21.105 c 0.69,0.18 0.555,0.3 -0.405,0.359 -0.18,-0.03 -0.21,-0.104 -0.09,-0.226 0.12,-0.118 0.285,-0.163 0.495,-0.133 z"
   id="path49"
   inkscape:connector-curvature="0" />
	
		<linearGradient
   id="SVGID_8_"
   gradientUnits="userSpaceOnUse"
   x1="9.3368998"
   y1="38.108398"
   x2="11.3687"
   y2="38.108398"
   gradientTransform="matrix(0.742,-0.5094,0.5094,0.742,0.2991,0.4495)">
		<stop
   offset="0"
   style="stop-color:#D6E6FF"
   id="stop51" />
		<stop
   offset="1"
   style="stop-color:#94BDD4"
   id="stop53" />
	</linearGradient>
	<path
   style="clip-rule:evenodd;fill:url(#SVGID_8_);fill-rule:evenodd"
   d="m 28.245,22.86 c 0.87,0.119 1.29,0.495 1.26,1.125 -0.03,0.33 -0.075,0.72 -0.135,1.17 0.21,0.18 0,0.314 -0.63,0.405 -0.57,0.09 -1.11,0.09 -1.62,0 -0.36,-0.061 -0.615,-0.226 -0.765,-0.496 -0.15,-0.3 -0.285,-0.479 -0.405,-0.539 -0.63,-0.121 -1.41,-0.405 -2.34,-0.855 -0.629,-0.3 -0.645,-0.585 -0.044,-0.855 0.6,-0.239 1.125,-0.27 1.575,-0.09 0.18,0.061 0.495,0.075 0.945,0.045 0.629,-0.03 1.349,0 2.159,0.09 z"
   id="path56"
   inkscape:connector-curvature="0" />
	
		<linearGradient
   id="SVGID_9_"
   gradientUnits="userSpaceOnUse"
   x1="6.2319002"
   y1="36.890598"
   x2="7.1125998"
   y2="36.890598"
   gradientTransform="matrix(0.7409,-0.511,0.511,0.7409,0.3,0.45)">
		<stop
   offset="0"
   style="stop-color:#D6E6FF"
   id="stop58" />
		<stop
   offset="1"
   style="stop-color:#94BDD4"
   id="stop60" />
	</linearGradient>
	<path
   style="clip-rule:evenodd;fill:url(#SVGID_9_);fill-rule:evenodd"
   d="m 24.375,24.21 c 0.63,0.149 0.885,0.315 0.765,0.495 -0.12,0.149 -0.42,0.255 -0.9,0.314 -0.45,0.061 -0.765,0.076 -0.945,0.045 -0.24,-0.029 -0.48,-0.149 -0.72,-0.359 -0.24,-0.24 -0.09,-0.405 0.45,-0.495 0.51,-0.09 0.96,-0.09 1.35,0 z"
   id="path63"
   inkscape:connector-curvature="0" />
	
		<linearGradient
   id="SVGID_10_"
   gradientUnits="userSpaceOnUse"
   x1="2.8101001"
   y1="23.5996"
   x2="3.7460999"
   y2="23.5996"
   gradientTransform="matrix(0.7451,-0.5048,0.5048,0.7451,0.3,0.45)">
		<stop
   offset="0"
   style="stop-color:#D6E6FF"
   id="stop65" />
		<stop
   offset="1"
   style="stop-color:#94BDD4"
   id="stop67" />
	</linearGradient>
	<path
   style="clip-rule:evenodd;fill:url(#SVGID_10_);fill-rule:evenodd"
   d="m 15.645,16.695 c -0.63,0.3 -1.17,0.42 -1.62,0.36 -0.81,-0.061 -1.125,-0.15 -0.945,-0.271 0.12,-0.239 0.255,-0.435 0.405,-0.585 0.3,-0.27 0.705,-0.346 1.215,-0.226 0.779,0.182 1.095,0.423 0.945,0.722 z"
   id="path70"
   inkscape:connector-curvature="0" />
	
		<linearGradient
   id="SVGID_11_"
   gradientUnits="userSpaceOnUse"
   x1="-2.6558001"
   y1="23.2549"
   x2="-2.1703"
   y2="23.2549"
   gradientTransform="matrix(0.7416,-0.5099,0.5099,0.7416,0.2997,0.4501)">
		<stop
   offset="0"
   style="stop-color:#D6E6FF"
   id="stop72" />
		<stop
   offset="1"
   style="stop-color:#94BDD4"
   id="stop74" />
	</linearGradient>
	<path
   style="clip-rule:evenodd;fill:url(#SVGID_11_);fill-rule:evenodd"
   d="m 10.83,19.306 c -0.12,0.18 -0.36,0.255 -0.72,0.225 -0.24,-0.03 -0.405,-0.136 -0.495,-0.315 -0.09,-0.149 -0.09,-0.3 0,-0.45 0.09,-0.21 0.39,-0.27 0.9,-0.18 0.21,0.029 0.315,0.269 0.315,0.72 z"
   id="path77"
   inkscape:connector-curvature="0" />
	
		<linearGradient
   id="SVGID_12_"
   gradientUnits="userSpaceOnUse"
   x1="-6.7012"
   y1="23.0049"
   x2="-5.9246001"
   y2="23.0049"
   gradientTransform="matrix(0.7533,-0.4925,0.4925,0.7533,0.2996,0.4499)">
		<stop
   offset="0"
   style="stop-color:#D6E6FF"
   id="stop79" />
		<stop
   offset="1"
   style="stop-color:#94BDD4"
   id="stop81" />
	</linearGradient>
	<path
   style="clip-rule:evenodd;fill:url(#SVGID_12_);fill-rule:evenodd"
   d="m 7.77,21.061 c -0.3,0.329 -0.735,0.495 -1.305,0.495 -0.36,0 -0.645,-0.061 -0.855,-0.181 L 5.43,21.15 c 0.089,-0.09 0.194,-0.195 0.314,-0.315 0.24,-0.21 0.465,-0.3 0.675,-0.271 0.721,0.061 1.171,0.226 1.351,0.497 z"
   id="path84"
   inkscape:connector-curvature="0" />
	
		<linearGradient
   id="SVGID_13_"
   gradientUnits="userSpaceOnUse"
   x1="-9.9658003"
   y1="20.7969"
   x2="-9.5705004"
   y2="20.7969"
   gradientTransform="matrix(0.74,-0.5123,0.5123,0.74,0.2999,0.4499)">
		<stop
   offset="0"
   style="stop-color:#D6E6FF"
   id="stop86" />
		<stop
   offset="1"
   style="stop-color:#94BDD4"
   id="stop88" />
	</linearGradient>
	<path
   style="clip-rule:evenodd;fill:url(#SVGID_13_);fill-rule:evenodd"
   d="m 3.9,20.7 c 0.39,0 0.39,0.12 0,0.36 C 3.51,21.27 3.255,21.3 3.135,21.15 3.015,21.029 3.06,20.924 3.27,20.835 3.42,20.745 3.63,20.7 3.9,20.7 Z"
   id="path91"
   inkscape:connector-curvature="0" />
	
		<linearGradient
   id="SVGID_14_"
   gradientUnits="userSpaceOnUse"
   x1="-4.3822999"
   y1="26.591801"
   x2="-3.6612"
   y2="26.591801"
   gradientTransform="matrix(0.7488,-0.4992,0.4992,0.7488,0.2994,0.4501)">
		<stop
   offset="0"
   style="stop-color:#D6E6FF"
   id="stop93" />
		<stop
   offset="1"
   style="stop-color:#94BDD4"
   id="stop95" />
	</linearGradient>
	<path
   style="clip-rule:evenodd;fill:url(#SVGID_14_);fill-rule:evenodd"
   d="m 10.605,22.186 c 0.48,0.06 0.72,0.164 0.72,0.314 0,0.12 -0.165,0.225 -0.495,0.314 -0.75,0.24 -1.245,0.24 -1.485,0 -0.15,-0.179 -0.075,-0.345 0.225,-0.494 0.3,-0.149 0.645,-0.195 1.035,-0.134 z"
   id="path98"
   inkscape:connector-curvature="0" />
	
		<linearGradient
   id="SVGID_15_"
   gradientUnits="userSpaceOnUse"
   x1="1.7495"
   y1="34.579102"
   x2="2.8104999"
   y2="34.579102"
   gradientTransform="matrix(0.7423,-0.509,0.509,0.7423,0.3001,0.4502)">
		<stop
   offset="0"
   style="stop-color:#D6E6FF"
   id="stop100" />
		<stop
   offset="1"
   style="stop-color:#94BDD4"
   id="stop102" />
	</linearGradient>
	<path
   style="clip-rule:evenodd;fill:url(#SVGID_15_);fill-rule:evenodd"
   d="m 19.83,24.614 c 0.959,0.121 1.23,0.421 0.81,0.9 -0.45,0.511 -1.17,0.585 -2.16,0.225 -0.96,-0.329 -1.17,-0.629 -0.63,-0.899 0.51,-0.24 1.17,-0.315 1.98,-0.226 z"
   id="path105"
   inkscape:connector-curvature="0" />
	
		<linearGradient
   id="SVGID_16_"
   gradientUnits="userSpaceOnUse"
   x1="19.710899"
   y1="46.8535"
   x2="22.8591"
   y2="46.8535"
   gradientTransform="matrix(0.7433,-0.5074,0.5074,0.7433,0.3003,0.4501)">
		<stop
   offset="0"
   style="stop-color:#D6E6FF"
   id="stop107" />
		<stop
   offset="1"
   style="stop-color:#94BDD4"
   id="stop109" />
	</linearGradient>
	<path
   style="clip-rule:evenodd;fill:url(#SVGID_16_);fill-rule:evenodd"
   d="m 37.469,26.46 c -1.05,0 -1.92,-0.165 -2.61,-0.495 -0.57,-0.27 -0.81,-0.54 -0.72,-0.81 0.15,-0.42 0.345,-0.766 0.585,-1.035 0.3,-0.33 0.78,-0.69 1.44,-1.08 0.69,-0.39 1.575,-0.495 2.655,-0.315 0.9,0.15 1.74,0.45 2.52,0.9 0.63,0.36 1.23,0.796 1.8,1.306 0.511,0.449 0.766,0.72 0.766,0.809 0,0.091 -0.781,0.226 -2.341,0.405 -1.649,0.209 -3.015,0.315 -4.095,0.315 z"
   id="path112"
   inkscape:connector-curvature="0" />
	
		<linearGradient
   id="SVGID_17_"
   gradientUnits="userSpaceOnUse"
   x1="23.518999"
   y1="51.283199"
   x2="25.911301"
   y2="51.283199"
   gradientTransform="matrix(0.743,-0.5079,0.5079,0.743,0.2998,0.4506)">
		<stop
   offset="0"
   style="stop-color:#D6E6FF"
   id="stop114" />
		<stop
   offset="1"
   style="stop-color:#94BDD4"
   id="stop116" />
	</linearGradient>
	<path
   style="clip-rule:evenodd;fill:url(#SVGID_17_);fill-rule:evenodd"
   d="m 45.524,25.11 c 0.27,0.149 0.9,0.6 1.89,1.35 -0.21,0.6 -0.915,1.02 -2.114,1.26 -0.84,0.15 -1.696,0.181 -2.565,0.091 -0.78,-0.091 -1.411,-0.24 -1.891,-0.45 -0.36,-0.18 -0.314,-0.511 0.135,-0.99 0.21,-0.271 0.555,-0.631 1.035,-1.08 0.24,-0.3 0.706,-0.495 1.396,-0.585 0.779,-0.092 1.485,0.044 2.114,0.404 z"
   id="path119"
   inkscape:connector-curvature="0" />
	
		<linearGradient
   id="SVGID_18_"
   gradientUnits="userSpaceOnUse"
   x1="15.0327"
   y1="47.414101"
   x2="16.7246"
   y2="47.414101"
   gradientTransform="matrix(0.7447,-0.5053,0.5053,0.7447,0.3003,0.4497)">
		<stop
   offset="0"
   style="stop-color:#D6E6FF"
   id="stop121" />
		<stop
   offset="1"
   style="stop-color:#94BDD4"
   id="stop123" />
	</linearGradient>
	<path
   style="clip-rule:evenodd;fill:url(#SVGID_18_);fill-rule:evenodd"
   d="m 37.694,27.585 c 0.39,0.45 0.45,0.78 0.18,0.99 -0.21,0.21 -0.87,0.27 -1.98,0.18 -0.93,-0.06 -1.725,-0.165 -2.385,-0.315 -0.42,-0.09 -0.6,-0.225 -0.54,-0.404 0.03,-0.12 0.271,-0.36 0.72,-0.721 0.6,-0.51 1.47,-0.675 2.61,-0.494 0.511,0.059 0.976,0.315 1.395,0.764 z"
   id="path126"
   inkscape:connector-curvature="0" />
	
		<linearGradient
   id="SVGID_19_"
   gradientUnits="userSpaceOnUse"
   x1="12.0205"
   y1="46.704102"
   x2="13.0815"
   y2="46.704102"
   gradientTransform="matrix(0.7423,-0.509,0.509,0.7423,0.3001,0.4502)">
		<stop
   offset="0"
   style="stop-color:#D6E6FF"
   id="stop128" />
		<stop
   offset="1"
   style="stop-color:#94BDD4"
   id="stop130" />
	</linearGradient>
	<path
   style="clip-rule:evenodd;fill:url(#SVGID_19_);fill-rule:evenodd"
   d="m 34.41,28.8 c 0.21,0.181 0.195,0.33 -0.045,0.45 -0.601,0.3 -1.44,0.314 -2.521,0.045 -0.45,-0.119 -0.51,-0.314 -0.18,-0.585 l 0.99,-0.675 c 0.3,-0.15 0.63,-0.15 0.99,0 0.361,0.15 0.616,0.404 0.766,0.765 z"
   id="path133"
   inkscape:connector-curvature="0" />
	
		<linearGradient
   id="SVGID_20_"
   gradientUnits="userSpaceOnUse"
   x1="39.891102"
   y1="59.882801"
   x2="42.789501"
   y2="59.882801"
   gradientTransform="matrix(0.7452,-0.5046,0.5046,0.7452,0.2993,0.4498)">
		<stop
   offset="0"
   style="stop-color:#D6E6FF"
   id="stop135" />
		<stop
   offset="1"
   style="stop-color:#94BDD4"
   id="stop137" />
	</linearGradient>
	<path
   style="clip-rule:evenodd;fill:url(#SVGID_20_);fill-rule:evenodd"
   d="m 60.285,22.14 c 0.779,0.091 1.335,0.315 1.664,0.675 0.391,0.45 0.96,0.811 1.711,1.08 0.299,0.121 0.629,0.436 0.989,0.945 0.329,0.48 0.42,0.78 0.27,0.899 -0.21,0.121 -0.734,0.286 -1.575,0.496 -0.899,0.21 -1.664,0.33 -2.294,0.359 -0.931,0.091 -1.605,0.136 -2.025,0.136 -0.75,0.06 -1.306,0.015 -1.665,-0.136 -0.39,-0.18 -0.659,-0.465 -0.81,-0.855 -0.121,-0.359 -0.09,-0.689 0.089,-0.989 0.15,-0.24 0.331,-0.66 0.541,-1.261 0.27,-0.539 0.63,-0.914 1.08,-1.125 0.569,-0.239 1.244,-0.314 2.025,-0.224 z"
   id="path140"
   inkscape:connector-curvature="0" />
	
		<linearGradient
   id="SVGID_21_"
   gradientUnits="userSpaceOnUse"
   x1="34.908699"
   y1="60.1875"
   x2="36.8503"
   y2="60.1875"
   gradientTransform="matrix(0.7416,-0.5099,0.5099,0.7416,0.2997,0.4501)">
		<stop
   offset="0"
   style="stop-color:#D6E6FF"
   id="stop142" />
		<stop
   offset="1"
   style="stop-color:#94BDD4"
   id="stop144" />
	</linearGradient>
	<path
   style="clip-rule:evenodd;fill:url(#SVGID_21_);fill-rule:evenodd"
   d="m 53.939,27.181 c -0.09,-0.181 0.045,-0.36 0.405,-0.541 0.51,-0.27 0.87,-0.524 1.08,-0.765 0.27,-0.329 0.615,-0.495 1.035,-0.495 0.119,0 0.524,0.075 1.215,0.226 0.6,0.119 1.185,0.479 1.755,1.08 0.569,0.6 0.66,0.975 0.27,1.125 -0.66,0.3 -1.065,0.479 -1.215,0.539 -0.54,0.15 -1.14,0.226 -1.8,0.226 -0.689,0 -1.305,-0.165 -1.846,-0.495 -0.449,-0.27 -0.748,-0.571 -0.899,-0.9 z"
   id="path147"
   inkscape:connector-curvature="0" />
	
		<linearGradient
   id="SVGID_22_"
   gradientUnits="userSpaceOnUse"
   x1="29.503901"
   y1="59.443401"
   x2="30.509501"
   y2="59.443401"
   gradientTransform="matrix(0.7384,-0.5146,0.5146,0.7384,0.3006,0.4503)">
		<stop
   offset="0"
   style="stop-color:#D6E6FF"
   id="stop149" />
		<stop
   offset="1"
   style="stop-color:#94BDD4"
   id="stop151" />
	</linearGradient>
	<path
   style="clip-rule:evenodd;fill:url(#SVGID_22_);fill-rule:evenodd"
   d="m 53.399,28.439 c 0.84,0.36 1.005,0.706 0.495,1.035 -0.48,0.271 -1.05,0.376 -1.71,0.315 -0.45,-0.03 -0.721,-0.149 -0.811,-0.36 -0.06,-0.18 -0.029,-0.359 0.09,-0.54 0.061,-0.149 0.315,-0.285 0.766,-0.404 0.481,-0.15 0.871,-0.165 1.17,-0.046 z"
   id="path154"
   inkscape:connector-curvature="0" />
	
		<linearGradient
   id="SVGID_23_"
   gradientUnits="userSpaceOnUse"
   x1="33.806198"
   y1="55.375"
   x2="35.047401"
   y2="55.375"
   gradientTransform="matrix(0.7432,-0.5076,0.5076,0.7432,0.2998,0.4499)">
		<stop
   offset="0"
   style="stop-color:#D6E6FF"
   id="stop156" />
		<stop
   offset="1"
   style="stop-color:#94BDD4"
   id="stop158" />
	</linearGradient>
	<path
   style="clip-rule:evenodd;fill:url(#SVGID_23_);fill-rule:evenodd"
   d="m 55.064,23.895 c 0.449,0.811 -0.359,1.216 -2.43,1.216 -0.87,0 -0.931,-0.375 -0.18,-1.125 0.329,-0.33 0.779,-0.525 1.35,-0.585 0.631,-0.061 1.05,0.104 1.26,0.494 z"
   id="path161"
   inkscape:connector-curvature="0" />
	
		<linearGradient
   id="SVGID_24_"
   gradientUnits="userSpaceOnUse"
   x1="49.909199"
   y1="61.830101"
   x2="52.0518"
   y2="61.830101"
   gradientTransform="matrix(0.7456,-0.5041,0.5041,0.7456,0.2995,0.4501)">
		<stop
   offset="0"
   style="stop-color:#D6E6FF"
   id="stop163" />
		<stop
   offset="1"
   style="stop-color:#94BDD4"
   id="stop165" />
	</linearGradient>
	<path
   style="clip-rule:evenodd;fill:url(#SVGID_24_);fill-rule:evenodd"
   d="m 71.714,21.015 c -0.24,0.391 -0.6,0.751 -1.079,1.08 -0.99,0.69 -2.086,0.96 -3.285,0.811 -1.229,-0.181 -1.561,-0.66 -0.99,-1.44 0.21,-0.3 0.931,-0.96 2.16,-1.979 0.57,-0.45 1.064,-0.511 1.485,-0.18 0.269,0.238 0.84,0.807 1.709,1.708 z"
   id="path168"
   inkscape:connector-curvature="0" />
	
		<linearGradient
   id="SVGID_25_"
   gradientUnits="userSpaceOnUse"
   x1="52.320301"
   y1="64.650398"
   x2="53.866699"
   y2="64.650398"
   gradientTransform="matrix(0.7421,-0.5093,0.5093,0.7421,0.3002,0.4502)">
		<stop
   offset="0"
   style="stop-color:#D6E6FF"
   id="stop170" />
		<stop
   offset="1"
   style="stop-color:#94BDD4"
   id="stop172" />
	</linearGradient>
	<path
   style="clip-rule:evenodd;fill:url(#SVGID_25_);fill-rule:evenodd"
   d="m 74.1,21.239 c -0.061,0.301 -0.21,0.601 -0.45,0.9 -0.48,0.63 -1.14,0.961 -1.98,0.99 -0.87,0.03 -1.305,-0.18 -1.305,-0.63 -0.03,-0.18 0.105,-0.615 0.405,-1.305 0.15,-0.391 0.525,-0.54 1.125,-0.45 0.209,0.001 0.944,0.166 2.205,0.495 z"
   id="path175"
   inkscape:connector-curvature="0" />
	
		<linearGradient
   id="SVGID_26_"
   gradientUnits="userSpaceOnUse"
   x1="57.816399"
   y1="69.988297"
   x2="59.688599"
   y2="69.988297"
   gradientTransform="matrix(0.7451,-0.5048,0.5048,0.7451,0.3,0.45)">
		<stop
   offset="0"
   style="stop-color:#D6E6FF"
   id="stop177" />
		<stop
   offset="1"
   style="stop-color:#94BDD4"
   id="stop179" />
	</linearGradient>
	<path
   style="clip-rule:evenodd;fill:url(#SVGID_26_);fill-rule:evenodd"
   d="m 80.354,21.96 c 0.21,0.12 0.435,0.33 0.675,0.63 0.33,0.42 0.45,0.766 0.359,1.035 -0.149,0.42 -1.619,0.51 -4.409,0.27 -0.78,-0.06 -1.051,-0.194 -0.811,-0.405 0.51,-0.449 0.766,-0.689 0.766,-0.72 0.119,-0.359 0.51,-0.66 1.17,-0.899 0.78,-0.271 1.531,-0.241 2.25,0.089 z"
   id="path182"
   inkscape:connector-curvature="0" />
	
		<linearGradient
   id="SVGID_27_"
   gradientUnits="userSpaceOnUse"
   x1="57.889599"
   y1="62.210899"
   x2="58.791"
   y2="62.210899"
   gradientTransform="matrix(0.7488,-0.4992,0.4992,0.7488,0.2999,0.4501)">
		<stop
   offset="0"
   style="stop-color:#D6E6FF"
   id="stop184" />
		<stop
   offset="1"
   style="stop-color:#94BDD4"
   id="stop186" />
	</linearGradient>
	<path
   style="clip-rule:evenodd;fill:url(#SVGID_27_);fill-rule:evenodd"
   d="M 73.694,18.136 72.749,17.19 73.02,16.876 c 0.27,-0.15 0.645,-0.136 1.125,0.045 0.479,0.18 0.87,0.42 1.169,0.72 0.421,0.45 0.66,0.69 0.721,0.721 0.3,0.21 0.51,0.404 0.63,0.585 0.091,0.18 0.075,0.27 -0.045,0.27 -0.149,0 -0.6,-0.135 -1.35,-0.404 -0.781,-0.273 -1.306,-0.499 -1.576,-0.677 z"
   id="path189"
   inkscape:connector-curvature="0" />
	
		<linearGradient
   id="SVGID_28_"
   gradientUnits="userSpaceOnUse"
   x1="56.930698"
   y1="65.113297"
   x2="58.872299"
   y2="65.113297"
   gradientTransform="matrix(0.7416,-0.5099,0.5099,0.7416,0.2997,0.4501)">
		<stop
   offset="0"
   style="stop-color:#D6E6FF"
   id="stop191" />
		<stop
   offset="1"
   style="stop-color:#94BDD4"
   id="stop193" />
	</linearGradient>
	<path
   style="clip-rule:evenodd;fill:url(#SVGID_28_);fill-rule:evenodd"
   d="m 74.188,20.25 c -0.809,-0.21 -1.259,-0.36 -1.35,-0.45 -0.06,-0.06 0.046,-0.18 0.315,-0.36 0.149,-0.06 0.3,-0.134 0.45,-0.225 0.359,-0.45 0.779,-0.779 1.26,-0.99 0.54,-0.239 1.035,-0.255 1.485,-0.044 0.36,0.149 0.854,0.465 1.485,0.944 0.539,0.42 0.854,0.63 0.944,0.63 -1.23,0.51 -2.13,0.765 -2.7,0.765 -0.418,0 -1.048,-0.089 -1.889,-0.27 z"
   id="path196"
   inkscape:connector-curvature="0" />
	
		<linearGradient
   id="SVGID_29_"
   gradientUnits="userSpaceOnUse"
   x1="60.202099"
   y1="66.966797"
   x2="61.554199"
   y2="66.966797"
   gradientTransform="matrix(0.7488,-0.4992,0.4992,0.7488,0.3001,0.4501)">
		<stop
   offset="0"
   style="stop-color:#D6E6FF"
   id="stop198" />
		<stop
   offset="1"
   style="stop-color:#94BDD4"
   id="stop200" />
	</linearGradient>
	<path
   style="clip-rule:evenodd;fill:url(#SVGID_29_);fill-rule:evenodd"
   d="m 79.813,19.439 c 0.961,0.66 1.291,1.11 0.991,1.351 -0.271,0.18 -1.351,0.21 -3.241,0.09 -0.569,-0.029 -0.765,-0.165 -0.584,-0.405 0.09,-0.149 0.27,-0.345 0.54,-0.585 0.18,-0.21 0.465,-0.39 0.854,-0.54 0.541,-0.21 1.022,-0.18 1.44,0.089 z"
   id="path203"
   inkscape:connector-curvature="0" />
	
		<linearGradient
   id="SVGID_30_"
   gradientUnits="userSpaceOnUse"
   x1="64.038101"
   y1="66.9795"
   x2="65.244598"
   y2="66.9795"
   gradientTransform="matrix(0.746,-0.5035,0.5035,0.746,0.2994,0.4501)">
		<stop
   offset="0"
   style="stop-color:#D6E6FF"
   id="stop205" />
		<stop
   offset="1"
   style="stop-color:#94BDD4"
   id="stop207" />
	</linearGradient>
	<path
   style="clip-rule:evenodd;fill:url(#SVGID_30_);fill-rule:evenodd"
   d="m 79.994,18.181 c 0.12,-0.121 0.346,-0.376 0.675,-0.766 0.36,-0.3 0.751,-0.39 1.17,-0.271 0.66,0.181 1.306,0.586 1.936,1.216 -0.841,0.33 -1.561,0.479 -2.16,0.45 -0.39,-0.031 -0.78,-0.15 -1.17,-0.36 z"
   id="path210"
   inkscape:connector-curvature="0" />
	
		<linearGradient
   id="SVGID_31_"
   gradientUnits="userSpaceOnUse"
   x1="67.406303"
   y1="69.195297"
   x2="68.182899"
   y2="69.195297"
   gradientTransform="matrix(0.7533,-0.4925,0.4925,0.7533,0.2996,0.4499)">
		<stop
   offset="0"
   style="stop-color:#D6E6FF"
   id="stop212" />
		<stop
   offset="1"
   style="stop-color:#94BDD4"
   id="stop214" />
	</linearGradient>
	<path
   style="clip-rule:evenodd;fill:url(#SVGID_31_);fill-rule:evenodd"
   d="m 85.395,18.811 c 0.689,0.119 0.975,0.345 0.854,0.675 -0.09,0.3 -0.39,0.465 -0.899,0.495 -0.421,0.029 -0.72,-0.016 -0.9,-0.136 -0.15,-0.149 -0.285,-0.284 -0.405,-0.405 -0.18,-0.179 -0.074,-0.345 0.315,-0.494 0.359,-0.15 0.704,-0.196 1.035,-0.135 z"
   id="path217"
   inkscape:connector-curvature="0" />
	
		<linearGradient
   id="SVGID_32_"
   gradientUnits="userSpaceOnUse"
   x1="63.251999"
   y1="73.584"
   x2="64.042503"
   y2="73.584"
   gradientTransform="matrix(0.74,-0.5123,0.5123,0.74,0.2999,0.4499)">
		<stop
   offset="0"
   style="stop-color:#D6E6FF"
   id="stop219" />
		<stop
   offset="1"
   style="stop-color:#94BDD4"
   id="stop221" />
	</linearGradient>
	<path
   style="clip-rule:evenodd;fill:url(#SVGID_32_);fill-rule:evenodd"
   d="m 84.899,21.645 c 1.439,0.751 1.604,1.11 0.495,1.08 -0.66,-0.029 -1.17,-0.089 -1.53,-0.18 l -0.359,-0.135 0.539,-0.405 c 0.391,-0.27 0.675,-0.39 0.855,-0.36 z"
   id="path224"
   inkscape:connector-curvature="0" />
	
		<linearGradient
   id="SVGID_33_"
   gradientUnits="userSpaceOnUse"
   x1="67.963898"
   y1="74.567398"
   x2="68.754402"
   y2="74.567398"
   gradientTransform="matrix(0.74,-0.5123,0.5123,0.74,0.2999,0.4499)">
		<stop
   offset="0"
   style="stop-color:#D6E6FF"
   id="stop226" />
		<stop
   offset="1"
   style="stop-color:#94BDD4"
   id="stop228" />
	</linearGradient>
	<path
   style="clip-rule:evenodd;fill:url(#SVGID_33_);fill-rule:evenodd"
   d="m 88.994,19.98 c 0.33,0.09 0.615,0.284 0.855,0.584 0.239,0.271 0.255,0.405 0.044,0.405 -0.689,0.15 -1.335,0.181 -1.934,0.091 -0.421,-0.031 -0.421,-0.24 0,-0.63 0.42,-0.36 0.766,-0.509 1.035,-0.45 z"
   id="path231"
   inkscape:connector-curvature="0" />
	
		<linearGradient
   id="SVGID_34_"
   gradientUnits="userSpaceOnUse"
   x1="59.993198"
   y1="62.691399"
   x2="60.658798"
   y2="62.691399"
   gradientTransform="matrix(0.7436,-0.507,0.507,0.7436,0.3002,0.4501)">
		<stop
   offset="0"
   style="stop-color:#D6E6FF"
   id="stop233" />
		<stop
   offset="1"
   style="stop-color:#94BDD4"
   id="stop235" />
	</linearGradient>
	<path
   style="clip-rule:evenodd;fill:url(#SVGID_34_);fill-rule:evenodd"
   d="m 76.889,15.975 c 0.271,0.09 0.496,0.24 0.675,0.45 0.211,0.271 0.226,0.45 0.046,0.54 -0.33,0.18 -0.945,0.091 -1.846,-0.27 -0.27,-0.09 -0.194,-0.255 0.226,-0.495 0.389,-0.21 0.689,-0.285 0.899,-0.225 z"
   id="path238"
   inkscape:connector-curvature="0" />
	
		<linearGradient
   id="SVGID_35_"
   gradientUnits="userSpaceOnUse"
   x1="46.5117"
   y1="66.125"
   x2="49.514301"
   y2="66.125"
   gradientTransform="matrix(0.7419,-0.5096,0.5096,0.7419,0.3005,0.4501)">
		<stop
   offset="0"
   style="stop-color:#D6E6FF"
   id="stop240" />
		<stop
   offset="1"
   style="stop-color:#94BDD4"
   id="stop242" />
	</linearGradient>
	<path
   style="clip-rule:evenodd;fill:url(#SVGID_35_);fill-rule:evenodd"
   d="m 71.624,23.806 c 1.351,1.439 1.785,2.294 1.306,2.564 -0.45,0.21 -1.275,0.435 -2.476,0.675 -1.35,0.27 -2.399,0.391 -3.149,0.36 -0.69,-0.03 -1.38,-0.225 -2.07,-0.585 l -0.854,-0.54 1.08,-1.755 c 0.21,-0.3 0.66,-0.69 1.35,-1.17 0.779,-0.541 1.41,-0.855 1.89,-0.945 0.45,-0.061 0.96,0.09 1.53,0.45 0.298,0.18 0.763,0.495 1.393,0.946 z"
   id="path245"
   inkscape:connector-curvature="0" />
	
		<linearGradient
   id="SVGID_36_"
   gradientUnits="userSpaceOnUse"
   x1="52.868198"
   y1="70.753899"
   x2="53.9291"
   y2="70.753899"
   gradientTransform="matrix(0.7423,-0.509,0.509,0.7423,0.3001,0.4502)">
		<stop
   offset="0"
   style="stop-color:#D6E6FF"
   id="stop247" />
		<stop
   offset="1"
   style="stop-color:#94BDD4"
   id="stop249" />
	</linearGradient>
	<path
   style="clip-rule:evenodd;fill:url(#SVGID_36_);fill-rule:evenodd"
   d="m 75.899,25.335 c 0.96,0.211 1.35,0.48 1.17,0.81 -0.181,0.24 -0.569,0.405 -1.17,0.495 -0.811,0.091 -1.395,-0.03 -1.755,-0.359 -0.181,-0.15 -0.061,-0.375 0.36,-0.675 0.45,-0.301 0.915,-0.391 1.395,-0.271 z"
   id="path252"
   inkscape:connector-curvature="0" />
	<path
   style="clip-rule:evenodd;fill:#89b3cf;fill-rule:evenodd"
   d="m 61.859,15.075 c 0.48,0.57 0.72,0.944 0.72,1.125 0,0.12 -0.06,0.3 -0.18,0.539 -0.06,0.36 -0.465,0.556 -1.215,0.586 -0.75,0.029 -1.2,-0.285 -1.35,-0.945 -0.181,-0.959 -0.105,-1.65 0.225,-2.069 0.36,-0.511 0.961,-0.256 1.8,0.764 z"
   id="path254"
   inkscape:connector-curvature="0" />
	<path
   style="clip-rule:evenodd;fill:#89b3cf;fill-rule:evenodd"
   d="m 66.81,15.525 c 1.2,0.66 1.529,1.319 0.99,1.979 -0.271,0.33 -0.735,0.315 -1.396,-0.045 -0.63,-0.39 -0.96,-0.81 -0.99,-1.26 -0.06,-0.51 0,-0.825 0.18,-0.945 0.211,-0.15 0.615,-0.059 1.216,0.271 z"
   id="path256"
   inkscape:connector-curvature="0" />
	<path
   style="clip-rule:evenodd;fill:#89b3cf;fill-rule:evenodd"
   d="m 69.6,16.83 c 0.45,0.391 0.675,0.6 0.675,0.63 0.09,0.09 0.045,0.226 -0.136,0.404 -0.179,0.181 -0.374,0.24 -0.584,0.181 -0.15,-0.03 -0.391,-0.165 -0.72,-0.405 -0.271,-0.21 -0.271,-0.45 0,-0.72 0.3,-0.27 0.555,-0.3 0.765,-0.09 z"
   id="path258"
   inkscape:connector-curvature="0" />
	<path
   style="clip-rule:evenodd;fill:#89b3cf;fill-rule:evenodd"
   d="m 56.864,10.305 c 0.39,0.27 0.615,0.6 0.675,0.99 0.031,0.42 -0.194,0.735 -0.675,0.945 -0.45,0.18 -0.795,0.06 -1.034,-0.36 -0.211,-0.57 -0.391,-1.005 -0.541,-1.305 -0.24,-0.42 -0.18,-0.66 0.181,-0.72 0.389,-0.09 0.854,0.06 1.394,0.45 z"
   id="path260"
   inkscape:connector-curvature="0" />
	<path
   style="clip-rule:evenodd;fill:#89b3cf;fill-rule:evenodd"
   d="m 60.374,11.34 c 0.9,0.72 1.155,1.29 0.765,1.71 -0.359,0.42 -0.944,0.12 -1.754,-0.9 -0.33,-0.39 -0.346,-0.705 -0.046,-0.945 0.301,-0.21 0.645,-0.165 1.035,0.135 z"
   id="path262"
   inkscape:connector-curvature="0" />
	<path
   style="clip-rule:evenodd;fill:#89b3cf;fill-rule:evenodd"
   d="m 63.524,16.875 c 0.45,0.45 0.734,0.885 0.855,1.306 0.089,0.479 -0.121,0.749 -0.631,0.809 -0.51,0.062 -0.854,-0.119 -1.035,-0.539 -0.179,-0.391 -0.179,-0.765 0,-1.125 0.241,-0.541 0.512,-0.691 0.811,-0.451 z"
   id="path264"
   inkscape:connector-curvature="0" />
	<path
   style="clip-rule:evenodd;fill:#89b3cf;fill-rule:evenodd"
   d="m 49.664,5.94 c 0.391,0.299 0.601,0.629 0.63,0.99 0.03,0.42 -0.21,0.72 -0.72,0.9 C 49.064,7.98 48.644,7.77 48.314,7.2 48.043,6.72 47.91,6.195 47.91,5.625 c 0,-0.72 0.584,-0.615 1.754,0.315 z"
   id="path266"
   inkscape:connector-curvature="0" />
	<path
   style="clip-rule:evenodd;fill:#89b3cf;fill-rule:evenodd"
   d="m 46.964,5.04 c 0.21,0.24 0.301,0.495 0.271,0.765 -0.03,0.21 -0.149,0.36 -0.36,0.45 -0.18,0.06 -0.39,-0.03 -0.63,-0.271 -0.24,-0.27 -0.359,-0.54 -0.359,-0.81 0,-0.27 0.119,-0.42 0.359,-0.45 0.269,-0.059 0.509,0.046 0.719,0.316 z"
   id="path268"
   inkscape:connector-curvature="0" />
	<path
   style="clip-rule:evenodd;fill:#89b3cf;fill-rule:evenodd"
   d="m 55.514,13.95 c 0.421,0.779 0.511,1.409 0.271,1.89 -0.181,0.42 -0.57,0.689 -1.171,0.811 -0.45,0.089 -0.705,-0.15 -0.765,-0.72 -0.03,-0.181 0,-0.735 0.09,-1.666 0.03,-0.479 0.239,-0.75 0.63,-0.81 0.391,-0.09 0.705,0.075 0.945,0.495 z"
   id="path270"
   inkscape:connector-curvature="0" />
	<path
   style="clip-rule:evenodd;fill:#89b3cf;fill-rule:evenodd"
   d="m 57.675,16.064 c 0.3,0.331 0.449,0.66 0.449,0.991 0,0.149 -0.044,0.344 -0.135,0.584 -0.06,0.21 -0.271,0.256 -0.63,0.136 -0.39,-0.121 -0.689,-0.421 -0.899,-0.9 -0.21,-0.45 -0.091,-0.75 0.359,-0.9 0.42,-0.15 0.705,-0.121 0.856,0.089 z"
   id="path272"
   inkscape:connector-curvature="0" />
	<path
   style="clip-rule:evenodd;fill:#89b3cf;fill-rule:evenodd"
   d="m 55.199,19.575 c 0.36,0.42 0.601,0.915 0.72,1.485 0.15,0.689 0.016,1.094 -0.405,1.215 -0.479,0.15 -0.839,0.135 -1.079,-0.045 -0.239,-0.181 -0.511,-0.586 -0.811,-1.216 -0.27,-0.6 -0.18,-1.094 0.271,-1.484 0.479,-0.39 0.915,-0.375 1.304,0.045 z"
   id="path274"
   inkscape:connector-curvature="0" />
	<path
   style="clip-rule:evenodd;fill:#89b3cf;fill-rule:evenodd"
   d="m 49.889,19.439 c 0.181,-0.06 0.45,0.121 0.811,0.541 0.33,0.42 0.48,0.765 0.45,1.034 -0.09,0.511 -0.615,0.69 -1.575,0.541 -0.42,-0.091 -0.57,-0.45 -0.45,-1.081 0.12,-0.629 0.375,-0.974 0.764,-1.035 z"
   id="path276"
   inkscape:connector-curvature="0" />
	<path
   style="clip-rule:evenodd;fill:#89b3cf;fill-rule:evenodd"
   d="m 62.85,19.89 c 0.329,0.301 0.524,0.63 0.585,0.99 0.06,0.359 -0.091,0.631 -0.45,0.81 -0.54,0.271 -1.035,-0.074 -1.485,-1.034 -0.18,-0.36 -0.089,-0.66 0.271,-0.9 0.329,-0.24 0.688,-0.195 1.079,0.134 z"
   id="path278"
   inkscape:connector-curvature="0" />
	<path
   style="clip-rule:evenodd;fill:#89b3cf;fill-rule:evenodd"
   d="m 64.289,13.455 c 0.15,0.93 -0.075,1.5 -0.675,1.71 -0.359,0.12 -0.6,0 -0.72,-0.36 -0.09,-0.51 -0.21,-0.885 -0.359,-1.125 -0.15,-0.33 0.015,-0.495 0.494,-0.495 0.36,0.03 0.781,0.12 1.26,0.27 z"
   id="path280"
   inkscape:connector-curvature="0" />
	<path
   style="clip-rule:evenodd;fill:#ffffff;fill-rule:evenodd"
   d="m 36.84,5.265 c 0.6,-0.24 0.93,-0.18 0.99,0.18 0.06,0.21 0,0.601 -0.18,1.17 C 37.53,7.035 37.23,7.32 36.75,7.47 36.24,7.65 35.67,7.56 35.04,7.2 34.05,6.69 34.649,6.045 36.84,5.265 Z"
   id="path282"
   inkscape:connector-curvature="0" />
	<path
   style="clip-rule:evenodd;fill:#ffffff;fill-rule:evenodd"
   d="m 34.365,8.19 c 0.39,0 0.6,0.18 0.63,0.54 0.06,0.36 -0.06,0.629 -0.36,0.81 -0.51,0.36 -0.9,0.24 -1.169,-0.36 -0.331,-0.66 -0.031,-0.99 0.899,-0.99 z"
   id="path284"
   inkscape:connector-curvature="0" />
	<path
   style="clip-rule:evenodd;fill:#ffffff;fill-rule:evenodd"
   d="m 43.725,5.265 c 0.27,0.66 0,1.185 -0.811,1.575 -0.3,0.15 -0.465,0.045 -0.495,-0.315 -0.03,-0.24 -0.015,-0.51 0.045,-0.81 0.031,-0.21 0.21,-0.405 0.541,-0.585 0.359,-0.18 0.599,-0.135 0.72,0.135 z"
   id="path286"
   inkscape:connector-curvature="0" />
	<path
   style="clip-rule:evenodd;fill:#ffffff;fill-rule:evenodd"
   d="m 40.35,7.74 0.855,-0.27 c 0.09,0 0.135,0.135 0.135,0.405 0,0.63 -0.285,0.885 -0.855,0.765 C 40.245,8.61 40.11,8.46 40.08,8.19 40.049,7.95 40.14,7.8 40.35,7.74 Z"
   id="path288"
   inkscape:connector-curvature="0" />
	<path
   style="clip-rule:evenodd;fill:#ffffff;fill-rule:evenodd"
   d="m 27.885,10.53 c 0.63,-0.18 1.02,-0.12 1.17,0.18 0.15,0.271 0.09,0.63 -0.18,1.08 -0.39,0.69 -1.215,0.81 -2.475,0.36 -0.479,-0.149 -0.435,-0.45 0.135,-0.9 0.54,-0.42 0.989,-0.66 1.35,-0.72 z"
   id="path290"
   inkscape:connector-curvature="0" />
	<path
   style="clip-rule:evenodd;fill:#ffffff;fill-rule:evenodd"
   d="m 31.125,10.08 c 0.72,-0.3 1.035,-0.18 0.945,0.36 -0.089,0.54 -0.36,0.945 -0.81,1.215 -0.629,0.39 -1.125,0.33 -1.485,-0.18 -0.12,-0.15 -0.06,-0.36 0.18,-0.63 0.27,-0.3 0.659,-0.555 1.17,-0.765 z"
   id="path292"
   inkscape:connector-curvature="0" />
	<path
   style="clip-rule:evenodd;fill:#ffffff;fill-rule:evenodd"
   d="m 22.26,14.715 c 0.42,-0.06 0.675,0.135 0.765,0.585 0.09,0.48 -0.105,0.915 -0.584,1.306 -0.48,0.359 -0.915,0.51 -1.305,0.45 -0.21,-0.03 -0.6,-0.211 -1.17,-0.541 -0.42,-0.27 -0.33,-0.614 0.27,-1.034 0.599,-0.451 1.274,-0.706 2.024,-0.766 z"
   id="path294"
   inkscape:connector-curvature="0" />
	<path
   style="clip-rule:evenodd;fill:#ffffff;fill-rule:evenodd"
   d="m 24.6,14.175 c 0.45,-0.121 0.735,-0.03 0.855,0.27 0.12,0.301 -0.045,0.616 -0.495,0.945 -0.39,0.301 -0.675,0.436 -0.854,0.405 -0.21,-0.09 -0.391,-0.149 -0.54,-0.181 -0.24,-0.06 -0.24,-0.27 0,-0.629 0.239,-0.42 0.583,-0.69 1.034,-0.81 z"
   id="path296"
   inkscape:connector-curvature="0" />
	<path
   style="clip-rule:evenodd;fill:#ffffff;fill-rule:evenodd"
   d="m 33.915,14.265 c 0.72,-0.03 1.095,0.166 1.125,0.585 0.06,0.39 -0.165,0.9 -0.675,1.53 -0.39,0.48 -0.705,0.66 -0.945,0.54 -0.24,-0.27 -0.51,-0.45 -0.81,-0.54 -0.42,-0.15 -0.465,-0.54 -0.135,-1.17 0.33,-0.6 0.81,-0.915 1.44,-0.945 z"
   id="path298"
   inkscape:connector-curvature="0" />
	<path
   style="clip-rule:evenodd;fill:#ffffff;fill-rule:evenodd"
   d="m 39.09,14.85 c 0.27,-0.03 0.54,0.09 0.81,0.36 0.21,0.271 0.285,0.51 0.225,0.721 -0.12,0.299 -0.675,0.374 -1.665,0.225 -0.42,-0.091 -0.555,-0.315 -0.405,-0.675 0.15,-0.361 0.494,-0.571 1.035,-0.631 z"
   id="path300"
   inkscape:connector-curvature="0" />
	<path
   style="clip-rule:evenodd;fill:#ffffff;fill-rule:evenodd"
   d="m 38.685,16.875 c 0.36,0.09 0.585,0.225 0.675,0.405 0.06,0.18 -0.015,0.345 -0.225,0.495 -0.299,0.27 -0.69,0.194 -1.169,-0.226 -0.21,-0.18 -0.225,-0.345 -0.045,-0.494 0.208,-0.18 0.464,-0.24 0.764,-0.18 z"
   id="path302"
   inkscape:connector-curvature="0" />
	<path
   style="clip-rule:evenodd;fill:#ffffff;fill-rule:evenodd"
   d="m 31.35,19.306 c 1.05,-0.391 1.605,-0.136 1.665,0.765 0.03,0.84 -0.225,1.409 -0.765,1.71 -0.36,0.21 -0.69,0.21 -0.99,0 -0.18,-0.15 -0.404,-0.436 -0.675,-0.855 -0.18,-0.3 -0.18,-0.615 0,-0.944 0.15,-0.333 0.405,-0.557 0.765,-0.676 z"
   id="path304"
   inkscape:connector-curvature="0" />
	<path
   style="clip-rule:evenodd;fill:#ffffff;fill-rule:evenodd"
   d="m 24.6,17.73 c 0.6,-0.331 1.05,-0.436 1.35,-0.315 0.24,0.09 0.345,0.271 0.315,0.54 -0.12,0.51 -0.57,0.855 -1.35,1.034 -0.479,0.091 -0.735,-0.06 -0.765,-0.449 -10e-4,-0.39 0.149,-0.66 0.45,-0.81 z"
   id="path306"
   inkscape:connector-curvature="0" />
	<path
   style="clip-rule:evenodd;fill:#ffffff;fill-rule:evenodd"
   d="m 42.96,20.475 c 0.81,-0.029 1.14,0.15 0.99,0.54 -0.121,0.24 -0.391,0.511 -0.811,0.811 -0.21,0.18 -0.389,0.225 -0.54,0.135 -0.15,-0.12 -0.27,-0.21 -0.36,-0.271 C 42.06,21.6 42.045,21.39 42.194,21.061 42.345,20.7 42.6,20.505 42.96,20.475 Z"
   id="path308"
   inkscape:connector-curvature="0" />
	<path
   style="clip-rule:evenodd;fill:#ffffff;fill-rule:evenodd"
   d="m 37.109,23.04 c 0.54,0.061 0.825,0.375 0.855,0.945 0.03,0.569 -0.255,1.005 -0.855,1.305 -0.48,0.239 -0.78,0.285 -0.9,0.135 -0.12,-0.3 -0.27,-0.57 -0.45,-0.811 -0.24,-0.299 -0.149,-0.659 0.271,-1.079 0.36,-0.389 0.72,-0.556 1.079,-0.495 z"
   id="path310"
   inkscape:connector-curvature="0" />
	<path
   style="clip-rule:evenodd;fill:#ffffff;fill-rule:evenodd"
   d="m 42.689,25.29 c 0.18,0.09 0.331,0.271 0.45,0.54 0.15,0.3 0.15,0.569 0,0.81 -0.179,0.24 -0.33,0.301 -0.45,0.181 -0.24,-0.211 -0.495,-0.421 -0.765,-0.631 -0.36,-0.3 -0.39,-0.555 -0.089,-0.765 0.269,-0.239 0.555,-0.284 0.854,-0.135 z"
   id="path312"
   inkscape:connector-curvature="0" />
	<path
   style="clip-rule:evenodd;fill:#ffffff;fill-rule:evenodd"
   d="m 58.664,22.725 c 0.751,-0.089 1.11,0.195 1.08,0.855 0,0.51 -0.195,1.005 -0.584,1.484 -0.211,0.301 -0.526,0.315 -0.946,0.046 -0.329,-0.24 -0.584,-0.511 -0.765,-0.811 -0.15,-0.239 -0.135,-0.524 0.045,-0.854 0.21,-0.39 0.601,-0.631 1.17,-0.72 z"
   id="path314"
   inkscape:connector-curvature="0" />
	<path
   style="clip-rule:evenodd;fill:#ffffff;fill-rule:evenodd"
   d="m 7.5,19.53 c 0.36,0.24 0.45,0.435 0.27,0.584 -0.18,0.181 -0.419,0.181 -0.72,0 C 6.78,19.965 6.75,19.8 6.96,19.62 7.17,19.471 7.35,19.439 7.5,19.53 Z"
   id="path316"
   inkscape:connector-curvature="0" />
	<path
   style="clip-rule:evenodd;fill:#ffffff;fill-rule:evenodd"
   d="m 11.64,17.73 c 0.39,-0.121 0.51,0.074 0.36,0.584 -0.149,0.481 -0.45,0.675 -0.9,0.586 -0.45,-0.061 -0.555,-0.255 -0.315,-0.586 0.21,-0.269 0.495,-0.464 0.855,-0.584 z"
   id="path318"
   inkscape:connector-curvature="0" />
	<path
   style="clip-rule:evenodd;fill:#ffffff;fill-rule:evenodd"
   d="m 13.44,21.465 c 0.24,0 0.315,0.091 0.225,0.271 -0.12,0.18 -0.345,0.27 -0.675,0.27 -0.36,0 -0.435,-0.09 -0.225,-0.27 0.21,-0.18 0.435,-0.271 0.675,-0.271 z"
   id="path320"
   inkscape:connector-curvature="0" />
	<path
   style="clip-rule:evenodd;fill:#ffffff;fill-rule:evenodd"
   d="m 24.06,22.95 c 0.24,0.06 0.36,0.18 0.36,0.36 0.03,0.179 -0.135,0.27 -0.495,0.27 -0.33,0 -0.435,-0.105 -0.315,-0.315 0.119,-0.241 0.27,-0.345 0.45,-0.315 z"
   id="path322"
   inkscape:connector-curvature="0" />
	<path
   style="clip-rule:evenodd;fill:#ffffff;fill-rule:evenodd"
   d="m 26.984,23.265 c 0.36,0.061 0.601,0.225 0.72,0.496 0.15,0.27 0.09,0.51 -0.18,0.72 -0.24,0.149 -0.465,0.149 -0.675,0 -0.27,-0.24 -0.525,-0.465 -0.765,-0.675 -0.48,-0.451 -0.179,-0.631 0.9,-0.541 z"
   id="path324"
   inkscape:connector-curvature="0" />
	<path
   style="clip-rule:evenodd;fill:#ffffff;fill-rule:evenodd"
   d="m 56.1,26.325 c 0.27,0 0.435,0.195 0.495,0.585 0.06,0.33 0.044,0.569 -0.045,0.72 -0.09,0.12 -0.3,0.166 -0.631,0.135 -0.39,-0.06 -0.81,-0.24 -1.259,-0.54 -0.421,-0.27 -0.421,-0.494 0,-0.675 0.36,-0.151 0.839,-0.225 1.44,-0.225 z"
   id="path326"
   inkscape:connector-curvature="0" />
	<path
   style="clip-rule:evenodd;fill:#ffffff;fill-rule:evenodd"
   d="m 66.539,24.255 c 0.33,-0.12 0.675,0.045 1.035,0.495 0.36,0.391 0.51,0.765 0.45,1.125 -0.03,0.3 -0.346,0.495 -0.945,0.585 -0.54,0.061 -1.02,0.016 -1.44,-0.135 -0.389,-0.12 -0.465,-0.45 -0.225,-0.99 0.24,-0.57 0.615,-0.931 1.125,-1.08 z"
   id="path328"
   inkscape:connector-curvature="0" />
	<path
   style="clip-rule:evenodd;fill:#ffffff;fill-rule:evenodd"
   d="m 67.889,20.7 c 0.511,0 0.66,0.255 0.45,0.765 -0.09,0.271 -0.345,0.435 -0.765,0.495 -0.39,0.03 -0.645,-0.03 -0.765,-0.18 -0.12,-0.15 -0.046,-0.375 0.226,-0.675 0.27,-0.27 0.554,-0.405 0.854,-0.405 z"
   id="path330"
   inkscape:connector-curvature="0" />
	<path
   style="clip-rule:evenodd;fill:#ffffff;fill-rule:evenodd"
   d="m 71.175,21.239 c 0.21,-0.06 0.404,-0.015 0.585,0.136 0.149,0.15 0.225,0.33 0.225,0.54 0,0.42 -0.39,0.6 -1.17,0.54 -0.33,-0.029 -0.42,-0.225 -0.271,-0.585 0.121,-0.33 0.331,-0.54 0.631,-0.631 z"
   id="path332"
   inkscape:connector-curvature="0" />
	<path
   style="clip-rule:evenodd;fill:#ffffff;fill-rule:evenodd"
   d="m 77.699,22.5 c 0.27,-0.03 0.465,0.075 0.585,0.314 0.12,0.24 0.105,0.42 -0.045,0.541 -0.12,0.09 -0.359,0.119 -0.72,0.09 L 77.024,23.4 c -0.03,-0.121 -0.015,-0.255 0.045,-0.405 0.09,-0.3 0.301,-0.465 0.63,-0.495 z"
   id="path334"
   inkscape:connector-curvature="0" />
	<path
   style="clip-rule:evenodd;fill:#ffffff;fill-rule:evenodd"
   d="m 78.239,19.8 c 0.239,-0.029 0.39,0.045 0.449,0.226 0.062,0.15 0,0.3 -0.179,0.449 -0.181,0.211 -0.525,0.24 -1.035,0.09 -0.21,-0.06 -0.195,-0.194 0.045,-0.404 0.24,-0.181 0.48,-0.302 0.72,-0.361 z"
   id="path336"
   inkscape:connector-curvature="0" />
	<path
   style="clip-rule:evenodd;fill:#ffffff;fill-rule:evenodd"
   d="m 74.549,18.675 c 0.271,-0.18 0.48,-0.029 0.631,0.45 0.149,0.45 0.134,0.75 -0.045,0.9 -0.12,0.12 -0.271,0.104 -0.45,-0.045 -0.24,-0.21 -0.405,-0.36 -0.496,-0.45 -0.299,-0.21 -0.179,-0.495 0.36,-0.855 z"
   id="path338"
   inkscape:connector-curvature="0" />
	<path
   style="clip-rule:evenodd;fill:#ffffff;fill-rule:evenodd"
   d="m 74.188,17.325 c 0.211,0.479 0.195,0.705 -0.044,0.675 -0.271,-0.06 -0.48,-0.225 -0.631,-0.495 -0.09,-0.21 -0.015,-0.315 0.226,-0.315 0.21,-0.03 0.361,0.015 0.449,0.135 z"
   id="path340"
   inkscape:connector-curvature="0" />
	<path
   style="clip-rule:evenodd;fill:#ffffff;fill-rule:evenodd"
   d="m 81.164,17.415 c 0.271,0.15 0.42,0.3 0.45,0.449 0.03,0.091 0,0.24 -0.09,0.45 -0.06,0.15 -0.15,0.21 -0.27,0.181 -0.211,-0.09 -0.391,-0.181 -0.541,-0.271 -0.21,-0.12 -0.24,-0.314 -0.09,-0.585 0.151,-0.269 0.331,-0.344 0.541,-0.224 z"
   id="path342"
   inkscape:connector-curvature="0" />
	<path
   style="clip-rule:evenodd;fill:#ffffff;fill-rule:evenodd"
   d="m 34.59,26.955 c 0.42,0 0.66,0.03 0.72,0.09 0.06,0.03 0.12,0.165 0.18,0.405 0.12,0.27 0.15,0.42 0.09,0.45 -0.12,0.06 -0.525,0.015 -1.215,-0.136 -0.66,-0.149 -0.87,-0.329 -0.63,-0.54 0.24,-0.179 0.525,-0.269 0.855,-0.269 z"
   id="path344"
   inkscape:connector-curvature="0" />
	<path
   style="clip-rule:evenodd;fill:#ffffff;fill-rule:evenodd"
   d="m 32.834,28.306 c 0.36,0.029 0.405,0.134 0.135,0.314 -0.24,0.21 -0.524,0.255 -0.854,0.135 -0.33,-0.12 -0.36,-0.239 -0.09,-0.36 0.24,-0.12 0.51,-0.15 0.809,-0.089 z"
   id="path346"
   inkscape:connector-curvature="0" />
</g>
</svg>