<?xml version="1.0" encoding="UTF-8" standalone="no"?>
<!-- Generator: Adobe Illustrator 15.1.0, SVG Export Plug-In . SVG Version: 6.00 Build 0)  -->

<svg
   xmlns:dc="http://purl.org/dc/elements/1.1/"
   xmlns:cc="http://creativecommons.org/ns#"
   xmlns:rdf="http://www.w3.org/1999/02/22-rdf-syntax-ns#"
   xmlns:svg="http://www.w3.org/2000/svg"
   xmlns="http://www.w3.org/2000/svg"
   xmlns:xlink="http://www.w3.org/1999/xlink"
   xmlns:sodipodi="http://sodipodi.sourceforge.net/DTD/sodipodi-0.dtd"
   xmlns:inkscape="http://www.inkscape.org/namespaces/inkscape"
   version="1.1"
   id="flash0.ai"
   x="0px"
   y="0px"
   width="256.00037"
   height="252.7"
   viewBox="0 0 256.00038 252.69999"
   xml:space="preserve"
   sodipodi:docname="spinach.svg"
   inkscape:version="0.92.4 (5da689c313, 2019-01-14)"
   inkscape:export-xdpi="10.5"
   inkscape:export-ydpi="10.5"><title
   id="title1656">Spinach</title><metadata
   id="metadata849"><rdf:RDF><cc:Work
       rdf:about=""><dc:format>image/svg+xml</dc:format><dc:type
         rdf:resource="http://purl.org/dc/dcmitype/StillImage" /><dc:title>Spinach</dc:title><cc:license
         rdf:resource="http://creativecommons.org/publicdomain/zero/1.0/" /><dc:creator><cc:Agent><dc:title>Glitch</dc:title></cc:Agent></dc:creator><dc:source>https://opengameart.org/node/20149</dc:source></cc:Work><cc:License
       rdf:about="http://creativecommons.org/publicdomain/zero/1.0/"><cc:permits
         rdf:resource="http://creativecommons.org/ns#Reproduction" /><cc:permits
         rdf:resource="http://creativecommons.org/ns#Distribution" /><cc:permits
         rdf:resource="http://creativecommons.org/ns#DerivativeWorks" /></cc:License></rdf:RDF></metadata><defs
   id="defs847" /><sodipodi:namedview
   pagecolor="#ffffff"
   bordercolor="#666666"
   borderopacity="1"
   objecttolerance="10"
   gridtolerance="10"
   guidetolerance="10"
   inkscape:pageopacity="0"
   inkscape:pageshadow="2"
   inkscape:window-width="1920"
   inkscape:window-height="1025"
   id="namedview845"
   showgrid="false"
   inkscape:zoom="0.70757232"
   inkscape:cx="-276.27949"
   inkscape:cy="74.033935"
   inkscape:window-x="-8"
   inkscape:window-y="-8"
   inkscape:window-maximized="1"
   inkscape:current-layer="flash0.ai"
   fit-margin-top="0"
   fit-margin-left="0"
   fit-margin-right="0"
   fit-margin-bottom="0" />
<symbol
   id="flash0.ai_x5F_8_x2F_Layer_2_x2F__x3C_Path_x3E__x5F_24"
   viewBox="-0.004 -29.138 23.993 29.138"
   transform="translate(106.2424,104.86671)">
	<g
   id="Layer_1_2_">
		<path
   style="clip-rule:evenodd;fill:#255700;fill-rule:evenodd"
   d="m 23.05,-24.45 c 0.434,-0.8 0.7,-1.433 0.8,-1.9 0.167,-0.867 0.183,-1.733 0.05,-2.6 -0.367,-0.267 -0.717,-0.25 -1.05,0.05 -0.833,0.667 -4.667,4.433 -11.5,11.3 C 3.883,-10.133 0.1,-6.033 0,-5.3 c -0.067,0.7 0.65,1.8 2.15,3.3 0.767,0.733 1.533,1.4 2.3,2 3.333,-0.633 5.233,-1.767 5.7,-3.4 0.133,-0.434 0.467,-0.533 1,-0.3 0.633,0.3 1.067,0.383 1.3,0.25 0.566,-0.3 1.083,-0.683 1.55,-1.15 l 0.15,-0.8 c -0.367,0.033 -0.833,-0.05 -1.4,-0.25 -0.433,-0.167 -0.817,-0.45 -1.15,-0.85 -0.333,-0.4 -0.383,-0.7 -0.15,-0.9 0.167,-0.167 0.367,-0.25 0.6,-0.25 0.267,-0.033 0.517,-0.117 0.75,-0.25 0.467,-0.267 1.034,-0.75 1.7,-1.45 -0.267,-0.033 -0.5,-0.133 -0.7,-0.3 -0.367,-0.3 -0.316,-0.8 0.15,-1.5 0.133,-0.2 0.667,-0.917 1.6,-2.15 0.567,-0.767 0.967,-1.383 1.2,-1.85 0.233,-0.434 0.567,-0.9 1,-1.4 0.633,-0.667 1.083,-1.184 1.35,-1.55 0.367,-0.467 0.983,-1.267 1.85,-2.4 0.733,-0.967 1.167,-1.7 1.3,-2.2 0.1,-0.367 0.367,-0.95 0.8,-1.75 z"
   id="path2"
   inkscape:connector-curvature="0" />
	</g>
</symbol>
<linearGradient
   id="SVGID_1_"
   gradientUnits="userSpaceOnUse"
   x1="23.0313"
   y1="9.9644003"
   x2="35.606602"
   y2="30.514099">
	<stop
   offset="0"
   style="stop-color:#1C4200"
   id="stop6" />
	<stop
   offset="0.4392"
   style="stop-color:#1E4400"
   id="stop8" />
	<stop
   offset="0.5961"
   style="stop-color:#244B01"
   id="stop10" />
	<stop
   offset="0.7059"
   style="stop-color:#305602"
   id="stop12" />
	<stop
   offset="0.7961"
   style="stop-color:#406704"
   id="stop14" />
	<stop
   offset="0.8745"
   style="stop-color:#557D06"
   id="stop16" />
	<stop
   offset="0.9451"
   style="stop-color:#6F9809"
   id="stop18" />
	<stop
   offset="1"
   style="stop-color:#8BB50C"
   id="stop20" />
</linearGradient>

<linearGradient
   id="SVGID_2_"
   gradientUnits="userSpaceOnUse"
   x1="15.7319"
   y1="7.3031998"
   x2="27.9545"
   y2="27.304701">
	<stop
   offset="0"
   style="stop-color:#255700"
   id="stop25" />
	<stop
   offset="0.4471"
   style="stop-color:#275900"
   id="stop27" />
	<stop
   offset="0.6078"
   style="stop-color:#2E5F01"
   id="stop29" />
	<stop
   offset="0.7255"
   style="stop-color:#396A02"
   id="stop31" />
	<stop
   offset="0.8157"
   style="stop-color:#4A7904"
   id="stop33" />
	<stop
   offset="0.898"
   style="stop-color:#608E07"
   id="stop35" />
	<stop
   offset="0.9647"
   style="stop-color:#7BA60A"
   id="stop37" />
	<stop
   offset="1"
   style="stop-color:#8BB50C"
   id="stop39" />
</linearGradient>

<linearGradient
   id="SVGID_3_"
   gradientUnits="userSpaceOnUse"
   x1="23.0767"
   y1="1.6245"
   x2="33.824501"
   y2="19.1759">
	<stop
   offset="0"
   style="stop-color:#255700"
   id="stop44" />
	<stop
   offset="0.4471"
   style="stop-color:#275900"
   id="stop46" />
	<stop
   offset="0.6078"
   style="stop-color:#2E5F01"
   id="stop48" />
	<stop
   offset="0.7255"
   style="stop-color:#396A02"
   id="stop50" />
	<stop
   offset="0.8157"
   style="stop-color:#4A7904"
   id="stop52" />
	<stop
   offset="0.898"
   style="stop-color:#608E07"
   id="stop54" />
	<stop
   offset="0.9647"
   style="stop-color:#7BA60A"
   id="stop56" />
	<stop
   offset="1"
   style="stop-color:#8BB50C"
   id="stop58" />
</linearGradient>

<linearGradient
   id="SVGID_4_"
   gradientUnits="userSpaceOnUse"
   x1="29.401899"
   y1="10.0786"
   x2="35.722698"
   y2="20.4062">
	<stop
   offset="0"
   style="stop-color:#255700"
   id="stop63" />
	<stop
   offset="0.4471"
   style="stop-color:#275900"
   id="stop65" />
	<stop
   offset="0.6078"
   style="stop-color:#2E5F01"
   id="stop67" />
	<stop
   offset="0.7255"
   style="stop-color:#396A02"
   id="stop69" />
	<stop
   offset="0.8157"
   style="stop-color:#4A7904"
   id="stop71" />
	<stop
   offset="0.898"
   style="stop-color:#608E07"
   id="stop73" />
	<stop
   offset="0.9647"
   style="stop-color:#7BA60A"
   id="stop75" />
	<stop
   offset="1"
   style="stop-color:#8BB50C"
   id="stop77" />
</linearGradient>

<linearGradient
   id="SVGID_5_"
   gradientUnits="userSpaceOnUse"
   x1="26.253401"
   y1="23.869101"
   x2="22.125799"
   y2="29.5672">
	<stop
   offset="0"
   style="stop-color:#255700"
   id="stop82" />
	<stop
   offset="0.4471"
   style="stop-color:#275900"
   id="stop84" />
	<stop
   offset="0.6078"
   style="stop-color:#2E5F01"
   id="stop86" />
	<stop
   offset="0.7255"
   style="stop-color:#396A02"
   id="stop88" />
	<stop
   offset="0.8157"
   style="stop-color:#4A7904"
   id="stop90" />
	<stop
   offset="0.898"
   style="stop-color:#608E07"
   id="stop92" />
	<stop
   offset="0.9647"
   style="stop-color:#7BA60A"
   id="stop94" />
	<stop
   offset="1"
   style="stop-color:#8BB50C"
   id="stop96" />
</linearGradient>

<linearGradient
   id="SVGID_6_"
   gradientUnits="userSpaceOnUse"
   x1="26.2456"
   y1="26.068399"
   x2="28.0923"
   y2="29.0704">
	<stop
   offset="0"
   style="stop-color:#255700"
   id="stop101" />
	<stop
   offset="0.4471"
   style="stop-color:#275900"
   id="stop103" />
	<stop
   offset="0.6078"
   style="stop-color:#2E5F01"
   id="stop105" />
	<stop
   offset="0.7255"
   style="stop-color:#396A02"
   id="stop107" />
	<stop
   offset="0.8157"
   style="stop-color:#4A7904"
   id="stop109" />
	<stop
   offset="0.898"
   style="stop-color:#608E07"
   id="stop111" />
	<stop
   offset="0.9647"
   style="stop-color:#7BA60A"
   id="stop113" />
	<stop
   offset="1"
   style="stop-color:#8BB50C"
   id="stop115" />
</linearGradient>

<linearGradient
   id="SVGID_7_"
   gradientUnits="userSpaceOnUse"
   x1="17.6304"
   y1="16.0669"
   x2="22.566799"
   y2="24.1402">
	<stop
   offset="0"
   style="stop-color:#255700"
   id="stop120" />
	<stop
   offset="0.4471"
   style="stop-color:#275900"
   id="stop122" />
	<stop
   offset="0.6078"
   style="stop-color:#2E5F01"
   id="stop124" />
	<stop
   offset="0.7255"
   style="stop-color:#396A02"
   id="stop126" />
	<stop
   offset="0.8157"
   style="stop-color:#4A7904"
   id="stop128" />
	<stop
   offset="0.898"
   style="stop-color:#608E07"
   id="stop130" />
	<stop
   offset="0.9647"
   style="stop-color:#7BA60A"
   id="stop132" />
	<stop
   offset="1"
   style="stop-color:#8BB50C"
   id="stop134" />
</linearGradient>

<linearGradient
   id="SVGID_8_"
   gradientUnits="userSpaceOnUse"
   x1="33.345699"
   y1="18.360399"
   x2="38.493801"
   y2="26.761499">
	<stop
   offset="0"
   style="stop-color:#255700"
   id="stop139" />
	<stop
   offset="0.4471"
   style="stop-color:#275900"
   id="stop141" />
	<stop
   offset="0.6078"
   style="stop-color:#2E5F01"
   id="stop143" />
	<stop
   offset="0.7255"
   style="stop-color:#396A02"
   id="stop145" />
	<stop
   offset="0.8157"
   style="stop-color:#4A7904"
   id="stop147" />
	<stop
   offset="0.898"
   style="stop-color:#608E07"
   id="stop149" />
	<stop
   offset="0.9647"
   style="stop-color:#7BA60A"
   id="stop151" />
	<stop
   offset="1"
   style="stop-color:#8BB50C"
   id="stop153" />
</linearGradient>

<linearGradient
   id="SVGID_9_"
   gradientUnits="userSpaceOnUse"
   x1="19.913099"
   y1="8.3809004"
   x2="30.760201"
   y2="32.232201">
	<stop
   offset="0"
   style="stop-color:#2F7000"
   id="stop158" />
	<stop
   offset="0.4588"
   style="stop-color:#317100"
   id="stop160" />
	<stop
   offset="0.6235"
   style="stop-color:#387601"
   id="stop162" />
	<stop
   offset="0.7412"
   style="stop-color:#437F03"
   id="stop164" />
	<stop
   offset="0.8353"
   style="stop-color:#548C05"
   id="stop166" />
	<stop
   offset="0.9176"
   style="stop-color:#6A9D08"
   id="stop168" />
	<stop
   offset="0.9882"
   style="stop-color:#85B00B"
   id="stop170" />
	<stop
   offset="1"
   style="stop-color:#8BB50C"
   id="stop172" />
</linearGradient>

<linearGradient
   id="SVGID_10_"
   gradientUnits="userSpaceOnUse"
   x1="23.464399"
   y1="10.9541"
   x2="36.662899"
   y2="32.526901">
	<stop
   offset="0.0118"
   style="stop-color:#376E00"
   id="stop177" />
	<stop
   offset="0.7333"
   style="stop-color:#396E00"
   id="stop179" />
	<stop
   offset="0.9922"
   style="stop-color:#407002"
   id="stop181" />
	<stop
   offset="1"
   style="stop-color:#407002"
   id="stop183" />
</linearGradient>

<linearGradient
   id="SVGID_11_"
   gradientUnits="userSpaceOnUse"
   x1="22.9746"
   y1="11.4819"
   x2="41.265999"
   y2="41.375702">
	<stop
   offset="0"
   style="stop-color:#8BB50C"
   id="stop188" />
	<stop
   offset="0.5137"
   style="stop-color:#89B30C"
   id="stop190" />
	<stop
   offset="0.702"
   style="stop-color:#82AD0B"
   id="stop192" />
	<stop
   offset="0.8314"
   style="stop-color:#77A309"
   id="stop194" />
	<stop
   offset="0.9373"
   style="stop-color:#669307"
   id="stop196" />
	<stop
   offset="1"
   style="stop-color:#588705"
   id="stop198" />
</linearGradient>

<linearGradient
   id="SVGID_12_"
   gradientUnits="userSpaceOnUse"
   x1="19.126499"
   y1="3.2290001"
   x2="26.598499"
   y2="15.4557">
	<stop
   offset="0"
   style="stop-color:#255700"
   id="stop203" />
	<stop
   offset="0.4471"
   style="stop-color:#275900"
   id="stop205" />
	<stop
   offset="0.6078"
   style="stop-color:#2E5F01"
   id="stop207" />
	<stop
   offset="0.7255"
   style="stop-color:#396A02"
   id="stop209" />
	<stop
   offset="0.8157"
   style="stop-color:#4A7904"
   id="stop211" />
	<stop
   offset="0.898"
   style="stop-color:#608E07"
   id="stop213" />
	<stop
   offset="0.9647"
   style="stop-color:#7BA60A"
   id="stop215" />
	<stop
   offset="1"
   style="stop-color:#8BB50C"
   id="stop217" />
</linearGradient>

<linearGradient
   id="SVGID_13_"
   gradientUnits="userSpaceOnUse"
   x1="17.749001"
   y1="8.7138996"
   x2="27.3461"
   y2="24.390699">
	<stop
   offset="0"
   style="stop-color:#2C6900"
   id="stop222" />
	<stop
   offset="0.4549"
   style="stop-color:#2E6A00"
   id="stop224" />
	<stop
   offset="0.6196"
   style="stop-color:#357001"
   id="stop226" />
	<stop
   offset="0.7333"
   style="stop-color:#407903"
   id="stop228" />
	<stop
   offset="0.8275"
   style="stop-color:#518705"
   id="stop230" />
	<stop
   offset="0.9098"
   style="stop-color:#679807"
   id="stop232" />
	<stop
   offset="0.9804"
   style="stop-color:#82AE0B"
   id="stop234" />
	<stop
   offset="1"
   style="stop-color:#8BB50C"
   id="stop236" />
</linearGradient>

<linearGradient
   id="SVGID_14_"
   gradientUnits="userSpaceOnUse"
   x1="25.0439"
   y1="1.9287"
   x2="32.8391"
   y2="14.6817">
	<stop
   offset="0"
   style="stop-color:#2C6900"
   id="stop241" />
	<stop
   offset="0.4549"
   style="stop-color:#2E6A00"
   id="stop243" />
	<stop
   offset="0.6196"
   style="stop-color:#357001"
   id="stop245" />
	<stop
   offset="0.7333"
   style="stop-color:#407903"
   id="stop247" />
	<stop
   offset="0.8275"
   style="stop-color:#518705"
   id="stop249" />
	<stop
   offset="0.9098"
   style="stop-color:#679807"
   id="stop251" />
	<stop
   offset="0.9804"
   style="stop-color:#82AE0B"
   id="stop253" />
	<stop
   offset="1"
   style="stop-color:#8BB50C"
   id="stop255" />
</linearGradient>

<linearGradient
   id="SVGID_15_"
   gradientUnits="userSpaceOnUse"
   x1="24.744101"
   y1="15.354"
   x2="31.592699"
   y2="29.2297">
	<stop
   offset="0"
   style="stop-color:#378200"
   id="stop260" />
	<stop
   offset="0.4706"
   style="stop-color:#398300"
   id="stop262" />
	<stop
   offset="0.6392"
   style="stop-color:#408701"
   id="stop264" />
	<stop
   offset="0.7569"
   style="stop-color:#4B8E03"
   id="stop266" />
	<stop
   offset="0.8549"
   style="stop-color:#5C9806"
   id="stop268" />
	<stop
   offset="0.9373"
   style="stop-color:#72A509"
   id="stop270" />
	<stop
   offset="1"
   style="stop-color:#88B20C"
   id="stop272" />
</linearGradient>

<linearGradient
   id="SVGID_16_"
   gradientUnits="userSpaceOnUse"
   x1="24.3491"
   y1="13.5889"
   x2="41.849998"
   y2="42.193001">
	<stop
   offset="0"
   style="stop-color:#A2CF1B"
   id="stop277" />
	<stop
   offset="0.4157"
   style="stop-color:#A3CF1D"
   id="stop279" />
	<stop
   offset="0.5647"
   style="stop-color:#A6D124"
   id="stop281" />
	<stop
   offset="0.6706"
   style="stop-color:#ABD32F"
   id="stop283" />
	<stop
   offset="0.7569"
   style="stop-color:#B3D640"
   id="stop285" />
	<stop
   offset="0.8275"
   style="stop-color:#BCDB56"
   id="stop287" />
	<stop
   offset="0.8941"
   style="stop-color:#C8E072"
   id="stop289" />
	<stop
   offset="0.9529"
   style="stop-color:#D6E691"
   id="stop291" />
	<stop
   offset="1"
   style="stop-color:#E5EDB2"
   id="stop293" />
</linearGradient>

<linearGradient
   id="SVGID_17_"
   gradientUnits="userSpaceOnUse"
   x1="18.0762"
   y1="9.7587996"
   x2="27.499701"
   y2="25.1751">
	<stop
   offset="0"
   style="stop-color:#4E8A00"
   id="stop298" />
	<stop
   offset="0.498"
   style="stop-color:#508B00"
   id="stop300" />
	<stop
   offset="0.6745"
   style="stop-color:#579002"
   id="stop302" />
	<stop
   offset="0.8039"
   style="stop-color:#629804"
   id="stop304" />
	<stop
   offset="0.9059"
   style="stop-color:#73A407"
   id="stop306" />
	<stop
   offset="0.9922"
   style="stop-color:#89B30C"
   id="stop308" />
	<stop
   offset="1"
   style="stop-color:#8BB50C"
   id="stop310" />
</linearGradient>

<linearGradient
   id="SVGID_18_"
   gradientUnits="userSpaceOnUse"
   x1="24.610399"
   y1="6.9355001"
   x2="33.723701"
   y2="21.826099">
	<stop
   offset="0"
   style="stop-color:#4E8A00"
   id="stop315" />
	<stop
   offset="0.498"
   style="stop-color:#508B00"
   id="stop317" />
	<stop
   offset="0.6745"
   style="stop-color:#579002"
   id="stop319" />
	<stop
   offset="0.8039"
   style="stop-color:#629804"
   id="stop321" />
	<stop
   offset="0.9059"
   style="stop-color:#73A407"
   id="stop323" />
	<stop
   offset="0.9922"
   style="stop-color:#89B30C"
   id="stop325" />
	<stop
   offset="1"
   style="stop-color:#8BB50C"
   id="stop327" />
</linearGradient>

<linearGradient
   id="SVGID_19_"
   gradientUnits="userSpaceOnUse"
   x1="31.3267"
   y1="13.5708"
   x2="35.1245"
   y2="19.7971">
	<stop
   offset="0"
   style="stop-color:#4E8A00"
   id="stop332" />
	<stop
   offset="0.498"
   style="stop-color:#508B00"
   id="stop334" />
	<stop
   offset="0.6745"
   style="stop-color:#579002"
   id="stop336" />
	<stop
   offset="0.8039"
   style="stop-color:#629804"
   id="stop338" />
	<stop
   offset="0.9059"
   style="stop-color:#73A407"
   id="stop340" />
	<stop
   offset="0.9922"
   style="stop-color:#89B30C"
   id="stop342" />
	<stop
   offset="1"
   style="stop-color:#8BB50C"
   id="stop344" />
</linearGradient>

<linearGradient
   id="SVGID_20_"
   gradientUnits="userSpaceOnUse"
   x1="17.2861"
   y1="18.9639"
   x2="22.2202"
   y2="27.0333">
	<stop
   offset="0"
   style="stop-color:#4E8A00"
   id="stop349" />
	<stop
   offset="0.498"
   style="stop-color:#508B00"
   id="stop351" />
	<stop
   offset="0.6745"
   style="stop-color:#579002"
   id="stop353" />
	<stop
   offset="0.8039"
   style="stop-color:#629804"
   id="stop355" />
	<stop
   offset="0.9059"
   style="stop-color:#73A407"
   id="stop357" />
	<stop
   offset="0.9922"
   style="stop-color:#89B30C"
   id="stop359" />
	<stop
   offset="1"
   style="stop-color:#8BB50C"
   id="stop361" />
</linearGradient>

<linearGradient
   id="SVGID_21_"
   gradientUnits="userSpaceOnUse"
   x1="18.6528"
   y1="10.6519"
   x2="27.4489"
   y2="25.0256">
	<stop
   offset="0"
   style="stop-color:#69AB00"
   id="stop366" />
	<stop
   offset="0.5569"
   style="stop-color:#6BAC01"
   id="stop368" />
	<stop
   offset="0.7608"
   style="stop-color:#72AE03"
   id="stop370" />
	<stop
   offset="0.902"
   style="stop-color:#7DB107"
   id="stop372" />
	<stop
   offset="1"
   style="stop-color:#8BB50C"
   id="stop374" />
</linearGradient>

<linearGradient
   id="SVGID_22_"
   gradientUnits="userSpaceOnUse"
   x1="25.1362"
   y1="8.0292997"
   x2="33.3125"
   y2="21.3785">
	<stop
   offset="0"
   style="stop-color:#69AB00"
   id="stop379" />
	<stop
   offset="0.5569"
   style="stop-color:#6BAC01"
   id="stop381" />
	<stop
   offset="0.7608"
   style="stop-color:#72AE03"
   id="stop383" />
	<stop
   offset="0.902"
   style="stop-color:#7DB107"
   id="stop385" />
	<stop
   offset="1"
   style="stop-color:#8BB50C"
   id="stop387" />
</linearGradient>

<linearGradient
   id="SVGID_23_"
   gradientUnits="userSpaceOnUse"
   x1="17.8843"
   y1="19.5098"
   x2="22.436199"
   y2="26.933599">
	<stop
   offset="0.0118"
   style="stop-color:#4C7A00"
   id="stop392" />
	<stop
   offset="0.498"
   style="stop-color:#4E7C00"
   id="stop394" />
	<stop
   offset="0.6745"
   style="stop-color:#558202"
   id="stop396" />
	<stop
   offset="0.8"
   style="stop-color:#608D04"
   id="stop398" />
	<stop
   offset="0.902"
   style="stop-color:#719D07"
   id="stop400" />
	<stop
   offset="0.9882"
   style="stop-color:#87B10B"
   id="stop402" />
	<stop
   offset="1"
   style="stop-color:#8BB50C"
   id="stop404" />
</linearGradient>

<linearGradient
   id="SVGID_24_"
   gradientUnits="userSpaceOnUse"
   x1="41.7197"
   y1="40.0723"
   x2="42.747501"
   y2="41.745602">
	<stop
   offset="0.0118"
   style="stop-color:#B58C22"
   id="stop409" />
	<stop
   offset="0.1804"
   style="stop-color:#B89028"
   id="stop411" />
	<stop
   offset="0.4039"
   style="stop-color:#C19D38"
   id="stop413" />
	<stop
   offset="0.6549"
   style="stop-color:#CFB253"
   id="stop415" />
	<stop
   offset="0.9255"
   style="stop-color:#E2CE79"
   id="stop417" />
	<stop
   offset="1"
   style="stop-color:#E8D784"
   id="stop419" />
</linearGradient>


<linearGradient
   id="SVGID_25_"
   gradientUnits="userSpaceOnUse"
   x1="17.3228"
   y1="9.3227997"
   x2="42.355598"
   y2="9.3227997"
   gradientTransform="matrix(0.8249,0.5653,-0.5653,0.8249,2.091527e-4,-1.251698e-4)">
	<stop
   offset="0"
   style="stop-color:#1C4200"
   id="stop426" />
	<stop
   offset="0.4392"
   style="stop-color:#1E4400"
   id="stop428" />
	<stop
   offset="0.5961"
   style="stop-color:#244B01"
   id="stop430" />
	<stop
   offset="0.7059"
   style="stop-color:#305602"
   id="stop432" />
	<stop
   offset="0.7961"
   style="stop-color:#406704"
   id="stop434" />
	<stop
   offset="0.8745"
   style="stop-color:#557D06"
   id="stop436" />
	<stop
   offset="0.9451"
   style="stop-color:#6F9809"
   id="stop438" />
	<stop
   offset="1"
   style="stop-color:#8BB50C"
   id="stop440" />
</linearGradient>

<linearGradient
   id="SVGID_26_"
   gradientUnits="userSpaceOnUse"
   x1="10.2817"
   y1="3.8896"
   x2="35.224499"
   y2="3.8896"
   gradientTransform="matrix(0.8249,0.5653,-0.5653,0.8249,5.680323e-5,1.698732e-5)">
	<stop
   offset="0"
   style="stop-color:#255700"
   id="stop445" />
	<stop
   offset="0.4471"
   style="stop-color:#275900"
   id="stop447" />
	<stop
   offset="0.6078"
   style="stop-color:#2E5F01"
   id="stop449" />
	<stop
   offset="0.7255"
   style="stop-color:#396A02"
   id="stop451" />
	<stop
   offset="0.8157"
   style="stop-color:#4A7904"
   id="stop453" />
	<stop
   offset="0.898"
   style="stop-color:#608E07"
   id="stop455" />
	<stop
   offset="0.9647"
   style="stop-color:#7BA60A"
   id="stop457" />
	<stop
   offset="1"
   style="stop-color:#8BB50C"
   id="stop459" />
</linearGradient>

<linearGradient
   id="SVGID_27_"
   gradientUnits="userSpaceOnUse"
   x1="10.4624"
   y1="12.9956"
   x2="31.3955"
   y2="12.9956"
   gradientTransform="matrix(0.8246,0.5657,-0.5657,0.8246,1.445413e-4,1.433492e-4)">
	<stop
   offset="0"
   style="stop-color:#255700"
   id="stop464" />
	<stop
   offset="0.4471"
   style="stop-color:#275900"
   id="stop466" />
	<stop
   offset="0.6078"
   style="stop-color:#2E5F01"
   id="stop468" />
	<stop
   offset="0.7255"
   style="stop-color:#396A02"
   id="stop470" />
	<stop
   offset="0.8157"
   style="stop-color:#4A7904"
   id="stop472" />
	<stop
   offset="0.898"
   style="stop-color:#608E07"
   id="stop474" />
	<stop
   offset="0.9647"
   style="stop-color:#7BA60A"
   id="stop476" />
	<stop
   offset="1"
   style="stop-color:#8BB50C"
   id="stop478" />
</linearGradient>

<linearGradient
   id="SVGID_28_"
   gradientUnits="userSpaceOnUse"
   x1="21.4536"
   y1="14.6436"
   x2="33.789799"
   y2="14.6436"
   gradientTransform="matrix(0.8248,0.5654,-0.5654,0.8248,1.592636e-4,-5.642772e-4)">
	<stop
   offset="0"
   style="stop-color:#255700"
   id="stop483" />
	<stop
   offset="0.4471"
   style="stop-color:#275900"
   id="stop485" />
	<stop
   offset="0.6078"
   style="stop-color:#2E5F01"
   id="stop487" />
	<stop
   offset="0.7255"
   style="stop-color:#396A02"
   id="stop489" />
	<stop
   offset="0.8157"
   style="stop-color:#4A7904"
   id="stop491" />
	<stop
   offset="0.898"
   style="stop-color:#608E07"
   id="stop493" />
	<stop
   offset="0.9647"
   style="stop-color:#7BA60A"
   id="stop495" />
	<stop
   offset="1"
   style="stop-color:#8BB50C"
   id="stop497" />
</linearGradient>

<linearGradient
   id="SVGID_29_"
   gradientUnits="userSpaceOnUse"
   x1="8.9692001"
   y1="-28.482401"
   x2="17.652599"
   y2="-28.482401"
   gradientTransform="matrix(-0.2044,0.9789,-0.9789,-0.2044,-5.863607e-4,-5.879998e-5)">
	<stop
   offset="0"
   style="stop-color:#255700"
   id="stop502" />
	<stop
   offset="0.4471"
   style="stop-color:#275900"
   id="stop504" />
	<stop
   offset="0.6078"
   style="stop-color:#2E5F01"
   id="stop506" />
	<stop
   offset="0.7255"
   style="stop-color:#396A02"
   id="stop508" />
	<stop
   offset="0.8157"
   style="stop-color:#4A7904"
   id="stop510" />
	<stop
   offset="0.898"
   style="stop-color:#608E07"
   id="stop512" />
	<stop
   offset="0.9647"
   style="stop-color:#7BA60A"
   id="stop514" />
	<stop
   offset="1"
   style="stop-color:#8BB50C"
   id="stop516" />
</linearGradient>

<linearGradient
   id="SVGID_30_"
   gradientUnits="userSpaceOnUse"
   x1="32.730499"
   y1="4.1567001"
   x2="36.8494"
   y2="4.1567001"
   gradientTransform="matrix(0.8255,0.5645,-0.5645,0.8255,-8.356571e-5,1.211166e-4)">
	<stop
   offset="0"
   style="stop-color:#255700"
   id="stop521" />
	<stop
   offset="0.4471"
   style="stop-color:#275900"
   id="stop523" />
	<stop
   offset="0.6078"
   style="stop-color:#2E5F01"
   id="stop525" />
	<stop
   offset="0.7255"
   style="stop-color:#396A02"
   id="stop527" />
	<stop
   offset="0.8157"
   style="stop-color:#4A7904"
   id="stop529" />
	<stop
   offset="0.898"
   style="stop-color:#608E07"
   id="stop531" />
	<stop
   offset="0.9647"
   style="stop-color:#7BA60A"
   id="stop533" />
	<stop
   offset="1"
   style="stop-color:#8BB50C"
   id="stop535" />
</linearGradient>

<linearGradient
   id="SVGID_31_"
   gradientUnits="userSpaceOnUse"
   x1="18.583"
   y1="0.79589999"
   x2="29.0329"
   y2="0.79589999"
   gradientTransform="matrix(0.8254,0.5646,-0.5646,0.8254,-1.965165e-4,1.622438e-4)">
	<stop
   offset="0"
   style="stop-color:#255700"
   id="stop540" />
	<stop
   offset="0.4471"
   style="stop-color:#275900"
   id="stop542" />
	<stop
   offset="0.6078"
   style="stop-color:#2E5F01"
   id="stop544" />
	<stop
   offset="0.7255"
   style="stop-color:#396A02"
   id="stop546" />
	<stop
   offset="0.8157"
   style="stop-color:#4A7904"
   id="stop548" />
	<stop
   offset="0.898"
   style="stop-color:#608E07"
   id="stop550" />
	<stop
   offset="0.9647"
   style="stop-color:#7BA60A"
   id="stop552" />
	<stop
   offset="1"
   style="stop-color:#8BB50C"
   id="stop554" />
</linearGradient>

<linearGradient
   id="SVGID_32_"
   gradientUnits="userSpaceOnUse"
   x1="30.965799"
   y1="14.7031"
   x2="41.09"
   y2="14.7031"
   gradientTransform="matrix(0.8248,0.5655,-0.5655,0.8248,6.884336e-5,-1.469254e-4)">
	<stop
   offset="0"
   style="stop-color:#255700"
   id="stop559" />
	<stop
   offset="0.4471"
   style="stop-color:#275900"
   id="stop561" />
	<stop
   offset="0.6078"
   style="stop-color:#2E5F01"
   id="stop563" />
	<stop
   offset="0.7255"
   style="stop-color:#396A02"
   id="stop565" />
	<stop
   offset="0.8157"
   style="stop-color:#4A7904"
   id="stop567" />
	<stop
   offset="0.898"
   style="stop-color:#608E07"
   id="stop569" />
	<stop
   offset="0.9647"
   style="stop-color:#7BA60A"
   id="stop571" />
	<stop
   offset="1"
   style="stop-color:#8BB50C"
   id="stop573" />
</linearGradient>

<linearGradient
   id="SVGID_33_"
   gradientUnits="userSpaceOnUse"
   x1="14.9717"
   y1="2.9063001"
   x2="42.408001"
   y2="2.9063001"
   gradientTransform="matrix(0.7499,0.6615,-0.6615,0.7499,9.512901e-5,-2.340674e-4)">
	<stop
   offset="0"
   style="stop-color:#2F7000"
   id="stop578" />
	<stop
   offset="0.4588"
   style="stop-color:#317100"
   id="stop580" />
	<stop
   offset="0.6235"
   style="stop-color:#387601"
   id="stop582" />
	<stop
   offset="0.7412"
   style="stop-color:#437F03"
   id="stop584" />
	<stop
   offset="0.8353"
   style="stop-color:#548C05"
   id="stop586" />
	<stop
   offset="0.9176"
   style="stop-color:#6A9D08"
   id="stop588" />
	<stop
   offset="0.9882"
   style="stop-color:#85B00B"
   id="stop590" />
	<stop
   offset="1"
   style="stop-color:#8BB50C"
   id="stop592" />
</linearGradient>

<linearGradient
   id="SVGID_34_"
   gradientUnits="userSpaceOnUse"
   x1="18.127001"
   y1="8.7948999"
   x2="44.8018"
   y2="8.7948999"
   gradientTransform="matrix(0.8249,0.5653,-0.5653,0.8249,1.415014e-4,-9.584427e-5)">
	<stop
   offset="0.0118"
   style="stop-color:#376E00"
   id="stop597" />
	<stop
   offset="0.7333"
   style="stop-color:#396E00"
   id="stop599" />
	<stop
   offset="0.9922"
   style="stop-color:#407002"
   id="stop601" />
	<stop
   offset="1"
   style="stop-color:#407002"
   id="stop603" />
</linearGradient>

<linearGradient
   id="SVGID_35_"
   gradientUnits="userSpaceOnUse"
   x1="18.3291"
   y1="8.8359003"
   x2="55.366199"
   y2="8.8359003"
   gradientTransform="matrix(0.8247,0.5656,-0.5656,0.8247,1.624227e-4,-3.096461e-4)">
	<stop
   offset="0"
   style="stop-color:#8BB50C"
   id="stop608" />
	<stop
   offset="0.5137"
   style="stop-color:#89B30C"
   id="stop610" />
	<stop
   offset="0.702"
   style="stop-color:#82AD0B"
   id="stop612" />
	<stop
   offset="0.8314"
   style="stop-color:#77A309"
   id="stop614" />
	<stop
   offset="0.9373"
   style="stop-color:#669307"
   id="stop616" />
	<stop
   offset="1"
   style="stop-color:#588705"
   id="stop618" />
</linearGradient>

<linearGradient
   id="SVGID_36_"
   gradientUnits="userSpaceOnUse"
   x1="9.0703001"
   y1="7.9502001"
   x2="23.925301"
   y2="7.9502001"
   gradientTransform="matrix(0.8247,0.5655,-0.5655,0.8247,-1.004934e-4,-2.257824e-4)">
	<stop
   offset="0"
   style="stop-color:#255700"
   id="stop623" />
	<stop
   offset="0.4471"
   style="stop-color:#275900"
   id="stop625" />
	<stop
   offset="0.6078"
   style="stop-color:#2E5F01"
   id="stop627" />
	<stop
   offset="0.7255"
   style="stop-color:#396A02"
   id="stop629" />
	<stop
   offset="0.8157"
   style="stop-color:#4A7904"
   id="stop631" />
	<stop
   offset="0.898"
   style="stop-color:#608E07"
   id="stop633" />
	<stop
   offset="0.9647"
   style="stop-color:#7BA60A"
   id="stop635" />
	<stop
   offset="1"
   style="stop-color:#8BB50C"
   id="stop637" />
</linearGradient>

<linearGradient
   id="SVGID_37_"
   gradientUnits="userSpaceOnUse"
   x1="12.7422"
   y1="4.3203001"
   x2="32.109798"
   y2="4.3203001"
   gradientTransform="matrix(0.8248,0.5654,-0.5654,0.8248,9.167194e-5,1.450181e-4)">
	<stop
   offset="0"
   style="stop-color:#2C6900"
   id="stop642" />
	<stop
   offset="0.4549"
   style="stop-color:#2E6A00"
   id="stop644" />
	<stop
   offset="0.6196"
   style="stop-color:#357001"
   id="stop646" />
	<stop
   offset="0.7333"
   style="stop-color:#407903"
   id="stop648" />
	<stop
   offset="0.8275"
   style="stop-color:#518705"
   id="stop650" />
	<stop
   offset="0.9098"
   style="stop-color:#679807"
   id="stop652" />
	<stop
   offset="0.9804"
   style="stop-color:#82AE0B"
   id="stop654" />
	<stop
   offset="1"
   style="stop-color:#8BB50C"
   id="stop656" />
</linearGradient>

<linearGradient
   id="SVGID_38_"
   gradientUnits="userSpaceOnUse"
   x1="11.8267"
   y1="14.6494"
   x2="27.019899"
   y2="14.6494"
   gradientTransform="matrix(0.8244,0.566,-0.566,0.8244,2.099276e-4,-1.986623e-4)">
	<stop
   offset="0"
   style="stop-color:#2C6900"
   id="stop661" />
	<stop
   offset="0.4549"
   style="stop-color:#2E6A00"
   id="stop663" />
	<stop
   offset="0.6196"
   style="stop-color:#357001"
   id="stop665" />
	<stop
   offset="0.7333"
   style="stop-color:#407903"
   id="stop667" />
	<stop
   offset="0.8275"
   style="stop-color:#518705"
   id="stop669" />
	<stop
   offset="0.9098"
   style="stop-color:#679807"
   id="stop671" />
	<stop
   offset="0.9804"
   style="stop-color:#82AE0B"
   id="stop673" />
	<stop
   offset="1"
   style="stop-color:#8BB50C"
   id="stop675" />
</linearGradient>

<linearGradient
   id="SVGID_39_"
   gradientUnits="userSpaceOnUse"
   x1="23.0532"
   y1="4.5176001"
   x2="39.727001"
   y2="4.5176001"
   gradientTransform="matrix(0.7707,0.6372,-0.6372,0.7707,2.310872e-4,-5.882382e-4)">
	<stop
   offset="0"
   style="stop-color:#378200"
   id="stop680" />
	<stop
   offset="0.4706"
   style="stop-color:#398300"
   id="stop682" />
	<stop
   offset="0.6392"
   style="stop-color:#408701"
   id="stop684" />
	<stop
   offset="0.7569"
   style="stop-color:#4B8E03"
   id="stop686" />
	<stop
   offset="0.8549"
   style="stop-color:#5C9806"
   id="stop688" />
	<stop
   offset="0.9373"
   style="stop-color:#72A509"
   id="stop690" />
	<stop
   offset="1"
   style="stop-color:#88B20C"
   id="stop692" />
</linearGradient>

<linearGradient
   id="SVGID_40_"
   gradientUnits="userSpaceOnUse"
   x1="20.5693"
   y1="8.2402"
   x2="56.428699"
   y2="8.2402"
   gradientTransform="matrix(0.825,0.5651,-0.5651,0.825,3.820658e-5,-2.981424e-4)">
	<stop
   offset="0"
   style="stop-color:#A2CF1B"
   id="stop697" />
	<stop
   offset="0.4157"
   style="stop-color:#A3CF1D"
   id="stop699" />
	<stop
   offset="0.5647"
   style="stop-color:#A6D124"
   id="stop701" />
	<stop
   offset="0.6706"
   style="stop-color:#ABD32F"
   id="stop703" />
	<stop
   offset="0.7569"
   style="stop-color:#B3D640"
   id="stop705" />
	<stop
   offset="0.8275"
   style="stop-color:#BCDB56"
   id="stop707" />
	<stop
   offset="0.8941"
   style="stop-color:#C8E072"
   id="stop709" />
	<stop
   offset="0.9529"
   style="stop-color:#D6E691"
   id="stop711" />
	<stop
   offset="1"
   style="stop-color:#E5EDB2"
   id="stop713" />
</linearGradient>

<linearGradient
   id="SVGID_41_"
   gradientUnits="userSpaceOnUse"
   x1="13.769"
   y1="4.1348"
   x2="32.725601"
   y2="4.1348"
   gradientTransform="matrix(0.8249,0.5653,-0.5653,0.8249,2.13623e-4,-5.406141e-5)">
	<stop
   offset="0"
   style="stop-color:#4E8A00"
   id="stop718" />
	<stop
   offset="0.498"
   style="stop-color:#508B00"
   id="stop720" />
	<stop
   offset="0.6745"
   style="stop-color:#579002"
   id="stop722" />
	<stop
   offset="0.8039"
   style="stop-color:#629804"
   id="stop724" />
	<stop
   offset="0.9059"
   style="stop-color:#73A407"
   id="stop726" />
	<stop
   offset="0.9922"
   style="stop-color:#89B30C"
   id="stop728" />
	<stop
   offset="1"
   style="stop-color:#8BB50C"
   id="stop730" />
</linearGradient>

<linearGradient
   id="SVGID_42_"
   gradientUnits="userSpaceOnUse"
   x1="15.7861"
   y1="11.9629"
   x2="33.703098"
   y2="11.9629"
   gradientTransform="matrix(0.8249,0.5653,-0.5653,0.8249,5.406141e-5,2.459884e-4)">
	<stop
   offset="0"
   style="stop-color:#4E8A00"
   id="stop735" />
	<stop
   offset="0.498"
   style="stop-color:#508B00"
   id="stop737" />
	<stop
   offset="0.6745"
   style="stop-color:#579002"
   id="stop739" />
	<stop
   offset="0.8039"
   style="stop-color:#629804"
   id="stop741" />
	<stop
   offset="0.9059"
   style="stop-color:#73A407"
   id="stop743" />
	<stop
   offset="0.9922"
   style="stop-color:#89B30C"
   id="stop745" />
	<stop
   offset="1"
   style="stop-color:#8BB50C"
   id="stop747" />
</linearGradient>

<linearGradient
   id="SVGID_43_"
   gradientUnits="userSpaceOnUse"
   x1="25.699699"
   y1="14.8496"
   x2="32.946098"
   y2="14.8496"
   gradientTransform="matrix(0.8245,0.5658,-0.5658,0.8245,-9.179115e-5,2.474785e-4)">
	<stop
   offset="0"
   style="stop-color:#4E8A00"
   id="stop752" />
	<stop
   offset="0.498"
   style="stop-color:#508B00"
   id="stop754" />
	<stop
   offset="0.6745"
   style="stop-color:#579002"
   id="stop756" />
	<stop
   offset="0.8039"
   style="stop-color:#629804"
   id="stop758" />
	<stop
   offset="0.9059"
   style="stop-color:#73A407"
   id="stop760" />
	<stop
   offset="0.9922"
   style="stop-color:#89B30C"
   id="stop762" />
	<stop
   offset="1"
   style="stop-color:#8BB50C"
   id="stop764" />
</linearGradient>

<linearGradient
   id="SVGID_44_"
   gradientUnits="userSpaceOnUse"
   x1="20.7593"
   y1="-1.0986"
   x2="31.2439"
   y2="-1.0986"
   gradientTransform="matrix(0.825,0.5651,-0.5651,0.825,1.66893e-4,1.293421e-4)">
	<stop
   offset="0"
   style="stop-color:#4E8A00"
   id="stop769" />
	<stop
   offset="0.498"
   style="stop-color:#508B00"
   id="stop771" />
	<stop
   offset="0.6745"
   style="stop-color:#579002"
   id="stop773" />
	<stop
   offset="0.8039"
   style="stop-color:#629804"
   id="stop775" />
	<stop
   offset="0.9059"
   style="stop-color:#73A407"
   id="stop777" />
	<stop
   offset="0.9922"
   style="stop-color:#89B30C"
   id="stop779" />
	<stop
   offset="1"
   style="stop-color:#8BB50C"
   id="stop781" />
</linearGradient>

<linearGradient
   id="SVGID_45_"
   gradientUnits="userSpaceOnUse"
   x1="14.9473"
   y1="4.1767998"
   x2="32.629398"
   y2="4.1767998"
   gradientTransform="matrix(0.8246,0.5657,-0.5657,0.8246,6.479025e-5,3.26395e-4)">
	<stop
   offset="0"
   style="stop-color:#69AB00"
   id="stop786" />
	<stop
   offset="0.5569"
   style="stop-color:#6BAC01"
   id="stop788" />
	<stop
   offset="0.7608"
   style="stop-color:#72AE03"
   id="stop790" />
	<stop
   offset="0.902"
   style="stop-color:#7DB107"
   id="stop792" />
	<stop
   offset="1"
   style="stop-color:#8BB50C"
   id="stop794" />
</linearGradient>

<linearGradient
   id="SVGID_46_"
   gradientUnits="userSpaceOnUse"
   x1="17.021"
   y1="11.8535"
   x2="33.095001"
   y2="11.8535"
   gradientTransform="matrix(0.8243,0.5661,-0.5661,0.8243,2.22981e-4,-2.793074e-4)">
	<stop
   offset="0"
   style="stop-color:#69AB00"
   id="stop799" />
	<stop
   offset="0.5569"
   style="stop-color:#6BAC01"
   id="stop801" />
	<stop
   offset="0.7608"
   style="stop-color:#72AE03"
   id="stop803" />
	<stop
   offset="0.902"
   style="stop-color:#7DB107"
   id="stop805" />
	<stop
   offset="1"
   style="stop-color:#8BB50C"
   id="stop807" />
</linearGradient>

<linearGradient
   id="SVGID_47_"
   gradientUnits="userSpaceOnUse"
   x1="21.6724"
   y1="-0.72070003"
   x2="31.3111"
   y2="-0.72070003"
   gradientTransform="matrix(0.8248,0.5654,-0.5654,0.8248,8.881092e-6,3.057718e-5)">
	<stop
   offset="0.0118"
   style="stop-color:#4C7A00"
   id="stop812" />
	<stop
   offset="0.498"
   style="stop-color:#4E7C00"
   id="stop814" />
	<stop
   offset="0.6745"
   style="stop-color:#558202"
   id="stop816" />
	<stop
   offset="0.8"
   style="stop-color:#608D04"
   id="stop818" />
	<stop
   offset="0.902"
   style="stop-color:#719D07"
   id="stop820" />
	<stop
   offset="0.9882"
   style="stop-color:#87B10B"
   id="stop822" />
	<stop
   offset="1"
   style="stop-color:#8BB50C"
   id="stop824" />
</linearGradient>

<linearGradient
   id="SVGID_48_"
   gradientUnits="userSpaceOnUse"
   x1="54.535198"
   y1="12.4956"
   x2="56.5322"
   y2="12.4956"
   gradientTransform="matrix(0.8262,0.5633,-0.5633,0.8262,-2.418756e-4,5.297065e-4)">
	<stop
   offset="0.0118"
   style="stop-color:#B58C22"
   id="stop829" />
	<stop
   offset="0.1804"
   style="stop-color:#B89028"
   id="stop831" />
	<stop
   offset="0.4039"
   style="stop-color:#C19D38"
   id="stop833" />
	<stop
   offset="0.6549"
   style="stop-color:#CFB253"
   id="stop835" />
	<stop
   offset="0.9255"
   style="stop-color:#E2CE79"
   id="stop837" />
	<stop
   offset="1"
   style="stop-color:#E8D784"
   id="stop839" />
</linearGradient>
<g
   id="g1307"
   transform="matrix(5.8858594,0,0,5.8858594,-0.0631124,-0.09766291)"><path
     id="path23"
     d="m 23.45,16.3 c -0.5,-1.7 -0.467,-3.517 0.1,-5.45 0.6,-2.033 1.467,-2.6 2.6,-1.7 0.934,0.767 2.05,2.383 3.35,4.85 0.7,1.367 1.667,3.283 2.9,5.75 0.6,1.033 1.25,2.15 1.95,3.35 0.433,0.867 0.633,1.917 0.6,3.15 -0.034,2.434 -0.083,3.8 -0.15,4.1 -0.233,1.167 -0.85,1.301 -1.85,0.4 -2.067,-1.934 -3.784,-4.033 -5.15,-6.3 -0.633,-1.066 -1.316,-2.667 -2.05,-4.8 -0.7,-2.167 -1.133,-3.517 -1.3,-4.05 z"
     style="clip-rule:evenodd;fill:url(#SVGID_1_);fill-rule:evenodd"
     inkscape:connector-curvature="0" /><path
     id="path42"
     d="m 24.35,16.3 c 4.2,5.5 6.25,8.601 6.15,9.3 -0.1,0.667 -0.617,0.15 -1.55,-1.55 -2.5,-1.733 -4.55,-2.9 -6.15,-3.5 -1.267,-0.5 -2.5,-1.3 -3.7,-2.4 -1.333,-1.233 -2.35,-2.6 -3.05,-4.1 -0.8,-1.667 -0.983,-3.45 -0.55,-5.35 0.4,-1.934 1.217,-2.534 2.45,-1.8 1.033,0.6 2.216,2.083 3.55,4.45 1.7,3.033 2.65,4.683 2.85,4.95 z"
     style="clip-rule:evenodd;fill:url(#SVGID_2_);fill-rule:evenodd"
     inkscape:connector-curvature="0" /><path
     id="path61"
     d="m 29.2,8.15 c 0,1.167 -0.017,2.65 -0.05,4.45 -0.033,1.4 0.05,2.533 0.25,3.4 l 0.2,0.95 c 0.533,2.267 0.8,3.6 0.8,4 0,1 -0.717,0.417 -2.15,-1.75 -0.7,-1.1 -1.233,-2.167 -1.6,-3.2 -0.367,-1.033 -0.683,-2.383 -0.95,-4.05 -0.167,-0.967 -0.284,-2.633 -0.35,-5 -0.033,-2.034 -0.184,-3.4 -0.45,-4.1 -0.367,-1 -0.3,-1.767 0.2,-2.3 0.467,-0.533 1.2,-0.667 2.2,-0.4 0.833,0.267 1.383,1.25 1.65,2.95 0.167,1.033 0.25,2.717 0.25,5.05 z"
     style="clip-rule:evenodd;fill:url(#SVGID_3_);fill-rule:evenodd"
     inkscape:connector-curvature="0" /><path
     id="path80"
     d="m 30.15,9.7 c 1.6,-1.267 2.767,-0.867 3.5,1.2 0.367,1.067 0.467,2.117 0.3,3.15 -0.1,0.534 -0.233,0.95 -0.4,1.25 -0.233,-0.1 -0.433,-0.066 -0.6,0.1 -0.367,0.367 -0.434,1.2 -0.2,2.5 0.2,1.033 0.417,2.133 0.65,3.3 0.1,0.6 0,0.767 -0.3,0.5 -0.533,-0.467 -1.217,-1.333 -2.05,-2.6 -1.033,-1.567 -1.633,-2.817 -1.8,-3.75 -0.133,-0.9 -0.017,-2.117 0.35,-3.65 z"
     style="clip-rule:evenodd;fill:url(#SVGID_4_);fill-rule:evenodd"
     inkscape:connector-curvature="0" /><path
     id="path99"
     d="m 25.1,22.8 c 0.867,0.367 2.4,1.617 4.6,3.75 -1.3,-0.399 -2.217,-0.666 -2.75,-0.8 -0.867,-0.2 -1.55,-0.184 -2.05,0.05 -0.733,0.334 -1.183,0.566 -1.35,0.7 -0.433,0.267 -0.8,0.684 -1.1,1.25 -0.5,0.833 -0.583,1.85 -0.25,3.05 -0.233,0.033 -0.483,-0.033 -0.75,-0.2 -0.567,-0.333 -0.967,-1.05 -1.2,-2.149 -0.5,-2.5 -0.05,-4.267 1.35,-5.3 1,-0.835 2.167,-0.951 3.5,-0.351 z"
     style="clip-rule:evenodd;fill:url(#SVGID_5_);fill-rule:evenodd"
     inkscape:connector-curvature="0" /><path
     id="path118"
     d="M 30.85,27.4 C 29.683,27.2 28.867,27.066 28.4,27 c -0.733,-0.066 -1.333,0.1 -1.8,0.5 -0.467,0.467 -0.817,0.95 -1.05,1.45 -0.2,0.467 -0.267,0.8 -0.2,1 -1,-0.601 -1.417,-1.217 -1.25,-1.851 0.1,-0.399 0.633,-0.949 1.6,-1.649 0.867,-0.634 1.483,-1 1.85,-1.101 0.367,-0.066 1.467,0.618 3.3,2.051 z"
     style="clip-rule:evenodd;fill:url(#SVGID_6_);fill-rule:evenodd"
     inkscape:connector-curvature="0" /><path
     id="path137"
     d="M 17.1,21.15 C 15.4,18.517 15.35,17 16.95,16.6 c 0.966,-0.267 2.117,-0.05 3.45,0.65 1.2,0.6 2.15,1.367 2.85,2.3 1.633,2.133 2.1,3.217 1.4,3.25 -1.066,0.134 -2.05,0.217 -2.95,0.25 -2.233,0.1 -3.767,-0.533 -4.6,-1.9 z"
     style="clip-rule:evenodd;fill:url(#SVGID_7_);fill-rule:evenodd"
     inkscape:connector-curvature="0" /><path
     id="path156"
     d="m 34.3,17.95 c 1.633,0.233 2.534,0.917 2.7,2.05 0.1,0.633 0.05,1.183 -0.15,1.65 -0.267,0.7 -0.417,1.133 -0.45,1.3 -0.2,1.533 0,2.75 0.6,3.649 0.467,0.7 0.434,1.067 -0.1,1.101 -0.5,0.033 -1.133,-0.634 -1.9,-2 -0.867,-1.601 -1.4,-3.3 -1.6,-5.1 -0.167,-1.833 0.133,-2.717 0.9,-2.65 z"
     style="clip-rule:evenodd;fill:url(#SVGID_8_);fill-rule:evenodd"
     inkscape:connector-curvature="0" /><path
     id="path175"
     d="m 31.4,7.85 c 1.1,2.133 1.633,3.833 1.6,5.1 0,0.667 -0.117,1.4 -0.35,2.2 -0.267,0.867 -0.417,1.6 -0.45,2.2 -0.034,0.667 -0.067,1.783 -0.1,3.35 -0.167,1.2 -0.55,1.7 -1.15,1.5 -0.8,-0.267 -1.6,-0.284 -2.4,-0.05 -0.833,0.233 -1.133,0.649 -0.9,1.25 0.367,0.866 -1.75,1.3 -6.35,1.3 -2.233,0.133 -3.833,0.066 -4.8,-0.2 l -1.2,-0.4 c -0.033,-0.267 0.017,-0.6 0.15,-1 0.267,-0.767 0.816,-1.417 1.65,-1.95 l 2.25,-1.45 c 0.633,-0.267 1.3,-0.184 2,0.25 1.267,0.733 0.983,0.533 -0.85,-0.6 -1.467,-0.9 -2.483,-1.467 -3.05,-1.7 -0.534,-0.233 -1.133,-0.667 -1.8,-1.3 L 14.8,15.5 c 0.2,-0.2 0.467,-0.4 0.8,-0.6 0.633,-0.4 1.267,-0.6 1.9,-0.6 0.967,0.034 2.217,0.434 3.75,1.2 l 2.1,0.9 c 1.233,0.333 1.4,-0.183 0.5,-1.55 C 22.783,13.25 22.166,11.7 22,10.2 21.8,8.766 22.017,7.617 22.65,6.75 23.45,5.65 23.9,4.633 24,3.7 L 26.65,7 c 0.867,1.1 1.417,1.967 1.65,2.6 0,0.033 0.15,0.783 0.45,2.25 0.133,0.733 0.283,1.983 0.45,3.75 l 0.05,0.85 c 0.033,0 0.033,-0.367 0,-1.1 -0.033,-1.3 0.117,-2.383 0.45,-3.25 0.433,-0.767 0.733,-1.4 0.9,-1.9 z"
     style="clip-rule:evenodd;fill:url(#SVGID_9_);fill-rule:evenodd"
     inkscape:connector-curvature="0" /><path
     id="path186"
     d="m 24.25,11.8 c 0.367,0.2 0.85,0.8 1.45,1.8 0.633,1.066 1.233,1.816 1.8,2.25 0.533,0.4 0.85,0.383 0.95,-0.05 0.1,-0.333 0.45,-0.1 1.05,0.7 0.3,0.4 0.583,0.833 0.85,1.3 0.767,-2.033 1.4,-3.45 1.9,-4.25 0.9,-1.466 1.617,-1.583 2.15,-0.35 0.5,1.1 0.617,2.316 0.35,3.65 -0.267,1.433 -0.35,2.333 -0.25,2.7 1.1,3.967 1.25,6.2 0.45,6.7 -0.567,0.333 -0.817,0.983 -0.75,1.95 0.066,0.899 0.333,1.733 0.8,2.5 0.467,0.733 0.683,1.434 0.65,2.1 -0.033,0.667 -0.367,0.75 -1,0.25 l -1.75,-1.4 c -0.1,-1.167 -0.667,-2.317 -1.7,-3.45 -1,-1.066 -1.7,-1.733 -2.1,-2 -0.6,-0.434 -0.85,-0.316 -0.75,0.35 0.167,1.134 0.25,1.75 0.25,1.851 0,0.466 -0.184,0.633 -0.55,0.5 -0.667,-0.233 -1.083,-0.434 -1.25,-0.601 -0.466,-0.366 -0.75,-0.95 -0.85,-1.75 -0.067,-0.633 0.033,-1.233 0.3,-1.8 0.2,-0.467 0.217,-0.866 0.05,-1.2 -0.033,-0.066 -0.083,-0.5 -0.15,-1.3 -0.033,-0.333 -0.333,-0.4 -0.9,-0.2 -0.733,0.566 -1.25,0.934 -1.55,1.101 -0.467,0.267 -1.1,-0.101 -1.9,-1.101 -0.4,-0.466 -1.15,-1.133 -2.25,-2 -0.466,-0.333 -0.617,-0.867 -0.45,-1.6 0.167,-0.867 0.45,-1.5 0.85,-1.9 0.333,-0.3 0.667,-0.417 1,-0.35 0.333,0.066 0.7,0 1.1,-0.2 0.467,-0.233 0.684,-0.567 0.65,-1 -0.267,-0.9 -0.45,-1.583 -0.55,-2.05 -0.233,-0.9 -0.05,-1.333 0.55,-1.3 0.867,0.033 1.383,0.083 1.55,0.15 z"
     style="clip-rule:evenodd;fill:url(#SVGID_10_);fill-rule:evenodd"
     inkscape:connector-curvature="0" /><path
     id="path201"
     d="m 41.8,41.05 -2.1,-0.6 -1.75,-0.8 c 0.133,0.3 0.133,0.383 0,0.25 C 37.65,39.7 36.833,38.616 35.5,36.65 34.433,35.083 33.2,33.033 31.8,30.5 30.6,28.366 29.65,26.866 28.95,26 28.117,24.967 27.1,24.05 25.9,23.25 24.733,22.55 23.967,22.066 23.6,21.8 23.133,21.5 22.666,21.017 22.2,20.35 l -0.55,-0.9 0.7,-1.15 0.85,1.2 c 0.733,0.867 1.466,1.483 2.2,1.85 1.233,0.6 2.117,1.1 2.65,1.5 0.967,0.7 1.784,1.617 2.45,2.75 1,1.733 3.017,5 6.05,9.801 0.8,1.333 1.384,2.25 1.75,2.75 0.533,0.665 1.1,1.149 1.7,1.449 0.833,0.434 1.283,0.65 1.35,0.65 0.233,0.033 0.134,-0.333 -0.3,-1.1 C 40.717,38.616 38.7,35.8 35,30.7 34.067,29.366 33.15,27.917 32.25,26.349 31.383,24.783 30.733,23.633 30.3,22.9 c -0.5,-0.867 -1.283,-1.884 -2.35,-3.05 -1.2,-1.267 -2.083,-2.233 -2.65,-2.9 -0.7,-0.8 -1.35,-1.934 -1.95,-3.4 l -0.65,-1.9 0.75,-0.45 0.9,2.3 c 0.767,1.633 1.517,2.767 2.25,3.4 2.633,2.333 4.533,4.583 5.7,6.75 2.467,4.5 4.367,7.466 5.7,8.899 0.934,1 1.816,1.851 2.65,2.55 0.767,0.667 1.1,0.9 1,0.7 -4.301,-5.8 -6.784,-9.316 -7.45,-10.55 -0.333,-0.634 -1.067,-1.783 -2.2,-3.45 -1.167,-1.7 -1.9,-2.833 -2.2,-3.4 -0.367,-0.667 -0.767,-1.566 -1.2,-2.7 -0.533,-1.5 -0.833,-2.333 -0.9,-2.5 -0.233,-0.567 -0.35,-1.233 -0.35,-2 l 0.05,-0.95 0.9,-0.2 0.2,1.4 c 0.233,1.167 0.683,2.433 1.35,3.8 1.066,2.167 3.25,6.083 6.55,11.75 0.633,1.134 1.883,2.917 3.75,5.35 1.5,1.934 2.333,3.301 2.5,4.101 0.267,1.533 -0.016,3.067 -0.85,4.6 z"
     style="clip-rule:evenodd;fill:url(#SVGID_11_);fill-rule:evenodd"
     inkscape:connector-curvature="0" /><path
     id="path220"
     d="m 25.05,15.1 c 0.4,0.633 0.5,1.017 0.3,1.15 -0.2,0.133 -0.45,0.033 -0.75,-0.3 -1.7,-1.534 -3.2,-3.367 -4.5,-5.5 -1.867,-3 -2.133,-5.367 -0.8,-7.1 0.633,-0.8 1.383,-1.017 2.25,-0.65 0.7,0.333 1.317,0.966 1.85,1.9 0.333,0.633 0.434,1.517 0.3,2.65 -0.167,1.567 -0.233,2.517 -0.2,2.85 0.067,1.066 0.2,1.917 0.4,2.55 0.233,0.767 0.617,1.583 1.15,2.45 z"
     style="clip-rule:evenodd;fill:url(#SVGID_12_);fill-rule:evenodd"
     inkscape:connector-curvature="0" /><path
     id="path239"
     d="m 26.3,23.55 -2.4,-1.2 C 23.167,21.951 22.567,21.5 22.1,21 21.5,20.433 20.9,19.617 20.3,18.55 19.7,17.45 19.283,16.433 19.05,15.5 18.55,13.333 17.967,11.717 17.3,10.65 16.8,9.85 17.1,9.1 18.2,8.4 c 1.133,-0.667 2.033,-0.667 2.7,0 0.667,0.667 1.467,2.133 2.4,4.4 0.867,2.2 1.45,4.05 1.75,5.55 0.267,1.233 0.7,2.433 1.3,3.6 0.2,0.366 0.617,1.017 1.25,1.95 0.367,0.534 -0.067,0.416 -1.3,-0.35 z"
     style="clip-rule:evenodd;fill:url(#SVGID_13_);fill-rule:evenodd"
     inkscape:connector-curvature="0" /><path
     id="path258"
     d="m 30.35,3 c 0.8,1.4 1.1,2.95 0.9,4.65 -0.133,0.967 -0.433,2.25 -0.9,3.85 -0.167,0.733 -0.4,1.517 -0.7,2.35 -0.167,0.6 -0.15,1.117 0.05,1.55 0.367,0.7 0.367,1.083 0,1.15 -0.333,0.1 -0.8,-0.517 -1.4,-1.85 C 27.933,13.9 27.667,13.1 27.5,12.3 27.3,11.067 27.1,9.9 26.9,8.8 26.834,8.367 26.433,6.933 25.7,4.5 25.3,3.133 25.266,2.25 25.6,1.85 c 0.566,-0.7 1.233,-1.05 2,-1.05 1.033,0 1.95,0.733 2.75,2.2 z"
     style="clip-rule:evenodd;fill:url(#SVGID_14_);fill-rule:evenodd"
     inkscape:connector-curvature="0" /><path
     id="path275"
     d="m 28.25,16.9 c 0.833,0.567 1.467,1.283 1.9,2.15 0.267,0.534 0.75,1.567 1.45,3.101 1,1.767 1.867,2.8 2.6,3.1 -1.867,-2.533 -2.667,-4.317 -2.4,-5.35 0.2,-0.733 0.567,-1.2 1.1,-1.4 0.533,-0.2 0.883,-0.083 1.05,0.35 0.033,0.1 0.066,0.65 0.1,1.65 0,0.867 0.2,1.667 0.6,2.4 0.667,1.233 0.934,2.633 0.8,4.199 L 34.7,26.425 c 0.108,0.284 0.075,0.659 -0.1,1.125 -0.267,0.7 -0.45,1.101 -0.55,1.2 -0.167,0.134 -0.45,0.066 -0.85,-0.2 -0.367,-0.233 -0.7,-0.383 -1,-0.45 l -0.4,-0.05 c 0.934,1.134 1.067,1.8 0.4,2 -0.434,0.134 -0.833,0 -1.2,-0.399 L 30.55,29.05 c -0.3,-0.2 -0.933,-0.85 -1.9,-1.95 -0.633,-0.767 -1.316,-1.116 -2.05,-1.05 -0.867,0.033 -1.483,0.167 -1.85,0.4 -0.267,0.133 -0.517,0.434 -0.75,0.899 L 23.6,28.2 c -0.633,-1.334 -0.817,-2.367 -0.55,-3.101 0.233,-0.733 0.6,-1.366 1.1,-1.899 0.667,-0.7 1.4,-0.983 2.2,-0.851 0.9,0.134 1.5,0.317 1.8,0.551 0.192,0.12 0.467,0.428 0.825,0.925 -0.372,-0.715 -0.647,-1.373 -0.825,-1.975 -0.3,-1 -0.8,-1.833 -1.5,-2.5 -0.566,-0.533 -1.1,-0.867 -1.6,-1 l -0.7,-0.25 1.2,-1.1 c 1,-0.633 1.9,-0.667 2.7,-0.1 z"
     style="clip-rule:evenodd;fill:url(#SVGID_15_);fill-rule:evenodd"
     inkscape:connector-curvature="0" /><path
     id="path296"
     d="m 43,41.05 c -0.4,0.7 -0.833,1.066 -1.3,1.101 C 41.066,42.05 40.533,41.967 40.099,41.901 39.4,41.834 38.266,41.151 36.7,39.85 35.067,38.484 33.95,37.234 33.35,36.1 32.783,35.067 32.017,34.05 31.05,33.05 30.55,32.517 29.6,31.651 28.2,30.45 27.3,29.616 26.133,28.3 24.7,26.5 c -1.3,-1.667 -2.083,-2.783 -2.35,-3.35 -0.167,-0.4 -0.167,-0.717 0,-0.95 0.1,-0.101 0.2,-0.167 0.3,-0.2 l 0.75,1.3 c 0.967,1.767 2.633,3.816 5,6.15 0.8,0.767 1.533,1.45 2.2,2.05 0.433,0.434 1.083,1.167 1.95,2.2 2.633,3.066 4.2,4.8 4.7,5.2 0.667,0.5 1.333,0.683 2,0.55 l -1.1,-2 C 37.716,36.683 36.533,35.467 34.6,33.8 32.033,31.6 30.483,30.234 29.95,29.7 28.717,28.433 27.867,27.45 27.4,26.75 c -0.433,-0.6 -1.183,-1.934 -2.25,-4 -0.9,-1.7 -1.9,-3.067 -3,-4.1 l -1.35,-1.1 0.1,-1.85 1.65,1.8 c 1.267,1.533 2.333,3.1 3.2,4.7 1.033,1.899 1.933,3.316 2.7,4.25 0.7,0.8 1.95,2 3.75,3.6 1.167,1.066 2.267,2.033 3.3,2.9 0.733,0.666 1.717,1.684 2.95,3.05 1.2,1.3 1.983,2.233 2.35,2.8 0.134,0.233 0.217,0.351 0.25,0.351 0.233,0 0.4,-0.233 0.5,-0.7 C 41.684,37.885 41.533,37.184 41.1,36.35 40.833,35.85 40.134,34.901 39,33.5 37.8,32.066 36.817,30.667 36.05,29.3 34.017,25.767 32.367,22.033 31.1,18.1 30.7,16.733 30.45,15.267 30.35,13.7 l -0.05,-1.9 0.8,-0.05 0.2,2.4 c 0.1,1.167 0.55,2.9 1.35,5.2 0.767,2.133 1.667,4.317 2.7,6.55 0.767,1.533 1.933,3.3 3.5,5.3 1.733,2.133 2.851,3.633 3.351,4.5 0.833,1.434 1.267,2.6 1.3,3.5 0.032,0.567 -0.135,1.184 -0.501,1.85 z"
     style="clip-rule:evenodd;fill:url(#SVGID_16_);fill-rule:evenodd"
     inkscape:connector-curvature="0" /><path
     id="path313"
     d="M 24.1,22 C 23.333,20.767 22.517,19.917 21.65,19.45 20.45,18.817 19.567,18.117 19,17.35 18.333,16.483 17.917,15.367 17.75,14 c -0.2,-1.7 -0.233,-2.85 -0.1,-3.45 0.233,-0.833 0.833,-1.216 1.8,-1.15 1.167,0.067 2.267,0.75 3.3,2.05 1.133,1.367 1.883,3.083 2.25,5.15 0.733,4.233 1.35,6.817 1.85,7.75 0.3,0.534 0.383,0.884 0.25,1.051 -0.133,0.199 -0.517,-0.034 -1.15,-0.7 C 25.75,24.5 25.133,23.6 24.1,22 Z"
     style="clip-rule:evenodd;fill:url(#SVGID_17_);fill-rule:evenodd"
     inkscape:connector-curvature="0" /><path
     id="path330"
     d="m 30.1,10 c 0.566,1.933 0.883,3.767 0.95,5.5 0.034,0.833 0.034,2.3 0,4.4 0,1.533 0.05,2.4 0.15,2.6 0.2,0.4 0.233,0.684 0.1,0.85 -0.167,0.2 -0.533,-0.066 -1.1,-0.8 -0.367,-0.434 -0.617,-0.767 -0.75,-1 -0.2,-0.267 -0.6,-1.05 -1.2,-2.35 C 26.683,15.666 25.833,13.8 25.7,13.6 25.333,12.9 25.133,12.017 25.1,10.95 25.133,9.817 25.117,9 25.05,8.5 c -0.1,-0.833 0.1,-1.517 0.6,-2.05 0.567,-0.633 1.283,-0.733 2.15,-0.3 0.833,0.367 1.6,1.65 2.3,3.85 z"
     style="clip-rule:evenodd;fill:url(#SVGID_18_);fill-rule:evenodd"
     inkscape:connector-curvature="0" /><path
     id="path347"
     d="m 32.2,20.3 c -0.434,-0.867 -0.65,-2.066 -0.65,-3.6 0,-1.633 0.233,-2.817 0.7,-3.55 0.467,-0.767 1.083,-0.816 1.85,-0.15 0.733,0.667 0.883,1.283 0.45,1.85 -0.867,1.2 -1.367,2.316 -1.5,3.35 -0.033,0.367 -0.033,1.167 0,2.4 -0.067,0.833 -0.35,0.733 -0.85,-0.3 z"
     style="clip-rule:evenodd;fill:url(#SVGID_19_);fill-rule:evenodd"
     inkscape:connector-curvature="0" /><path
     id="path364"
     d="m 17.3,23.15 c -1,0.3 -1.633,0.199 -1.9,-0.301 -0.5,-0.899 -0.75,-1.45 -0.75,-1.649 0,-0.534 0.5,-1.05 1.5,-1.55 1.167,-0.6 2.5,-0.683 4,-0.25 1.6,0.467 2.667,1.333 3.2,2.6 0.566,1.366 0.883,2.483 0.95,3.35 0.067,0.867 -0.216,0.717 -0.85,-0.449 -0.567,-1.034 -1.15,-1.717 -1.75,-2.051 -0.467,-0.267 -1.1,-0.383 -1.9,-0.35 -0.2,0 -1.033,0.217 -2.5,0.65 z"
     style="clip-rule:evenodd;fill:url(#SVGID_20_);fill-rule:evenodd"
     inkscape:connector-curvature="0" /><path
     id="path377"
     d="m 22.25,12.2 c 0.1,0.4 0.117,0.85 0.05,1.35 -0.133,0.8 -0.3,1.4 -0.5,1.8 l 1.8,3.1 c 0.233,-0.3 0.35,-0.8 0.35,-1.5 l 0.2,-2 0.1,0.8 c 0.033,0.633 0.033,1.183 0,1.65 -0.067,0.767 -0.183,1.35 -0.35,1.75 l 0.35,0.9 c 0.3,0.733 0.633,1.4 1,2 0.567,0.934 1.15,2.017 1.75,3.25 -0.233,0.101 -0.467,-0.066 -0.7,-0.5 l -0.4,-0.7 c -0.833,-1.566 -1.417,-2.616 -1.75,-3.149 l -0.65,-1.2 c -0.2,-0.133 -0.5,-0.25 -0.9,-0.35 l -0.9,-0.35 1,-0.15 0.3,-0.1 c -0.267,-0.733 -0.533,-1.316 -0.8,-1.75 l -0.75,-1.3 c -0.367,0.133 -0.767,0.167 -1.2,0.1 -0.333,-0.033 -0.683,-0.133 -1.05,-0.3 -0.333,-0.133 -0.534,-0.233 -0.6,-0.3 l -0.25,-0.5 1.15,0.6 c 0.267,0.066 0.767,-0.05 1.5,-0.35 l -2.1,-4.5 1.6,2.65 c 0.5,0.7 0.833,1.217 1,1.55 0.3,-0.434 0.483,-0.983 0.55,-1.65 l 0.05,-1.3 z"
     style="clip-rule:evenodd;fill:url(#SVGID_21_);fill-rule:evenodd"
     inkscape:connector-curvature="0" /><path
     id="path390"
     d="m 28.8,8.85 c 0.133,0.6 0.184,1.066 0.15,1.4 -0.034,0.533 -0.233,1.1 -0.6,1.7 l 0.3,0.7 c 0.233,0.533 0.383,1.033 0.45,1.5 L 29.4,16 c 0.267,-0.633 0.434,-1.183 0.5,-1.65 L 30.15,13 30.2,13.7 c 0,0.533 -0.034,0.983 -0.1,1.35 l -0.35,1.75 0.3,2.95 c 0.367,1.7 0.633,2.733 0.8,3.1 -0.434,-0.366 -0.733,-0.833 -0.9,-1.399 -0.133,-0.333 -0.284,-1.034 -0.45,-2.1 -0.133,-0.934 -0.2,-1.483 -0.2,-1.65 l -0.05,-0.55 c -0.3,0.067 -0.633,-0.017 -1,-0.25 -0.233,-0.133 -0.5,-0.35 -0.8,-0.65 L 27.1,15.8 l 1,0.6 c 0.233,0.067 0.5,0.033 0.8,-0.1 -0.066,-0.667 -0.2,-1.383 -0.4,-2.15 L 27.75,12.2 C 26.783,12.233 26.2,12.15 26,11.95 l -0.35,-0.25 0.5,0.05 c 0.333,0.033 0.583,0 0.75,-0.1 L 27.5,11.4 C 27.367,10.8 27.167,10.183 26.9,9.55 L 26,7.5 26.35,7.95 c 0.3,0.4 0.55,0.833 0.75,1.3 l 0.95,2.05 c 0.267,-0.2 0.434,-0.583 0.5,-1.15 L 28.65,8 Z"
     style="clip-rule:evenodd;fill:url(#SVGID_22_);fill-rule:evenodd"
     inkscape:connector-curvature="0" /><path
     id="path407"
     d="m 21.1,20.55 0.4,0.3 c 0.3,0.233 0.483,0.467 0.55,0.7 l 0.4,1.05 c 0.033,0.067 0.033,0.101 0,0.101 0,0.066 0.167,0.3 0.5,0.7 0.533,0.666 1.066,1.416 1.6,2.25 C 24.217,25.517 23.967,25.317 23.8,25.05 L 22.5,23.4 C 22.267,23.099 22.033,22.917 21.8,22.849 L 21.15,22.7 21.6,22.55 c -0.4,-0.6 -0.917,-1.017 -1.55,-1.25 -0.4,-0.167 -0.733,-0.25 -1,-0.25 l -0.3,0.05 c -0.133,0.566 -0.3,0.933 -0.5,1.1 l -0.45,0.4 c 0.4,-0.533 0.583,-0.883 0.55,-1.05 l -0.2,-0.5 c -0.333,0.1 -0.683,0.2 -1.05,0.3 -0.35,0.133 -0.625,0.25 -0.825,0.35 l 0.825,-0.55 0.8,-0.3 C 17.834,20.517 17.617,20.333 17.25,20.3 l -0.6,-0.05 0.55,-0.15 c 0.4,-0.067 0.7,-0.033 0.9,0.1 l 0.5,0.35 h 0.5 c 0.4,0.034 0.8,0.15 1.2,0.35 0.633,0.333 1.133,0.717 1.5,1.15 0.034,-0.033 -0.05,-0.25 -0.25,-0.65 z"
     style="clip-rule:evenodd;fill:url(#SVGID_23_);fill-rule:evenodd"
     inkscape:connector-curvature="0" /><path
     id="path422"
     d="M 41.7,42.2 C 41.3,42.167 41.016,42 40.849,41.7 40.65,41.366 40.749,41 41.15,40.599 c 0.466,-0.5 0.966,-0.833 1.5,-1 0.566,-0.133 0.833,0.034 0.8,0.5 -0.033,0.4 -0.184,0.817 -0.45,1.25 -0.366,0.568 -0.8,0.851 -1.3,0.851 z"
     style="clip-rule:evenodd;fill:url(#SVGID_24_);fill-rule:evenodd"
     inkscape:connector-curvature="0" /><use
     id="use424"
     style="overflow:visible;opacity:0.62110003;enable-background:new"
     transform="matrix(1,0,0,-1,-89.792204,117.71681)"
     y="-29.138"
     x="-0.0040000002"
     height="29.138"
     width="23.993"
     xlink:href="#flash0.ai_x5F_8_x2F_Layer_2_x2F__x3C_Path_x3E__x5F_24" /><path
     id="path443"
     d="m 15.55,17.5 -0.65,1.05 c 0.5,0.267 1.783,0.917 3.85,1.95 2.033,1.033 3.55,1.967 4.55,2.8 2.034,1.7 4.017,3.9 5.95,6.601 0.867,1.233 0.733,1.916 -0.4,2.05 -0.233,0.033 -1.533,-0.033 -3.9,-0.2 -1.167,-0.1 -2.167,-0.417 -3,-0.95 -1.133,-0.934 -2.184,-1.8 -3.15,-2.6 -2.333,-1.7 -4.15,-3.017 -5.45,-3.95 -2.367,-1.733 -3.9,-3.2 -4.6,-4.4 -0.833,-1.367 -0.283,-2.3 1.65,-2.8 1.833,-0.434 3.55,-0.284 5.15,0.449 z"
     style="clip-rule:evenodd;fill:url(#SVGID_25_);fill-rule:evenodd"
     inkscape:connector-curvature="0" /><path
     id="path462"
     d="m 17.35,12.65 c 1.033,1.5 1.783,3 2.25,4.5 0.5,1.667 1.6,4.15 3.3,7.45 1.633,1.233 2.133,1.884 1.5,1.95 -0.4,0.033 -1.733,-1.033 -4,-3.2 -1.633,-1.566 -3.233,-3.183 -4.8,-4.85 -0.167,-0.167 -1.733,-1.417 -4.7,-3.75 -2.267,-1.767 -3.683,-3.267 -4.25,-4.5 -0.667,-1.5 -0.066,-2.4 1.8,-2.7 1.767,-0.3 3.45,0.083 5.05,1.15 1.433,0.967 2.717,2.283 3.85,3.95 z"
     style="clip-rule:evenodd;fill:url(#SVGID_26_);fill-rule:evenodd"
     inkscape:connector-curvature="0" /><path
     id="path481"
     d="M 2.95,22.55 C 1.317,22.05 0.383,21.3 0.15,20.3 -0.117,19.167 0,18.333 0.5,17.8 c 0.5,-0.533 1.233,-0.533 2.2,0 0.7,0.367 2,0.684 3.9,0.95 2.333,0.333 3.95,0.633 4.85,0.9 1.566,0.5 2.833,1 3.8,1.5 1,0.533 2.017,1.267 3.05,2.2 2.034,1.834 2.567,2.7 1.6,2.601 -0.433,-0.033 -1.7,-0.467 -3.8,-1.3 L 15.25,24.3 C 14.417,24 13.333,23.783 12,23.65 10.3,23.549 8.9,23.433 7.8,23.299 5.467,23.033 3.85,22.783 2.95,22.55 Z"
     style="clip-rule:evenodd;fill:url(#SVGID_27_);fill-rule:evenodd"
     inkscape:connector-curvature="0" /><path
     id="path500"
     d="m 9.2,24.55 1.95,-0.45 c 1.434,-0.233 2.583,-0.233 3.45,0 0.933,0.267 2.117,1.067 3.55,2.4 1.2,1.1 2.017,1.983 2.45,2.65 0.267,0.399 0.117,0.517 -0.45,0.35 C 19.05,29.1 18,28.733 17,28.4 15.767,28 14.983,27.983 14.65,28.349 c -0.167,0.2 -0.217,0.434 -0.15,0.7 -0.267,0.167 -0.65,0.283 -1.15,0.351 -0.967,0.1 -1.967,-0.117 -3,-0.65 -2,-1.066 -2.383,-2.467 -1.15,-4.2 z"
     style="clip-rule:evenodd;fill:url(#SVGID_28_);fill-rule:evenodd"
     inkscape:connector-curvature="0" /><path
     id="path519"
     d="m 24.6,20.15 c -0.2,0.5 -0.217,1.267 -0.05,2.3 0.133,0.6 0.383,1.684 0.75,3.25 -2,-2.733 -3.183,-4.633 -3.55,-5.7 -0.533,-1.533 -0.417,-2.867 0.35,-4 1.033,-1.433 2.733,-1.75 5.1,-0.95 1.033,0.333 1.7,0.85 2,1.55 0.167,0.333 0.233,0.633 0.2,0.9 -1.133,-0.5 -2.1,-0.517 -2.9,-0.05 -0.533,0.3 -0.933,0.683 -1.2,1.15 -0.133,0.2 -0.367,0.717 -0.7,1.55 z"
     style="clip-rule:evenodd;fill:url(#SVGID_29_);fill-rule:evenodd"
     inkscape:connector-curvature="0" /><path
     id="path538"
     d="m 26.05,27.15 c -1.333,-2.267 -1.95,-3.617 -1.85,-4.051 0.066,-0.366 0.417,-1.033 1.05,-2 0.667,-1.033 1.2,-1.6 1.6,-1.7 0.566,-0.133 1.133,0.4 1.7,1.6 -0.233,-0.067 -0.533,-0.017 -0.9,0.15 -0.5,0.233 -0.967,0.6 -1.4,1.1 -0.4,0.467 -0.567,1.15 -0.5,2.05 0.033,0.534 0.133,1.484 0.3,2.851 z"
     style="clip-rule:evenodd;fill:url(#SVGID_30_);fill-rule:evenodd"
     inkscape:connector-curvature="0" /><path
     id="path557"
     d="m 20.25,10.6 c 1.2,1.066 1.8,2.917 1.8,5.55 -0.033,1.033 -0.133,2.167 -0.3,3.4 -0.033,0.767 -1.05,0.117 -3.05,-1.95 -0.9,-0.934 -1.633,-2.117 -2.2,-3.55 -0.633,-1.6 -0.833,-2.95 -0.6,-4.05 0.233,-1.033 0.817,-1.4 1.75,-1.1 0.633,0.2 1.5,0.767 2.6,1.7 z"
     style="clip-rule:evenodd;fill:url(#SVGID_31_);fill-rule:evenodd"
     inkscape:connector-curvature="0" /><path
     id="path576"
     d="m 17.05,30.15 c -0.066,-0.9 0.767,-1.15 2.5,-0.75 1.733,0.433 3.35,1.233 4.85,2.399 1.3,1 1.934,1.783 1.9,2.351 -0.033,0.6 -0.383,0.6 -1.05,0 -0.867,-0.767 -2.017,-1.117 -3.45,-1.051 -0.2,0 -0.617,0.134 -1.25,0.4 -0.466,0.167 -0.983,0.167 -1.55,0 -1.167,-0.332 -1.817,-1.449 -1.95,-3.349 z"
     style="clip-rule:evenodd;fill:url(#SVGID_32_);fill-rule:evenodd"
     inkscape:connector-curvature="0" /><path
     id="path595"
     d="m 23.6,15.85 c -0.033,5.3 -0.467,7.7 -1.3,7.2 -0.6,-0.366 -1.017,-0.066 -1.25,0.9 -0.2,0.899 -0.183,1.833 0.05,2.8 0.2,0.733 -0.267,1.116 -1.4,1.15 -1.5,-0.101 -2.567,-0.167 -3.2,-0.2 -0.6,0 -1.3,0.083 -2.1,0.25 -0.767,0.2 -1.467,0.283 -2.1,0.25 C 11.1,28.134 9.484,27.349 7.45,25.849 L 9.7,25.15 c 0.466,-0.134 1.083,-0.417 1.85,-0.851 0.767,-0.333 1.784,-0.399 3.05,-0.2 l 1.05,0.15 c 0,-0.033 -0.267,-0.1 -0.8,-0.2 C 13.117,23.683 11.933,23.383 11.3,23.15 9.967,22.716 9.25,22.466 9.15,22.4 8.55,22.099 7.733,21.383 6.7,20.25 l -3.15,-3.4 c 0.9,0 1.883,-0.417 2.95,-1.25 0.833,-0.633 1.917,-0.767 3.25,-0.4 1.433,0.367 2.917,1.233 4.45,2.6 1.3,1.167 1.8,1.034 1.5,-0.4 l -0.85,-2.55 c -0.733,-1.833 -1.1,-3.317 -1.1,-4.45 0,-0.7 0.2,-1.4 0.6,-2.1 0.167,-0.367 0.35,-0.65 0.55,-0.85 l 0.8,1.05 c 0.6,0.833 1,1.567 1.2,2.2 0.2,0.667 0.733,1.9 1.6,3.7 1.433,3 1.617,3.35 0.55,1.05 -0.4,-0.867 -0.466,-1.65 -0.2,-2.35 0.533,-0.934 1,-1.767 1.4,-2.5 0.533,-0.9 1.167,-1.467 1.9,-1.7 0.367,-0.1 0.684,-0.117 0.95,-0.05 l 0.35,1.45 c 0.267,1 0.317,2.85 0.15,5.55 z"
     style="clip-rule:evenodd;fill:url(#SVGID_33_);fill-rule:evenodd"
     inkscape:connector-curvature="0" /><path
     id="path606"
     d="m 21.1,16.15 c 0.9,1.033 1.217,1.8 0.95,2.3 -0.167,0.333 -0.517,0.883 -1.05,1.65 -0.167,0.667 -0.1,1.033 0.2,1.1 0.733,0.133 1.15,0.233 1.25,0.3 0.333,0.2 0.716,0.217 1.15,0.05 0.533,-0.233 1.1,-0.283 1.7,-0.15 0.767,0.167 1.333,0.533 1.7,1.1 0.167,0.3 0.35,0.816 0.55,1.55 0.1,0.434 -0.066,0.617 -0.5,0.55 -0.1,0 -0.683,-0.149 -1.75,-0.449 -0.633,-0.167 -0.75,0.116 -0.35,0.85 0.267,0.467 0.9,1.333 1.9,2.6 1.067,1.333 2.15,2.099 3.25,2.299 l 1.35,2.199 c 0.433,0.767 0.333,1.15 -0.3,1.15 -0.633,-0.033 -1.3,-0.35 -2,-0.95 -0.733,-0.633 -1.5,-1.033 -2.3,-1.2 -0.934,-0.199 -1.567,0.017 -1.9,0.65 -0.467,0.866 -2.6,0.467 -6.4,-1.2 -0.333,-0.133 -1.2,-0.116 -2.6,0.05 -1.233,0.167 -2.383,-0.083 -3.45,-0.75 -1.2,-0.767 -1.067,-1.6 0.4,-2.5 0.767,-0.5 2.117,-1.083 4.05,-1.75 -0.434,-0.366 -0.85,-0.75 -1.25,-1.149 -0.733,-0.767 -0.95,-1.184 -0.65,-1.25 0.4,-0.066 0.417,-0.434 0.05,-1.101 -0.4,-0.7 -1.1,-1.45 -2.1,-2.25 -0.933,-0.8 -1.5,-1.434 -1.7,-1.9 -0.066,-0.167 -0.117,-0.767 -0.15,-1.8 -0.033,-0.7 0.383,-0.867 1.25,-0.5 0.467,0.167 1.117,0.45 1.95,0.85 0.4,0.067 0.717,-0.15 0.95,-0.65 0.2,-0.434 0.267,-0.85 0.2,-1.25 -0.067,-0.4 0.05,-0.767 0.35,-1.1 0.4,-0.433 1,-0.7 1.8,-0.8 0.7,-0.1 1.217,0.117 1.55,0.65 0.833,1.368 1.467,2.301 1.9,2.801 z"
     style="clip-rule:evenodd;fill:url(#SVGID_34_);fill-rule:evenodd"
     inkscape:connector-curvature="0" /><path
     id="path621"
     d="m 21.8,23.45 c -0.333,-0.566 -0.816,-1.633 -1.45,-3.2 -0.333,-0.9 -0.9,-1.817 -1.7,-2.75 l -1.15,-1.1 1.1,-0.65 0.85,0.75 c 0.633,0.6 1.1,1.167 1.4,1.7 0.233,0.466 0.667,1.417 1.3,2.85 0.733,1.434 1.617,2.684 2.65,3.75 0.833,0.9 2.25,2.134 4.25,3.7 2.4,1.9 4.317,3.533 5.75,4.9 1.867,1.767 2.917,2.816 3.15,3.149 0.1,0.167 0.017,0.167 -0.25,0 l 0.75,2.101 0.5,2.449 c -0.367,0.2 -0.816,0.384 -1.351,0.551 -1.1,0.3 -2.1,0.3 -3,0 -1.167,-0.367 -2.733,-1.284 -4.7,-2.75 -2.066,-1.534 -3.483,-2.884 -4.25,-4.051 -0.733,-1.133 -2.4,-2.833 -5,-5.1 -2.367,-2.1 -4.417,-3.75 -6.15,-4.95 -1.3,-0.899 -2.517,-1.55 -3.65,-1.95 l -1.3,-0.35 0.25,-1 h 0.9 c 0.7,0.067 1.333,0.267 1.9,0.6 0.033,0 0.816,0.434 2.35,1.301 1.066,0.6 1.917,1.149 2.55,1.649 0.567,0.434 1.633,1.384 3.2,2.851 1.633,1.5 2.733,2.466 3.3,2.899 1.167,0.9 4.5,4.101 10,9.601 0.2,0.166 -0.033,-0.233 -0.7,-1.2 -0.7,-1.066 -1.5,-2.167 -2.4,-3.3 -1.3,-1.667 -4.117,-4.15 -8.45,-7.45 -2.034,-1.601 -4.133,-4.017 -6.3,-7.25 -0.6,-0.9 -1.683,-1.867 -3.25,-2.9 L 10.7,17 11.15,16.15 13,17.1 c 1.367,0.833 2.417,1.7 3.15,2.6 0.633,0.733 1.55,1.85 2.75,3.35 1.1,1.334 2.067,2.334 2.9,3 0.7,0.566 1.8,1.434 3.3,2.601 1.433,1.166 2.783,2.383 4.05,3.649 1.067,1.033 2.6,2.55 4.6,4.55 1.667,1.601 2.817,2.667 3.45,3.2 0.7,0.601 1.033,0.767 1,0.5 0,-0.066 -0.2,-0.616 -0.601,-1.649 -0.267,-0.733 -0.716,-1.434 -1.35,-2.101 -0.5,-0.5 -1.367,-1.25 -2.6,-2.25 -4.533,-4 -7.617,-6.666 -9.25,-8 -1.066,-0.866 -1.932,-1.9 -2.599,-3.1 z"
     style="clip-rule:evenodd;fill:url(#SVGID_35_);fill-rule:evenodd"
     inkscape:connector-curvature="0" /><path
     id="path640"
     d="m 6.35,10.9 c 1.167,0.3 2.4,1.017 3.7,2.15 1.6,1.367 3.333,3.267 5.2,5.7 0.3,0.433 0.383,0.733 0.25,0.9 C 15.367,19.883 15,19.733 14.4,19.2 13.6,18.5 12.85,17.983 12.15,17.65 11.517,17.383 10.7,17.15 9.7,16.95 9.333,16.883 8.4,16.867 6.9,16.9 5.834,16.933 5,16.717 4.4,16.25 3.533,15.583 2.95,14.817 2.65,13.95 2.283,12.916 2.483,12.067 3.25,11.4 4.083,10.733 5.117,10.567 6.35,10.9 Z"
     style="clip-rule:evenodd;fill:url(#SVGID_36_);fill-rule:evenodd"
     inkscape:connector-curvature="0" /><path
     id="path659"
     d="m 22.45,21.5 c 0.7,1.5 0.816,2.017 0.35,1.55 -1.833,-1.733 -3.6,-2.9 -5.3,-3.5 -1.433,-0.5 -3.183,-1.367 -5.25,-2.6 -2.167,-1.333 -3.55,-2.4 -4.15,-3.2 -0.633,-0.833 -0.617,-1.867 0.05,-3.1 0.667,-1.2 1.367,-1.483 2.1,-0.85 0.7,0.6 1.417,1.1 2.15,1.5 0.533,0.3 1.35,0.65 2.45,1.05 0.9,0.333 1.883,0.917 2.95,1.75 0.934,0.767 1.7,1.533 2.3,2.3 0.433,0.6 0.85,1.35 1.25,2.25 0.233,0.533 0.6,1.483 1.1,2.85 z"
     style="clip-rule:evenodd;fill:url(#SVGID_37_);fill-rule:evenodd"
     inkscape:connector-curvature="0" /><path
     id="path678"
     d="m 14,22.9 c 1.267,0.866 1.85,1.483 1.75,1.85 -0.067,0.366 -0.433,0.333 -1.1,-0.1 -0.433,-0.301 -0.917,-0.384 -1.45,-0.25 -1.434,0.366 -2.184,0.55 -2.25,0.55 -1.534,0.399 -2.767,0.616 -3.7,0.649 C 5.617,25.7 4.133,25.217 2.8,24.15 1.4,23.05 0.7,21.9 0.7,20.7 c 0.033,-0.9 0.383,-1.633 1.05,-2.2 0.367,-0.333 1.2,-0.2 2.5,0.4 2.267,1.033 3.65,1.633 4.15,1.8 1.033,0.333 2.133,0.683 3.3,1.05 0.767,0.267 1.533,0.65 2.3,1.15 z"
     style="clip-rule:evenodd;fill:url(#SVGID_38_);fill-rule:evenodd"
     inkscape:connector-curvature="0" /><path
     id="path695"
     d="m 20.8,23.45 c 0.58,0.275 1.213,0.676 1.9,1.2 -0.478,-0.513 -0.777,-0.88 -0.9,-1.101 -0.2,-0.366 -0.367,-1.066 -0.5,-2.1 -0.1,-0.934 0.184,-1.75 0.85,-2.45 0.5,-0.533 1.1,-0.917 1.8,-1.15 0.7,-0.2 1.683,0.133 2.95,1 l -0.8,0.35 c -0.434,0.233 -0.717,0.5 -0.85,0.8 -0.233,0.4 -0.383,1.083 -0.45,2.05 -0.066,0.834 0.267,1.667 1,2.5 1.034,1.2 1.65,2.017 1.85,2.45 l 0.6,0.55 c 0.367,0.434 0.483,0.9 0.35,1.4 -0.2,0.767 -0.833,0.55 -1.9,-0.65 l 0.05,0.45 c 0.067,0.366 0.2,0.767 0.4,1.2 0.233,0.5 0.3,0.833 0.2,1 -0.067,0.1 -0.45,0.267 -1.15,0.5 -0.495,0.186 -0.861,0.186 -1.1,0 l 0.65,0.95 c -1.5,0 -2.833,-0.434 -4,-1.301 -0.7,-0.533 -1.467,-0.85 -2.3,-0.949 -0.967,-0.134 -1.483,-0.217 -1.55,-0.25 -0.4,-0.233 -0.5,-0.65 -0.3,-1.25 0.2,-0.634 0.65,-1.017 1.35,-1.15 0.966,-0.233 2.65,0.866 5.05,3.3 -0.267,-0.899 -1.25,-2 -2.95,-3.3 -1.433,-0.967 -2.4,-1.65 -2.9,-2.05 -0.833,-0.566 -1.517,-1.351 -2.05,-2.351 -0.533,-1 -0.5,-2.033 0.1,-3.1 l 1.1,-1.3 0.2,0.85 c 0.133,0.6 0.45,1.25 0.95,1.95 0.633,0.868 1.417,1.519 2.35,1.952 z"
     style="clip-rule:evenodd;fill:url(#SVGID_39_);fill-rule:evenodd"
     inkscape:connector-curvature="0" /><path
     id="path716"
     d="m 29,24.35 c 1.133,1.733 1.95,2.917 2.45,3.551 0.933,1.233 1.9,2.216 2.9,2.949 1.066,0.834 2.233,2.267 3.5,4.301 1.233,1.933 1.884,3.3 1.95,4.1 0.033,0.5 0.101,1.116 0.2,1.85 -0.033,0.567 -0.384,1.034 -1.05,1.4 -0.601,0.366 -1.184,0.5 -1.75,0.4 -0.867,-0.134 -1.983,-0.733 -3.35,-1.801 -0.767,-0.633 -2.184,-2.083 -4.25,-4.35 -1.833,-2 -3.5,-3.517 -5,-4.55 -2.067,-1.434 -4.133,-2.7 -6.2,-3.8 -2.2,-1.134 -3.85,-1.817 -4.95,-2.051 l -2.3,-0.5 0.1,-0.899 1.8,0.2 c 1.467,0.267 2.85,0.716 4.15,1.35 3.667,1.833 7.216,4.1 10.65,6.8 1.3,1.033 2.633,2.3 4,3.8 1.3,1.467 2.2,2.384 2.7,2.75 0.767,0.601 1.434,0.851 2,0.75 0.434,-0.066 0.65,-0.25 0.65,-0.55 0,-0.033 -0.101,-0.133 -0.3,-0.3 -0.566,-0.467 -1.467,-1.45 -2.7,-2.95 -1.3,-1.566 -2.25,-2.816 -2.85,-3.75 -0.833,-1.3 -1.75,-2.666 -2.75,-4.1 -1.533,-2.267 -2.684,-3.834 -3.45,-4.7 -0.867,-1 -2.183,-2.167 -3.95,-3.5 C 19.666,19.583 18.183,18.2 16.75,16.6 L 15,14.5 l 1.8,0.05 1,1.7 c 1,1.367 2.3,2.633 3.9,3.8 1.966,1.434 3.233,2.434 3.8,3 0.633,0.601 1.567,1.684 2.8,3.25 0.534,0.7 1.817,2.634 3.85,5.8 1.567,2.4 2.7,3.884 3.4,4.45 l 1.9,1.45 c 0.166,-0.733 0,-1.5 -0.5,-2.3 -0.367,-0.634 -2,-2.617 -4.9,-5.95 C 31.084,28.684 30.4,27.85 30,27.25 29.433,26.417 28.783,25.5 28.05,24.5 25.883,21.533 23.95,19.4 22.25,18.1 L 21,17.15 21.2,16.8 c 0.233,-0.167 0.533,-0.133 0.9,0.1 0.5,0.333 1.55,1.35 3.15,3.05 1.7,1.8 2.95,3.267 3.75,4.4 z"
     style="clip-rule:evenodd;fill:url(#SVGID_40_);fill-rule:evenodd"
     inkscape:connector-curvature="0" /><path
     id="path733"
     d="m 23.55,21.2 c 0.633,0.8 0.85,1.267 0.65,1.399 -0.167,0.134 -0.5,0 -1,-0.399 -0.934,-0.667 -3.383,-1.633 -7.35,-2.9 -1.967,-0.6 -3.6,-1.617 -4.9,-3.05 -1.2,-1.367 -1.833,-2.717 -1.9,-4.05 -0.033,-1.167 0.333,-1.817 1.1,-1.95 0.533,-0.1 1.633,0.05 3.3,0.45 1.3,0.333 2.367,0.933 3.2,1.8 0.7,0.733 1.35,1.817 1.95,3.25 0.433,1.033 1.233,2.067 2.4,3.1 1.5,1.267 2.35,2.05 2.55,2.35 z"
     style="clip-rule:evenodd;fill:url(#SVGID_41_);fill-rule:evenodd"
     inkscape:connector-curvature="0" /><path
     id="path750"
     d="m 13,19.85 c 1.1,0.833 2.867,2 5.3,3.5 1.2,0.801 1.934,1.317 2.2,1.551 0.2,0.199 0.517,0.533 0.95,1 0.7,0.733 0.95,1.183 0.75,1.35 -0.133,0.134 -0.4,0.066 -0.8,-0.2 -0.167,-0.133 -0.983,-0.267 -2.45,-0.399 -2.034,-0.167 -3.434,-0.317 -4.2,-0.45 -1.667,-0.267 -3.4,-0.834 -5.2,-1.7 -2.1,-1 -3.35,-2 -3.75,-3 -0.367,-1.033 -0.25,-1.85 0.35,-2.45 0.533,-0.566 1.2,-0.733 2,-0.5 0.467,0.133 1.25,0.233 2.35,0.3 1,0.131 1.833,0.465 2.5,0.998 z"
     style="clip-rule:evenodd;fill:url(#SVGID_42_);fill-rule:evenodd"
     inkscape:connector-curvature="0" /><path
     id="path767"
     d="m 19.3,28 c 1,0.7 1.1,1.033 0.3,1 -1.167,-0.167 -1.934,-0.25 -2.3,-0.25 -1.066,0.033 -2.133,0.517 -3.2,1.45 -0.533,0.434 -1.117,0.184 -1.75,-0.75 -0.6,-0.934 -0.55,-1.634 0.15,-2.101 0.733,-0.466 1.867,-0.616 3.4,-0.449 1.467,0.166 2.6,0.534 3.4,1.1 z"
     style="clip-rule:evenodd;fill:url(#SVGID_43_);fill-rule:evenodd"
     inkscape:connector-curvature="0" /><path
     id="path784"
     d="m 23.75,18.35 c 1.1,0.833 1.25,1.167 0.45,1 C 23.367,19.183 22.3,18.7 21,17.9 19.833,17.167 19.033,15.867 18.6,14 c -0.4,-1.8 -0.317,-3.333 0.25,-4.6 0.5,-1.1 0.983,-1.617 1.45,-1.55 0.233,0.033 0.767,0.367 1.6,1 0.467,0.367 0.55,1.1 0.25,2.2 -0.433,1.6 -0.65,2.534 -0.65,2.8 0,1 0.117,1.767 0.35,2.3 0.3,0.733 0.933,1.467 1.9,2.2 z"
     style="clip-rule:evenodd;fill:url(#SVGID_44_);fill-rule:evenodd"
     inkscape:connector-curvature="0" /><path
     id="path797"
     d="m 23.6,21.6 c 0.467,0.333 0.633,0.633 0.5,0.9 C 22.967,21.667 21.933,20.867 21,20.1 20.433,19.633 19.817,19.2 19.15,18.8 L 18.3,18.3 c -0.4,0.133 -0.966,0.2 -1.7,0.2 -0.467,0.033 -0.983,-0.017 -1.55,-0.15 L 14.3,18.2 14.9,18.1 c 0.467,-0.033 0.9,-0.017 1.3,0.05 0.667,0.067 1.15,-0.033 1.45,-0.3 l -2.95,-2.4 c -0.4,0.233 -0.983,0.367 -1.75,0.4 -0.467,0.033 -0.883,-0.017 -1.25,-0.15 l -0.45,-0.2 1.25,0.1 c 0.633,-0.067 1.167,-0.233 1.6,-0.5 -0.333,-0.233 -0.833,-0.684 -1.5,-1.35 l -2.5,-2.1 4.25,2.9 c 0.3,-0.833 0.417,-1.417 0.35,-1.75 l -0.55,-1.35 0.45,0.35 c 0.233,0.133 0.417,0.784 0.55,1.95 0.067,0.533 0.05,0.983 -0.05,1.35 l 1.2,1 c 0.4,0.367 0.967,0.733 1.7,1.1 l 0.25,-1.45 0.3,1.1 c 0.1,0.467 0.2,0.8 0.3,1 z"
     style="clip-rule:evenodd;fill:url(#SVGID_45_);fill-rule:evenodd"
     inkscape:connector-curvature="0" /><path
     id="path810"
     d="m 7.2,19.55 1.9,1.25 c 0.6,0.367 1.2,0.667 1.8,0.9 L 11.1,21 c 0.1,-0.2 0.133,-0.5 0.1,-0.9 L 11.15,19.55 11.4,20 c 0.167,0.267 0.25,0.95 0.25,2.05 l 0.5,0.351 c 0.434,0.267 0.883,0.5 1.35,0.699 0.7,0.301 1.367,0.534 2,0.7 0.167,-0.333 0.2,-0.649 0.1,-0.95 l -0.55,-1.2 0.4,0.5 c 0.3,0.366 0.517,0.683 0.65,0.949 0.2,0.434 0.283,0.834 0.25,1.2 l 0.5,0.101 c 0.133,0 0.65,0.133 1.55,0.399 1,0.3 1.667,0.533 2,0.7 0.533,0.233 0.983,0.634 1.35,1.2 -0.467,-0.3 -1.45,-0.717 -2.95,-1.25 L 16,24.8 14.35,25.05 c -0.367,0.033 -0.8,0.017 -1.3,-0.05 l -0.65,-0.1 1.25,-0.15 c 0.434,-0.066 0.967,-0.217 1.6,-0.45 L 13.5,23.8 C 13.033,23.667 12.533,23.45 12,23.151 l -0.65,-0.45 c -0.567,0.366 -1.1,0.55 -1.6,0.55 C 9.45,23.25 9,23.167 8.4,23 l -0.75,-0.3 2,0.05 c 0.567,0 0.934,-0.15 1.1,-0.45 L 8.8,21 C 8.367,20.733 7.967,20.417 7.6,20.05 Z"
     style="clip-rule:evenodd;fill:url(#SVGID_46_);fill-rule:evenodd"
     inkscape:connector-curvature="0" /><path
     id="path827"
     d="m 20.825,9.625 c -0.109,0.233 -0.234,0.592 -0.375,1.075 -0.1,0.4 -0.2,0.783 -0.3,1.15 l 0.5,0.3 C 20.783,12.183 21.1,12 21.6,11.6 l -0.35,0.5 c -0.1,0.133 -0.3,0.25 -0.6,0.35 l -0.45,0.1 -0.05,0.35 c 0,0.3 0.067,0.684 0.2,1.15 0.233,0.767 0.633,1.417 1.2,1.95 l 0.15,-0.55 0.15,0.8 c 0.033,0.267 0.2,0.55 0.5,0.85 l 1.55,1.65 c 0.233,0.233 0.434,0.55 0.6,0.95 -0.8,-0.733 -1.517,-1.434 -2.15,-2.1 -0.4,-0.4 -0.633,-0.617 -0.7,-0.65 0,0.033 -0.017,0.033 -0.05,0 l -1,-0.55 c -0.2,-0.133 -0.417,-0.367 -0.65,-0.7 l -0.3,-0.5 0.8,0.6 c 0.367,0.3 0.583,0.417 0.65,0.35 C 20.666,15.683 20.3,15.067 20,14.3 19.8,13.834 19.7,13.367 19.7,12.9 V 12.35 L 19.35,11.7 c -0.133,-0.233 -0.167,-0.583 -0.1,-1.05 l 0.15,-0.6 0.05,0.65 c 0.033,0.466 0.2,0.75 0.5,0.85 l 0.3,-0.95 z"
     style="clip-rule:evenodd;fill:url(#SVGID_47_);fill-rule:evenodd"
     inkscape:connector-curvature="0" /><path
     id="path842"
     d="m 40.05,41.15 c 0,0.566 -0.283,1.017 -0.85,1.35 -0.367,0.267 -0.75,0.417 -1.15,0.45 -0.467,0 -0.616,-0.316 -0.45,-0.95 0.167,-0.634 0.483,-1.184 0.95,-1.65 0.4,-0.399 0.75,-0.483 1.05,-0.25 0.3,0.233 0.45,0.584 0.45,1.05 z"
     style="clip-rule:evenodd;fill:url(#SVGID_48_);fill-rule:evenodd"
     inkscape:connector-curvature="0" /></g>
</svg>