<?xml version="1.0" encoding="UTF-8" standalone="no"?>
<!-- Generator: Adobe Illustrator 15.1.0, SVG Export Plug-In . SVG Version: 6.00 Build 0)  -->

<svg
   xmlns:dc="http://purl.org/dc/elements/1.1/"
   xmlns:cc="http://creativecommons.org/ns#"
   xmlns:rdf="http://www.w3.org/1999/02/22-rdf-syntax-ns#"
   xmlns:svg="http://www.w3.org/2000/svg"
   xmlns="http://www.w3.org/2000/svg"
   xmlns:xlink="http://www.w3.org/1999/xlink"
   xmlns:sodipodi="http://sodipodi.sourceforge.net/DTD/sodipodi-0.dtd"
   xmlns:inkscape="http://www.inkscape.org/namespaces/inkscape"
   version="1.1"
   id="flash0.ai"
   x="0px"
   y="0px"
   width="256"
   height="256"
   viewBox="0 0 256 256"
   xml:space="preserve"
   sodipodi:docname="tomato.svg"
   inkscape:version="0.92.4 (5da689c313, 2019-01-14)"
   inkscape:export-xdpi="10.5"
   inkscape:export-ydpi="10.5"><title
   id="title949">Tomato</title><metadata
   id="metadata142"><rdf:RDF><cc:Work
       rdf:about=""><dc:format>image/svg+xml</dc:format><dc:type
         rdf:resource="http://purl.org/dc/dcmitype/StillImage" /><dc:title>Tomato</dc:title><cc:license
         rdf:resource="http://creativecommons.org/publicdomain/zero/1.0/" /><dc:creator><cc:Agent><dc:title>Glitch</dc:title></cc:Agent></dc:creator><dc:source>https://opengameart.org/node/20149</dc:source></cc:Work><cc:License
       rdf:about="http://creativecommons.org/publicdomain/zero/1.0/"><cc:permits
         rdf:resource="http://creativecommons.org/ns#Reproduction" /><cc:permits
         rdf:resource="http://creativecommons.org/ns#Distribution" /><cc:permits
         rdf:resource="http://creativecommons.org/ns#DerivativeWorks" /></cc:License></rdf:RDF></metadata><defs
   id="defs140" /><sodipodi:namedview
   pagecolor="#ffffff"
   bordercolor="#666666"
   borderopacity="1"
   objecttolerance="10"
   gridtolerance="10"
   guidetolerance="10"
   inkscape:pageopacity="0"
   inkscape:pageshadow="2"
   inkscape:window-width="1920"
   inkscape:window-height="1025"
   id="namedview138"
   showgrid="false"
   inkscape:zoom="1.475"
   inkscape:cx="-82.088496"
   inkscape:cy="36.429426"
   inkscape:window-x="-8"
   inkscape:window-y="-8"
   inkscape:window-maximized="1"
   inkscape:current-layer="flash0.ai"
   fit-margin-top="0"
   fit-margin-left="0"
   fit-margin-right="0"
   fit-margin-bottom="0" />
<symbol
   id="flash0.ai_x5F_0_x2F_Layer_13_x2F__x3C_Path_x3E__x5F_14"
   viewBox="-0.006 -1.238 1.097 1.232"
   transform="translate(107.88055,114.79496)">
	<g
   id="Layer_1_6_">
		<path
   style="clip-rule:evenodd;fill:#ffffff;fill-rule:evenodd"
   d="M 0.8,-0.1 C 1.067,-0.3 1.15,-0.567 1.05,-0.9 0.95,-1.2 0.717,-1.3 0.35,-1.2 -0.017,-1.1 -0.1,-0.85 0.1,-0.45 0.3,-0.017 0.533,0.1 0.8,-0.1 Z"
   id="path2"
   inkscape:connector-curvature="0" />
	</g>
</symbol>
<symbol
   id="flash0.ai_x5F_0_x2F_Layer_13_x2F__x3C_Path_x3E__x5F_15"
   viewBox="-0.034 -4.296 3.853 4.321"
   transform="translate(107.88055,114.79496)">
	<g
   id="Layer_1_5_">
		<path
   style="clip-rule:evenodd;fill:#ffffff;fill-rule:evenodd"
   d="M 3.65,-1 C 3.917,-1.733 3.867,-2.367 3.5,-2.9 3,-3.567 2.483,-4 1.95,-4.2 1.483,-4.367 1.1,-4.317 0.8,-4.05 0.067,-3.417 -0.183,-2.6 0.05,-1.6 0.283,-0.7 0.733,-0.183 1.4,-0.05 2.533,0.183 3.283,-0.133 3.65,-1 Z"
   id="path6"
   inkscape:connector-curvature="0" />
	</g>
</symbol>
<symbol
   id="flash0.ai_x5F_0_x2F_Layer_13_x2F__x3C_Path_x3E__x5F_16"
   viewBox="-0.059 -17.023 17.153 17.023"
   transform="translate(107.88055,114.79496)">
	<g
   id="Layer_1_4_">
		<path
   style="clip-rule:evenodd;fill:#f28457;fill-rule:evenodd"
   d="m 10.85,0 c 1.533,0 2.883,-0.533 4.05,-1.6 1.267,-1.133 1.983,-2.617 2.15,-4.45 0.233,-2.767 -0.466,-5.2 -2.1,-7.3 -1.767,-2.267 -4.117,-3.483 -7.05,-3.65 -3.133,-0.2 -5.4,0.883 -6.8,3.25 -1.333,2.233 -1.517,4.8 -0.55,7.7 0.767,2.233 2.367,3.867 4.8,4.9 C 7.083,-0.383 8.917,0 10.85,0 Z"
   id="path10"
   inkscape:connector-curvature="0" />
	</g>
</symbol>
<symbol
   id="flash0.ai_x5F_0_x2F_Layer_13_x2F__x3C_Path_x3E__x5F_17"
   viewBox="0 -26.708 23.453 26.721"
   transform="translate(107.88055,114.79496)">
	<g
   id="Layer_1_3_">
		<path
   style="clip-rule:evenodd;fill:#571b09;fill-rule:evenodd"
   d="m 23.2,-8.25 c 0.667,-3.667 0.017,-7.283 -1.95,-10.85 l -0.35,-0.55 -0.05,-0.1 c -0.667,-0.933 -1.2,-1.6 -1.6,-2 -1.733,-1.733 -4,-3.033 -6.8,-3.9 -3.1,-0.767 -6,-1.117 -8.7,-1.05 -1.2,0.067 -2.267,0.184 -3.2,0.35 L 0,-26.25 c 0.933,-0.1 2.117,-0.083 3.55,0.05 2.867,0.233 5.567,0.9 8.1,2 2.867,1.267 5.05,3.417 6.55,6.45 1.4,2.8 1.9,5.65 1.5,8.55 -0.567,3.9 -2.284,6.867 -5.15,8.9 0.534,0.033 1.15,0.1 1.85,0.2 0.533,0.1 0.933,0.133 1.2,0.1 0.5,-0.067 0.95,-0.2 1.35,-0.4 1.566,-1.567 2.7,-3.2 3.4,-4.9 0.367,-0.9 0.65,-1.883 0.85,-2.95 z"
   id="path14"
   inkscape:connector-curvature="0" />
	</g>
</symbol>
<symbol
   id="flash0.ai_x5F_0_x2F_Layer_13_x2F__x3C_Path_x3E__x5F_18"
   viewBox="-0.001 -22.159 23.718 22.185"
   transform="translate(107.88055,114.79496)">
	<g
   id="Layer_1_2_">
		<path
   style="clip-rule:evenodd;fill:#f28457;fill-rule:evenodd"
   d="m 14.25,-0.15 c 2.967,-0.467 5.4,-1.95 7.3,-4.45 2.434,-3.167 2.817,-6.583 1.15,-10.25 -1.6,-3.533 -4.3,-5.8 -8.1,-6.8 -3.767,-0.934 -7.1,-0.583 -10,1.05 -3,1.667 -4.533,4.167 -4.6,7.5 -0.033,3.167 0.567,5.817 1.8,7.95 1.067,1.833 2.517,3.133 4.35,3.9 2.8,1.167 5.5,1.533 8.1,1.1 z"
   id="path18"
   inkscape:connector-curvature="0" />
	</g>
</symbol>

<g
   id="g135"
   transform="matrix(7.8168054,0,0,7.8168054,-29.268872,-28.375624)">
	
		<radialGradient
   id="SVGID_1_"
   cx="15.5327"
   cy="9.3959999"
   r="25.948099"
   gradientTransform="matrix(0.7631,0.4344,0.4344,-0.7631,-4.4137,18.8407)"
   gradientUnits="userSpaceOnUse">
		<stop
   offset="0"
   style="stop-color:#FF280D"
   id="stop26" />
		<stop
   offset="1"
   style="stop-color:#630000"
   id="stop28" />
	</radialGradient>
	<path
   style="clip-rule:evenodd;fill:url(#SVGID_1_);fill-rule:evenodd"
   d="m 22.937,8.144 c 2.752,-0.088 5.343,0.82 7.771,2.722 3.894,3.015 5.679,6.791 5.356,11.328 -0.264,3.6 -1.479,6.483 -3.644,8.649 -2.137,2.137 -4.728,3.541 -7.772,4.215 -2.927,0.644 -6.102,0.6 -9.527,-0.132 C 11.609,34.164 8.799,32.57 6.691,30.14 4.378,27.448 3.427,24.199 3.837,20.393 4.217,16.852 5.827,13.968 8.667,11.744 10.92,9.958 13.13,9.036 15.296,8.978 17.2,8.92 19.747,8.642 22.937,8.144 Z"
   id="path31"
   inkscape:connector-curvature="0" />
	
		<use
   xlink:href="#flash0.ai_x5F_0_x2F_Layer_13_x2F__x3C_Path_x3E__x5F_18"
   width="23.718"
   height="22.184999"
   x="-0.001"
   y="-22.159"
   transform="matrix(0.8781,0,0,-0.8781,-89.979914,112.20135)"
   style="overflow:visible;opacity:0.05859997;enable-background:new"
   id="use33" />
	
		<use
   xlink:href="#flash0.ai_x5F_0_x2F_Layer_13_x2F__x3C_Path_x3E__x5F_17"
   width="23.452999"
   height="26.721001"
   y="-26.708"
   transform="matrix(0.8781,0,0,-0.8781,-78.830014,112.20135)"
   style="overflow:visible;opacity:0.12110003;enable-background:new"
   id="use35"
   x="0" />
	
		<use
   xlink:href="#flash0.ai_x5F_0_x2F_Layer_13_x2F__x3C_Path_x3E__x5F_16"
   width="17.153"
   height="17.023001"
   x="-0.059"
   y="-17.023001"
   transform="matrix(0.8781,0,0,-0.8781,-88.580014,113.30145)"
   style="overflow:visible;opacity:0.08980001;enable-background:new"
   id="use37" />
	
		<use
   xlink:href="#flash0.ai_x5F_0_x2F_Layer_13_x2F__x3C_Path_x3E__x5F_15"
   width="3.8529999"
   height="4.3210001"
   x="-0.034000002"
   y="-4.296"
   transform="matrix(0.8781,0,0,-0.8781,-85.680114,117.10125)"
   style="overflow:visible;opacity:0.17970001;enable-background:new"
   id="use39" />
	
		<use
   xlink:href="#flash0.ai_x5F_0_x2F_Layer_13_x2F__x3C_Path_x3E__x5F_14"
   width="1.097"
   height="1.232"
   x="-0.0060000001"
   y="-1.238"
   transform="matrix(0.8781,0,0,-0.8781,-85.330014,121.80145)"
   style="overflow:visible;opacity:0.17970001;enable-background:new"
   id="use41" />
	<path
   style="clip-rule:evenodd;fill:#5e9119;fill-rule:evenodd"
   d="m 31.762,11.349 c -0.233,0 -0.863,0.059 -1.888,0.176 -0.702,0.059 -1.552,0.029 -2.547,-0.088 -1.083,-0.117 -2.078,-0.322 -2.985,-0.614 l -1.01,-0.396 1.712,1.054 c 1.259,0.791 2.254,1.493 2.986,2.107 1.463,1.259 2.561,1.947 3.293,2.064 0.614,0.087 1.127,0.043 1.536,-0.132 -0.146,0.176 -0.395,0.337 -0.746,0.483 -0.731,0.234 -1.61,0.219 -2.635,-0.044 -0.937,-0.263 -1.668,-0.614 -2.195,-1.053 -0.673,-0.615 -1.347,-1.186 -2.02,-1.712 -1.054,-0.791 -2.137,-1.449 -3.249,-1.976 l -1.361,-0.57 c -0.995,0.585 -1.947,1.419 -2.854,2.502 -0.439,0.556 -0.907,1.17 -1.405,1.844 -0.468,0.41 -1.302,0.717 -2.502,0.922 -1.054,0.176 -2.327,-0.132 -3.819,-0.922 l 1.844,0.614 c 1.317,0.234 2.239,-0.131 2.766,-1.098 0.41,-0.673 0.761,-1.346 1.054,-2.02 0.205,-0.468 0.439,-0.878 0.703,-1.229 0.673,-0.82 1.537,-1.303 2.59,-1.449 0.059,-0.087 -0.776,-0.22 -2.503,-0.395 -0.966,-0.088 -1.961,0.058 -2.985,0.439 -1.054,0.41 -1.8,0.6 -2.239,0.571 C 10.542,10.398 9.898,10.193 9.371,9.812 8.873,9.461 8.624,9.051 8.624,8.583 L 8.668,7.661 8.931,8.759 c 0.41,0.731 1.157,1.01 2.24,0.834 0.761,-0.117 1.668,-0.439 2.722,-0.965 0.82,-0.439 1.712,-0.644 2.678,-0.615 1.112,0.029 2.049,0.219 2.81,0.57 0.38,0.205 0.659,0.396 0.834,0.571 l 0.57,-0.395 c 0.498,-0.292 0.995,-0.498 1.493,-0.615 0.352,-0.088 0.893,-0.043 1.625,0.132 0.702,0.146 1.287,0.117 1.756,-0.087 0.485,-0.227 0.822,-0.425 1.009,-0.593 -0.26,0.441 -0.625,0.755 -1.098,0.944 -0.292,0.117 -0.833,0.175 -1.624,0.175 -0.702,0 -1.127,0.044 -1.273,0.132 l -0.438,0.307 0.834,0.088 c 0.702,0.146 1.449,0.351 2.239,0.615 1.874,0.644 3.703,0.981 5.488,1.01 1.346,0.059 2.971,0.468 4.873,1.229 -1.523,-0.498 -2.824,-0.747 -3.907,-0.747 z"
   id="path43"
   inkscape:connector-curvature="0" />
	<path
   style="clip-rule:evenodd;fill:#31591e;fill-rule:evenodd"
   d="m 20.478,9.505 c 1.346,0.117 2.108,0.249 2.284,0.395 0.175,0.176 0.087,0.336 -0.265,0.483 -0.351,0.146 -0.849,0.19 -1.492,0.132 -0.556,-0.059 -0.951,-0.19 -1.186,-0.396 L 19.644,9.812 Z"
   id="path45"
   inkscape:connector-curvature="0" />
	
		<linearGradient
   id="SVGID_2_"
   gradientUnits="userSpaceOnUse"
   x1="-21.938999"
   y1="0.37889999"
   x2="-19.8626"
   y2="0.37889999"
   gradientTransform="matrix(-0.8775,-0.0317,0.0317,-0.8775,3.7504,4.4987)">
		<stop
   offset="0"
   style="stop-color:#599C00"
   id="stop47" />
		<stop
   offset="1"
   style="stop-color:#425200"
   id="stop49" />
	</linearGradient>
	<path
   style="clip-rule:evenodd;fill:url(#SVGID_2_);fill-rule:evenodd"
   d="M 21.444,5.115 21.269,4.5 h 0.264 c 0.233,0 0.482,0.044 0.746,0.132 0.38,0.146 0.527,0.307 0.438,0.483 -0.38,0.029 -0.644,0.029 -0.79,0 z"
   id="path52"
   inkscape:connector-curvature="0" />
	
		<linearGradient
   id="SVGID_3_"
   gradientUnits="userSpaceOnUse"
   x1="18.7656"
   y1="1.3477"
   x2="23.5144"
   y2="1.3477"
   gradientTransform="matrix(0.8737,0.0878,-0.0878,0.8737,3.75,4.4997)">
		<stop
   offset="0"
   style="stop-color:#599C00"
   id="stop54" />
		<stop
   offset="1"
   style="stop-color:#425200"
   id="stop56" />
	</linearGradient>
	<path
   style="clip-rule:evenodd;fill:url(#SVGID_3_);fill-rule:evenodd"
   d="m 22.322,5.115 h 0.439 c -0.1,0.017 -0.202,0.061 -0.308,0.132 -0.322,0.234 -0.513,0.747 -0.571,1.537 -0.088,1.288 0,2.341 0.264,3.161 -0.176,0.263 -0.629,0.395 -1.361,0.395 -0.41,0 -0.717,-0.088 -0.922,-0.263 L 19.644,9.813 c 0.263,-1.786 0.6,-3.117 1.01,-3.995 L 21.269,4.5 21.576,4.808 c 0.234,0.204 0.483,0.307 0.746,0.307 z"
   id="path59"
   inkscape:connector-curvature="0" />
	<g
   id="g68">
		
			<linearGradient
   id="SVGID_4_"
   gradientUnits="userSpaceOnUse"
   x1="18.1001"
   y1="3.4746001"
   x2="21.6001"
   y2="3.4746001"
   gradientTransform="matrix(0.8781,0,0,0.8781,3.7501,4.5002)">
			<stop
   offset="0"
   style="stop-color:#599C00"
   id="stop61" />
			<stop
   offset="1"
   style="stop-color:#425200"
   id="stop63" />
		</linearGradient>
		<path
   style="clip-rule:evenodd;fill:url(#SVGID_4_);fill-rule:evenodd"
   d="M 21.532,7.178 C 21.62,6.124 21.78,5.539 22.014,5.422 21.926,5.452 21.824,5.539 21.707,5.686 L 21.4,6.607 21.488,5.948 c 0.204,-0.41 0.277,-0.673 0.22,-0.79 L 21.488,4.762 C 21.722,4.998 22,5.115 22.322,5.115 h 0.395 c -0.497,0.087 -0.775,0.644 -0.834,1.668 -0.088,1.288 0,2.341 0.264,3.161 -0.176,0.263 -0.629,0.395 -1.361,0.395 -0.41,0 -0.717,-0.088 -0.922,-0.263 L 19.667,9.834 c 0.09,0.103 0.346,0.154 0.768,0.154 0.146,0 0.22,-0.132 0.22,-0.396 l 0.307,-0.746 v 0.395 c 0,0.205 0.044,0.424 0.132,0.659 l 0.044,-0.527 0.176,-0.966 v 1.405 c 0.059,0.205 0.146,0.19 0.263,-0.044 -0.089,-0.672 -0.104,-1.536 -0.045,-2.59 z"
   id="path66"
   inkscape:connector-curvature="0" />
	</g>
	<path
   style="clip-rule:evenodd;fill:#67a614;fill-rule:evenodd"
   d="m 21.269,5.466 c 0.029,0.088 0.103,0.117 0.22,0.088 l -0.396,0.834 c -0.38,1.025 -0.644,1.859 -0.79,2.503 -0.117,0.527 -0.059,0.015 0.175,-1.537 0.439,-1.581 0.703,-2.21 0.791,-1.888 z"
   id="path70"
   inkscape:connector-curvature="0" />
	
		<linearGradient
   id="SVGID_5_"
   gradientUnits="userSpaceOnUse"
   x1="-14.0498"
   y1="-7.1943002"
   x2="-11.2098"
   y2="-7.1943002"
   gradientTransform="matrix(-0.8657,0.1469,-0.1469,-0.8657,3.7509,4.5003)">
		<stop
   offset="0"
   style="stop-color:#97C41B"
   id="stop72" />
		<stop
   offset="1"
   style="stop-color:#CDFF00;stop-opacity:0"
   id="stop74" />
	</linearGradient>
	<path
   style="clip-rule:evenodd;fill:url(#SVGID_5_);fill-rule:evenodd"
   d="M 17.932,8.627 17.141,8.495 c -0.322,-0.029 -0.585,-0.029 -0.79,0 l -0.22,0.088 0.615,0.132 0.395,0.176 h -0.966 l 0.834,0.176 c 0.351,0.087 0.6,0.175 0.746,0.263 -0.468,-0.117 -1.127,-0.176 -1.976,-0.176 -0.556,0 -1.054,0.073 -1.493,0.22 L 13.76,9.549 14.068,9.417 C 14.273,9.3 14.712,9.168 15.385,9.021 L 14.77,9.11 13.629,9.418 14.156,9.242 C 14.419,9.125 14.785,9.008 15.254,8.891 L 14.2,9.067 c -0.205,0.058 -0.542,0.161 -1.009,0.307 -0.264,0.059 -0.6,0.117 -1.01,0.176 L 14.332,8.847 C 14.83,8.701 15.196,8.555 15.43,8.408 L 14.113,8.671 14.64,8.408 c 0.41,-0.205 0.775,-0.307 1.098,-0.307 l 1.229,0.131 h -0.834 c -0.205,0 -0.351,0.029 -0.439,0.088 l -0.088,0.088 h 1.054 c 0.408,0 0.832,0.072 1.272,0.219 z"
   id="path77"
   inkscape:connector-curvature="0" />
	
		<linearGradient
   id="SVGID_6_"
   gradientUnits="userSpaceOnUse"
   x1="-2.7612"
   y1="-17.955601"
   x2="-0.514"
   y2="-17.955601"
   gradientTransform="matrix(-0.4689,0.7424,-0.7424,-0.4689,3.7494,4.4999)">
		<stop
   offset="0"
   style="stop-color:#97C41B"
   id="stop79" />
		<stop
   offset="1"
   style="stop-color:#CDFF00;stop-opacity:0"
   id="stop81" />
	</linearGradient>
	<path
   style="clip-rule:evenodd;fill:url(#SVGID_6_);fill-rule:evenodd"
   d="m 16.482,13.632 0.22,-0.308 1.493,-2.283 -0.659,0.395 -0.615,0.79 0.043,-0.219 0.527,-0.922 -0.614,0.615 c -0.205,0.175 -0.381,0.468 -0.527,0.878 -0.088,0.205 -0.146,0.38 -0.176,0.527 0.059,-0.322 0.19,-0.717 0.395,-1.185 0.117,-0.322 0.249,-0.542 0.395,-0.659 0.087,-0.087 0.146,-0.131 0.176,-0.132 -0.088,0 -0.161,0.044 -0.219,0.132 l -0.483,0.439 0.263,-0.396 c 0.176,-0.292 0.351,-0.498 0.527,-0.615 l 0.395,-0.131 -0.395,0.483 0.351,-0.219 c 0.088,-0.088 0.293,-0.19 0.615,-0.308 l -0.308,0.263 -0.132,0.351 0.307,-0.263 c 0.146,-0.117 0.366,-0.219 0.659,-0.307 l -0.22,0.176 -0.219,0.482 0.439,-0.482 -0.263,0.351 -0.308,0.527 0.351,-0.308 c 0.147,-0.176 0.352,-0.307 0.615,-0.395 l -0.439,0.439 -0.351,0.483 0.659,-0.439 c 0.175,-0.176 0.424,-0.322 0.747,-0.439 l -1.186,1.01 -0.659,0.703 0.22,-0.352 0.175,-0.395 c -0.059,0.029 -0.132,0.087 -0.22,0.175 -0.146,0.146 -0.263,0.307 -0.351,0.483 -0.175,0.292 -0.424,0.6 -0.747,0.922 l 0.878,-1.668 -0.571,0.79 c -0.231,0.353 -0.495,0.689 -0.788,1.011 z"
   id="path84"
   inkscape:connector-curvature="0" />
	
		<linearGradient
   id="SVGID_7_"
   gradientUnits="userSpaceOnUse"
   x1="7.3232002"
   y1="1.812"
   x2="10.7891"
   y2="1.812"
   gradientTransform="matrix(0.7854,0.3927,-0.3927,0.7854,3.7504,4.5001)">
		<stop
   offset="0"
   style="stop-color:#58730F"
   id="stop86" />
		<stop
   offset="1"
   style="stop-color:#576B00;stop-opacity:0"
   id="stop88" />
	</linearGradient>
	<path
   style="clip-rule:evenodd;fill:url(#SVGID_7_);fill-rule:evenodd"
   d="M 9.677,9.9 C 9.268,9.695 8.975,9.33 8.799,8.803 L 8.667,8.101 8.799,8.496 c 0.117,0.293 0.249,0.513 0.395,0.659 0.234,0.234 0.629,0.396 1.185,0.483 0.293,0.048 0.644,0.048 1.054,0 L 10.204,9.813 10.775,9.9 c 0.322,0.029 0.776,0 1.361,-0.088 -0.058,0.088 -0.439,0.146 -1.141,0.176 -0.439,0.029 -0.776,0 -1.01,-0.088 l 0.219,0.131 c 0.263,0.117 0.673,0.162 1.229,0.132 -0.468,0.118 -1.054,0.03 -1.756,-0.263 z"
   id="path91"
   inkscape:connector-curvature="0" />
	
		<linearGradient
   id="SVGID_8_"
   gradientUnits="userSpaceOnUse"
   x1="15.0264"
   y1="5.21"
   x2="17.486"
   y2="5.21"
   gradientTransform="matrix(0.7854,0.3927,-0.3927,0.7854,3.7504,4.5004)">
		<stop
   offset="0"
   style="stop-color:#58730F"
   id="stop93" />
		<stop
   offset="1"
   style="stop-color:#576B00;stop-opacity:0"
   id="stop95" />
	</linearGradient>
	<path
   style="clip-rule:evenodd;fill:url(#SVGID_8_);fill-rule:evenodd"
   d="m 14.639,15.125 c 0.117,0.029 0.278,-0.103 0.483,-0.396 l 0.571,-0.878 c -0.117,0.41 -0.264,0.731 -0.439,0.966 l -0.483,0.527 0.352,-0.131 0.395,-0.264 c -0.175,0.205 -0.351,0.352 -0.527,0.439 l -0.307,0.176 c 0,0.088 0.175,0.043 0.526,-0.132 l 0.703,-0.307 c -0.234,0.322 -0.805,0.527 -1.713,0.614 -0.585,0.059 -1.039,0.073 -1.361,0.044 l -0.307,-0.044 0.263,-0.044 c 0.527,0.088 0.951,-0.015 1.273,-0.307 0.322,-0.292 0.629,-0.644 0.922,-1.054 z"
   id="path98"
   inkscape:connector-curvature="0" />
	
		<linearGradient
   id="SVGID_9_"
   gradientUnits="userSpaceOnUse"
   x1="29.090799"
   y1="-2.082"
   x2="33.1157"
   y2="-2.082"
   gradientTransform="matrix(0.7854,0.3927,-0.3927,0.7854,3.7502,4.4999)">
		<stop
   offset="0"
   style="stop-color:#58730F"
   id="stop100" />
		<stop
   offset="1"
   style="stop-color:#576B00;stop-opacity:0"
   id="stop102" />
	</linearGradient>
	<path
   style="clip-rule:evenodd;fill:url(#SVGID_9_);fill-rule:evenodd"
   d="m 26.888,14.291 0.483,0.395 c 0.176,0.175 0.425,0.337 0.746,0.483 C 28,15.111 27.884,15.008 27.765,14.861 l -0.526,-0.702 0.526,0.571 c 0.205,0.205 0.47,0.336 0.791,0.396 l -0.307,-0.22 -0.439,-0.396 0.351,0.264 0.396,0.132 -0.307,-0.22 -0.659,-0.834 0.79,0.658 c 0.352,0.322 0.513,0.396 0.482,0.22 l -0.526,-0.702 1.098,0.878 c 0.557,0.38 0.85,0.542 0.878,0.483 0.088,0.059 0.073,0.088 -0.043,0.088 l -0.791,-0.22 0.396,0.22 c 0.176,0.088 0.438,0.176 0.79,0.263 l -0.527,-0.044 -0.878,-0.176 0.702,0.308 c 0.273,0.096 0.5,0.162 0.682,0.198 -0.432,-0.049 -1.024,-0.174 -1.779,-0.373 -0.613,-0.176 -1.126,-0.454 -1.536,-0.834 z"
   id="path105"
   inkscape:connector-curvature="0" />
	
		<linearGradient
   id="SVGID_10_"
   gradientUnits="userSpaceOnUse"
   x1="27.056601"
   y1="-6.1602001"
   x2="30.858"
   y2="-6.1602001"
   gradientTransform="matrix(0.7854,0.3927,-0.3927,0.7854,3.7504,4.5004)">
		<stop
   offset="0"
   style="stop-color:#58730F"
   id="stop107" />
		<stop
   offset="1"
   style="stop-color:#576B00;stop-opacity:0"
   id="stop109" />
	</linearGradient>
	<path
   style="clip-rule:evenodd;fill:url(#SVGID_10_);fill-rule:evenodd"
   d="m 29.522,10.91 h -0.22 l -0.307,0.088 1.668,0.044 -1.316,0.175 h 1.844 l -2.239,0.22 c -0.497,0.029 -0.907,0 -1.229,-0.088 l -0.352,-0.132 c 0.469,0.088 0.819,0.088 1.054,0 l -1.361,-0.263 0.483,0.044 c 0.233,0.029 0.498,0.015 0.79,-0.044 h -0.702 c -0.176,0 -0.381,-0.059 -0.615,-0.176 l -0.307,-0.175 0.834,0.22 c 0.409,0.087 0.673,0.103 0.79,0.043 h -0.22 l -0.352,-0.219 z"
   id="path112"
   inkscape:connector-curvature="0" />
	
		<linearGradient
   id="SVGID_11_"
   gradientUnits="userSpaceOnUse"
   x1="22.8447"
   y1="-6.4970999"
   x2="24.097"
   y2="-6.4970999"
   gradientTransform="matrix(0.7889,0.3857,-0.3857,0.7889,3.7498,4.5003)">
		<stop
   offset="0"
   style="stop-color:#58730F"
   id="stop114" />
		<stop
   offset="1"
   style="stop-color:#576B00;stop-opacity:0"
   id="stop116" />
	</linearGradient>
	<path
   style="clip-rule:evenodd;fill:url(#SVGID_11_);fill-rule:evenodd"
   d="m 24.034,8.32 c 0.234,0.117 0.542,0.175 0.923,0.175 0.292,0 0.482,-0.029 0.57,-0.087 -0.146,0.117 -0.351,0.19 -0.615,0.22 -0.264,0.029 -0.468,0.015 -0.614,-0.044 z"
   id="path119"
   inkscape:connector-curvature="0" />
	
		<linearGradient
   id="SVGID_12_"
   gradientUnits="userSpaceOnUse"
   x1="24.121099"
   y1="-9.4082003"
   x2="27.169001"
   y2="-9.4082003"
   gradientTransform="matrix(0.6626,0.5762,-0.5762,0.6626,3.7499,4.5003)">
		<stop
   offset="0"
   style="stop-color:#97C41B"
   id="stop121" />
		<stop
   offset="1"
   style="stop-color:#CDFF00;stop-opacity:0"
   id="stop123" />
	</linearGradient>
	<path
   style="clip-rule:evenodd;fill:url(#SVGID_12_);fill-rule:evenodd"
   d="m 27.063,13.281 -0.263,-0.088 0.263,0.264 c 0.118,0.087 0.22,0.205 0.308,0.351 l -0.394,-0.308 -0.483,-0.176 0.088,0.044 0.263,0.395 c -0.058,0 -0.189,-0.088 -0.395,-0.264 -0.117,-0.117 -0.205,-0.161 -0.264,-0.131 v 0.088 l 0.176,0.526 -0.264,-0.395 -0.658,-0.483 0.615,0.219 v -0.131 l -0.089,-0.175 0.352,0.131 -0.438,-0.439 0.396,0.175 c 0.175,0.117 0.307,0.161 0.394,0.132 l -0.482,-0.483 0.658,0.351 c 0.176,0.117 0.469,0.381 0.879,0.791 l -0.703,-0.571 0.308,0.307 z"
   id="path126"
   inkscape:connector-curvature="0" />
	
		<linearGradient
   id="SVGID_13_"
   gradientUnits="userSpaceOnUse"
   x1="23.8389"
   y1="2.1768"
   x2="26.584801"
   y2="2.1768"
   gradientTransform="matrix(0.8634,0.1599,-0.1599,0.8634,3.7499,4.4995)">
		<stop
   offset="0"
   style="stop-color:#97C41B"
   id="stop128" />
		<stop
   offset="1"
   style="stop-color:#CDFF00;stop-opacity:0"
   id="stop130" />
	</linearGradient>
	<path
   style="clip-rule:evenodd;fill:url(#SVGID_13_);fill-rule:evenodd"
   d="m 25.527,10.778 0.088,0.088 c 0.088,0.059 0.205,0.103 0.351,0.132 l 0.483,0.088 -1.142,-0.176 -0.659,-0.175 0.879,-0.044 -0.966,-0.439 h 0.878 l -0.308,-0.22 -0.351,-0.087 -0.044,-0.088 0.614,0.175 0.395,0.176 -0.438,-0.088 0.79,0.483 -0.658,-0.176 h -0.176 l 0.966,0.351 c -0.234,0.029 -0.409,0.029 -0.526,0 z"
   id="path133"
   inkscape:connector-curvature="0" />
</g>
</svg>