<svg width="320" height="639" xmlns="http://www.w3.org/2000/svg">
 <defs>
  <linearGradient x1="-0.30316" y1="0.40554" x2="1.2266" y2="0.47658" id="imagebot_4">
   <stop stop-color="#ffffff" offset="0" id="imagebot_12"/>
   <stop stop-color="#ffffff" stop-opacity="0" offset="1" id="imagebot_11"/>
  </linearGradient>
  <linearGradient id="imagebot_13" y2="1" x2="1" y1="0" x1="0">
   <stop stop-color="rgb(47.843098%,100.0%,73.725494%)" offset="0.0%"/>
   <stop stop-color="rgb(36.47055%,66.2745%,96.66665%)" offset="43.9834%"/>
   <stop stop-color="rgb(25.098%,93.3333%,58.8235%)" offset="100.0%"/>
  </linearGradient>
 </defs>
 <title/>
 <g label="Ebene 1" id="imagebot_2">
  <path transform="translate(0.013916 0) matrix(1 0 0 1 2851.3 -255.81)" label="Ebene 1" fill="#87bafb" d="M-2693,255.81C-2712.75098,346.67401 -2742.69409,435.31998 -2782.08594,519.54999C-2801.93994,562.00299 -2824.27808,603.57001 -2838.21899,648.32001C-2852.15991,693.065 -2857.23901,742.172 -2842.07739,786.52002C-2829.07739,824.54199 -2801.16748,857.245 -2765.65649,876.04901S-2687.40552,899.55798 -2648.65649,888.91901C-2609.90747,878.27899 -2575.5603,852.40497 -2554.65137,818.091S-2526.49536,741.38501 -2534.82935,702.07098C-2542.41772,666.27698 -2562.06348,634.19897 -2584.01538,604.927C-2605.96729,575.65399 -2630.5874,548.31598 -2650.31445,517.5C-2699.3103,440.961 -2715.1333,343.95999 -2693.00049,255.81" id="imagebot_7"/>
  <path transform="translate(0.013916 0) matrix(1 0 0 1 2851.3 -255.81)" label="Ebene 1" fill="url(#imagebot_13)" d="M-2693,255.81C-2712.75098,346.67401 -2742.69409,435.31998 -2782.08594,519.54999C-2801.93994,562.00299 -2824.27808,603.57001 -2838.21899,648.32001C-2852.15991,693.065 -2857.23901,742.172 -2842.07739,786.52002C-2829.07739,824.54199 -2801.16748,857.245 -2765.65649,876.04901S-2687.40552,899.55798 -2648.65649,888.91901C-2609.90747,878.27899 -2575.5603,852.40497 -2554.65137,818.091S-2526.49536,741.38501 -2534.82935,702.07098C-2542.41772,666.27698 -2562.06348,634.19897 -2584.01538,604.927C-2605.96729,575.65399 -2630.5874,548.31598 -2650.31445,517.5C-2699.3103,440.961 -2715.1333,343.95999 -2693.00049,255.81" id="imagebot_5"/>
  <path transform="translate(0.013916 0) matrix(1 0 0 1 2851.3 -255.81)" label="Ebene 1" fill="url(#imagebot_4)" d="M-2716.5,394.92001C-2740.33691,467.95502 -2767.4541,539.91998 -2797.73999,610.52002C-2807.34961,632.92303 -2817.31104,655.27899 -2823.90088,678.74805C-2830.49072,702.21704 -2833.62695,727.05804 -2829.31958,751.05103C-2826.99756,763.98602 -2822.50049,776.58301 -2815.59375,787.76404C-2808.68701,798.94501 -2799.33667,808.685 -2788.12964,815.54901C-2776.92163,822.41284 -2763.84277,826.336 -2750.70166,826.19604C-2737.55981,826.05542 -2724.40771,821.76593 -2714.05078,813.67603C-2703.48877,805.42523 -2696.10474,793.49304 -2692.19678,780.672C-2688.28857,767.85199 -2687.71948,754.17004 -2689.2522,740.85504C-2692.31714,714.22504 -2703.48511,689.33301 -2712.21313,663.98804C-2741.91016,577.74805 -2743.43506,482.05804 -2716.50073,394.918" id="imagebot_3"/>
  <title>Ebene 1</title>
 </g>
 <metadata>image/svg+xmlOpenclipartDrop2009-06-23T19:00:38A simple all-purpose water drophttps://openclipart.org/detail/26775/drop-by-raemiraemicolourdroprainsymbolwater</metadata>
</svg>