<?xml version="1.0" encoding="UTF-8" standalone="no"?>
<!-- Created with Inkscape (http://www.inkscape.org/) -->

<svg
   xmlns:dc="http://purl.org/dc/elements/1.1/"
   xmlns:cc="http://creativecommons.org/ns#"
   xmlns:rdf="http://www.w3.org/1999/02/22-rdf-syntax-ns#"
   xmlns:svg="http://www.w3.org/2000/svg"
   xmlns="http://www.w3.org/2000/svg"
   xmlns:sodipodi="http://sodipodi.sourceforge.net/DTD/sodipodi-0.dtd"
   xmlns:inkscape="http://www.inkscape.org/namespaces/inkscape"
   id="svg2"
   xml:space="preserve"
   viewBox="0 0 256.00001 256.00001"
   version="1.1"
   inkscape:version="0.92.4 (5da689c313, 2019-01-14)"
   sodipodi:docname="grain.svg"
   width="256"
   height="256"
   inkscape:export-xdpi="10.5"
   inkscape:export-ydpi="10.5"><title
   id="title822">Grain</title><defs
   id="defs12" /><sodipodi:namedview
   pagecolor="#ffffff"
   bordercolor="#666666"
   borderopacity="1"
   objecttolerance="10"
   gridtolerance="10"
   guidetolerance="10"
   inkscape:pageopacity="0"
   inkscape:pageshadow="2"
   inkscape:window-width="1920"
   inkscape:window-height="1025"
   id="namedview10"
   showgrid="false"
   inkscape:zoom="0.74027606"
   inkscape:cx="-211.59962"
   inkscape:cy="209.77242"
   inkscape:window-x="-8"
   inkscape:window-y="-8"
   inkscape:window-maximized="1"
   inkscape:current-layer="svg2"
   fit-margin-top="0"
   fit-margin-left="0"
   fit-margin-right="0"
   fit-margin-bottom="0" />
  <g
   id="g10"
   transform="matrix(7.7861288,0,0,-7.7861288,-6.44076e-5,252.11479)">
    <g
   id="g12">
      <path
   id="path14"
   style="fill:#e7d06b;fill-rule:evenodd"
   d="M 32.238,12.681 32,12.482 H 31.961 L 31.762,12.321 31.16,11.958 c -0.055,-0.051 -0.121,-0.09 -0.199,-0.117 -0.02,-0.004 -0.039,-0.004 -0.063,0 -1.273,-0.18 -2.171,0.035 -2.699,0.641 -0.027,0.023 -0.039,0.05 -0.039,0.078 -0.055,0.054 -0.094,0.105 -0.121,0.16 -0.078,0.133 -0.133,0.265 -0.16,0.398 -0.024,0.082 -0.051,0.16 -0.078,0.242 v 0.04 c 0.027,0.027 0.039,0.054 0.039,0.082 L 28,13.56 c 0.055,0.027 0.121,0.054 0.199,0.082 -0.078,-0.188 -0.027,-0.403 0.16,-0.641 0.161,-0.187 0.426,-0.336 0.801,-0.441 0.375,-0.106 0.785,-0.149 1.238,-0.121 0.481,0.027 0.922,0.121 1.321,0.281 0.453,0.16 0.828,0.398 1.121,0.719 h 0.039 L 32.68,13.161 c -0.082,-0.082 -0.172,-0.176 -0.282,-0.281 -0.05,-0.055 -0.105,-0.121 -0.16,-0.199 z M 23.602,31.88 23.68,31.599 c 0,-0.078 0.015,-0.16 0.043,-0.239 v -0.082 l 0.039,-0.277 v -0.242 c 0.023,-0.266 0.039,-0.531 0.039,-0.801 0,-0.078 -0.016,-0.156 -0.039,-0.238 l -0.121,-1.199 c -0.016,-0.055 -0.028,-0.106 -0.039,-0.161 -0.829,-1.359 -1.68,-1.949 -2.563,-1.761 -0.027,0.027 -0.066,0.043 -0.117,0.043 -0.055,0.023 -0.121,0.05 -0.203,0.078 -0.16,0.055 -0.305,0.148 -0.438,0.281 -0.074,0.047 -0.148,0.109 -0.222,0.18 l -0.02,0.019 v 0.039 C 20.012,27.267 20,27.306 20,27.36 v 0.079 l 0.039,0.203 c 0.027,0.078 0.055,0.144 0.082,0.199 0.078,-0.293 0.293,-0.481 0.641,-0.563 0.265,-0.05 0.586,0.028 0.957,0.243 0.347,0.238 0.668,0.558 0.961,0.961 0.347,0.453 0.597,0.957 0.758,1.519 0.187,0.613 0.242,1.227 0.16,1.84 v 0.039 z m -3.403,-6.281 c -0.027,-0.051 -0.054,-0.106 -0.078,-0.16 L 20,25.161 C 19.922,25.134 19.828,25.118 19.719,25.118 H 19.32 c -0.215,0 -0.414,0.055 -0.601,0.16 -0.024,0 -0.051,0.016 -0.078,0.043 -0.746,0.399 -1.055,1.348 -0.922,2.84 0.019,0.067 0.047,0.133 0.082,0.199 l 0.679,1.161 c 0.028,0.027 0.051,0.066 0.079,0.121 L 19,30.239 h 0.039 v 0.039 l 0.281,0.321 c 0.078,0.054 0.149,0.109 0.2,0.16 l 0.242,0.242 h 0.019 L 19.762,30.958 C 19.359,30.505 19.055,29.985 18.84,29.4 c -0.215,-0.532 -0.32,-1.079 -0.32,-1.641 0,-0.531 0.082,-0.984 0.242,-1.359 0.16,-0.399 0.359,-0.653 0.597,-0.758 0.055,-0.028 0.094,-0.043 0.121,-0.043 0.079,-0.024 0.161,-0.039 0.239,-0.039 0.16,-0.028 0.293,0 0.402,0.082 0.024,0.023 0.051,0.05 0.078,0.078 z M 18.68,24.36 18.52,24.161 c -0.051,0.078 -0.094,0.16 -0.122,0.239 0.11,-0.028 0.204,-0.04 0.282,-0.04 z m 3.121,-0.679 c -1.469,-0.586 -2.496,-0.547 -3.082,0.121 v 0.039 c 0.027,0.051 0.054,0.094 0.082,0.117 0.105,0.137 0.211,0.27 0.32,0.402 0.16,-0.105 0.387,-0.175 0.68,-0.199 0.426,-0.054 0.879,0 1.359,0.16 0.559,0.161 1.067,0.399 1.52,0.719 0.508,0.371 0.918,0.828 1.242,1.36 L 23.961,26.439 23.84,26.2 c -0.051,-0.105 -0.117,-0.226 -0.199,-0.359 l -0.2,-0.32 V 25.482 L 23.398,25.439 23,24.88 22.922,24.802 22.602,24.4 21.879,23.759 c -0.027,-0.024 -0.051,-0.051 -0.078,-0.078 z m -1.52,-2.922 c -0.019,-0.004 -0.031,-0.012 -0.043,-0.02 -0.023,-0.007 -0.05,-0.011 -0.078,-0.019 -1.453,-0.352 -2.43,-0.164 -2.922,0.558 -0.078,0.11 -0.144,0.243 -0.199,0.403 l 0.359,0.48 c 0.028,-0.082 0.067,-0.148 0.122,-0.203 0.16,-0.238 0.441,-0.398 0.839,-0.476 0.426,-0.082 0.895,-0.082 1.403,0 0.531,0.105 1.05,0.304 1.558,0.597 0.559,0.293 1.028,0.696 1.399,1.199 h 0.043 L 22.48,22.88 c -0.117,-0.152 -0.234,-0.313 -0.359,-0.48 -0.055,-0.063 -0.109,-0.129 -0.16,-0.2 l -0.32,-0.281 c -0.028,-0.051 -0.055,-0.094 -0.082,-0.117 l -1.161,-0.961 c -0.039,-0.027 -0.082,-0.055 -0.117,-0.082 z m -1.883,-4 -0.32,-0.277 C 17.973,16.372 17.867,16.278 17.762,16.2 L 16.879,15.599 C 16.855,15.583 16.828,15.571 16.801,15.56 l -0.039,-0.039 h -0.043 c -1.524,-0.313 -2.508,-0.086 -2.957,0.679 -0.137,0.239 -0.215,0.508 -0.242,0.801 l 0.441,0.559 c -0.082,-0.215 -0.039,-0.442 0.117,-0.68 0.137,-0.238 0.402,-0.414 0.801,-0.52 0.402,-0.105 0.867,-0.132 1.402,-0.082 0.531,0.055 1.067,0.215 1.598,0.481 0.562,0.266 1.043,0.641 1.441,1.121 h 0.039 L 19.078,17.482 C 18.945,17.345 18.812,17.2 18.68,17.04 Z m 0.403,1.402 c -0.082,-0.054 -0.149,-0.094 -0.199,-0.121 -1.547,-0.32 -2.547,-0.094 -3,0.68 -0.137,0.187 -0.215,0.414 -0.243,0.68 l 0.403,0.558 c -0.028,-0.183 0.011,-0.371 0.117,-0.558 0.133,-0.239 0.414,-0.426 0.84,-0.559 0.402,-0.106 0.855,-0.133 1.359,-0.082 0.563,0.082 1.094,0.242 1.602,0.48 0.586,0.293 1.082,0.668 1.48,1.121 l 0.039,0.04 -0.277,-0.399 C 20.785,19.868 20.652,19.72 20.52,19.56 20.441,19.482 20.375,19.4 20.32,19.321 L 20,19.04 c -0.055,-0.027 -0.105,-0.066 -0.16,-0.121 z m 0.64,-6.402 c 0.348,0.082 0.692,0.148 1.039,0.199 0.106,-0.023 0.227,-0.051 0.36,-0.078 0.293,-0.027 0.558,0.039 0.801,0.199 -0.082,0 -0.161,0.016 -0.243,0.039 0,0.028 -0.011,0.043 -0.039,0.043 H 21.32 V 12.2 c -0.265,0.106 -0.48,0.254 -0.64,0.442 -0.5,0.574 -0.407,1.367 0.281,2.379 0.012,0.019 0.027,0.043 0.039,0.058 0.078,0.055 0.172,0.106 0.281,0.16 l 0.239,0.161 0.601,0.281 c 0.051,0.027 0.106,0.054 0.16,0.078 l 0.321,0.082 c 0.078,0.027 0.16,0.051 0.238,0.078 0.16,0.047 0.32,0.086 0.48,0.121 l 0.403,0.039 C 23.215,15.974 22.762,15.759 22.359,15.439 21.988,15.173 21.695,14.853 21.48,14.482 21.266,14.107 21.148,13.747 21.121,13.4 21.094,13.079 21.16,12.825 21.32,12.642 21.535,12.427 21.762,12.333 22,12.36 21.973,12.333 21.949,12.306 21.922,12.278 L 21.84,12.2 c 0.187,0.028 0.375,0.055 0.558,0.078 0.082,0.028 0.176,0.043 0.282,0.043 0.109,0.028 0.215,0.039 0.32,0.039 0.105,-0.054 0.238,-0.093 0.398,-0.121 -0.132,-0.027 -0.304,-0.054 -0.519,-0.078 -0.238,-0.054 -0.504,-0.109 -0.801,-0.16 -0.266,-0.055 -0.558,-0.121 -0.879,-0.199 -0.105,-0.027 -0.211,-0.055 -0.32,-0.082 -0.078,-0.028 -0.16,-0.039 -0.238,-0.039 -0.293,-0.082 -0.575,-0.16 -0.84,-0.242 -1.039,-0.266 -2.055,-0.571 -3.039,-0.918 -1.496,-0.536 -3.067,-1.2 -4.723,-2 -0.078,-0.028 -0.16,-0.067 -0.238,-0.121 0.054,0.054 0.094,0.093 0.121,0.121 h -0.32 L 11.441,8.56 c -0.027,0 -0.043,0.015 -0.043,0.043 l -0.16,0.039 -0.039,0.039 c -0.027,0 -0.054,0.011 -0.078,0.039 L 11.078,8.759 10.398,8.439 10.281,8.4 C 10.262,8.384 10.238,8.372 10.219,8.36 h -0.02 C 9.055,8.306 8.293,8.532 7.922,9.04 8.055,9.228 8.188,9.427 8.32,9.642 V 9.599 C 8.398,9.493 8.547,9.388 8.762,9.278 9.078,9.146 9.453,9.067 9.879,9.04 h 0.359 c 0.188,0 0.375,0.027 0.563,0.078 0.16,0.028 0.332,0.071 0.519,0.121 h 0.078 c 0.321,0.106 0.629,0.266 0.922,0.481 0.055,0.027 0.106,0.055 0.16,0.082 0.079,0.051 0.145,0.105 0.2,0.156 l 0.039,0.043 -0.16,-0.199 C 12.531,9.775 12.508,9.759 12.48,9.759 12.43,9.712 12.387,9.665 12.34,9.618 L 12.32,9.599 C 12.238,9.521 12.145,9.439 12.039,9.36 11.961,9.306 11.879,9.251 11.801,9.2 L 11.52,9.001 C 11.547,8.974 11.574,8.958 11.602,8.958 11.68,8.88 11.773,8.841 11.879,8.841 11.988,8.814 12.078,8.825 12.16,8.88 c 0,0.027 0.012,0.066 0.039,0.121 0.242,0.106 0.481,0.211 0.723,0.316 0.211,-0.078 0.437,-0.089 0.68,-0.039 0.265,0.082 0.492,0.215 0.679,0.403 -0.082,0 -0.187,0.011 -0.32,0.039 -0.055,0 -0.106,0.012 -0.16,0.039 -0.106,0.027 -0.199,0.055 -0.281,0.082 -0.051,0.027 -0.106,0.066 -0.161,0.117 -0.238,0.16 -0.386,0.402 -0.437,0.723 l -0.402,-0.16 c -0.055,-0.028 -0.094,-0.043 -0.122,-0.043 h -0.117 c -0.32,-0.024 -0.613,-0.012 -0.883,0.043 -0.21,0.027 -0.398,0.066 -0.558,0.117 h -0.078 c -0.508,0.187 -0.84,0.496 -1,0.922 0,0.023 -0.008,0.054 -0.024,0.097 0.125,0.207 0.254,0.399 0.383,0.582 0,-0.027 0.012,-0.054 0.039,-0.082 0.078,-0.265 0.293,-0.476 0.641,-0.636 0.133,-0.055 0.277,-0.11 0.437,-0.161 0.137,-0.027 0.27,-0.054 0.403,-0.082 0.132,-0.027 0.281,-0.039 0.437,-0.039 h 0.844 c 0.211,0.051 0.437,0.106 0.68,0.161 h 0.039 c 0.371,0.105 0.718,0.253 1.039,0.441 0.16,0.105 0.308,0.211 0.441,0.316 0.024,0.028 0.051,0.043 0.078,0.043 h -0.078 c 0.024,0.293 0.133,0.641 0.32,1.039 l -0.281,-0.16 -0.238,-0.16 C 14.875,12.892 14.828,12.864 14.781,12.841 14.766,12.829 14.742,12.814 14.719,12.798 H 14.68 c -0.239,-0.023 -0.481,-0.051 -0.719,-0.078 -0.188,-0.028 -0.375,-0.028 -0.563,0 -0.183,0 -0.359,0.027 -0.519,0.078 -0.531,0.109 -0.906,0.359 -1.117,0.762 -0.11,0.215 -0.176,0.441 -0.203,0.679 -0.067,-0.082 -0.133,-0.168 -0.2,-0.261 0.2,0.293 0.403,0.578 0.602,0.863 -0.027,-0.188 0.012,-0.387 0.117,-0.602 0.137,-0.238 0.402,-0.425 0.801,-0.558 0.402,-0.11 0.867,-0.149 1.402,-0.121 v 0.039 h 0.321 c 0.132,0.027 0.265,0.054 0.398,0.082 0.293,0.078 0.586,0.183 0.879,0.32 0.586,0.266 1.082,0.625 1.48,1.078 l 0.039,0.039 c 0,-0.027 -0.011,-0.051 -0.039,-0.078 l -0.281,-0.359 c -0.023,0 -0.039,-0.016 -0.039,-0.043 l 0.199,0.121 c 0.055,0.027 0.11,0.055 0.16,0.082 0.157,0.066 0.301,0.117 0.442,0.16 l 0.398,0.117 h 0.043 c -0.508,-0.183 -0.949,-0.465 -1.32,-0.84 -0.348,-0.343 -0.613,-0.734 -0.801,-1.16 -0.187,-0.398 -0.293,-0.773 -0.32,-1.117 0,-0.348 0.082,-0.617 0.238,-0.801 0.137,-0.133 0.281,-0.215 0.442,-0.242 0.082,0 0.16,0.016 0.242,0.043 l -0.043,-0.043 c 0.375,0.133 0.75,0.254 1.121,0.359 0.133,-0.05 0.281,-0.078 0.441,-0.078 0.293,0 0.559,0.078 0.797,0.239 -0.105,0 -0.211,0.027 -0.316,0.082 -0.028,0 -0.043,0.011 -0.043,0.039 -0.239,0.105 -0.438,0.242 -0.598,0.402 -0.473,0.578 -0.379,1.402 0.277,2.477 -0.105,-0.094 -0.21,-0.188 -0.32,-0.278 0.11,0.106 0.227,0.211 0.363,0.321 0.079,0.05 0.161,0.105 0.239,0.16 l 0.199,0.16 0.519,0.277 c 0.11,0.055 0.215,0.106 0.321,0.16 l 0.32,0.122 h 0.02 c 0.07,0.027 0.129,0.054 0.179,0.078 0.188,0.054 0.348,0.093 0.481,0.121 l 0.359,0.082 c -0.484,-0.141 -0.926,-0.383 -1.316,-0.723 -0.348,-0.293 -0.629,-0.641 -0.84,-1.039 -0.215,-0.371 -0.336,-0.734 -0.36,-1.078 -0.027,-0.348 0.04,-0.617 0.2,-0.801 0.211,-0.215 0.437,-0.305 0.679,-0.281 z m 6.079,4.16 h 0.199 c 0.16,0.027 0.32,0.055 0.48,0.082 h 0.403 c -0.52,-0.062 -1,-0.223 -1.442,-0.48 -0.375,-0.215 -0.68,-0.496 -0.922,-0.84 -0.238,-0.321 -0.383,-0.656 -0.437,-1 -0.055,-0.321 0,-0.574 0.16,-0.762 0.105,-0.16 0.238,-0.266 0.398,-0.32 0.082,-0.024 0.161,-0.039 0.243,-0.039 -0.028,-0.028 -0.067,-0.055 -0.122,-0.078 L 24.32,12.36 c -0.027,0 -0.066,-0.015 -0.121,-0.039 -0.051,0.028 -0.121,0.051 -0.199,0.079 -0.027,0.027 -0.066,0.054 -0.121,0.082 H 23.84 v 0.039 l -0.52,0.398 c 0,0.027 -0.011,0.055 -0.039,0.082 -0.027,0.024 -0.054,0.066 -0.082,0.117 l 0.602,2.184 v 0.019 c 0.078,0.051 0.172,0.094 0.277,0.118 l 0.281,0.16 0.52,0.16 c 0.109,0.027 0.215,0.055 0.32,0.082 z m 1.601,-3.437 C 27.094,12.454 27.066,12.442 27.039,12.439 27.012,12.411 26.988,12.4 26.961,12.4 l -0.16,-0.079 H 26.68 c -0.028,0 -0.055,0.012 -0.082,0.039 -0.078,0.028 -0.16,0.079 -0.239,0.161 -0.054,0.027 -0.105,0.066 -0.16,0.121 -0.16,0.133 -0.281,0.277 -0.359,0.437 -0.028,0.028 -0.039,0.055 -0.039,0.082 -0.321,0.641 -0.043,1.321 0.84,2.039 0.089,0.032 0.183,0.059 0.281,0.078 l 0.277,0.082 0.602,0.079 c 0.105,0.027 0.226,0.043 0.359,0.043 l 0.36,0.039 h 0.16 c 0.183,-0.008 0.355,-0.02 0.519,-0.039 l 0.442,-0.043 H 29.68 L 29.641,15.4 C 29.078,15.454 28.559,15.388 28.078,15.2 27.68,15.04 27.32,14.814 27,14.521 c -0.266,-0.266 -0.453,-0.547 -0.562,-0.84 -0.079,-0.293 -0.067,-0.547 0.042,-0.762 0.028,-0.027 0.051,-0.051 0.079,-0.078 0.027,-0.055 0.066,-0.106 0.121,-0.16 0.132,-0.106 0.281,-0.176 0.441,-0.199 z M 17.078,28.88 17.121,28.958 V 28.919 C 17.109,28.907 17.094,28.892 17.078,28.88 Z M 16.48,28.161 c -0.027,-0.027 -0.039,-0.054 -0.039,-0.082 v 0.039 c 0,0.028 0.012,0.043 0.039,0.043 z m -1.742,-1.543 c -0.332,-0.5 -0.55,-1.066 -0.66,-1.699 -0.105,-0.559 -0.105,-1.117 0,-1.68 0.082,-0.504 0.227,-0.933 0.442,-1.281 0.214,-0.371 0.453,-0.586 0.718,-0.637 0.348,-0.082 0.629,-0.015 0.84,0.2 0,-0.082 -0.012,-0.161 -0.039,-0.243 0.133,0.161 0.266,0.321 0.402,0.481 0.079,0.082 0.145,0.16 0.2,0.242 0.078,0.106 0.16,0.199 0.238,0.277 0.16,0.028 0.309,0.094 0.441,0.204 h 0.039 C 17.254,22.345 17.121,22.185 16.961,22.001 16.801,21.786 16.602,21.521 16.359,21.2 16.121,20.88 15.84,20.505 15.52,20.079 15.469,20.001 15.414,19.907 15.359,19.802 15.172,19.56 14.973,19.294 14.762,19.001 14.414,18.575 14.055,18.095 13.68,17.56 13.625,17.482 13.574,17.4 13.52,17.321 13.332,17.052 13.133,16.775 12.922,16.482 12.785,16.321 12.668,16.161 12.559,16.001 11.121,14.025 9.879,12.321 8.84,10.88 l 0.039,0.121 V 11.04 C 8.801,10.958 8.695,10.892 8.559,10.841 8.453,10.814 8.359,10.786 8.281,10.759 H 8.16 C 8.133,10.735 8.105,10.72 8.078,10.72 H 7.84 c -0.746,0.082 -1.281,0.762 -1.602,2.039 v 0.121 l 0.203,1.199 c 0.028,0.055 0.051,0.106 0.079,0.16 l 0.16,0.481 c 0,0.027 0.015,0.055 0.039,0.082 0,0.051 0.015,0.09 0.043,0.117 v 0.082 H 6.801 L 6.879,15.2 c 0.027,0.078 0.055,0.16 0.082,0.239 l 0.117,0.242 V 15.642 C 6.895,15.161 6.785,14.642 6.762,14.079 6.762,13.599 6.84,13.134 7,12.681 7.133,12.255 7.32,11.907 7.559,11.642 7.773,11.372 8,11.228 8.238,11.2 c 0.16,0 0.297,0.028 0.403,0.078 0.105,0.055 0.187,0.137 0.238,0.243 v 0.121 c 0.187,0.265 0.359,0.504 0.519,0.718 l 0.043,0.04 c 0.266,0.027 0.504,0.148 0.719,0.359 0.215,0.242 0.36,0.519 0.442,0.84 C 10.492,13.521 10.375,13.454 10.238,13.4 10.188,13.372 10.121,13.349 10.039,13.321 9.934,13.294 9.812,13.267 9.68,13.239 H 9.441 c -0.824,0.082 -1.425,0.821 -1.8,2.219 v 0.024 c 0.007,0.074 0.023,0.156 0.039,0.238 l 0.199,1.238 c 0.027,0.027 0.043,0.055 0.043,0.082 l 0.199,0.641 v 0.039 c 0.016,0.039 0.035,0.082 0.059,0.121 0.023,0.086 0.05,0.164 0.082,0.238 L 8.32,18.2 v 0.039 c 0.028,0.055 0.067,0.121 0.121,0.2 l 0.118,0.242 V 18.642 C 8.32,18.107 8.211,17.532 8.238,16.919 c 0,-0.531 0.082,-1.051 0.242,-1.559 0.161,-0.453 0.375,-0.828 0.641,-1.121 0.266,-0.293 0.52,-0.437 0.758,-0.437 h 0.242 c 0.184,0.023 0.332,0.117 0.438,0.277 0.027,0 0.043,0.016 0.043,0.039 0.183,0.27 0.371,0.535 0.558,0.801 0.106,0.027 0.227,0.082 0.36,0.16 0.265,0.215 0.453,0.481 0.558,0.801 C 12,15.825 11.879,15.786 11.719,15.759 H 11.68 c -0.028,-0.024 -0.055,-0.039 -0.078,-0.039 -0.297,-0.051 -0.563,-0.051 -0.801,0 -0.856,0.215 -1.36,1.094 -1.52,2.64 v 0.122 l 0.481,1.398 c 0,0.027 0.011,0.055 0.039,0.078 l 0.32,0.684 0.039,0.039 v 0.039 l 0.16,0.238 c 0.106,0.16 0.2,0.309 0.282,0.442 l 0.117,0.16 v -0.039 c -0.321,-0.508 -0.52,-1.082 -0.598,-1.719 -0.109,-0.563 -0.109,-1.121 0,-1.684 0.106,-0.504 0.277,-0.933 0.52,-1.277 0.214,-0.348 0.453,-0.563 0.718,-0.641 0.266,-0.054 0.496,-0.015 0.68,0.121 0.055,0.028 0.106,0.067 0.16,0.118 V 16.4 c 0.293,0.402 0.563,0.773 0.801,1.121 0.16,0.027 0.32,0.093 0.48,0.199 0.266,0.215 0.465,0.48 0.598,0.801 C 13.973,18.466 13.84,18.415 13.68,18.36 h -0.039 c -0.293,-0.054 -0.575,-0.054 -0.84,0 -0.879,0.239 -1.375,1.145 -1.481,2.719 0.012,0.039 0.028,0.082 0.039,0.121 l 0.282,0.918 0.199,0.442 c 0,0.027 0.015,0.054 0.039,0.082 l 0.32,0.636 0.039,0.043 v 0.02 c 0.016,0.012 0.028,0.031 0.043,0.059 l 0.199,0.32 c 0.051,0.082 0.106,0.148 0.161,0.199 l 0.199,0.32 h 0.039 L 12.84,24.2 c -0.32,-0.535 -0.535,-1.105 -0.641,-1.718 -0.105,-0.563 -0.121,-1.122 -0.039,-1.68 0.106,-0.508 0.266,-0.949 0.481,-1.32 0.214,-0.348 0.453,-0.563 0.718,-0.641 0.348,-0.082 0.629,0 0.84,0.238 V 19.04 c 0.242,0.32 0.496,0.641 0.762,0.961 0.133,0.024 0.266,0.094 0.398,0.199 0.266,0.188 0.469,0.442 0.602,0.758 -0.027,0 -0.039,-0.012 -0.039,-0.039 h -0.043 l -0.16,-0.078 h -0.16 c -0.321,-0.082 -0.614,-0.082 -0.879,0 -0.852,0.211 -1.348,1.105 -1.481,2.68 0.012,0.066 0.028,0.132 0.039,0.199 l 0.442,1.238 c 0.054,0.082 0.093,0.16 0.121,0.242 l 0.277,0.52 c 0.02,0.031 0.031,0.058 0.043,0.082 l 0.039,0.039 0.199,0.32 c 0.055,0.078 0.106,0.145 0.161,0.199 l 0.242,0.321 V 26.642 Z M 4.961,4.599 c 0.16,0.109 0.344,0.242 0.559,0.402 1.414,0.957 2.613,1.719 3.601,2.277 0.504,0.321 1.012,0.614 1.52,0.883 h 0.078 C 10.855,8.079 11,8.052 11.16,8.079 10.145,7.571 9.293,7.095 8.602,6.642 7.988,6.267 7.293,5.802 6.52,5.239 6.121,4.919 5.559,4.493 4.84,3.958 4.625,3.802 4.441,3.653 4.281,3.521 4.492,3.892 4.719,4.255 4.961,4.599 Z m 6.398,5.722 C 11.305,10.134 11.293,9.946 11.32,9.759 11.105,9.786 10.906,9.825 10.719,9.88 c 0,0.105 0.015,0.227 0.043,0.359 z m 2.563,2.239 c -0.082,-0.188 -0.149,-0.375 -0.203,-0.559 -0.239,0.024 -0.453,0.051 -0.641,0.078 0.027,0.106 0.055,0.199 0.082,0.281 z m 11.199,0 c 0,0.082 0.012,0.16 0.039,0.242 0.051,-0.082 0.117,-0.149 0.199,-0.203 z m 5.039,-1.879 h 0.039 l -0.16,-0.039 C 29.906,10.614 29.762,10.587 29.602,10.56 L 29.32,10.521 c -0.027,0 -0.043,-0.016 -0.043,-0.039 l -0.558,-0.043 h -0.078 c -0.164,-0.008 -0.325,-0.016 -0.481,-0.02 l -0.48,0.02 c -0.164,0.011 -0.325,0.023 -0.481,0.043 -1.254,0.453 -1.945,1 -2.078,1.636 l 0.598,0.121 c 0.082,-0.132 0.187,-0.254 0.32,-0.359 0.266,-0.266 0.613,-0.508 1.039,-0.719 0.481,-0.215 0.977,-0.359 1.481,-0.441 0.562,-0.106 1.093,-0.121 1.601,-0.039 z M 1.32,1.72 C 1.398,1.853 1.492,2.028 1.602,2.239 1.68,2.345 1.762,2.466 1.84,2.599 1.973,2.919 2.105,3.294 2.238,3.72 2.293,3.958 2.359,4.189 2.441,4.4 2.68,5.228 2.84,5.958 2.922,6.603 3.078,7.587 3.145,8.626 3.121,9.72 3.094,10.892 2.973,11.599 2.762,11.841 2.574,12.025 2.32,12.185 2,12.321 c -0.105,0.051 -0.215,0.094 -0.32,0.118 0.132,0.027 0.254,0.027 0.359,0 C 2.441,12.411 2.734,12.333 2.922,12.2 3.055,12.067 3.199,11.825 3.359,11.482 3.547,11.001 3.668,10.415 3.719,9.72 3.828,8.255 3.641,6.482 3.16,4.4 L 3.199,4.439 C 2.934,4.118 2.68,3.802 2.441,3.482 2.254,3.239 2.066,2.974 1.879,2.681 1.906,2.548 2.012,2.493 2.199,2.521 2.332,2.521 2.812,3.079 3.641,4.2 4.305,5.079 5.266,6.427 6.52,8.239 6.945,8.853 7.348,9.427 7.719,9.958 H 7.801 C 7.988,9.985 8.16,10.052 8.32,10.161 7.547,9.067 6.879,8.134 6.32,7.36 5.922,6.775 5.398,5.985 4.762,5.001 4.762,4.974 4.746,4.958 4.719,4.958 4.535,4.642 4.359,4.36 4.199,4.118 3.906,3.669 3.68,3.321 3.52,3.079 3.469,3.001 3.414,2.935 3.359,2.88 3.281,2.775 3.199,2.653 3.121,2.521 2.934,2.278 2.762,2.067 2.602,1.88 2.465,1.747 2.348,1.626 2.238,1.521 2.188,1.466 2.121,1.415 2.039,1.36 1.809,1.208 1.605,1.169 1.422,1.239 1.402,1.278 1.383,1.317 1.359,1.36 1.332,1.439 1.32,1.532 1.32,1.642 Z m 13.36,10 C 14.602,11.669 14.52,11.614 14.441,11.56 14.359,11.505 14.293,11.454 14.238,11.4 L 13.84,11.161 c -0.028,-0.027 -0.067,-0.054 -0.121,-0.082 l -0.16,-0.078 c 0,-0.055 0.015,-0.109 0.043,-0.16 0.023,-0.32 0.117,-0.547 0.277,-0.684 0.055,-0.023 0.109,-0.05 0.16,-0.078 0.16,-0.078 0.309,-0.094 0.441,-0.039 0.028,0.027 0.051,0.039 0.079,0.039 0.242,0.106 0.48,0.215 0.722,0.321 0.106,-0.028 0.227,-0.04 0.36,-0.04 0.265,0.024 0.519,0.118 0.757,0.278 -0.078,0.027 -0.183,0.054 -0.32,0.082 -0.051,0.027 -0.105,0.055 -0.156,0.078 -0.188,0.082 -0.348,0.187 -0.481,0.32 -0.242,0.266 -0.347,0.602 -0.32,1 L 14.879,11.88 C 14.801,11.825 14.734,11.775 14.68,11.72 Z M 15.801,9.958 C 15.695,9.853 15.625,9.692 15.602,9.482 15.574,9.239 15.668,8.985 15.879,8.72 c 0.242,-0.266 0.547,-0.508 0.922,-0.719 0.398,-0.215 0.84,-0.359 1.32,-0.441 0.531,-0.106 1.051,-0.106 1.559,0 h 0.039 C 19.535,7.509 19.305,7.454 19.039,7.4 L 18.199,7.282 C 17.695,7.228 17.215,7.216 16.762,7.239 15.559,7.747 15,8.388 15.078,9.161 c 0,0.184 0.055,0.371 0.16,0.559 0.188,0.082 0.375,0.16 0.563,0.238 z m 2.758,0.961 C 18.398,10.814 18.305,10.642 18.281,10.4 18.254,10.161 18.348,9.907 18.559,9.642 18.801,9.372 19.121,9.134 19.52,8.919 19.922,8.681 20.359,8.521 20.84,8.439 21.398,8.333 21.934,8.321 22.441,8.4 H 22.48 C 22.238,8.317 21.934,8.251 21.562,8.2 L 20.961,8.118 h -0.082 -0.141 -0.48 c -0.262,0 -0.52,0.016 -0.778,0.043 -0.027,0.012 -0.05,0.024 -0.082,0.039 -1.171,0.52 -1.73,1.149 -1.679,1.879 0.027,0.215 0.105,0.43 0.242,0.641 0.105,0.027 0.211,0.055 0.316,0.082 0.082,0.051 0.176,0.09 0.282,0.117 z M 21,11.521 c -0.105,-0.106 -0.172,-0.243 -0.199,-0.403 -0.028,-0.238 0.078,-0.492 0.32,-0.758 0.211,-0.265 0.52,-0.519 0.918,-0.761 C 22.465,9.36 22.922,9.173 23.398,9.04 23.961,8.935 24.492,8.907 25,8.958 h 0.078 C 24.867,8.907 24.625,8.868 24.359,8.841 L 24.121,8.802 23.52,8.759 h -0.2 L 22,8.88 c -1.227,0.559 -1.812,1.215 -1.758,1.961 0.028,0.211 0.106,0.414 0.238,0.598 h 0.04 z m 5.762,-1.922 c -0.75,-0.051 -1.469,-0.028 -2.16,0.082 -1.282,0.558 -1.911,1.187 -1.883,1.879 0,0.082 0.015,0.16 0.043,0.242 l 0.519,0.078 v -0.039 c -0.027,-0.215 0.078,-0.453 0.321,-0.723 0.265,-0.265 0.597,-0.519 1,-0.758 C 25.055,10.118 25.52,9.946 26,9.841 26.559,9.708 27.105,9.681 27.641,9.759 L 27.68,9.72 C 27.492,9.692 27.281,9.665 27.039,9.638 L 26.801,9.599 Z m -10,-3 h 0.039 C 16.559,6.548 16.281,6.505 15.961,6.482 H 15.879 L 15.32,6.439 14.078,6.56 h -0.039 c -1.012,0.613 -1.437,1.281 -1.277,2 0.023,0.027 0.039,0.054 0.039,0.082 h -0.039 c 0.183,0.078 0.371,0.172 0.558,0.277 V 8.802 C 13.266,8.587 13.32,8.349 13.48,8.079 13.641,7.786 13.879,7.521 14.199,7.282 14.52,7.04 14.895,6.853 15.32,6.72 15.801,6.587 16.281,6.548 16.762,6.599 Z M 14,6.079 h 0.039 C 13.879,6.028 13.695,5.974 13.48,5.919 h -0.199 c -0.304,-0.051 -0.59,-0.078 -0.859,-0.078 -0.293,-0.016 -0.567,0 -0.82,0.039 -0.024,0.012 -0.043,0.023 -0.063,0.039 -0.758,0.441 -1.141,0.938 -1.141,1.481 0.161,0.082 0.321,0.171 0.481,0.281 0.027,-0.16 0.082,-0.309 0.16,-0.442 0.16,-0.265 0.387,-0.492 0.68,-0.679 0.293,-0.215 0.629,-0.36 1,-0.442 C 13.145,6.013 13.574,6.001 14,6.079 Z M 13.238,0.001 c 0.137,0.211 0.254,0.481 0.364,0.801 0.265,0.637 0.371,1.199 0.32,1.68 -0.055,0.664 -0.336,1.21 -0.844,1.636 -0.586,0.508 -1.437,0.75 -2.558,0.723 -0.692,0 -1.625,-0.176 -2.801,-0.52 -0.715,-0.207 -1.582,-0.5 -2.598,-0.882 1.621,0.878 3.063,1.398 4.32,1.562 0.797,0.106 1.532,0.09 2.2,-0.043 0.613,-0.133 1.132,-0.359 1.558,-0.68 0.375,-0.293 0.668,-0.64 0.879,-1.039 C 14.266,2.864 14.359,2.505 14.359,2.157 14.332,1.599 14.133,1.067 13.762,0.56 13.602,0.321 13.426,0.134 13.238,0.001 Z"
   inkscape:connector-curvature="0" />
      <path
   id="path16"
   style="fill:#f6e181;fill-rule:evenodd"
   d="m 32.68,13.161 c -0.133,-0.16 -0.282,-0.32 -0.442,-0.48 0.055,0.078 0.11,0.144 0.16,0.199 0.11,0.105 0.204,0.199 0.282,0.281 z m -4.481,0.481 c 0.266,0.078 0.602,0.093 1,0.039 0.188,-0.055 0.453,-0.121 0.801,-0.199 0.348,-0.11 0.602,-0.176 0.762,-0.204 0.504,-0.078 1.011,-0.078 1.515,0 0.243,0.055 0.43,0.11 0.563,0.161 -0.293,-0.321 -0.668,-0.559 -1.121,-0.719 -0.399,-0.16 -0.84,-0.254 -1.321,-0.281 -0.453,-0.028 -0.863,0.015 -1.238,0.121 -0.375,0.105 -0.64,0.254 -0.801,0.441 -0.187,0.238 -0.238,0.453 -0.16,0.641 z M 27.801,13.4 c -0.028,-0.106 -0.055,-0.2 -0.082,-0.282 -0.078,-0.16 -0.172,-0.293 -0.281,-0.398 h -0.04 c -0.078,-0.106 -0.171,-0.188 -0.277,-0.238 -0.16,0.023 -0.309,0.093 -0.441,0.199 -0.055,0.054 -0.094,0.105 -0.121,0.16 -0.028,0.027 -0.051,0.051 -0.082,0.078 -0.106,0.215 -0.118,0.469 -0.039,0.762 0.109,0.293 0.292,0.574 0.562,0.84 0.32,0.293 0.68,0.519 1.078,0.679 0.481,0.188 1,0.254 1.559,0.2 -0.184,-0.028 -0.371,-0.094 -0.559,-0.2 -0.426,-0.242 -0.734,-0.535 -0.918,-0.879 -0.055,-0.136 -0.133,-0.336 -0.242,-0.601 -0.027,-0.078 -0.051,-0.16 -0.078,-0.238 0,-0.028 -0.012,-0.055 -0.039,-0.082 z m -7.68,14.441 c 0.16,0.32 0.414,0.625 0.758,0.918 0.133,0.109 0.375,0.266 0.723,0.48 0.32,0.215 0.546,0.375 0.679,0.481 0.426,0.347 0.774,0.812 1.039,1.398 0.106,0.188 0.188,0.364 0.242,0.524 l 0.04,0.238 v -0.039 c 0.078,-0.613 0.023,-1.227 -0.161,-1.84 -0.16,-0.562 -0.414,-1.066 -0.761,-1.519 -0.293,-0.403 -0.614,-0.723 -0.957,-0.961 -0.375,-0.215 -0.696,-0.293 -0.961,-0.243 -0.348,0.082 -0.563,0.27 -0.641,0.563 z M 20.238,26.2 V 25.759 L 20.199,25.72 c -0.027,-0.028 -0.054,-0.051 -0.078,-0.078 -0.109,-0.082 -0.242,-0.11 -0.402,-0.082 -0.078,0 -0.16,0.015 -0.239,0.039 -0.027,0 -0.066,0.015 -0.121,0.043 -0.238,0.105 -0.437,0.359 -0.597,0.758 -0.16,0.375 -0.242,0.828 -0.242,1.359 0,0.562 0.105,1.109 0.32,1.641 0.215,0.585 0.519,1.105 0.922,1.558 l 0.019,0.043 0.02,0.039 v -0.039 l -0.082,-0.199 c -0.078,-0.188 -0.133,-0.375 -0.16,-0.563 -0.133,-0.613 -0.118,-1.199 0.043,-1.757 0.023,-0.161 0.105,-0.43 0.238,-0.801 0.055,-0.106 0.105,-0.215 0.16,-0.321 0,-0.054 0.012,-0.093 0.039,-0.121 V 27.2 l 0.02,-0.019 c 0.043,-0.133 0.078,-0.231 0.101,-0.301 0.055,-0.238 0.078,-0.465 0.078,-0.68 z m 3.684,0.2 c -0.32,-0.532 -0.734,-0.985 -1.242,-1.36 -0.453,-0.32 -0.961,-0.558 -1.52,-0.719 -0.48,-0.16 -0.933,-0.214 -1.359,-0.16 -0.293,0.024 -0.52,0.094 -0.68,0.199 0.024,0.051 0.051,0.094 0.078,0.122 0.028,0 0.055,0.011 0.082,0.039 0.293,0.132 0.531,0.347 0.719,0.64 l 0.121,0.278 c 0.024,0.054 0.051,0.109 0.078,0.16 0.16,0 0.348,-0.012 0.563,-0.039 0.371,-0.028 0.652,-0.039 0.84,-0.039 0.558,0.027 1.117,0.187 1.679,0.48 0.266,0.133 0.481,0.266 0.641,0.399 z m -5.723,-3.442 c 0.133,0 0.266,-0.012 0.403,-0.039 0.183,0 0.476,-0.039 0.878,-0.117 0.188,-0.055 0.36,-0.094 0.52,-0.121 0.105,0 0.215,-0.016 0.32,-0.039 0.535,-0.028 1.106,0.066 1.719,0.277 0.27,0.106 0.496,0.227 0.684,0.359 -0.375,-0.503 -0.844,-0.906 -1.403,-1.199 -0.508,-0.293 -1.027,-0.492 -1.558,-0.597 -0.508,-0.082 -0.973,-0.082 -1.403,0 -0.398,0.078 -0.679,0.238 -0.839,0.476 -0.051,0.055 -0.094,0.121 -0.118,0.203 L 18,22.958 Z M 16,20.278 c 0.238,0.055 0.508,0.067 0.801,0.043 0.078,0 0.16,-0.015 0.238,-0.043 0.188,-0.023 0.469,-0.093 0.84,-0.199 0.133,-0.027 0.266,-0.054 0.402,-0.078 0.184,-0.055 0.332,-0.082 0.438,-0.082 0.535,-0.105 1.109,-0.051 1.722,0.16 0.293,0.082 0.532,0.176 0.719,0.281 -0.398,-0.453 -0.894,-0.828 -1.48,-1.121 -0.508,-0.238 -1.039,-0.398 -1.602,-0.48 -0.504,-0.051 -0.957,-0.024 -1.359,0.082 -0.426,0.133 -0.707,0.32 -0.84,0.559 -0.106,0.187 -0.145,0.375 -0.117,0.558 z m 4.32,-0.957 c 0.055,0.079 0.121,0.161 0.2,0.239 0.132,0.16 0.265,0.308 0.402,0.441 -0.188,-0.215 -0.387,-0.441 -0.602,-0.68 z m -1.519,-1.16 c -0.106,-0.082 -0.227,-0.148 -0.36,-0.203 0.051,0.027 0.106,0.055 0.161,0.082 0.05,0.027 0.117,0.067 0.199,0.121 z m -0.403,-1.402 0.282,0.281 c 0.132,0.16 0.265,0.305 0.398,0.442 -0.183,-0.243 -0.41,-0.481 -0.68,-0.723 z m -4.32,1 c 0.297,0.082 0.617,0.094 0.961,0.043 h 0.16 c 0.188,-0.027 0.481,-0.094 0.879,-0.203 0.27,-0.078 0.481,-0.133 0.641,-0.16 0.054,0 0.109,-0.012 0.16,-0.039 0.562,-0.079 1.148,-0.012 1.762,0.199 0.265,0.082 0.492,0.176 0.679,0.281 -0.398,-0.48 -0.879,-0.855 -1.441,-1.121 -0.531,-0.266 -1.067,-0.426 -1.598,-0.481 -0.535,-0.05 -1,-0.023 -1.402,0.082 -0.399,0.106 -0.664,0.282 -0.801,0.52 -0.156,0.238 -0.199,0.465 -0.117,0.68 z m -1.398,-5.52 c 0.054,-0.027 0.105,-0.054 0.16,-0.078 0.055,-0.027 0.105,-0.043 0.16,-0.043 0.027,0 0.055,-0.011 0.078,-0.039 0.188,-0.027 0.402,-0.054 0.641,-0.078 0.054,0.184 0.121,0.371 0.203,0.559 l 0.68,0.199 c 0.023,0 0.05,0.016 0.078,0.043 -0.028,-0.16 -0.039,-0.309 -0.039,-0.442 v -0.281 c 0.187,0.028 0.347,0.067 0.48,0.121 h 0.078 c -0.027,0 -0.054,-0.015 -0.078,-0.039 C 14.988,12.052 14.84,11.946 14.68,11.841 14.359,11.653 14.012,11.505 13.641,11.4 h -0.039 c -0.243,-0.051 -0.469,-0.106 -0.68,-0.161 h -0.844 c -0.156,0 -0.305,0.016 -0.437,0.039 -0.133,0.028 -0.266,0.055 -0.403,0.082 -0.16,0.051 -0.304,0.106 -0.437,0.161 -0.348,0.16 -0.563,0.371 -0.641,0.64 -0.027,0.024 -0.039,0.051 -0.039,0.078 l 0.481,0.68 c 0.16,0 0.304,-0.012 0.437,-0.039 0.106,-0.027 0.215,-0.055 0.32,-0.078 0.188,-0.055 0.442,-0.16 0.762,-0.32 0.051,-0.028 0.106,-0.055 0.16,-0.082 0.024,-0.028 0.067,-0.04 0.117,-0.04 0.055,-0.027 0.11,-0.054 0.161,-0.082 0.054,-0.023 0.093,-0.039 0.121,-0.039 z m -0.52,2.879 c 0.32,0.082 0.68,0.082 1.078,0 0.11,-0.023 0.231,-0.051 0.364,-0.078 0.16,-0.055 0.32,-0.105 0.476,-0.16 h 0.082 c 0.348,-0.105 0.602,-0.172 0.762,-0.199 0.531,-0.082 1.105,-0.039 1.719,0.121 0.293,0.105 0.531,0.199 0.718,0.277 -0.398,-0.453 -0.894,-0.812 -1.48,-1.078 C 15.586,13.868 15.293,13.759 15,13.681 14.867,13.653 14.734,13.626 14.602,13.599 H 14.281 V 13.56 c -0.535,-0.028 -1,0.015 -1.402,0.121 -0.399,0.133 -0.664,0.32 -0.801,0.558 -0.105,0.215 -0.144,0.414 -0.117,0.602 0.078,0.078 0.144,0.172 0.199,0.277 z m 6.121,0 c -0.16,-0.133 -0.308,-0.293 -0.441,-0.476 -0.32,-0.43 -0.52,-0.867 -0.602,-1.321 -0.023,-0.136 -0.05,-0.347 -0.078,-0.64 v -0.039 c 0,-0.16 -0.015,-0.297 -0.039,-0.403 v -0.32 c -0.055,-0.344 -0.16,-0.625 -0.32,-0.84 l 0.801,0.199 c 0.05,0.028 0.117,0.055 0.199,0.082 l 0.039,-0.039 c -0.371,-0.109 -0.746,-0.226 -1.121,-0.363 l 0.043,0.043 c -0.082,-0.027 -0.16,-0.043 -0.242,-0.043 -0.161,0.027 -0.305,0.109 -0.442,0.242 -0.156,0.188 -0.238,0.453 -0.238,0.801 0.027,0.348 0.133,0.719 0.32,1.117 0.188,0.43 0.453,0.817 0.801,1.16 0.371,0.375 0.812,0.657 1.32,0.84 z m -0.922,-6.16 c 0.188,-0.211 0.336,-0.371 0.442,-0.476 0.32,-0.321 0.734,-0.575 1.238,-0.762 0.242,-0.078 0.453,-0.133 0.641,-0.16 -0.508,-0.106 -1.028,-0.106 -1.559,0 -0.48,0.082 -0.922,0.226 -1.32,0.441 -0.375,0.211 -0.68,0.453 -0.922,0.719 -0.211,0.265 -0.305,0.519 -0.277,0.758 0.023,0.214 0.093,0.375 0.199,0.48 0.105,0.027 0.199,0.067 0.277,0.121 0.27,-0.105 0.524,-0.281 0.762,-0.519 0.055,-0.055 0.121,-0.133 0.199,-0.243 0.082,-0.078 0.176,-0.183 0.281,-0.316 z m 2.082,2.801 c -0.242,-0.024 -0.468,0.066 -0.679,0.281 -0.16,0.188 -0.231,0.453 -0.203,0.801 0.027,0.344 0.148,0.707 0.363,1.078 0.211,0.402 0.492,0.75 0.84,1.039 0.39,0.34 0.832,0.582 1.316,0.723 -0.14,-0.117 -0.285,-0.266 -0.437,-0.442 C 20.32,14.868 20.105,14.466 20,14.04 v -0.039 c -0.027,-0.16 -0.055,-0.375 -0.082,-0.641 -0.023,-0.32 -0.051,-0.558 -0.078,-0.718 -0.028,-0.055 -0.039,-0.094 -0.039,-0.121 -0.082,-0.293 -0.199,-0.547 -0.36,-0.762 z m 3.079,2.402 v -0.32 c -0.055,-0.293 -0.094,-0.52 -0.122,-0.68 0,-0.054 -0.011,-0.109 -0.039,-0.16 C 22.277,12.735 22.16,12.521 22,12.36 c -0.238,-0.027 -0.465,0.067 -0.68,0.282 -0.16,0.183 -0.226,0.437 -0.199,0.758 0.024,0.347 0.145,0.707 0.359,1.082 0.211,0.371 0.508,0.691 0.879,0.957 0.403,0.32 0.852,0.535 1.36,0.64 -0.133,-0.105 -0.281,-0.238 -0.442,-0.398 -0.343,-0.348 -0.57,-0.735 -0.679,-1.16 -0.024,-0.082 -0.051,-0.2 -0.078,-0.36 z m 3.679,1.84 c -0.16,-0.027 -0.32,-0.055 -0.48,-0.082 H 25.52 c 0.242,0.027 0.468,0.055 0.679,0.082 z M 25.281,14.36 C 25.254,14.255 25.227,14.118 25.199,13.958 25.148,13.665 25.105,13.454 25.078,13.321 25.055,13.239 25.027,13.173 25,13.118 c 0,-0.023 -0.012,-0.051 -0.039,-0.078 -0.082,-0.187 -0.199,-0.348 -0.359,-0.48 -0.082,0 -0.161,0.015 -0.243,0.039 -0.16,0.054 -0.293,0.16 -0.398,0.32 -0.16,0.188 -0.215,0.441 -0.16,0.762 0.051,0.344 0.199,0.679 0.437,1 0.242,0.344 0.551,0.625 0.922,0.84 0.442,0.257 0.922,0.418 1.442,0.48 h 0.039 C 26.48,15.919 26.309,15.802 26.121,15.642 25.746,15.345 25.492,15.001 25.359,14.599 25.332,14.548 25.309,14.466 25.281,14.36 Z M 19.039,30.278 V 30.239 H 19 c 0.027,0 0.039,0.016 0.039,0.039 z m -1.719,-4.16 c 0.055,-0.133 0.133,-0.277 0.239,-0.437 0.16,-0.348 0.281,-0.614 0.363,-0.801 0.023,-0.078 0.051,-0.16 0.078,-0.238 0.027,-0.055 0.039,-0.094 0.039,-0.121 0.082,-0.266 0.106,-0.52 0.082,-0.762 -0.082,-0.078 -0.16,-0.133 -0.242,-0.16 -0.16,-0.078 -0.359,-0.078 -0.598,0 -0.269,0.082 -0.496,0.308 -0.679,0.679 -0.215,0.348 -0.348,0.789 -0.403,1.321 -0.054,0.562 -0.011,1.121 0.121,1.679 0.157,0.598 0.41,1.129 0.758,1.602 l -0.039,-0.121 c -0.027,-0.184 -0.051,-0.371 -0.078,-0.559 -0.055,-0.64 0.027,-1.226 0.238,-1.761 0.028,-0.079 0.067,-0.184 0.121,-0.321 z m -1.242,-4.597 c -0.211,-0.215 -0.492,-0.282 -0.84,-0.2 -0.265,0.051 -0.504,0.266 -0.718,0.637 -0.215,0.348 -0.36,0.777 -0.442,1.281 -0.105,0.563 -0.105,1.121 0,1.68 0.11,0.633 0.328,1.199 0.66,1.699 l -0.019,-0.136 c -0.024,-0.215 -0.051,-0.415 -0.078,-0.602 0,-0.641 0.105,-1.215 0.32,-1.719 0.051,-0.109 0.133,-0.242 0.238,-0.402 0.055,-0.106 0.121,-0.211 0.199,-0.32 0.188,-0.348 0.321,-0.614 0.403,-0.797 0.054,-0.055 0.094,-0.121 0.121,-0.203 0.105,-0.321 0.156,-0.625 0.156,-0.918 z M 10.641,8.161 C 10.133,7.892 9.625,7.603 9.121,7.278 8.133,6.72 6.934,5.958 5.52,5.001 5.305,4.841 5.121,4.708 4.961,4.599 c 0.211,0.32 0.414,0.629 0.598,0.922 0.586,0.398 1.203,0.785 1.839,1.16 0.082,0.051 0.161,0.09 0.243,0.117 l 2.48,1.402 h 0.039 v 0.039 l 0.078,0.02 0.203,0.098 c 0.051,-0.079 0.118,-0.145 0.2,-0.196 z M 10.199,8.36 h 0.02 C 10.152,8.325 10.078,8.302 10,8.278 10.078,8.306 10.145,8.333 10.199,8.36 Z M 8.922,10.521 C 9.027,10.493 9.133,10.466 9.238,10.439 9.398,10.388 9.625,10.294 9.922,10.157 10.16,10.052 10.348,9.985 10.48,9.958 10.508,9.935 10.547,9.919 10.602,9.919 10.625,9.892 10.668,9.88 10.719,9.88 10.906,9.825 11.105,9.786 11.32,9.759 c -0.027,0.187 -0.015,0.375 0.039,0.558 l 0.922,0.122 c 0.028,0 0.067,0.015 0.117,0.039 0.028,0 0.067,0.015 0.122,0.043 -0.055,-0.032 -0.094,-0.055 -0.122,-0.082 H 12.281 V 10.4 c 0.024,-0.215 0.039,-0.387 0.039,-0.52 h 0.121 C 12.52,9.907 12.602,9.931 12.68,9.958 12.625,9.907 12.559,9.853 12.48,9.802 12.426,9.775 12.375,9.747 12.32,9.72 12.027,9.505 11.719,9.345 11.398,9.239 H 11.32 C 11.133,9.185 10.961,9.146 10.801,9.118 10.613,9.067 10.426,9.04 10.238,9.04 H 9.879 C 9.453,9.067 9.078,9.146 8.762,9.278 8.547,9.388 8.398,9.493 8.32,9.599 v 0.043 z m 4.117,1.679 c 0.031,0.055 0.055,0.11 0.082,0.16 H 13.16 C 13.109,12.31 13.07,12.255 13.039,12.2 Z m 13.641,0.121 h 0.121 l 0.16,0.079 c 0.027,0 0.051,0.015 0.078,0.039 h 0.039 c 0.11,-0.106 0.231,-0.227 0.363,-0.36 0.266,-0.211 0.465,-0.371 0.598,-0.48 0.402,-0.321 0.883,-0.574 1.441,-0.758 0.266,-0.082 0.493,-0.133 0.68,-0.16 -0.508,-0.082 -1.039,-0.067 -1.598,0.039 -0.507,0.082 -1,0.226 -1.484,0.441 -0.426,0.211 -0.769,0.453 -1.039,0.719 -0.133,0.105 -0.238,0.227 -0.316,0.359 l 0.398,0.039 c 0.188,-0.023 0.371,-0.011 0.559,0.043 z m -2.121,-2.64 h 0.043 c 0.691,-0.11 1.41,-0.133 2.16,-0.082 C 26.531,9.571 26.293,9.56 26.039,9.56 c -0.504,0 -1,0.039 -1.48,0.121 z m 0.839,1.238 c 0.082,-0.078 0.149,-0.133 0.204,-0.16 0.371,-0.348 0.824,-0.613 1.359,-0.801 0.266,-0.105 0.492,-0.172 0.68,-0.199 C 27.105,9.681 26.559,9.708 26,9.841 c -0.48,0.105 -0.945,0.281 -1.398,0.519 -0.403,0.243 -0.735,0.493 -1,0.762 -0.243,0.266 -0.348,0.504 -0.321,0.719 v 0.039 l 1.039,0.121 c 0.082,-0.055 0.149,-0.109 0.2,-0.16 0.132,-0.106 0.32,-0.293 0.558,-0.563 0.137,-0.132 0.242,-0.253 0.32,-0.359 z m 2.282,-0.48 c -0.192,0.007 -0.379,0.019 -0.559,0.043 h 0.078 c 0.156,-0.02 0.317,-0.032 0.481,-0.043 z M 12.961,17.521 H 13 C 12.762,17.173 12.492,16.802 12.199,16.4 v 0.039 c -0.054,-0.051 -0.105,-0.094 -0.16,-0.118 -0.184,-0.136 -0.414,-0.175 -0.68,-0.121 -0.265,0.078 -0.504,0.293 -0.718,0.641 -0.243,0.344 -0.414,0.773 -0.52,1.277 -0.109,0.563 -0.109,1.121 0,1.684 0.078,0.637 0.277,1.211 0.598,1.719 V 21.36 C 10.695,21.173 10.68,20.974 10.68,20.759 10.652,20.118 10.762,19.56 11,19.079 c 0.078,-0.16 0.215,-0.387 0.398,-0.679 0.028,-0.028 0.043,-0.051 0.043,-0.079 0.106,-0.16 0.2,-0.296 0.278,-0.402 0.082,-0.133 0.136,-0.25 0.16,-0.359 0.187,-0.375 0.293,-0.735 0.32,-1.078 z m -2.84,3.121 c 0.024,0.027 0.039,0.05 0.039,0.078 v -0.039 z m -0.84,-2.16 V 18.36 L 9.238,18.321 c 0.028,0.051 0.039,0.102 0.043,0.161 z m -0.722,0.16 v -0.203 c 0,-0.161 0.015,-0.332 0.043,-0.52 0.078,-0.613 0.265,-1.133 0.558,-1.559 0.028,-0.027 0.051,-0.066 0.078,-0.121 0.11,-0.105 0.254,-0.265 0.442,-0.48 0.215,-0.266 0.375,-0.481 0.48,-0.641 0.078,-0.078 0.145,-0.172 0.199,-0.277 0.082,-0.16 0.149,-0.32 0.2,-0.481 l 0.363,0.481 c 0.078,0.027 0.156,0.051 0.238,0.078 -0.187,-0.266 -0.375,-0.531 -0.558,-0.801 0,-0.023 -0.016,-0.039 -0.043,-0.039 -0.106,-0.16 -0.254,-0.254 -0.438,-0.277 H 9.879 c -0.238,0 -0.492,0.144 -0.758,0.437 -0.266,0.293 -0.48,0.668 -0.641,1.121 -0.16,0.508 -0.242,1.028 -0.242,1.559 -0.023,0.613 0.082,1.188 0.321,1.723 z M 9.398,12.36 C 9.238,12.146 9.066,11.907 8.879,11.642 V 11.521 C 8.828,11.415 8.746,11.333 8.641,11.278 8.535,11.228 8.398,11.2 8.238,11.2 8,11.228 7.773,11.372 7.559,11.642 7.32,11.907 7.133,12.255 7,12.681 c -0.16,0.453 -0.238,0.918 -0.238,1.398 0.023,0.563 0.133,1.082 0.316,1.563 v -0.16 c 0,-0.161 0.016,-0.336 0.043,-0.524 0.078,-0.531 0.254,-1 0.52,-1.398 0.078,-0.106 0.226,-0.293 0.437,-0.559 0.215,-0.242 0.363,-0.426 0.442,-0.562 0.105,-0.161 0.187,-0.321 0.242,-0.481 0.105,0.137 0.211,0.27 0.316,0.402 z m 3.68,9.36 v -0.039 c 0.082,-0.16 0.215,-0.403 0.402,-0.723 0.215,-0.316 0.36,-0.57 0.442,-0.758 0.023,-0.054 0.051,-0.105 0.078,-0.16 0.133,-0.348 0.199,-0.668 0.199,-0.961 -0.211,-0.238 -0.492,-0.32 -0.84,-0.238 -0.265,0.078 -0.504,0.293 -0.718,0.641 -0.215,0.371 -0.375,0.812 -0.481,1.32 -0.082,0.558 -0.066,1.117 0.039,1.68 0.106,0.613 0.321,1.183 0.641,1.718 l -0.039,-0.199 c -0.028,-0.187 -0.039,-0.375 -0.039,-0.562 -0.028,-0.637 0.078,-1.211 0.316,-1.719 z m -0.879,1.558 c 0.016,0.016 0.028,0.036 0.039,0.063 v -0.02 z M 7.719,9.958 C 7.348,9.427 6.945,8.853 6.52,8.239 5.266,6.427 4.305,5.079 3.641,4.2 2.812,3.079 2.332,2.521 2.199,2.521 2.012,2.493 1.906,2.548 1.879,2.681 2.066,2.974 2.254,3.239 2.441,3.482 2.68,3.802 2.934,4.118 3.199,4.439 L 4.922,6.72 C 5.668,7.708 6.398,8.692 7.121,9.681 7.195,9.778 7.27,9.88 7.34,9.982 7.457,9.942 7.586,9.939 7.719,9.958 Z m 7,0.762 c -0.024,-0.133 -0.051,-0.266 -0.078,-0.399 l 0.398,0.161 c 0.082,-0.028 0.16,-0.055 0.242,-0.082 -0.242,-0.106 -0.48,-0.211 -0.722,-0.321 -0.028,0 -0.051,-0.012 -0.079,-0.039 -0.132,-0.055 -0.281,-0.039 -0.441,0.039 -0.051,0.028 -0.105,0.055 -0.16,0.082 -0.16,0.133 -0.254,0.36 -0.277,0.68 -0.028,0.051 -0.043,0.105 -0.043,0.16 l 0.16,0.078 c 0.054,0.028 0.093,0.055 0.121,0.082 l 0.398,0.239 c 0.055,0.054 0.121,0.109 0.203,0.16 0.079,0.054 0.161,0.109 0.239,0.16 v -0.039 c 0.027,-0.293 0.039,-0.52 0.039,-0.68 z m 3.48,-3.442 C 18.172,7.255 18.145,7.239 18.121,7.239 c -0.535,-0.05 -1.027,-0.05 -1.48,0 h 0.121 c 0.453,-0.027 0.933,-0.011 1.437,0.039 z m 0.52,3.68 c 0.242,-0.078 0.469,-0.223 0.679,-0.437 0.055,-0.028 0.094,-0.055 0.122,-0.082 0.105,-0.106 0.281,-0.293 0.519,-0.559 0.188,-0.238 0.336,-0.414 0.441,-0.52 h 0.04 C 20.531,9.349 20.543,9.333 20.559,9.321 20.871,8.993 21.285,8.739 21.801,8.56 22.039,8.482 22.254,8.427 22.441,8.4 21.934,8.321 21.398,8.333 20.84,8.442 c -0.481,0.079 -0.918,0.239 -1.32,0.477 -0.399,0.215 -0.719,0.453 -0.961,0.723 -0.211,0.265 -0.305,0.519 -0.278,0.758 0.024,0.242 0.117,0.414 0.278,0.519 0.054,0 0.109,0.016 0.16,0.039 z M 25,8.958 C 24.492,8.907 23.961,8.935 23.398,9.04 c -0.476,0.133 -0.933,0.32 -1.359,0.563 -0.398,0.238 -0.707,0.492 -0.918,0.757 -0.242,0.266 -0.348,0.52 -0.32,0.762 0.027,0.16 0.094,0.293 0.199,0.399 l 0.402,0.082 c 0.16,-0.11 0.332,-0.227 0.52,-0.364 0.051,-0.05 0.105,-0.105 0.156,-0.16 0.11,-0.105 0.27,-0.293 0.484,-0.558 0.079,-0.079 0.145,-0.161 0.2,-0.239 0.133,-0.136 0.226,-0.242 0.277,-0.32 0.348,-0.32 0.789,-0.586 1.32,-0.801 C 24.602,9.052 24.812,8.985 25,8.958 Z m -12.66,0.66 c 0.047,0.047 0.094,0.094 0.14,0.141 0.028,0 0.051,0.016 0.079,0.043 l 0.16,0.199 C 12.668,9.892 12.586,9.802 12.48,9.72 12.434,9.696 12.387,9.661 12.34,9.618 Z M 14,9.2 C 14.078,9.146 14.172,9.067 14.281,8.958 14.332,8.907 14.387,8.841 14.441,8.759 14.52,8.653 14.641,8.466 14.801,8.2 14.906,8.013 15,7.853 15.078,7.72 L 15.16,7.638 C 15.398,7.29 15.746,7.013 16.199,6.798 16.414,6.72 16.602,6.653 16.762,6.599 16.281,6.544 15.801,6.587 15.32,6.72 14.895,6.853 14.52,7.04 14.199,7.278 13.879,7.517 13.641,7.786 13.48,8.079 13.32,8.345 13.266,8.587 13.32,8.798 V 8.919 C 13.559,9.001 13.785,9.095 14,9.2 Z M 12.68,9.482 C 12.734,9.427 12.812,9.372 12.922,9.321 12.68,9.212 12.441,9.107 12.199,9.001 12.172,8.946 12.16,8.907 12.16,8.88 12.078,8.829 11.988,8.814 11.879,8.841 c -0.106,0 -0.199,0.039 -0.277,0.117 -0.028,0 -0.055,0.016 -0.082,0.043 L 11.801,9.2 c 0.078,0.055 0.16,0.106 0.238,0.16 0.106,0.082 0.199,0.161 0.281,0.243 0,-0.11 -0.015,-0.215 -0.039,-0.321 0.133,0.051 0.266,0.118 0.399,0.2 z M 10.879,7.681 c 0.293,0.133 0.574,0.277 0.84,0.437 C 11.801,8.067 11.867,8.001 11.922,7.919 12,7.814 12.105,7.653 12.238,7.439 12.375,7.2 12.48,7.025 12.559,6.919 12.801,6.626 13.121,6.4 13.52,6.239 13.707,6.157 13.867,6.107 14,6.079 13.574,6.001 13.145,6.013 12.719,6.118 c -0.371,0.082 -0.707,0.227 -1,0.442 -0.293,0.187 -0.52,0.414 -0.68,0.679 -0.078,0.133 -0.133,0.282 -0.16,0.442 z M 13.32,5.919 C 13.133,5.868 12.934,5.841 12.719,5.841 c -0.106,-0.008 -0.203,-0.008 -0.297,0 0.269,0 0.555,0.027 0.859,0.078 z"
   inkscape:connector-curvature="0" />
      <path
   id="path18"
   style="fill:#aa9740;fill-rule:evenodd"
   d="M 30.961,11.841 C 30.906,11.814 30.867,11.802 30.84,11.802 L 29.922,11.521 C 29.707,11.466 29.48,11.427 29.238,11.4 c -0.398,-0.028 -0.746,0.039 -1.039,0.199 -0.293,0.136 -0.508,0.32 -0.64,0.562 -0.051,0.106 -0.094,0.211 -0.121,0.321 l -0.36,-0.043 h -0.039 c 0.027,0.003 0.055,0.015 0.082,0.043 0.106,0.05 0.199,0.132 0.281,0.238 h 0.039 c 0.106,0.105 0.2,0.238 0.282,0.398 0.023,0.082 0.05,0.176 0.078,0.282 v -0.04 c 0.027,-0.082 0.054,-0.16 0.082,-0.242 0.027,-0.133 0.078,-0.265 0.16,-0.398 0.023,-0.051 0.066,-0.106 0.117,-0.16 0,-0.028 0.016,-0.055 0.043,-0.078 0.524,-0.606 1.426,-0.821 2.699,-0.641 0.02,-0.004 0.039,-0.004 0.059,0 z M 20.238,25.759 v 0.402 l 0.043,0.039 h -0.043 c 0,0.215 -0.023,0.442 -0.078,0.68 -0.023,0.07 -0.058,0.168 -0.101,0.301 0.074,-0.071 0.148,-0.133 0.222,-0.18 0.133,-0.133 0.278,-0.226 0.438,-0.281 0.082,-0.028 0.148,-0.051 0.203,-0.078 0.051,0 0.09,-0.016 0.117,-0.043 0.883,-0.184 1.734,0.402 2.559,1.761 -0.012,-0.054 -0.024,-0.105 -0.039,-0.16 l -0.918,-1.84 c -0.266,-0.375 -0.575,-0.613 -0.918,-0.718 -0.321,-0.082 -0.629,-0.055 -0.922,0.078 -0.133,0.082 -0.266,0.172 -0.399,0.281 -0.054,-0.082 -0.109,-0.16 -0.164,-0.242 z m 1.563,-2.078 C 21.719,23.607 21.641,23.54 21.559,23.482 L 20,22.681 c -0.16,0.027 -0.332,0.066 -0.52,0.121 -0.402,0.078 -0.695,0.117 -0.878,0.117 -0.137,0.027 -0.27,0.039 -0.403,0.039 -0.027,0.027 -0.054,0.067 -0.078,0.121 L 18,22.958 17.398,22.161 17.039,21.681 c 0.055,-0.16 0.121,-0.293 0.199,-0.403 0.496,-0.722 1.469,-0.91 2.922,-0.558 0.028,0.008 0.051,0.015 0.078,0.019 0.012,0.008 0.028,0.016 0.043,0.02 C 20.254,20.735 20.215,20.72 20.16,20.72 l -1.801,-0.719 h -0.078 c -0.136,0.024 -0.269,0.051 -0.402,0.078 -0.371,0.106 -0.652,0.176 -0.84,0.199 -0.078,0.028 -0.16,0.043 -0.238,0.043 -0.16,0.133 -0.266,0.293 -0.321,0.481 -0.027,0.023 -0.039,0.051 -0.039,0.078 L 16,20.278 15.762,19.958 15.359,19.4 c 0.028,-0.266 0.106,-0.493 0.243,-0.68 0.453,-0.774 1.453,-1 3,-0.68 -0.055,-0.027 -0.11,-0.055 -0.161,-0.082 l -1.722,-0.519 c -0.16,0.027 -0.371,0.082 -0.641,0.16 -0.398,0.109 -0.691,0.176 -0.879,0.203 h -0.16 c -0.133,0.133 -0.227,0.293 -0.277,0.476 -0.028,0.11 -0.043,0.204 -0.043,0.282 L 14.078,17.759 13.961,17.56 13.52,17.001 c 0.027,-0.293 0.105,-0.562 0.242,-0.801 0.449,-0.765 1.433,-0.992 2.957,-0.679 h 0.043 C 16.707,15.493 16.668,15.482 16.641,15.482 L 14.68,14.88 h -0.039 c -0.161,-0.027 -0.321,-0.027 -0.481,0 h -0.082 c -0.156,0.055 -0.316,0.105 -0.476,0.16 l -0.082,0.039 c -0.293,0.16 -0.481,0.403 -0.559,0.723 h -0.039 c -0.027,0.105 -0.043,0.211 -0.043,0.316 l -0.719,-1 c -0.055,-0.105 -0.121,-0.199 -0.199,-0.277 -0.199,-0.285 -0.402,-0.57 -0.602,-0.859 0.067,0.089 0.133,0.175 0.2,0.257 0.027,-0.238 0.093,-0.464 0.203,-0.679 0.211,-0.399 0.586,-0.653 1.117,-0.758 0.16,-0.055 0.336,-0.082 0.519,-0.082 0.188,-0.028 0.375,-0.028 0.563,0 0.238,0.027 0.48,0.055 0.719,0.082 -0.028,-0.027 -0.055,-0.043 -0.078,-0.043 L 13.922,12.56 13.16,12.36 H 13.121 L 12.68,12.239 c -0.028,0 -0.067,0.016 -0.121,0.039 -0.051,0.028 -0.106,0.055 -0.161,0.082 -0.05,0 -0.093,0.012 -0.117,0.04 -0.054,0.027 -0.109,0.054 -0.16,0.082 -0.32,0.16 -0.574,0.265 -0.762,0.32 -0.105,0.023 -0.214,0.051 -0.32,0.078 -0.051,0.078 -0.094,0.172 -0.117,0.281 0,0.051 -0.016,0.106 -0.043,0.16 -0.09,-0.136 -0.184,-0.269 -0.277,-0.402 l -0.481,-0.68 C 9.992,12.06 9.863,11.864 9.738,11.661 9.754,11.614 9.762,11.583 9.762,11.56 c 0.16,-0.426 0.492,-0.735 1,-0.918 h 0.078 c 0.16,-0.055 0.348,-0.094 0.558,-0.121 0.27,-0.055 0.563,-0.067 0.883,-0.039 h 0.117 c -0.05,-0.028 -0.089,-0.04 -0.117,-0.043 L 11.359,10.321 10.762,10.239 C 10.734,10.107 10.719,9.985 10.719,9.88 c -0.051,0 -0.094,0.012 -0.117,0.039 -0.055,0 -0.094,0.016 -0.122,0.039 L 10.602,10.239 10.359,10.2 C 9.934,10.228 9.586,10.36 9.32,10.603 9.238,10.653 9.172,10.72 9.121,10.802 L 8.922,10.521 8.32,9.642 C 8.188,9.427 8.055,9.228 7.922,9.04 8.293,8.532 9.055,8.306 10.199,8.36 10.145,8.333 10.078,8.306 10,8.278 L 8.762,8.079 H 8.359 C 7.988,8.107 7.695,8.2 7.48,8.36 6.812,7.4 6.172,6.454 5.559,5.521 5.375,5.228 5.172,4.919 4.961,4.599 4.719,4.251 4.492,3.892 4.281,3.521 4.441,3.653 4.625,3.802 4.84,3.958 5.559,4.493 6.121,4.919 6.52,5.239 7.293,5.802 7.988,6.267 8.602,6.642 9.293,7.091 10.145,7.571 11.16,8.079 11,8.052 10.855,8.079 10.719,8.161 h -0.078 c -0.082,0.051 -0.149,0.117 -0.2,0.199 L 10.238,8.259 v 0.019 c 0.055,0.055 0.11,0.094 0.16,0.122 v 0.039 l 0.68,0.32 0.043,-0.039 c 0.024,-0.028 0.051,-0.039 0.078,-0.039 l 0.039,-0.039 0.16,-0.043 c 0,-0.028 0.016,-0.039 0.043,-0.039 l 0.161,-0.039 h 0.32 C 11.895,8.493 11.855,8.454 11.801,8.4 c 0.078,0.054 0.16,0.093 0.238,0.121 1.656,0.796 3.227,1.464 4.723,2 0.984,0.347 2,0.652 3.039,0.918 0.265,0.082 0.547,0.16 0.84,0.242 0.078,0 0.16,0.011 0.238,0.039 0.109,0.027 0.215,0.055 0.32,0.078 0.321,0.082 0.613,0.148 0.879,0.203 0.297,0.051 0.563,0.106 0.801,0.156 0.215,0.028 0.387,0.055 0.519,0.082 -0.16,0.028 -0.293,0.067 -0.398,0.121 -0.105,0 -0.215,-0.015 -0.32,-0.043 -0.106,0 -0.2,-0.011 -0.282,-0.039 0.137,0.082 0.282,0.133 0.442,0.161 l -0.16,0.16 c -0.16,0.105 -0.266,0.242 -0.321,0.402 0.028,0.051 0.043,0.106 0.043,0.156 0.024,0.16 0.067,0.387 0.118,0.684 v 0.316 l 0.882,0.922 c 0.043,0.028 0.09,0.055 0.137,0.078 0.086,0.055 0.172,0.11 0.262,0.16 v -0.019 l -0.602,-2.18 c 0.028,-0.051 0.055,-0.093 0.082,-0.117 0.028,-0.027 0.039,-0.055 0.039,-0.082 l 0.52,-0.398 v -0.039 h 0.039 C 23.934,12.454 23.973,12.427 24,12.4 c 0.078,-0.028 0.148,-0.051 0.199,-0.079 0.055,0.028 0.094,0.039 0.121,0.039 l 0.16,0.122 c 0.051,0.023 0.094,0.05 0.118,0.078 0.16,0.132 0.281,0.293 0.363,0.48 0.023,0.027 0.039,0.051 0.039,0.078 0.027,0.055 0.051,0.121 0.078,0.203 0.027,0.133 0.067,0.348 0.121,0.637 0.028,0.16 0.055,0.297 0.078,0.402 l 0.961,0.68 c 0.129,0.063 0.262,0.117 0.403,0.16 -0.883,-0.718 -1.161,-1.398 -0.84,-2.039 0,-0.027 0.011,-0.054 0.039,-0.082 0.082,-0.16 0.199,-0.304 0.359,-0.437 0.055,-0.055 0.106,-0.094 0.16,-0.121 0.079,-0.082 0.161,-0.133 0.239,-0.161 0.027,-0.027 0.054,-0.039 0.082,-0.039 -0.188,-0.054 -0.375,-0.066 -0.559,-0.043 l -0.402,-0.039 -0.598,-0.121 c 0.133,-0.636 0.824,-1.183 2.078,-1.636 h -0.078 l -0.402,0.039 c -0.453,0.105 -0.891,0.238 -1.321,0.398 -0.078,0.106 -0.183,0.227 -0.32,0.359 -0.238,0.27 -0.426,0.457 -0.558,0.563 -0.051,0.051 -0.118,0.105 -0.2,0.16 L 23.281,11.88 22.762,11.802 C 22.734,11.72 22.723,11.642 22.723,11.56 22.695,10.868 23.32,10.239 24.602,9.681 h -0.043 l -0.36,0.078 c -0.508,0.109 -0.984,0.281 -1.437,0.519 -0.055,0.082 -0.121,0.161 -0.203,0.243 -0.211,0.265 -0.371,0.453 -0.481,0.558 -0.051,0.055 -0.105,0.106 -0.156,0.16 -0.027,0.133 -0.027,0.282 0,0.442 L 21.398,11.599 21,11.521 20.52,11.439 H 20.48 C 20.348,11.255 20.266,11.052 20.238,10.841 20.188,10.091 20.773,9.439 22,8.88 l -0.199,0.039 -1.16,0.359 C 20.613,9.294 20.586,9.306 20.559,9.321 20.543,9.333 20.531,9.349 20.52,9.36 h -0.04 c -0.105,0.106 -0.253,0.282 -0.441,0.52 -0.238,0.266 -0.414,0.453 -0.519,0.559 -0.028,0.027 -0.067,0.054 -0.122,0.082 v 0.039 l 0.043,0.359 v 0.039 h 0.039 c 0.028,0.082 0.051,0.16 0.079,0.242 -0.266,-0.082 -0.547,-0.16 -0.84,-0.242 -0.051,-0.023 -0.106,-0.039 -0.16,-0.039 -0.106,-0.027 -0.2,-0.066 -0.278,-0.117 C 18.172,10.775 18.066,10.747 17.961,10.72 17.828,10.505 17.746,10.294 17.719,10.079 17.668,9.349 18.227,8.72 19.398,8.2 19.43,8.185 19.457,8.169 19.48,8.157 19.426,8.157 19.387,8.173 19.359,8.2 H 19.238 C 18.68,8.306 18.16,8.482 17.68,8.72 17.547,8.802 17.441,8.88 17.359,8.958 L 17.32,9.001 c -0.105,0.133 -0.199,0.238 -0.281,0.316 0,0.028 -0.012,0.071 -0.039,0.122 -0.105,0.242 -0.121,0.48 -0.039,0.718 0.027,0.11 0.066,0.188 0.117,0.243 H 17 L 16.078,10.079 C 16,10.025 15.906,9.985 15.801,9.958 15.613,9.88 15.426,9.798 15.238,9.72 15.133,9.532 15.078,9.345 15.078,9.157 15,8.384 15.559,7.743 16.762,7.239 H 16.641 L 16.359,7.317 C 15.879,7.4 15.453,7.532 15.078,7.72 15,7.853 14.906,8.013 14.801,8.2 c -0.16,0.266 -0.281,0.453 -0.36,0.559 -0.054,0.082 -0.109,0.148 -0.16,0.199 0,0.082 0.012,0.176 0.039,0.281 0,0.055 0.012,0.094 0.039,0.121 L 14,9.2 C 13.785,9.091 13.559,9.001 13.32,8.919 13.133,8.814 12.945,8.72 12.762,8.638 h 0.039 c 0,-0.024 -0.016,-0.051 -0.039,-0.078 -0.16,-0.719 0.265,-1.387 1.277,-2 C 13.453,6.692 12.945,6.931 12.52,7.278 12.254,7.493 12.094,7.732 12.039,7.997 12.012,8.079 12,8.157 12,8.239 11.922,8.212 11.828,8.173 11.719,8.118 11.453,7.958 11.172,7.814 10.879,7.677 10.719,7.571 10.559,7.478 10.398,7.4 c 0,-0.547 0.383,-1.04 1.141,-1.481 0.02,-0.016 0.039,-0.031 0.063,-0.043 -0.028,0 -0.055,0.016 -0.082,0.043 L 11.199,5.958 C 10.855,6.067 10.535,6.228 10.238,6.442 10.027,6.603 9.879,6.802 9.801,7.04 8.199,6.079 6.707,5.04 5.32,3.919 4.941,3.618 4.547,3.278 4.141,2.903 l 0.078,0.059 c 0.07,0.027 0.129,0.051 0.179,0.078 0.247,0.145 0.489,0.277 0.723,0.402 1.016,0.379 1.883,0.676 2.598,0.879 1.176,0.348 2.109,0.52 2.801,0.52 1.121,0.027 1.972,-0.215 2.558,-0.719 0.508,-0.426 0.789,-0.972 0.844,-1.64 0.051,-0.481 -0.055,-1.04 -0.32,-1.68 -0.11,-0.32 -0.227,-0.586 -0.364,-0.801 0.11,0.215 0.203,0.481 0.282,0.801 0.16,0.613 0.214,1.133 0.16,1.558 -0.215,1.122 -0.879,1.774 -2,1.961 -0.907,0.161 -2.106,0 -3.602,-0.48 C 7.359,3.603 6.613,3.306 5.84,2.958 5.922,2.958 6,2.974 6.078,3.001 7.734,3.349 8.973,3.294 9.801,2.841 10.625,2.415 11.188,2.028 11.48,1.681 11.641,1.493 11.707,1.36 11.68,1.282 11.602,1.415 11.453,1.56 11.238,1.72 10.84,2.04 10.359,2.294 9.801,2.482 8.305,2.989 6.52,2.919 4.441,2.282 3.828,1.962 3.32,1.681 2.922,1.442 2.84,1.255 2.746,1.095 2.641,0.958 2.559,0.907 2.469,0.868 2.359,0.841 2.121,0.759 1.895,0.775 1.68,0.88 L 1.441,1.2 C 1.414,1.2 1.398,1.216 1.398,1.239 h 0.024 c 0.183,-0.07 0.387,-0.031 0.617,0.121 0.082,0.055 0.149,0.106 0.199,0.161 0.11,0.105 0.231,0.226 0.364,0.359 0.16,0.187 0.332,0.398 0.519,0.641 0.078,0.132 0.16,0.254 0.238,0.359 0.055,0.055 0.106,0.121 0.161,0.199 0.16,0.242 0.386,0.586 0.679,1.039 0.16,0.242 0.336,0.524 0.52,0.84 0.027,0 0.043,0.016 0.043,0.043 0.636,0.984 1.16,1.774 1.558,2.359 0.559,0.774 1.227,1.707 2,2.801 C 8.16,10.052 7.988,9.985 7.801,9.958 H 7.719 C 7.586,9.939 7.457,9.942 7.34,9.982 7.27,9.88 7.195,9.778 7.121,9.681 7.145,9.732 7.172,9.775 7.199,9.802 7.227,9.876 7.258,9.935 7.301,9.982 L 7.32,10.001 H 7.281 l -0.16,0.078 -0.043,0.039 c -0.266,0.16 -0.465,0.43 -0.598,0.801 v 0.039 l -0.242,1.684 v 0.117 C 6.559,11.482 7.094,10.802 7.84,10.72 h 0.238 c 0.027,0 0.055,0.015 0.082,0.039 h 0.121 c 0.078,0.027 0.172,0.055 0.278,0.082 0.136,0.051 0.242,0.117 0.32,0.199 V 11.001 L 8.84,10.88 c 1.039,1.441 2.281,3.145 3.719,5.121 0.109,0.16 0.226,0.32 0.363,0.481 0.211,0.293 0.41,0.57 0.598,0.839 0.054,0.079 0.105,0.161 0.16,0.239 0.375,0.535 0.734,1.015 1.082,1.441 0.211,0.293 0.41,0.559 0.597,0.801 0.055,0.105 0.106,0.199 0.161,0.277 0.32,0.426 0.601,0.801 0.839,1.121 0.243,0.321 0.442,0.586 0.602,0.801 0.16,0.184 0.293,0.348 0.398,0.481 H 17.32 c -0.132,-0.11 -0.281,-0.176 -0.441,-0.204 -0.078,-0.078 -0.16,-0.171 -0.238,-0.277 -0.055,-0.082 -0.121,-0.16 -0.2,-0.242 0.051,0.187 0.145,0.348 0.278,0.48 h -0.278 c -0.187,0.028 -0.363,0.094 -0.519,0.2 -0.027,0.082 -0.067,0.148 -0.121,0.203 -0.082,0.183 -0.215,0.449 -0.403,0.797 -0.078,0.109 -0.144,0.214 -0.199,0.32 l 0.16,2.043 c 0.051,-1.5 0.489,-2.383 1.321,-2.641 0.265,-0.109 0.558,-0.136 0.879,-0.082 h 0.043 c 0.023,0 0.066,0.016 0.117,0.039 0.109,0.028 0.187,0.055 0.242,0.082 0.027,0.028 0.051,0.067 0.078,0.121 l 0.039,0.2 c 0.027,0.078 0.043,0.16 0.043,0.238 0.024,0.242 0,0.496 -0.082,0.762 0,0.027 -0.012,0.066 -0.039,0.121 -0.027,0.078 -0.055,0.16 -0.078,0.238 -0.082,0.187 -0.203,0.453 -0.363,0.801 -0.106,0.16 -0.184,0.304 -0.239,0.437 l 0.36,1.922 c 0.011,0.039 0.023,0.078 0.039,0.121 -0.133,-1.496 0.176,-2.441 0.922,-2.84 0.027,-0.027 0.054,-0.043 0.078,-0.043 0.187,-0.105 0.386,-0.16 0.601,-0.16 h 0.399 c 0.109,0 0.203,0.016 0.281,0.043 -0.188,-0.293 -0.426,-0.508 -0.719,-0.64 -0.027,-0.028 -0.054,-0.039 -0.082,-0.039 -0.027,-0.028 -0.054,-0.067 -0.078,-0.122 -0.109,-0.132 -0.215,-0.265 -0.32,-0.402 -0.028,-0.023 -0.055,-0.066 -0.082,-0.117 v -0.039 c 0.586,-0.668 1.613,-0.707 3.082,-0.121 z M 18.078,14.2 c 0.11,0.09 0.215,0.184 0.32,0.282 -0.656,-1.079 -0.75,-1.903 -0.277,-2.481 0.16,-0.16 0.359,-0.293 0.598,-0.402 0,-0.024 0.015,-0.039 0.043,-0.039 0.105,-0.055 0.211,-0.078 0.316,-0.078 -0.238,-0.161 -0.504,-0.243 -0.797,-0.243 -0.16,0 -0.308,0.028 -0.441,0.082 l -0.039,0.039 c -0.082,0.028 -0.16,0.067 -0.242,0.122 -0.211,0.16 -0.348,0.371 -0.399,0.636 0,0.028 -0.015,0.067 -0.039,0.121 0.024,0.106 0.039,0.243 0.039,0.403 v 0.039 c 0.028,0.133 0.078,0.265 0.16,0.398 z M 21,15.079 C 20.988,15.064 20.973,15.04 20.961,15.021 20.273,14.009 20.18,13.216 20.68,12.642 20.84,12.454 21.055,12.306 21.32,12.2 v -0.039 h 0.039 c 0.028,0 0.039,-0.015 0.039,-0.043 0.082,-0.023 0.161,-0.039 0.243,-0.039 -0.243,-0.16 -0.508,-0.226 -0.801,-0.199 -0.133,0.027 -0.254,0.055 -0.36,0.078 -0.082,0.027 -0.148,0.055 -0.199,0.082 h -0.043 l -0.078,0.078 -0.039,0.043 c -0.133,0.106 -0.242,0.227 -0.32,0.36 0,0.027 0.011,0.066 0.039,0.121 0.027,0.16 0.055,0.398 0.082,0.718 0.023,0.266 0.051,0.481 0.078,0.641 l 0.301,0.418 c 0.195,0.234 0.426,0.457 0.699,0.66 z m -2.32,9.281 c -0.078,0 -0.172,0.012 -0.282,0.04 0.028,-0.079 0.067,-0.161 0.122,-0.239 z M 2.441,4.4 C 2.359,4.189 2.293,3.958 2.238,3.72 2.105,3.294 1.973,2.919 1.84,2.603 1.762,2.466 1.68,2.349 1.602,2.239 1.492,2.028 1.398,1.853 1.32,1.72 1.398,2.04 1.48,2.415 1.559,2.841 1.719,3.72 1.801,4.454 1.801,5.04 1.773,5.786 1.652,6.532 1.441,7.282 1.199,8.052 0.961,8.521 0.719,8.681 0.508,8.814 0.32,8.853 0.16,8.802 0.105,8.802 0.066,8.786 0.039,8.759 L 0,8.72 C 0.055,8.802 0.121,8.868 0.199,8.919 0.387,9.052 0.586,9.067 0.801,8.958 0.988,8.907 1.172,8.759 1.359,8.521 1.625,8.228 1.855,7.841 2.039,7.36 2.332,6.56 2.465,5.571 2.441,4.4 Z m 22.68,8.16 0.238,0.039 c -0.082,0.054 -0.148,0.121 -0.199,0.203 -0.027,-0.082 -0.039,-0.16 -0.039,-0.242 z m -13.402,5.359 c -0.078,0.106 -0.172,0.242 -0.278,0.402 0,0.028 -0.015,0.051 -0.043,0.079 -0.05,0.132 -0.093,0.292 -0.117,0.48 -0.027,0.16 -0.054,0.305 -0.082,0.441 l 0.082,1.637 c 0.012,0.043 0.024,0.082 0.039,0.121 0.106,-1.574 0.602,-2.48 1.481,-2.719 0.265,-0.054 0.547,-0.054 0.84,0 h 0.039 c 0.16,0.051 0.293,0.106 0.398,0.161 C 13.945,18.2 13.746,17.935 13.48,17.72 13.32,17.614 13.16,17.548 13,17.521 h -0.039 c -0.106,-0.028 -0.215,-0.039 -0.32,-0.039 -0.321,0 -0.602,0.105 -0.84,0.32 -0.028,0.051 -0.055,0.09 -0.082,0.117 z m -2.481,-1.68 v 2.082 l 0.043,0.039 c 0.16,-1.546 0.664,-2.425 1.52,-2.64 0.238,-0.051 0.504,-0.051 0.801,0 0.023,0 0.05,0.015 0.078,0.039 h 0.039 c 0.16,0.027 0.281,0.066 0.359,0.121 -0.105,-0.32 -0.293,-0.586 -0.558,-0.801 -0.133,-0.078 -0.254,-0.133 -0.36,-0.16 -0.082,-0.027 -0.16,-0.051 -0.238,-0.078 -0.082,-0.027 -0.176,-0.039 -0.281,-0.039 -0.106,0 -0.2,0.012 -0.282,0.039 -0.054,0.105 -0.121,0.199 -0.199,0.277 -0.105,0.16 -0.265,0.375 -0.48,0.641 -0.188,0.215 -0.332,0.375 -0.442,0.48 z M 7.641,15.458 c 0.375,-1.398 0.976,-2.137 1.8,-2.219 H 9.68 c 0.132,0.028 0.254,0.055 0.359,0.082 0.082,0.028 0.149,0.051 0.199,0.079 0.137,0.054 0.254,0.121 0.364,0.199 C 10.52,13.278 10.375,13.001 10.16,12.759 9.945,12.548 9.707,12.427 9.441,12.4 L 9.398,12.36 h -0.32 c -0.156,0.028 -0.316,0.094 -0.476,0.2 -0.27,0.187 -0.481,0.48 -0.641,0.879 v 0.043 L 7.922,13.521 7.641,15.36 Z m 7.32,4.543 c -0.133,-0.055 -0.281,-0.082 -0.441,-0.082 -0.188,0 -0.36,0.039 -0.52,0.121 -0.027,0.051 -0.055,0.106 -0.078,0.16 -0.082,0.188 -0.227,0.442 -0.442,0.758 -0.187,0.32 -0.32,0.563 -0.402,0.723 v 0.039 c -0.043,0.59 -0.004,1.191 0.121,1.801 0.133,-1.575 0.629,-2.469 1.481,-2.68 0.265,-0.082 0.558,-0.082 0.879,0 h 0.16 l 0.16,0.078 h 0.043 c 0,0.027 0.012,0.039 0.039,0.039 -0.133,-0.316 -0.336,-0.57 -0.602,-0.758 -0.132,-0.105 -0.265,-0.175 -0.398,-0.199 z M 13.16,12.36 C 13.133,12.278 13.105,12.185 13.078,12.079 13.055,12.107 13.027,12.118 13,12.118 l 0.039,0.082 c 0.031,0.055 0.07,0.11 0.121,0.16 z m 1.961,-0.16 c -0.133,-0.054 -0.293,-0.093 -0.48,-0.121 V 12.2 l 0.519,0.879 0.281,0.16 C 15.254,12.841 15.145,12.493 15.121,12.2 Z M 14.68,11.72 c 0.054,0.055 0.121,0.105 0.199,0.16 l 0.242,0.238 c -0.027,-0.398 0.078,-0.73 0.32,-1 0.133,-0.133 0.293,-0.238 0.481,-0.316 0.051,-0.027 0.105,-0.055 0.156,-0.082 0.137,-0.028 0.242,-0.051 0.32,-0.078 -0.238,-0.16 -0.492,-0.254 -0.757,-0.282 -0.133,0 -0.254,0.012 -0.36,0.04 -0.082,0.027 -0.16,0.054 -0.242,0.082 -0.051,0.023 -0.094,0.05 -0.117,0.078 -0.082,0.054 -0.149,0.105 -0.203,0.16 v 0.281 c 0,0.16 -0.012,0.387 -0.039,0.68 z m -2,-2.238 c -0.078,0.078 -0.149,0.16 -0.2,0.238 0.106,0.082 0.188,0.172 0.239,0.281 L 12.68,9.958 C 12.602,9.935 12.52,9.907 12.441,9.88 c -0.054,0.187 -0.066,0.375 -0.043,0.559 0.028,0.027 0.067,0.05 0.122,0.082 l 0.402,0.16 C 12.973,10.36 13.121,10.118 13.359,9.958 13.414,9.907 13.465,9.868 13.52,9.841 13.602,9.814 13.695,9.786 13.801,9.759 13.855,9.735 13.906,9.72 13.961,9.72 14.094,9.692 14.199,9.681 14.281,9.681 14.094,9.493 13.867,9.36 13.602,9.278 13.359,9.228 13.133,9.239 12.922,9.321 12.812,9.372 12.734,9.427 12.68,9.482 Z"
   inkscape:connector-curvature="0" />
    </g>
  </g>
<metadata
   id="metadata7"><rdf:RDF><cc:Work><dc:format>image/svg+xml</dc:format><dc:type
         rdf:resource="http://purl.org/dc/dcmitype/StillImage" /><cc:license
         rdf:resource="http://creativecommons.org/publicdomain/zero/1.0/" /><dc:publisher><cc:Agent
           rdf:about="http://openclipart.org/"><dc:title>OpenGameArt.org</dc:title></cc:Agent></dc:publisher><dc:title>Grain</dc:title><dc:source>https://opengameart.org/node/20149</dc:source><dc:creator><cc:Agent><dc:title>glitch</dc:title></cc:Agent></dc:creator></cc:Work><cc:License
       rdf:about="http://creativecommons.org/publicdomain/zero/1.0/"><cc:permits
         rdf:resource="http://creativecommons.org/ns#Reproduction" /><cc:permits
         rdf:resource="http://creativecommons.org/ns#Distribution" /><cc:permits
         rdf:resource="http://creativecommons.org/ns#DerivativeWorks" /></cc:License></rdf:RDF></metadata></svg>